<svg xmlns="http://www.w3.org/2000/svg" viewBox="0 0 43.77 38.69"><defs><style>.cls-1{fill:#6e6864;}.cls-2{fill:none;stroke:#6e6864;stroke-miterlimit:10;stroke-width:1.4px;}</style></defs><g id="Capa_2" data-name="Capa 2"><g id="Capa_1-2" data-name="Capa 1"><path class="cls-1" d="M20.33,22.24v1.3h-10V8.63h9.83v1.3H11.79v5.38h7.28v1.24H11.79v5.69Z"/><path class="cls-1" d="M24.58,11.34v12.2H23.11V8.63h1.21l9.79,12.43V8.65h1.47V23.54H34.21Z"/><path class="cls-2" d="M37.86,31.49H18.76l-8.94,5.9v-5.9H5.91A5.21,5.21,0,0,1,.7,26.28V5.91A5.21,5.21,0,0,1,5.91.7h32a5.21,5.21,0,0,1,5.21,5.21V26.28A5.21,5.21,0,0,1,37.86,31.49Z"/></g></g></svg>