<?xml version="1.0" encoding="utf-8"?>
<!-- Generator: Adobe Illustrator 26.1.0, SVG Export Plug-In . SVG Version: 6.00 Build 0)  -->
<svg version="1.1" id="Capa_1" xmlns="http://www.w3.org/2000/svg" xmlns:xlink="http://www.w3.org/1999/xlink" x="0px" y="0px"
	 viewBox="0 0 300 300" style="enable-background:new 0 0 300 300;" xml:space="preserve">
<style type="text/css">
	.st0{fill:#8B6F4B;}
</style>
<g>
	<path class="st0" d="M282.8,201.6c-0.2-0.2-0.3-0.4-0.5-0.6C282.6,201.2,282.7,201.4,282.8,201.6z"/>
	<path class="st0" d="M160,115.6v1.5c1,0.9,1.6,2.2,1.6,3.7c0,2.8-2.3,5-5,5c-2,0-3.7-1.2-4.5-2.8h-1.3c0.9,2.3,3.2,4,5.8,4
		c3.4,0,6.2-2.8,6.2-6.2C162.8,118.6,161.7,116.7,160,115.6z"/>
	<path class="st0" d="M145.8,127.2c-0.4-1-0.6-2.1-0.6-3.3c0.1-5,4.2-8.9,9.2-8.9c2.2,0,4.2,0.9,5.7,2.2l0-1.5
		c-1.6-1.2-3.6-1.9-5.7-1.9c-5.6-0.1-10.3,4.4-10.4,10c0,1.2,0.2,2.3,0.5,3.3L145.8,127.2z"/>
	<ellipse transform="matrix(0.8517 -0.5241 0.5241 0.8517 -41.9956 97.5718)" class="st0" cx="151.4" cy="123" rx="0.6" ry="0.8"/>
	<g>
		<path class="st0" d="M290.7,194.3c-0.1-0.1-0.2-0.2-0.4-0.3c0,0,0,0,0,0c-4.2-4.6-25.2-27-56.3-41.7c-0.1,1.7-0.9,3.2-2.2,4.2
			c-0.6,0.9-1.3,1.6-2,2.4c29.3,14.3,48,36.4,52.6,42.2c0.2,0.2,0.3,0.4,0.5,0.6c0,0,0,0,0,0c0.2,0.2,0.5,0.4,0.7,0.6
			c2,1.4,4.8,1.2,6.7-0.6C292.4,199.7,292.6,196.4,290.7,194.3z"/>
		<path class="st0" d="M200.2,141.1c-28.3-5.3-52.3,0-68.8,6.3c0,0.1,0,0.2-0.1,0.2c-0.2,0.6-0.5,1.2-1,1.6c-0.5,0.5-1,0.8-1.6,1
			c-0.4,0.2-0.8,0.3-1.2,0.4c-0.2,0-0.3,0.1-0.5,0.1c-0.4,0.2-0.8,0.4-1.2,0.6c-0.7,0.3-1.4,0.6-2.1,0.8c-0.7,0.2-1.5,0.3-2.3,0.4
			c-0.5,0-0.9-0.1-1.4-0.2c-7.8,3.9-12.1,7.1-12.1,7.1l2.9,2.2c0,0,10.9-9.3,33.5-13.8c0.8-1.7,2.2-3.3,3.8-4.1
			c2.1-1.1,4.3-1.4,6.7-1.5c1.7,0,3.4,0.1,5,0.3c1.3,0.1,2.6,0.4,4,0.3c1.9-0.1,3.4,1.1,4.3,2.6c7.6-0.1,15.9,0.4,25.1,1.8
			c3.4,0.5,6.7,1.1,9.9,1.9c-0.1-2.4,0.5-4.8,1.9-6.7c0-0.1,0.1-0.2,0.2-0.3C203.6,141.8,201.9,141.4,200.2,141.1z"/>
		<path class="st0" d="M226.8,89.3c-13.6,0-24.7,11-24.7,24.7s11,24.7,24.7,24.7s24.7-11,24.7-24.7S240.5,89.3,226.8,89.3z
			 M228.9,130.2c-10,0-18.2-8.1-18.2-18.2c0-10,8.1-18.2,18.2-18.2c10,0,18.2,8.1,18.2,18.2C247,122,238.9,130.2,228.9,130.2z"/>
		<path class="st0" d="M197.9,159.9c-13.6,0-24.7,11-24.7,24.7s11,24.7,24.7,24.7s24.7-11,24.7-24.7S211.6,159.9,197.9,159.9z
			 M199.9,200.8c-10,0-18.2-8.1-18.2-18.2c0-10,8.1-18.2,18.2-18.2s18.2,8.1,18.2,18.2C218.1,192.6,210,200.8,199.9,200.8z"/>
		<path class="st0" d="M254.9,121c-12.3,0-22.3,10-22.3,22.3c0,12.3,10,22.3,22.3,22.3c12.3,0,22.3-10,22.3-22.3
			C277.1,131,267.2,121,254.9,121z M256.9,157.2c-8.8,0-15.9-7.1-15.9-15.9c0-8.8,7.1-15.9,15.9-15.9c8.8,0,15.9,7.1,15.9,15.9
			C272.8,150.1,265.7,157.2,256.9,157.2z"/>
		<path class="st0" d="M186,98.2c-12.3,0-22.3,10-22.3,22.3c0,12.3,10,22.3,22.3,22.3c12.3,0,22.3-10,22.3-22.3
			C208.3,108.1,198.3,98.2,186,98.2z M188,134.3c-8.8,0-15.9-7.1-15.9-15.9s7.1-15.9,15.9-15.9c8.8,0,15.9,7.1,15.9,15.9
			S196.8,134.3,188,134.3z"/>
		<path class="st0" d="M96.6,154c-12.3,0-22.3,10-22.3,22.3c0,12.3,10,22.3,22.3,22.3c12.3,0,22.3-10,22.3-22.3
			C118.9,164,108.9,154,96.6,154z M98.6,190.2c-8.8,0-15.9-7.1-15.9-15.9c0-8.8,7.1-15.9,15.9-15.9s15.9,7.1,15.9,15.9
			C114.6,183.1,107.4,190.2,98.6,190.2z"/>
		<path class="st0" d="M218.5,130.6c-10.3,0-18.6,8.3-18.6,18.6c0,10.3,8.3,18.6,18.6,18.6c10.3,0,18.6-8.3,18.6-18.6
			C237.2,138.9,228.8,130.6,218.5,130.6z M220.5,160c-7.1,0-12.8-5.7-12.8-12.8c0-7.1,5.7-12.8,12.8-12.8c7.1,0,12.8,5.7,12.8,12.8
			C233.3,154.3,227.6,160,220.5,160z"/>
		<path class="st0" d="M118.8,121.6c-10.3,0-18.6,8.3-18.6,18.6c0,10.3,8.3,18.6,18.6,18.6s18.6-8.3,18.6-18.6
			C137.4,130,129.1,121.6,118.8,121.6z M120.8,151.1c-7.1,0-12.8-5.7-12.8-12.8c0-7.1,5.7-12.8,12.8-12.8s12.8,5.7,12.8,12.8
			C133.6,145.3,127.9,151.1,120.8,151.1z"/>
		<path class="st0" d="M155.9,139.2c-10.3,0-18.6,8.3-18.6,18.6c0,10.3,8.3,18.6,18.6,18.6c10.3,0,18.6-8.3,18.6-18.6
			C174.5,147.6,166.2,139.2,155.9,139.2z M157.9,168.7c-7.1,0-12.8-5.7-12.8-12.8c0-7.1,5.7-12.8,12.8-12.8
			c7.1,0,12.8,5.7,12.8,12.8C170.7,162.9,165,168.7,157.9,168.7z"/>
		<path class="st0" d="M65,136.1c-10.3,0-18.6,8.3-18.6,18.6c0,10.3,8.3,18.6,18.6,18.6s18.6-8.3,18.6-18.6
			C83.6,144.4,75.3,136.1,65,136.1z M67,165.5c-7.1,0-12.8-5.7-12.8-12.8c0-7.1,5.7-12.8,12.8-12.8s12.8,5.7,12.8,12.8
			C79.8,159.8,74,165.5,67,165.5z"/>
		<path class="st0" d="M25.6,172.6c-10.3,0-18.6,8.3-18.6,18.6s8.3,18.6,18.6,18.6c10.3,0,18.6-8.3,18.6-18.6S35.9,172.6,25.6,172.6
			z M27.6,202c-7.1,0-12.8-5.7-12.8-12.8c0-7.1,5.7-12.8,12.8-12.8s12.8,5.7,12.8,12.8C40.4,196.3,34.7,202,27.6,202z"/>
		<path class="st0" d="M144.3,126.3c0,0,2.3,12.3,15,14.6h8.9c0,0-19-1.7-22.5-14L144.3,126.3z"/>
		<path class="st0" d="M165,205.9c0,0,12.3-2.3,14.6-15V182c0,0-1.7,19-14,22.5L165,205.9z"/>
		<path class="st0" d="M154.3,190.2h1.5c0.9-1,2.2-1.6,3.7-1.6c2.8,0,5,2.3,5,5c0,2-1.2,3.7-2.8,4.5v1.3c2.3-0.9,4-3.2,4-5.8
			c0-3.4-2.8-6.2-6.2-6.2C157.3,187.4,155.4,188.5,154.3,190.2z"/>
		<path class="st0" d="M165.9,204.4c-1,0.4-2.1,0.6-3.3,0.6c-5-0.1-8.9-4.2-8.9-9.2c0-2.2,0.9-4.2,2.2-5.7l-1.5,0
			c-1.2,1.6-1.9,3.6-1.9,5.7c-0.1,5.6,4.4,10.3,10,10.4c1.2,0,2.3-0.2,3.3-0.5L165.9,204.4z"/>
		
			<ellipse transform="matrix(0.8517 -0.5241 0.5241 0.8517 -80.2244 114.1967)" class="st0" cx="161.6" cy="198.8" rx="0.8" ry="0.6"/>
		<path class="st0" d="M38.7,127.7c0,0-4.3,12.3,9.5,24.7l4.2-0.3c0,0-15.7-10.7-12.8-23.2L38.7,127.7z"/>
		<path class="st0" d="M57.6,126.1l-0.7,1.3c0.4,1.3,0.3,2.7-0.4,4c-1.4,2.4-4.4,3.3-6.9,1.9c-1.7-1-2.7-2.8-2.6-4.7l-1.1-0.6
			c-0.4,2.5,0.8,5,3.1,6.3c3,1.7,6.8,0.6,8.5-2.4C58.5,130.1,58.5,127.8,57.6,126.1z"/>
		<path class="st0" d="M39.6,129.3c0.2-1.1,0.5-2.2,1.1-3.2c2.5-4.3,8-5.7,12.3-3.2c1.9,1.1,3.2,2.8,3.9,4.7l0.8-1.3
			c-0.9-1.8-2.2-3.4-4.1-4.5c-4.9-2.8-11.1-1.2-14,3.7c-0.6,1-1,2.1-1.2,3.1L39.6,129.3z"/>
		
			<ellipse transform="matrix(0.9992 -4.033645e-02 4.033645e-02 0.9992 -5.136 1.9792)" class="st0" cx="46.5" cy="128.3" rx="0.6" ry="0.8"/>
		<path class="st0" d="M107,159.2v1.3c-0.2,0-0.5,0-0.7,0c-2.9,0-5.2,2.3-5.2,5.2c0,0.6,0.1,1.3,0.3,1.8h-1.4
			c-0.2-0.6-0.3-1.2-0.3-1.8c0-3.6,2.9-6.5,6.5-6.5C106.6,159.2,106.8,159.2,107,159.2z"/>
		<circle class="st0" cx="100.9" cy="169.4" r="3.2"/>
		<path class="st0" d="M167,144.2v1.3c-0.2,0-0.5,0-0.7,0c-2.9,0-5.2,2.3-5.2,5.2c0,0.6,0.1,1.3,0.3,1.8H160
			c-0.2-0.6-0.3-1.2-0.3-1.8c0-3.6,2.9-6.5,6.5-6.5C166.5,144.1,166.8,144.2,167,144.2z"/>
		<circle class="st0" cx="160.9" cy="154.4" r="3.2"/>
		<path class="st0" d="M204.6,163.5v1.3c-0.2,0-0.5,0-0.7,0c-2.9,0-5.2,2.3-5.2,5.2c0,0.6,0.1,1.3,0.3,1.8h-1.4
			c-0.2-0.6-0.3-1.2-0.3-1.8c0-3.6,2.9-6.5,6.5-6.5C204.1,163.4,204.4,163.4,204.6,163.5z"/>
		<circle class="st0" cx="198.5" cy="173.6" r="3.2"/>
		<path class="st0" d="M127.6,125.6v1.3c-0.2,0-0.5,0-0.7,0c-2.9,0-5.2,2.3-5.2,5.2c0,0.6,0.1,1.3,0.3,1.8h-1.4
			c-0.2-0.6-0.3-1.2-0.3-1.8c0-3.6,2.9-6.5,6.5-6.5C127.2,125.5,127.4,125.5,127.6,125.6z"/>
		<circle class="st0" cx="121.5" cy="135.8" r="3.2"/>
		<path class="st0" d="M66.9,138.2v1.3c-0.2,0-0.5,0-0.7,0c-2.9,0-5.2,2.3-5.2,5.2c0,0.6,0.1,1.3,0.3,1.8H60
			c-0.2-0.6-0.3-1.2-0.3-1.8c0-3.6,2.9-6.5,6.5-6.5C66.5,138.2,66.7,138.2,66.9,138.2z"/>
		<circle class="st0" cx="60.8" cy="148.4" r="3.2"/>
		<circle class="st0" cx="23" cy="179.5" r="3.2"/>
		<path class="st0" d="M173.6,128.3l0.9-0.9c0.1,0.2,0.3,0.4,0.5,0.5c2,2,5.3,2,7.4,0c0.5-0.5,0.8-1,1.1-1.5l1,1
			c-0.3,0.5-0.7,1-1.1,1.5c-2.6,2.6-6.7,2.6-9.2,0C173.9,128.6,173.8,128.4,173.6,128.3z"/>
		<circle class="st0" cx="185.1" cy="125.4" r="3.2"/>
		<circle class="st0" cx="230.2" cy="143.4" r="3.2"/>
		<path class="st0" d="M243.2,152.8l0.9-0.9c0.1,0.2,0.3,0.4,0.5,0.5c2,2,5.3,2,7.4,0c0.5-0.5,0.8-1,1.1-1.5l1,1
			c-0.3,0.5-0.7,1-1.1,1.5c-2.6,2.6-6.7,2.6-9.2,0C243.5,153.2,243.3,153,243.2,152.8z"/>
		<circle class="st0" cx="254.7" cy="149.9" r="3.2"/>
		<path class="st0" d="M33.7,177.2c6-13,20.6-10.8,20.6-10.8l-2.2-1.8c0,0-14.6-2.2-20.6,10.8"/>
	</g>
</g>
</svg>
