<svg xmlns="http://www.w3.org/2000/svg" viewBox="0 0 450.78 54.33"><defs><style>.cls-1{fill:#fff;}</style></defs><g id="Capa_2" data-name="Capa 2"><g id="area_seguridad" data-name="area seguridad"><path class="cls-1" d="M248.05,7.09v0A8.6,8.6,0,0,1,249.38,7c1.24,0,1.43.41,1.45.46a.2.2,0,0,0,.17.1h.06a.09.09,0,0,0,.08,0,.14.14,0,0,0,0-.14,1.72,1.72,0,0,0-1.57-.94,5.19,5.19,0,0,0-1.41,0c-.2,0-.26.5-.26.5a.14.14,0,0,0,0,.12s.11,0,.14,0"/><path class="cls-1" d="M245.93,7.62h0a3.22,3.22,0,0,0-1-.11,1.51,1.51,0,0,0-1.39.72.22.22,0,0,0,0,.17.16.16,0,0,0,.09,0,.24.24,0,0,0,.29-.12s.07-.2.54-.32h0V8a.51.51,0,0,0,0,.2.55.55,0,1,0,1.1,0A.54.54,0,0,0,245.5,8a0,0,0,0,1,0,0h0a.74.74,0,0,1,.43.38c0,.06.09.1.32.1.05,0,.11,0,.14,0a.1.1,0,0,0,0-.07,1.09,1.09,0,0,0-.5-.75"/><path class="cls-1" d="M248,8.49c.22,0,.29,0,.32-.11a.75.75,0,0,1,.42-.38h0a0,0,0,0,1,0,0,.54.54,0,0,0-.05.22.55.55,0,1,0,1.1,0,.52.52,0,0,0,0-.21V8h0c.46.11.54.31.54.33a.22.22,0,0,0,.28.11c.05,0,.08,0,.09,0s0-.1,0-.17a1.51,1.51,0,0,0-1.39-.72,3,3,0,0,0-1,.11,1.12,1.12,0,0,0-.5.74.11.11,0,0,0,0,.08.17.17,0,0,0,.14.05"/><path class="cls-1" d="M243.21,7.52h.07a.2.2,0,0,0,.17-.1s.31-.74,2.78-.34a.17.17,0,0,0,.14,0,.14.14,0,0,0,0-.12s-.06-.47-.26-.5a4.57,4.57,0,0,0-.85-.07,4.5,4.5,0,0,0-.55,0c-1.3.14-1.58.93-1.58.93a.16.16,0,0,0,0,.15s.06,0,.07,0"/><path class="cls-1" d="M264,34.27a.27.27,0,0,0-.09-.25.27.27,0,0,0-.21-.06c.06-.13.11-.26.16-.4a5.91,5.91,0,0,0,.33-2,.3.3,0,0,0-.12-.24.31.31,0,0,0-.21,0,3.59,3.59,0,0,0,.12-.39,5.77,5.77,0,0,0,.13-2,.27.27,0,0,0-.14-.22.25.25,0,0,0-.22,0c0-.15.07-.31.1-.46a5.88,5.88,0,0,0-.07-2,.26.26,0,0,0-.16-.21.32.32,0,0,0-.17,0c0-.11,0-.22.05-.32a5.76,5.76,0,0,0-.15-2,.3.3,0,0,0-.18-.2.27.27,0,0,0-.26,0l0,0a4.35,4.35,0,0,0,0-.51,6,6,0,0,0-.43-1.94.28.28,0,0,0-.2-.18A.31.31,0,0,0,262,21c0-.16,0-.31,0-.47a6,6,0,0,0-.62-1.89.31.31,0,0,0-.22-.15.24.24,0,0,0-.22.08c0-.14-.05-.29-.09-.43a6.11,6.11,0,0,0-.84-1.81.3.3,0,0,0-.24-.12.28.28,0,0,0-.23.13h0a5,5,0,0,0-.18-.5,5.89,5.89,0,0,0-1.12-1.65.29.29,0,0,0-.26-.08.27.27,0,0,0-.18.13,4.67,4.67,0,0,0-.27-.49,5.77,5.77,0,0,0-1.34-1.43.27.27,0,0,0-.26,0,.3.3,0,0,0-.17.16,3.21,3.21,0,0,0-1.45-1.08h.23a4.14,4.14,0,0,0,1.4-.13.42.42,0,0,0,.29-.45.41.41,0,0,0-.39-.36,3.1,3.1,0,0,1-1.6-.44l-.12-.07L256,9.66a.43.43,0,0,0,.35-.42.41.41,0,0,0-.35-.4l-1.81-.26c.2-.06.39-.12.57-.19A4,4,0,0,0,256,7.73a.41.41,0,0,0-.4-.71,3,3,0,0,1-1.65.21h-.13l1.65-1a.41.41,0,0,0,.17-.51.42.42,0,0,0-.48-.25l-1.78.46c.16-.13.32-.26.47-.4a4.3,4.3,0,0,0,.9-1.09.42.42,0,0,0-.65-.5,3,3,0,0,1-1.44.83l-.12,0,1.14-1.54a.41.41,0,0,0-.58-.58l-1.47,1.1c.1-.18.2-.37.28-.55a4.69,4.69,0,0,0,.42-1.35.42.42,0,0,0-.31-.44.41.41,0,0,0-.48.23,3,3,0,0,1-1,1.31l-.09.08.47-1.86a.41.41,0,0,0-.76-.31l-1,1.59c0-.22.05-.42.06-.62a4,4,0,0,0-.14-1.41.39.39,0,0,0-.44-.29.41.41,0,0,0-.36.39,3.1,3.1,0,0,1-.44,1.6l-.06.11-.27-1.9a.42.42,0,0,0-.41-.35.43.43,0,0,0-.41.36l-.25,1.8c-.06-.2-.12-.39-.18-.56a4.18,4.18,0,0,0-.66-1.26.41.41,0,0,0-.52-.1.43.43,0,0,0-.18.51,3.07,3.07,0,0,1,.2,1.65.66.66,0,0,0,0,.14l-1-1.66a.41.41,0,0,0-.51-.17.42.42,0,0,0-.25.48L243.83,3c-.13-.17-.26-.32-.39-.47a4.19,4.19,0,0,0-1.08-.9.41.41,0,0,0-.52.11.42.42,0,0,0,0,.53,3.11,3.11,0,0,1,.82,1.45.65.65,0,0,0,0,.13l-1.55-1.15a.41.41,0,0,0-.58.58l1.1,1.47-.54-.28A4.21,4.21,0,0,0,239.81,4a.41.41,0,0,0-.44.3.41.41,0,0,0,.22.48,3.13,3.13,0,0,1,1.32,1l.07.1-1.86-.47a.42.42,0,0,0-.49.24.43.43,0,0,0,.18.52l1.58.94-.61,0a4.27,4.27,0,0,0-1.41.13.42.42,0,0,0,.11.81,3.13,3.13,0,0,1,1.6.44l.11.06-1.9.28a.43.43,0,0,0-.36.41.42.42,0,0,0,.36.41l1.83.27-.59.19a4.21,4.21,0,0,0-1.25.66.41.41,0,0,0-.09.52.41.41,0,0,0,.5.19,3.22,3.22,0,0,1,1-.24,8.16,8.16,0,0,0-.86.85,4.15,4.15,0,0,0-.24.34.28.28,0,0,0-.16-.14.26.26,0,0,0-.25,0,5.8,5.8,0,0,0-1.37,1.45,3.72,3.72,0,0,0-.27.48.25.25,0,0,0-.2-.14.27.27,0,0,0-.25.08A6.11,6.11,0,0,0,235,15.87a3,3,0,0,0-.17.47.28.28,0,0,0-.19-.09.29.29,0,0,0-.24.11,6.13,6.13,0,0,0-.92,1.77,4.31,4.31,0,0,0-.11.49h0a.28.28,0,0,0-.24-.1.26.26,0,0,0-.22.15,5.59,5.59,0,0,0-.64,1.88,4,4,0,0,0-.05.47.27.27,0,0,0-.45.11,6,6,0,0,0-.4,1.95c0,.15,0,.31,0,.46a.28.28,0,0,0-.25,0,.26.26,0,0,0-.18.2,5.69,5.69,0,0,0-.15,2c0,.12,0,.24.05.35l-.14,0a.29.29,0,0,0-.16.21,5.87,5.87,0,0,0-.07,2c0,.16.06.32.1.47a.25.25,0,0,0-.12,0,.36.36,0,0,0-.16.22,5.93,5.93,0,0,0,.07,2,2.62,2.62,0,0,0,.11.4.24.24,0,0,0-.2,0,.26.26,0,0,0-.13.23,5.56,5.56,0,0,0,.27,2,4.55,4.55,0,0,0,.21.51l-.06,0a.27.27,0,0,0-.26.07.28.28,0,0,0-.09.25,6,6,0,0,0,.61,1.89l.19.32a.25.25,0,0,0-.14.08.27.27,0,0,0-.07.26,6.12,6.12,0,0,0,.75,1.84c.08.13.17.25.26.37a.28.28,0,0,0-.21.1.29.29,0,0,0,0,.27,6,6,0,0,0,1,1.75c.09.1.18.21.28.31a.26.26,0,0,0-.18.13.27.27,0,0,0,0,.26,6,6,0,0,0,1.16,1.63l.3.27a.27.27,0,0,0-.16.14.29.29,0,0,0,0,.27,6.12,6.12,0,0,0,1.33,1.5,4.87,4.87,0,0,0,.47.32l-.09,0a.28.28,0,0,0-.1.45,6.61,6.61,0,0,0,1.54,1.24,4.08,4.08,0,0,0,1.26.48,2.6,2.6,0,0,0,1,0,15.13,15.13,0,0,0,2.9,1.63,13,13,0,0,0,2.51.79l.37.08.29,0c.18.06.35.1.47.13a1.09,1.09,0,0,0,0,.26,1.35,1.35,0,0,0,0,.29A5.2,5.2,0,0,1,243,53h-.09l.05.07a2.23,2.23,0,0,0,.41.49l0,0h0a5.88,5.88,0,0,0,2.76-1.41l.11.11A2.6,2.6,0,0,1,244.26,54l-.16.05.16.06a3.69,3.69,0,0,0,.91.25h0a3,3,0,0,0,1.71-1.79,1.19,1.19,0,0,0,.46,0,3,3,0,0,0,1.71,1.79h0a3.82,3.82,0,0,0,.91-.25l.15-.06L250,54A2.6,2.6,0,0,1,248,52.26a.43.43,0,0,0,.12-.11,5.7,5.7,0,0,0,2.75,1.41h0l0,0a2.08,2.08,0,0,0,.42-.49l0-.07h-.09a5.06,5.06,0,0,1-2.84-1.41,1.53,1.53,0,0,0,0-.3,1.24,1.24,0,0,0,0-.27l.44-.11.33-.06c.4-.07.79-.15,1.16-.25a14.44,14.44,0,0,0,2.49-.94A11.62,11.62,0,0,0,255,48.32a2.65,2.65,0,0,0,1,0,4.17,4.17,0,0,0,1.26-.48,6.82,6.82,0,0,0,1.54-1.24.28.28,0,0,0-.1-.45l-.07,0c.16-.1.32-.2.48-.32a6.3,6.3,0,0,0,1.32-1.5.29.29,0,0,0,0-.27.25.25,0,0,0-.16-.14l.3-.27A6,6,0,0,0,261.71,42a.27.27,0,0,0,0-.26.3.3,0,0,0-.22-.14c.1-.11.21-.22.31-.34a6.13,6.13,0,0,0,.95-1.74.27.27,0,0,0,0-.26.27.27,0,0,0-.22-.12h0c.09-.11.18-.23.26-.35a5.88,5.88,0,0,0,.78-1.83.28.28,0,0,0-.07-.26.24.24,0,0,0-.24-.08c.08-.14.16-.28.23-.42a5.7,5.7,0,0,0,.54-1.91M263.65,32h0v0a5.2,5.2,0,0,1-.28,1.37,3.44,3.44,0,0,1-.6,1.06,2.56,2.56,0,0,1-.72.6h0a3.24,3.24,0,0,1-.58-2,3.82,3.82,0,0,1,.08-.75l0,0h0a3.64,3.64,0,0,1,.55,1,.22.22,0,0,0,.19.14h0a.2.2,0,0,0,.18-.12A3.42,3.42,0,0,1,263.63,32h0m-.06-2.6h0s0,0,0,0a5,5,0,0,1-.14,1.38,3.35,3.35,0,0,1-.49,1.12,2.68,2.68,0,0,1-.66.67h0a3.93,3.93,0,0,1-.75-2.63,0,0,0,0,1,0,0h0a4.53,4.53,0,0,1,.64.92.2.2,0,0,0,.19.12.22.22,0,0,0,.18-.14,3.44,3.44,0,0,1,1-1.44m-.28-2.64h0s0,0,0,0a0,0,0,0,1,0,0,5.38,5.38,0,0,1,0,1.39,3.66,3.66,0,0,1-.38,1.17,2.61,2.61,0,0,1-.61.74h0a4,4,0,0,1-1-2.54s0,0,0,0a0,0,0,0,1,0,0,4.4,4.4,0,0,1,.7.84.23.23,0,0,0,.21.1.24.24,0,0,0,.17-.15,3.31,3.31,0,0,1,.83-1.54m-.42-2.51h0a0,0,0,0,1,0,0,5.09,5.09,0,0,1,.06,1.39,3.23,3.23,0,0,1-.33,1.18,2.6,2.6,0,0,1-.55.76h0a3.42,3.42,0,0,1-1-1.76,6,6,0,0,1-.12-.74,0,0,0,0,1,0,0h0a4.82,4.82,0,0,1,.77.83.2.2,0,0,0,.2.08.18.18,0,0,0,.16-.16,3.52,3.52,0,0,1,.76-1.57M249.36,37.89a.29.29,0,0,0,.16.18,5.73,5.73,0,0,1,1.83,1.66h0a.62.62,0,0,1-.12.19.75.75,0,0,1-.61.25h-.05a3.16,3.16,0,0,0-.48-.71,6,6,0,0,0-.94-.8.31.31,0,0,0-.36.51,5.82,5.82,0,0,1,.83.7,2.52,2.52,0,0,1,.39.56h0a1.19,1.19,0,0,1-.18.25.59.59,0,0,1-.54.16h0a3.91,3.91,0,0,0-.66-1,.31.31,0,0,0-.44,0,.32.32,0,0,0-.1.22.3.3,0,0,0,.08.22,3.31,3.31,0,0,1,.51.76s0,0,0,0l-.22.12a1.26,1.26,0,0,1-.67.06h0s0,0,0,0a1,1,0,0,0,.18-.47.9.9,0,0,0-.3-.76,1,1,0,0,0-.87-.21h0a.87.87,0,0,0-.34-.6,1.06,1.06,0,0,0-1.08-.23h-.05a1,1,0,0,0-.53-.56,1.18,1.18,0,0,0-.94-.06h0a1.45,1.45,0,0,0-.78-.31,2,2,0,0,0-1.47.54h0c-2.07,1.11-4.74,2.32-5.8,2.79h0a20.71,20.71,0,0,1-1.44-3.45c-.11-.34-.22-.69-.31-1h0c3-.35,5.47-.7,7.24-1.06a11.43,11.43,0,0,0,3.64-1.15h0a2.72,2.72,0,0,1,1.9-.69l.58.07h0a1.74,1.74,0,0,0-.49.25c-.28.2-.45.34-.61.47a5,5,0,0,1-.48.36c-.13.08-.32.17-.5.26-.41.21-.73.36-.83.63h0a.8.8,0,0,0,.14.83,1.21,1.21,0,0,0,1.21.38,3.35,3.35,0,0,0,1.44-.43c.15-.09.29-.17.4-.25a1.53,1.53,0,0,1,.46-.25h0a2.06,2.06,0,0,1,1.29.13,6.7,6.7,0,0,1,1.26.69,8.4,8.4,0,0,1,1.87,1.73h0a.64.64,0,0,1-.18.37.78.78,0,0,1-.53.18h0a6.58,6.58,0,0,0-2.07-1.85.32.32,0,0,0-.42.14.33.33,0,0,0,0,.24M247,41.1h0a1.68,1.68,0,0,1-.87.35H246a.44.44,0,0,1-.26-.15v0a1.94,1.94,0,0,1,.84-.76c.42-.25.62-.11.64-.09s.13.22.12.24-.23.35-.33.42h0Zm-3.6-1.75c.44-.43.79-.56,1.09-.4a.42.42,0,0,1,.23.2.21.21,0,0,1,0,.11h0l-.21.14a2,2,0,0,0-.84,1h0l-.21-.05c-.38-.13-.4-.34-.41-.41s.09-.37.37-.64M243,38.9a1.78,1.78,0,0,0-.53.79h0l-.18,0c-.23,0-.39-.11-.42-.2s-.08-.16.08-.36a1.3,1.3,0,0,1,1.05-.48h0l.19,0h0l-.22.2m1.89,1c.57-.4.87-.53,1.17-.28.08.07.13.14.12.21s-.14.27-.26.36a2,2,0,0,0-.74.85h0a1.42,1.42,0,0,1-.33,0,.74.74,0,0,1-.43-.1.29.29,0,0,1-.13-.23c0-.33.37-.66.61-.84m6.32-27.63v0l0,0a3.67,3.67,0,0,1,.79-.15,2.24,2.24,0,0,1,1.84.71v0a2.57,2.57,0,0,1-.7.13H253a2.93,2.93,0,0,1-1.83-.68m.87,1.05h-9.82a10.72,10.72,0,0,1,9.82,0m1.24-2a7.35,7.35,0,0,1-1,.28,4.6,4.6,0,0,1-.71.07,2.29,2.29,0,0,1-1.35-.4s0,0,0,0,0,0,0,0a3.2,3.2,0,0,1,.8-.32,2.74,2.74,0,0,1,1.14,0,3.36,3.36,0,0,1,1.08.39s0,0,0,0v0m-2.36-.83a4.46,4.46,0,0,1-1.31.35.19.19,0,0,0-.17.15.21.21,0,0,0,.08.22,4.36,4.36,0,0,1,.86.8s0,0,0,0h0a3.42,3.42,0,0,1-2.54-1.16,0,0,0,0,1,0,0,2.11,2.11,0,0,1,.69-.43,4,4,0,0,1,2.41,0l0,0,0,0m-2.69-.45a3.62,3.62,0,0,1-1.23.6.22.22,0,0,0-.14.2A.19.19,0,0,0,247,11a4.15,4.15,0,0,1,1,.57s0,0,0,0l0,0-.54,0a3.63,3.63,0,0,1-2.16-.62,0,0,0,0,1,0,0,2,2,0,0,1,.59-.55,3.88,3.88,0,0,1,2.38-.47s0,0,0,0,0,0,0,0m-2.76,0a3,3,0,0,1-1.11.85.19.19,0,0,0-.11.21.2.2,0,0,0,.16.18,4.24,4.24,0,0,1,1.08.36s0,0,0,0l0,0a5.68,5.68,0,0,1-.71.18A4.93,4.93,0,0,1,244,12a3.13,3.13,0,0,1-1.29-.26,0,0,0,0,1,0,0,1.76,1.76,0,0,1,.45-.67,4,4,0,0,1,2.28-1l0,0a0,0,0,0,1,0,0m-2.59.45h0a3.36,3.36,0,0,1-1,1.25.22.22,0,0,0-.06.23.21.21,0,0,0,.19.13h0a4.12,4.12,0,0,1,.55,0,4.56,4.56,0,0,1,.58.12l0,0a0,0,0,0,1,0,0,3.75,3.75,0,0,1-.69.29,3.9,3.9,0,0,1-1.3.24,2.64,2.64,0,0,1-.76-.1s0,0,0,0c.09-.46.51-1.59,2.44-2.25h0s0,0,0,0M253.22,14a14.2,14.2,0,0,1,1.54,1.17H239.53A14.31,14.31,0,0,1,241.08,14Zm2.26,1.83a13.21,13.21,0,0,1,1,1.17h-7.42a3.55,3.55,0,0,0-2.2-.67,4.27,4.27,0,0,0-2.07.67h-7.08a13.3,13.3,0,0,1,1.06-1.17Zm-10.77,8.63a3.55,3.55,0,0,0-1.81.4h0l0-.17a9,9,0,0,1,1.53-3.61,6.56,6.56,0,0,1,.9-1l.16-.12a.37.37,0,0,0,.06-.5.36.36,0,0,0-.5-.08l-.17.13a.69.69,0,0,1-.71.16.46.46,0,0,1-.16-.5,2.55,2.55,0,0,1,.65-1.05v0a3.3,3.3,0,0,1,2.24-1,2.71,2.71,0,0,1,1,.14,2.89,2.89,0,0,1,1.69,1.5A16.21,16.21,0,0,1,250.86,22h0a5.27,5.27,0,0,1-1.44-.79.35.35,0,0,0-.5,0,.36.36,0,0,0,0,.51,5.47,5.47,0,0,0,2.1,1,0,0,0,0,0,0,0c.08.41.16.83.24,1.34h0a5.77,5.77,0,0,0-1.18-.42,5,5,0,0,1-.64-.19A6.25,6.25,0,0,1,248,22.7a.36.36,0,0,0-.51.06.36.36,0,0,0,.06.51,6.84,6.84,0,0,0,1.62.94c.22.09.46.15.72.23,1,.26,1.46.47,1.47,1h0a.41.41,0,0,1-.13.23,1.73,1.73,0,0,1-1.17.37h-1a3.92,3.92,0,0,1-1.95-.57,5.44,5.44,0,0,0-2.38-1m1.9,1.56a0,0,0,0,1,0,0h-2.92a.8.8,0,0,1-.64-.23.54.54,0,0,1-.09-.15v0c1.32-.6,1.94-.71,3.66.38h0m1,2.62H261c0,.42.06.84.07,1.26H247.59Zm0-.67V26.8h13.18q.09.59.15,1.17Zm4.2-1.83a1.4,1.4,0,0,0,.29-.52.14.14,0,0,0,0-.07,1.8,1.8,0,0,0,.05-.58h8.25c.1.39.18.78.25,1.17Zm.27-1.83c-.06-.37-.12-.76-.2-1.17h8c0,.1.07.2.1.3.09.29.18.58.26.87Zm-.33-1.83c-.08-.37-.18-.76-.3-1.16h7.74c.16.38.32.76.47,1.16Zm-.51-1.82c-.13-.38-.27-.77-.44-1.17h7.47c.21.38.42.76.61,1.17Zm-.74-1.83c-.07-.16-.15-.31-.23-.47a4,4,0,0,0-.45-.7h7.25a14.15,14.15,0,0,1,.8,1.17Zm-6.38-1.17a3.46,3.46,0,0,0-.74,1.17h-6.91a14.07,14.07,0,0,1,.79-1.17Zm-.8,1.83a1.06,1.06,0,0,0,.52.81,1,1,0,0,0,.21.09h0a2.7,2.7,0,0,0-.18.25h-8.42c.2-.41.4-.79.62-1.17Zm.11,1.83a9.59,9.59,0,0,0-.59,1.16h-8.16c.14-.4.3-.78.47-1.16Zm-.84,1.82a11,11,0,0,0-.32,1.17h-8.18c.08-.29.16-.58.26-.87l.09-.3ZM242.15,25a1.91,1.91,0,0,0,0,.48s0,.05,0,.06a1.53,1.53,0,0,0,.23.63h-8.75c.07-.39.15-.78.25-1.17Zm4.56,1.83V28H233.37c0-.39.1-.78.16-1.17Zm0,1.84V29.9H233.24c0-.42,0-.84.07-1.26Zm0,1.94v2.71h-.1a3.46,3.46,0,0,0-2.05.81c-1.07.72-4.67,1.43-10.69,2.12h0a24.22,24.22,0,0,1-.64-5.55v-.09Zm4.33,6a4,4,0,0,0-3-.9,1.93,1.93,0,0,0-.67.34l-.37.23a2.72,2.72,0,0,1-1.16.35c-.36,0-.58,0-.68-.12s-.09-.17-.06-.23h0a3.07,3.07,0,0,1,.53-.29c.19-.1.39-.2.56-.31a4.53,4.53,0,0,0,.53-.4l.58-.44a2.26,2.26,0,0,1,1.37-.28h.51a5.51,5.51,0,0,1,2.09.49l.85.31h0s1.18.37,2.81.76a34.47,34.47,0,0,0,5.35.88h0c-.09.33-.18.66-.28,1a20.26,20.26,0,0,1-1.51,3.56h0a25.19,25.19,0,0,1-4.82-2.54,3.88,3.88,0,0,1-.63-.57h0l0-.06A8.54,8.54,0,0,0,251,36.56m1.24-1.87-.84-.3a6,6,0,0,0-2.33-.53H249a4.69,4.69,0,0,0-1.37-.47h0V30.58h13.48v.09a24.36,24.36,0,0,1-.65,5.63h0a38.93,38.93,0,0,1-8.13-1.62m9.82-13h0a5.07,5.07,0,0,1,.26,1.37,3.47,3.47,0,0,1-.17,1.22,2.64,2.64,0,0,1-.44.82h0a3.32,3.32,0,0,1-1.25-1.62,5.83,5.83,0,0,1-.22-.71v0s0,0,0,0a4.09,4.09,0,0,1,.89.73.2.2,0,0,0,.22.05.21.21,0,0,0,.13-.18,3.39,3.39,0,0,1,.54-1.66m-1.51-.54a.19.19,0,0,0,.11-.19,3.57,3.57,0,0,1,.36-1.71s0,0,0,0,0,0,0,0a5.21,5.21,0,0,1,.4,1.34,3.53,3.53,0,0,1,0,1.22,2.83,2.83,0,0,1-.36.87h0a3.27,3.27,0,0,1-1.42-1.49,4.63,4.63,0,0,1-.29-.68,0,0,0,0,1,0,0,0,0,0,0,1,0,0,4.7,4.7,0,0,1,1,.63.22.22,0,0,0,.22,0m-1.08-2.24a.21.21,0,0,0,.1-.21,3.4,3.4,0,0,1,.16-1.73,0,0,0,0,1,0,0h0a5.05,5.05,0,0,1,.55,1.29,3.43,3.43,0,0,1,.11,1.22,2.73,2.73,0,0,1-.26.9s0,0,0,0h0a3.18,3.18,0,0,1-1.62-1.32,4.32,4.32,0,0,1-.36-.67,0,0,0,0,1,0,0h0a3.27,3.27,0,0,1,1,.55.21.21,0,0,0,.23,0m-1.6-2.07a.21.21,0,0,0,.24,0,.21.21,0,0,0,.07-.22,3.77,3.77,0,0,1-.11-1.72l0,0h0a5.25,5.25,0,0,1,.73,1.15,3.59,3.59,0,0,1,.3,1.19,2.5,2.5,0,0,1-.11.93,0,0,0,0,1,0,0h0a3.27,3.27,0,0,1-1.77-1.05,6.15,6.15,0,0,1-.5-.62v0h0a2.36,2.36,0,0,1,1.1.38M256.29,15a.2.2,0,0,0,.23-.05.2.2,0,0,0,0-.23,3.51,3.51,0,0,1-.4-1.69v0h0a4.75,4.75,0,0,1,.9,1,3.45,3.45,0,0,1,.49,1.12,2.65,2.65,0,0,1,.06,1,0,0,0,0,1,0,0h0a3.16,3.16,0,0,1-1.82-.72,8,8,0,0,1-.62-.56,0,0,0,0,1,0,0l0,0a3.35,3.35,0,0,1,1.13.19m-.63-1.67a3,3,0,0,1,.19,1.06s0,0,0,0h-.11a5.14,5.14,0,0,1-2.47-1s0,0,0,0l0,0a3,3,0,0,1,1.1,0,.2.2,0,0,0,.22-.09.21.21,0,0,0,0-.24,4.48,4.48,0,0,1-.69-1.3s0,0,0,0h0a2.66,2.66,0,0,1,1.75,1.57m-16.52-2.48h0c.19-.09.37-.17.56-.24a11.6,11.6,0,0,1,1.28-.36,3.45,3.45,0,0,0,1-.39s0-.05,0-.08a.11.11,0,0,0-.07-.06l-3-.43h0l3-.44a.08.08,0,0,0,.07-.07.08.08,0,0,0-.07-.08,5.12,5.12,0,0,1-1.14-.35c-.17-.08-.32-.15-.46-.23a3.39,3.39,0,0,0-1.16-.43h0s0,0,0,0q.3,0,.6,0a12.71,12.71,0,0,1,1.32.15,3.16,3.16,0,0,0,1.05,0s0,0,.06-.06a.09.09,0,0,0,0-.08l-2.57-1.53v0h0l2.91.73a.07.07,0,0,0,.09-.05.08.08,0,0,0,0-.09,4.6,4.6,0,0,1-.93-.77l-.33-.38a3.28,3.28,0,0,0-.91-.85h0c.19.06.38.14.57.22.5.25.93.52,1.15.65a3,3,0,0,0,1,.42.07.07,0,0,0,.08,0,.06.06,0,0,0,0-.08l-1.8-2.41h0l2.41,1.8a.07.07,0,0,0,.09,0,.08.08,0,0,0,0-.1A5.26,5.26,0,0,1,243.31,4c-.07-.18-.11-.33-.16-.49a3.2,3.2,0,0,0-.52-1.13v0h0a5.93,5.93,0,0,1,.44.43,12.64,12.64,0,0,1,.81,1,3.09,3.09,0,0,0,.73.76.06.06,0,0,0,.08,0,.07.07,0,0,0,0-.08L244,1.64h0l1.55,2.58a.07.07,0,0,0,.13,0,5.61,5.61,0,0,1-.11-1.2c0-.19,0-.35,0-.51a3.36,3.36,0,0,0,0-1.25s0,0,0,0,0,0,0,0a5.55,5.55,0,0,1,.24.56A11.06,11.06,0,0,1,246.2,3a3.52,3.52,0,0,0,.38,1,.09.09,0,0,0,.08,0s.06,0,.06-.06l.42-3h0s0,0,0,0l.43,3a.09.09,0,0,0,.07.06.09.09,0,0,0,.08-.06,4.7,4.7,0,0,1,.35-1.16,3.77,3.77,0,0,1,.23-.45,3.45,3.45,0,0,0,.43-1.17h0s0,0,0,0a4.12,4.12,0,0,1,0,.61,12.45,12.45,0,0,1-.16,1.32,3.49,3.49,0,0,0,0,1.05.09.09,0,0,0,.07.06.06.06,0,0,0,.07,0l1.54-2.58h0a0,0,0,0,1,0,0l-.73,2.91a.08.08,0,0,0,0,.09.07.07,0,0,0,.09,0,5.24,5.24,0,0,1,.76-.93l.39-.33a3.2,3.2,0,0,0,.85-.92h0a4.84,4.84,0,0,1-.23.57,11.56,11.56,0,0,1-.65,1.16,3.59,3.59,0,0,0-.42,1,.09.09,0,0,0,0,.08.08.08,0,0,0,.08,0l2.4-1.8h0v0l-1.79,2.41a.08.08,0,0,0,0,.1.08.08,0,0,0,.1,0,4.34,4.34,0,0,1,1.05-.57l.49-.16A3.16,3.16,0,0,0,254,4.71h0s0,0,0,0a4.37,4.37,0,0,1-.42.44c-.42.37-.83.67-1,.82a3.58,3.58,0,0,0-.76.73.14.14,0,0,0,0,.09.08.08,0,0,0,.08,0l2.9-.75h0l-2.57,1.55a.08.08,0,0,0,.06.14,4.76,4.76,0,0,1,1.19-.11,3.91,3.91,0,0,1,.51,0,3.34,3.34,0,0,0,1.24,0h0s0,0,0,0a5.55,5.55,0,0,1-.56.24c-.52.18-1,.3-1.27.36a3.4,3.4,0,0,0-1,.38.08.08,0,0,0,0,.08s0,.05.06.06l3,.43h0l-3,.44a.08.08,0,0,0-.07.08.07.07,0,0,0,.07.07,5.12,5.12,0,0,1,1.14.35,4.6,4.6,0,0,1,.45.24,3.77,3.77,0,0,0,1.17.44h-.61a12.79,12.79,0,0,1-1.31-.15l-.08,0h0a3.56,3.56,0,0,0-1.42-.31h0a.13.13,0,0,0,0-.06.21.21,0,0,0-.14-.15A5.6,5.6,0,0,0,250,9.85h-.38a4.62,4.62,0,0,0-.65.05h0a0,0,0,0,1,0,0h0a.28.28,0,0,0,0-.09v0a.24.24,0,0,0-.17-.12l-.14,0h-.27a5.81,5.81,0,0,0-1.53.07,2.22,2.22,0,0,0-.37.09h0l0,0h0l-.08,0-.17.07h0v0h0a.22.22,0,0,0-.06-.19h0a.18.18,0,0,0-.16-.05A5.53,5.53,0,0,0,244,10a2.62,2.62,0,0,0-.5.26h0a.28.28,0,0,0,0-.06h0a.23.23,0,0,0-.08-.18l0,0h0a.25.25,0,0,0-.15,0,6.1,6.1,0,0,0-1.8.81l0,0h-.44l-.5,0a3.38,3.38,0,0,0-1.25.05m1.13.59h0s0,0,0,0a3.37,3.37,0,0,1-.56,1.65.24.24,0,0,0,0,.23.2.2,0,0,0,.21.08,4.49,4.49,0,0,1,1.11-.06h0s0,0,0,0a4.21,4.21,0,0,1-2.44,1h-.1a0,0,0,0,1,0,0,3.47,3.47,0,0,1,1.75-3m-3.51,3.74a3.59,3.59,0,0,1,.49-1.13,4.94,4.94,0,0,1,.93-1h0a0,0,0,0,1,0,0,3.55,3.55,0,0,1-.4,1.7.21.21,0,0,0,0,.23.23.23,0,0,0,.22.06,4.46,4.46,0,0,1,1.09-.2,0,0,0,0,1,0,0,0,0,0,0,1,0,0c-.21.2-.43.39-.64.56a3.15,3.15,0,0,1-1.71.73h-.08a0,0,0,0,1,0,0,2.67,2.67,0,0,1,0-1m-.56-.31h0a0,0,0,0,1,0,0,3.37,3.37,0,0,1-.12,1.73.2.2,0,0,0,.07.23.2.2,0,0,0,.23,0,2.43,2.43,0,0,1,1.09-.38s0,0,0,0a0,0,0,0,1,0,0,3.85,3.85,0,0,1-2.25,1.67h0a3.49,3.49,0,0,1,.95-3.31M234,18.25a4.65,4.65,0,0,1,.6-1.26h0a0,0,0,0,1,0,0,3.36,3.36,0,0,1,.09,1.74.2.2,0,0,0,.1.22.21.21,0,0,0,.24,0,2.05,2.05,0,0,1,1.06-.52s0,0,0,0a0,0,0,0,1,0,0,5.35,5.35,0,0,1-.43.7A3.08,3.08,0,0,1,234,20.39h0s0,0,0,0a2.59,2.59,0,0,1-.22-.91,3.48,3.48,0,0,1,.16-1.22m-1.22,2.34a5.25,5.25,0,0,1,.41-1.34s0,0,0,0h0a3.51,3.51,0,0,1,.34,1.71.2.2,0,0,0,.11.2.21.21,0,0,0,.23,0,4.43,4.43,0,0,1,1-.64h0s0,0,0,0a3.71,3.71,0,0,1-.24.63,3.33,3.33,0,0,1-1.54,1.54h0a2.61,2.61,0,0,1-.35-.87,3.54,3.54,0,0,1,0-1.22m-.65,1.09a0,0,0,0,1,0,0s0,0,0,0a3.43,3.43,0,0,1,.56,1.66.22.22,0,0,0,.14.18.21.21,0,0,0,.22-.07,3.86,3.86,0,0,1,.92-.76h0s0,0,0,0a2.67,2.67,0,0,1-.15.68,3.08,3.08,0,0,1-1.34,1.71h0s0,0,0,0a2.43,2.43,0,0,1-.46-.82,3.38,3.38,0,0,1-.18-1.21,5,5,0,0,1,.24-1.37m-.75,2.54h0a0,0,0,0,1,0,0s0,0,0,0a3.42,3.42,0,0,1,.75,1.57.22.22,0,0,0,.16.16.21.21,0,0,0,.21-.09,4.79,4.79,0,0,1,.8-.85,0,0,0,0,1,0,0s0,0,0,0a4,4,0,0,1-.09.68,3.44,3.44,0,0,1-1.07,1.84s0,0,0,0a0,0,0,0,1,0,0,2.54,2.54,0,0,1-.55-.75,3.23,3.23,0,0,1-.33-1.18,5.09,5.09,0,0,1,.06-1.39M231,26.76a0,0,0,0,1,0,0s0,0,0,0a3.4,3.4,0,0,1,.84,1.54.2.2,0,0,0,.17.15.21.21,0,0,0,.21-.12,3.27,3.27,0,0,1,.67-.89h0l0,0a6.48,6.48,0,0,1-.07.77,3.09,3.09,0,0,1-.9,1.83h0a2.54,2.54,0,0,1-.59-.73,3.67,3.67,0,0,1-.39-1.17,5.38,5.38,0,0,1,0-1.39m-.21,2.67h0l0,0s0,0,0,0l.17.16a3.54,3.54,0,0,1,.76,1.32.19.19,0,0,0,.19.14h0a.18.18,0,0,0,.18-.17,2,2,0,0,1,.56-1h0a0,0,0,0,1,0,0,4.06,4.06,0,0,1,0,1.27,2.7,2.7,0,0,1-.75,1.47h0a3.46,3.46,0,0,1-1.19-3.23m-.1,2.59h0l.18.15a3.64,3.64,0,0,1,.9,1.23.18.18,0,0,0,.18.12v0a.2.2,0,0,0,.18-.12,4.66,4.66,0,0,1,.62-1h0s0,0,0,0a3.36,3.36,0,0,1-.61,2.74h0a3.46,3.46,0,0,1-1.51-3.07s0,0,0,0m.13,2.71h0s0,0,0,0h0a3.53,3.53,0,0,1,1.3,1.18.2.2,0,0,0,.2.09.22.22,0,0,0,.17-.16h0a4,4,0,0,1,.44-1.13s0,0,0,0,0,0,0,0a2.92,2.92,0,0,1-.13,2.83h0A2.82,2.82,0,0,1,232,37a3.53,3.53,0,0,1-.75-1,5.31,5.31,0,0,1-.47-1.31m.61,2.51h0a0,0,0,0,1,0,0h0l.2.09a3.64,3.64,0,0,1,1.18,1,.18.18,0,0,0,.21.07.19.19,0,0,0,.15-.17,4.37,4.37,0,0,1,.33-1.11s0,0,0,0,0,0,0,0a3.36,3.36,0,0,1,.1,2.77l0,0h0a3.53,3.53,0,0,1-2.23-2.62m1.5,3.71a5.07,5.07,0,0,1-.71-1.19,0,0,0,0,1,0,0h0l.21.07a3.5,3.5,0,0,1,1.28.84.22.22,0,0,0,.23,0,.21.21,0,0,0,.12-.19,4.7,4.7,0,0,1,.2-1.14h.05a5.79,5.79,0,0,1,.31.67,3.14,3.14,0,0,1,.11,2.06s0,0,0,0h0a2.58,2.58,0,0,1-.88-.34,3.52,3.52,0,0,1-.93-.81m.37,1.19s0,0,0,0h0a3.6,3.6,0,0,1,1.59.73.21.21,0,0,0,.23,0,.2.2,0,0,0,.1-.2,4.09,4.09,0,0,1,.06-1.13s0,0,0,0h0a4.7,4.7,0,0,1,.37.65,3.38,3.38,0,0,1,.37,2,0,0,0,0,1,0,0,2.65,2.65,0,0,1-.92-.23,3.55,3.55,0,0,1-1-.71,5.4,5.4,0,0,1-.84-1.1m2.29,3.25a5.47,5.47,0,0,1-1-1v0h0a3.46,3.46,0,0,1,1.66.56.21.21,0,0,0,.23,0,.19.19,0,0,0,.08-.21,3.44,3.44,0,0,1-.07-1.12s0,0,0,0h0a3.94,3.94,0,0,1,1,2.54s0,0,0,0h-.11a2.57,2.57,0,0,1-.83-.14,3.48,3.48,0,0,1-1.08-.59m3.71,2.46a1.77,1.77,0,0,1-.34,0,2.94,2.94,0,0,1-.51-.05,4.72,4.72,0,0,1-2.21-1.28s0,0,0,0l0,0a3.57,3.57,0,0,1,1.74.23.22.22,0,0,0,.23-.05.21.21,0,0,0,0-.22,3.82,3.82,0,0,1-.27-1.1,0,0,0,0,1,0,0h0a3.21,3.21,0,0,1,1.28,2.48,0,0,0,0,1,0,0M244.17,50a11.92,11.92,0,0,1-1.71-.59,14.27,14.27,0,0,1-2.76-1.55h0a2.84,2.84,0,0,0-.14-1h0a13,13,0,0,0,1.92,1.37,11.53,11.53,0,0,0,2.35,1h0l.2.06a1.24,1.24,0,0,0,.21.78Zm1.35-.63a1,1,0,0,0,.06.87s0,0,0,0h0a1.72,1.72,0,0,1-.78-.49.73.73,0,0,1-.17-.59.5.5,0,0,1,.22-.38,1.87,1.87,0,0,1,1.17-.14l0,0s0,0,0,0a1.43,1.43,0,0,0-.46.63M247.15,52a.7.7,0,0,1-.7-.7.7.7,0,0,1,.7-.71.71.71,0,0,1,.71.71.7.7,0,0,1-.71.7m.87-1.63a0,0,0,0,1-.05,0,1.25,1.25,0,0,0-.82-.31,1.19,1.19,0,0,0-.82.32h0l0,0a.79.79,0,0,1-.26-.78c.23-.62,1.1-.63,1.13-.63a1.84,1.84,0,0,1,.49.08,1,1,0,0,1,.64.55.82.82,0,0,1-.26.78m1.53-.53a1.76,1.76,0,0,1-.79.49h0s0,0,0,0a1.11,1.11,0,0,0,.06-.87,1.46,1.46,0,0,0-.47-.63,0,0,0,0,1,0,0s0,0,0,0a2,2,0,0,1,1.16.14.48.48,0,0,1,.23.38.77.77,0,0,1-.17.59m5.06-1.95h0a12.17,12.17,0,0,1-2.05,1.26,13.35,13.35,0,0,1-2.37.89l-.16,0a1.28,1.28,0,0,0,.22-.81l.24-.08a11.82,11.82,0,0,0,2.32-1,13.86,13.86,0,0,0,1.94-1.39h0v0a2.92,2.92,0,0,0-.16,1.05m-2.07-.11a11.14,11.14,0,0,1-2.34,1l-.07,0a1.12,1.12,0,0,0-.34-.38,3.87,3.87,0,0,0-2.63,0h0a3.87,3.87,0,0,0-2.63,0,1,1,0,0,0-.34.38l-.13,0a10.9,10.9,0,0,1-2.29-1,14.43,14.43,0,0,1-4.43-4,19.09,19.09,0,0,1-1.24-1.88h0c.88-.39,3.14-1.41,5.09-2.42h0a0,0,0,0,1,0,0,.73.73,0,0,0,.07.24,1.11,1.11,0,0,0,.9.57,3,3,0,0,0,.31,0,0,0,0,0,1,0,0,1.17,1.17,0,0,0,.79.66,2.59,2.59,0,0,0,.42.09h0a.87.87,0,0,0,.33.42,1.7,1.7,0,0,0,1.2.17h0a1.13,1.13,0,0,0,.64.39,1.48,1.48,0,0,0,.81-.1h0v3.44a.45.45,0,0,0,.44.45.45.45,0,0,0,.44-.45V41.84h0a1.88,1.88,0,0,0,1.08-.08,2.8,2.8,0,0,0,.46-.27h0a1.22,1.22,0,0,0,1.13-.34,1.57,1.57,0,0,0,.24-.32h.1a1.39,1.39,0,0,0,1.08-.46,1.59,1.59,0,0,0,.22-.35h0a1.35,1.35,0,0,0,.9-.35,1.21,1.21,0,0,0,.24-.35h0a24.52,24.52,0,0,0,5,2.72h0A17.91,17.91,0,0,1,257,43.79a14.21,14.21,0,0,1-4.43,4m5.58-1.18h0a4.77,4.77,0,0,1-2.21,1.27,3,3,0,0,1-.51.05,2.09,2.09,0,0,1-.34,0s0,0,0,0a2.77,2.77,0,0,1,.74-1.93,5.62,5.62,0,0,1,.55-.54h0v0a4.51,4.51,0,0,1-.28,1.08.21.21,0,0,0,.27.27,3.53,3.53,0,0,1,1.73-.23s0,0,0,0a0,0,0,0,1,0,0m1.63-2.18a5.47,5.47,0,0,1-1,1,3.37,3.37,0,0,1-1.08.59,2.53,2.53,0,0,1-.83.14h-.1a0,0,0,0,1,0,0,3.28,3.28,0,0,1,.57-2,3.68,3.68,0,0,1,.45-.59s0,0,0,0l0,0a4,4,0,0,1-.07,1.14.22.22,0,0,0,.09.21.22.22,0,0,0,.22,0,3.43,3.43,0,0,1,1.66-.56h0v0m1.33-2.24a5.06,5.06,0,0,1-.84,1.1,3.51,3.51,0,0,1-1,.71,2.76,2.76,0,0,1-.92.23s0,0,0,0a3.27,3.27,0,0,1,.36-2,4.67,4.67,0,0,1,.39-.63s0,0,0,0a0,0,0,0,1,0,0,4.59,4.59,0,0,1,.06,1.13.2.2,0,0,0,.11.2.2.2,0,0,0,.22,0,3.58,3.58,0,0,1,1.6-.73h0a0,0,0,0,1,0,0m1.08-2.45h0a5.63,5.63,0,0,1-.73,1.23,3.34,3.34,0,0,1-.92.81,2.73,2.73,0,0,1-.88.34h0a0,0,0,0,1,0,0,3.23,3.23,0,0,1,.12-2.07,5.37,5.37,0,0,1,.29-.65h0a0,0,0,0,1,0,0,5.16,5.16,0,0,1,.2,1.12.22.22,0,0,0,.14.19.21.21,0,0,0,.22-.06,3.16,3.16,0,0,1,1.28-.87l.23-.07h0a0,0,0,0,1,0,0m.77-2.46h0a5.05,5.05,0,0,1-.59,1.26,3.78,3.78,0,0,1-.83.9,2.59,2.59,0,0,1-.85.41h0s0,0,0,0a3.41,3.41,0,0,1-.09-2.08,6.67,6.67,0,0,1,.23-.72l0,0a0,0,0,0,1,0,0,5.41,5.41,0,0,1,.32,1.15.18.18,0,0,0,.14.17.19.19,0,0,0,.21-.06,3.63,3.63,0,0,1,1.4-1.06s0,0,0,0a0,0,0,0,1,0,0M263,36a3.32,3.32,0,0,1-.72,1,2.47,2.47,0,0,1-.78.52h0l0,0a3.41,3.41,0,0,1-.36-2.09,4.73,4.73,0,0,1,.15-.73,0,0,0,0,1,0,0h0a5.1,5.1,0,0,1,.45,1.14.22.22,0,0,0,.17.15.2.2,0,0,0,.2-.09,3.44,3.44,0,0,1,1.26-1.22h0v0A5.07,5.07,0,0,1,263,36"/><polygon class="cls-1" points="274.61 11.82 276.58 11.82 278.19 15.83 278.72 17.41 278.79 17.41 279.33 15.83 280.94 11.82 282.91 11.82 282.91 19.35 281.62 19.35 281.62 13.49 281.54 13.49 280.79 15.57 279.36 19.04 278.15 19.04 276.73 15.57 275.97 13.49 275.9 13.49 275.9 19.35 274.61 19.35 274.61 11.82"/><path class="cls-1" d="M285.09,12.94a.81.81,0,0,1-.61-.19.8.8,0,0,1-.18-.59.67.67,0,0,1,.79-.78.84.84,0,0,1,.62.2.78.78,0,0,1,.2.58.81.81,0,0,1-.19.58.86.86,0,0,1-.63.2m-.7.91h1.41v5.5h-1.41Z"/><path class="cls-1" d="M287.17,13.85h1.18l.08.63h.06a11.91,11.91,0,0,1,1.33-.56,3.62,3.62,0,0,1,1-.17,1.52,1.52,0,0,1,1.11.39,1.48,1.48,0,0,1,.4,1.13v4.08h-1.42v-3.6a1,1,0,0,0-.17-.67.71.71,0,0,0-.55-.2,2.46,2.46,0,0,0-.75.13,6.45,6.45,0,0,0-.88.33v4h-1.41Z"/><path class="cls-1" d="M294.37,12.94a.81.81,0,0,1-.61-.19.8.8,0,0,1-.18-.59.86.86,0,0,1,1.41-.58.78.78,0,0,1,.2.58.77.77,0,0,1-.19.58.85.85,0,0,1-.63.2m-.7.91h1.41v5.5h-1.41Z"/><path class="cls-1" d="M298.26,19.46a8.49,8.49,0,0,1-.95-.06c-.34,0-.72-.1-1.12-.18v-1c.38.08.73.14,1.06.19a6.16,6.16,0,0,0,.95.07c.69,0,1-.21,1-.63a.52.52,0,0,0-.26-.49,3,3,0,0,0-.75-.22l-.68-.12a2.23,2.23,0,0,1-.64-.24,1.47,1.47,0,0,1-.48-.48,1.77,1.77,0,0,1-.19-.86,1.46,1.46,0,0,1,.6-1.24,2.69,2.69,0,0,1,1.65-.45h.39l.42,0,.49.06a5.6,5.6,0,0,1,.59.1l0,1.07c-.37-.08-.69-.14-1-.18a5.36,5.36,0,0,0-.75-.06c-.68,0-1,.21-1,.62a.47.47,0,0,0,.3.48,3.85,3.85,0,0,0,.88.22,4.89,4.89,0,0,1,.73.17,1.77,1.77,0,0,1,.58.3,1.37,1.37,0,0,1,.38.48,1.62,1.62,0,0,1,.13.7A1.49,1.49,0,0,1,300,19a2.87,2.87,0,0,1-1.74.45"/><path class="cls-1" d="M304,19.46a1.87,1.87,0,0,1-1.35-.43,1.67,1.67,0,0,1-.44-1.25V15.06h-1V13.85h1.12l.21-1.5,1.1-.14v1.64h1.5v1.21h-1.49v2.4a1,1,0,0,0,.2.7.86.86,0,0,0,.65.21,2.21,2.21,0,0,0,.67-.12v1.07c-.16,0-.34.07-.54.1s-.4,0-.59,0"/><path class="cls-1" d="M308.5,19.44c-1.83,0-2.74-.93-2.74-2.79a3,3,0,0,1,.69-2.16,2.62,2.62,0,0,1,2-.73c1.54,0,2.31.82,2.31,2.45,0,.17,0,.31,0,.44a1.51,1.51,0,0,1-.07.37h-3.54a2.49,2.49,0,0,0,.13.63,1,1,0,0,0,.27.41,1.07,1.07,0,0,0,.45.23,2.9,2.9,0,0,0,.64.06,8.18,8.18,0,0,0,.94-.06,7.42,7.42,0,0,0,.94-.19l.05,1a5.57,5.57,0,0,1-1,.23,6.5,6.5,0,0,1-1.06.09m-.09-4.67a1.13,1.13,0,0,0-.9.34,1.87,1.87,0,0,0-.36,1.09h2.37a1.82,1.82,0,0,0-.28-1.1,1,1,0,0,0-.83-.33"/><path class="cls-1" d="M311.87,13.85h1.18l.08.8h0a9.18,9.18,0,0,1,.93-.56,3.3,3.3,0,0,1,.9-.33h.45V15H315a4.69,4.69,0,0,0-.88.21,4.46,4.46,0,0,0-.79.35v3.81h-1.41Z"/><path class="cls-1" d="M316.94,12.94a.81.81,0,0,1-.61-.19.8.8,0,0,1-.18-.59.67.67,0,0,1,.79-.78.84.84,0,0,1,.62.2.78.78,0,0,1,.2.58.81.81,0,0,1-.19.58.86.86,0,0,1-.63.2m-.7.91h1.42v5.5h-1.42Z"/><path class="cls-1" d="M321.53,19.45a2.77,2.77,0,0,1-2.08-.73,2.88,2.88,0,0,1-.72-2.12,2.9,2.9,0,0,1,.72-2.12,3.33,3.33,0,0,1,4.16,0,2.9,2.9,0,0,1,.72,2.12,2.88,2.88,0,0,1-.72,2.12,2.76,2.76,0,0,1-2.08.73m0-1.09a1.25,1.25,0,0,0,1.05-.4,2.17,2.17,0,0,0,.33-1.36,2.12,2.12,0,0,0-.33-1.35,1.58,1.58,0,0,0-2.1,0,2.12,2.12,0,0,0-.32,1.35,2.18,2.18,0,0,0,.32,1.36,1.25,1.25,0,0,0,1,.4"/><path class="cls-1" d="M329.69,19.45a2.15,2.15,0,0,1-1.72-.67,3.12,3.12,0,0,1-.59-2.09,3.67,3.67,0,0,1,.21-1.29,2.49,2.49,0,0,1,.58-.92,2.45,2.45,0,0,1,.93-.54,3.53,3.53,0,0,1,1.21-.19,4.86,4.86,0,0,1,.56,0l.51,0V11.13h1.42v8.22h-1.24l-.12-.67h-.07a1.94,1.94,0,0,1-1.68.77m.4-1.06a1.46,1.46,0,0,0,.93-.29,1.1,1.1,0,0,0,.36-.9V14.86l-.51-.07a5.47,5.47,0,0,0-.6,0,2.1,2.1,0,0,0-.66.09,1,1,0,0,0-.46.31,1.36,1.36,0,0,0-.26.57,3.58,3.58,0,0,0-.08.87,4.06,4.06,0,0,0,.07.84,1.47,1.47,0,0,0,.22.55.86.86,0,0,0,.4.31,1.7,1.7,0,0,0,.59.09"/><path class="cls-1" d="M336.63,19.44c-1.82,0-2.74-.93-2.74-2.79a3,3,0,0,1,.69-2.16,2.63,2.63,0,0,1,2-.73c1.54,0,2.31.82,2.31,2.45,0,.17,0,.31,0,.44a2.2,2.2,0,0,1-.07.37h-3.54a2.12,2.12,0,0,0,.13.63.92.92,0,0,0,.27.41,1.09,1.09,0,0,0,.44.23,3,3,0,0,0,.65.06,8.32,8.32,0,0,0,.94-.06,7.8,7.8,0,0,0,.94-.19l0,1a5.77,5.77,0,0,1-1,.23,6.53,6.53,0,0,1-1.07.09m-.08-4.67a1.16,1.16,0,0,0-.91.34,1.8,1.8,0,0,0-.35,1.09h2.37a1.89,1.89,0,0,0-.28-1.1,1,1,0,0,0-.83-.33"/><path class="cls-1" d="M345.36,16.73c-.24,0-.5,0-.79,0h-.37a2.13,2.13,0,0,1-.39,0v2.63h-1.45V11.87a15.66,15.66,0,0,1,2.12-.15,9,9,0,0,1,1.68.14,3.31,3.31,0,0,1,1.16.46,1.8,1.8,0,0,1,.67.78,2.83,2.83,0,0,1,.21,1.14,2.18,2.18,0,0,1-1.55,2.24l1.85,2.87h-1.61Zm-.6-1.1a4.89,4.89,0,0,0,.93-.07,1.35,1.35,0,0,0,.61-.24.9.9,0,0,0,.34-.43,2,2,0,0,0,.1-.65,2,2,0,0,0-.1-.64.9.9,0,0,0-.34-.43,1.62,1.62,0,0,0-.61-.24,4.67,4.67,0,0,0-.91-.07,4.53,4.53,0,0,0-.5,0l-.47,0v2.63a1.6,1.6,0,0,0,.39.06,4.79,4.79,0,0,0,.56,0"/><path class="cls-1" d="M351.71,19.44q-2.73,0-2.73-2.79a3,3,0,0,1,.68-2.16,2.63,2.63,0,0,1,2-.73c1.54,0,2.31.82,2.31,2.45,0,.17,0,.31,0,.44a1.51,1.51,0,0,1-.07.37h-3.54a2.12,2.12,0,0,0,.13.63.92.92,0,0,0,.27.41,1.09,1.09,0,0,0,.44.23,3.06,3.06,0,0,0,.65.06,8.32,8.32,0,0,0,.94-.06,7.8,7.8,0,0,0,.94-.19l.05,1a5.77,5.77,0,0,1-1,.23,6.62,6.62,0,0,1-1.07.09m-.08-4.67a1.13,1.13,0,0,0-.9.34,1.74,1.74,0,0,0-.36,1.09h2.37a1.89,1.89,0,0,0-.28-1.1,1,1,0,0,0-.83-.33"/><rect class="cls-1" x="355.09" y="11.13" width="1.41" height="8.22"/><path class="cls-1" d="M359.08,19.4a1.52,1.52,0,0,1-1.15-.4,1.5,1.5,0,0,1-.4-1.13,1.5,1.5,0,0,1,.51-1.23,2.8,2.8,0,0,1,1.58-.51l1.29-.09v-.18a2.27,2.27,0,0,0-.05-.5.64.64,0,0,0-.19-.33.79.79,0,0,0-.37-.17,3.44,3.44,0,0,0-.62,0,5.81,5.81,0,0,0-.8,0c-.3,0-.6.07-.91.13l-.09-1a11.39,11.39,0,0,1,2-.21,3,3,0,0,1,1.82.45,1.64,1.64,0,0,1,.59,1.39v3.73h-1.16l-.14-.68H361a2.93,2.93,0,0,1-1.87.73m.58-1a1.7,1.7,0,0,0,.64-.13,3.51,3.51,0,0,0,.61-.32V16.81l-.86.09a1.67,1.67,0,0,0-.85.23.69.69,0,0,0-.24.59c0,.46.23.68.7.68"/><path class="cls-1" d="M366.11,19.44c-1.83,0-2.74-1-2.74-2.84s.91-2.84,2.74-2.84c.26,0,.53,0,.8,0a4.71,4.71,0,0,1,.74.13v1.12c-.24,0-.49-.07-.72-.09a5.53,5.53,0,0,0-.69,0,1.42,1.42,0,0,0-1.12.4,2,2,0,0,0-.34,1.27,2,2,0,0,0,.33,1.3,1.42,1.42,0,0,0,1.12.39c.28,0,.53,0,.74,0a4.24,4.24,0,0,0,.68-.09v1.12a5.49,5.49,0,0,1-.71.12,7.56,7.56,0,0,1-.83,0"/><path class="cls-1" d="M369.45,12.94a.81.81,0,0,1-.61-.19.8.8,0,0,1-.18-.59.67.67,0,0,1,.79-.78.84.84,0,0,1,.62.2.78.78,0,0,1,.19.58.81.81,0,0,1-.18.58.86.86,0,0,1-.63.2m-.7.91h1.41v5.5h-1.41Z"/><path class="cls-1" d="M374,19.45a2.77,2.77,0,0,1-2.08-.73,2.88,2.88,0,0,1-.72-2.12,2.9,2.9,0,0,1,.72-2.12,3.33,3.33,0,0,1,4.16,0,2.9,2.9,0,0,1,.72,2.12,2.88,2.88,0,0,1-.72,2.12,2.77,2.77,0,0,1-2.08.73m0-1.09a1.25,1.25,0,0,0,1-.4,2.24,2.24,0,0,0,.32-1.36,2.19,2.19,0,0,0-.32-1.35,1.58,1.58,0,0,0-2.1,0,2.12,2.12,0,0,0-.33,1.35A2.17,2.17,0,0,0,373,18a1.25,1.25,0,0,0,1.05.4"/><path class="cls-1" d="M377.91,13.85h1.19l.08.63h.06a11.17,11.17,0,0,1,1.33-.56,3.62,3.62,0,0,1,1-.17,1.38,1.38,0,0,1,1.51,1.52v4.08h-1.42v-3.6a1,1,0,0,0-.17-.67.71.71,0,0,0-.55-.2,2.46,2.46,0,0,0-.75.13,6.45,6.45,0,0,0-.88.33v4h-1.42Z"/><path class="cls-1" d="M386.89,19.44c-1.82,0-2.74-.93-2.74-2.79a3,3,0,0,1,.69-2.16,2.63,2.63,0,0,1,2-.73c1.54,0,2.31.82,2.31,2.45,0,.17,0,.31,0,.44s0,.25-.07.37h-3.54a2.52,2.52,0,0,0,.12.63,1,1,0,0,0,.28.41,1.09,1.09,0,0,0,.44.23,3,3,0,0,0,.64.06,8,8,0,0,0,.94-.06,7.59,7.59,0,0,0,.95-.19l.05,1a5.77,5.77,0,0,1-1,.23,6.62,6.62,0,0,1-1.07.09m-.08-4.67a1.13,1.13,0,0,0-.9.34,1.74,1.74,0,0,0-.36,1.09h2.37a2,2,0,0,0-.28-1.1,1,1,0,0,0-.83-.33"/><path class="cls-1" d="M392.07,19.46a8.49,8.49,0,0,1-.95-.06c-.34,0-.72-.1-1.12-.18v-1c.38.08.73.14,1.06.19a6.35,6.35,0,0,0,.95.07c.69,0,1-.21,1-.63a.52.52,0,0,0-.26-.49,2.72,2.72,0,0,0-.75-.22l-.68-.12a2.35,2.35,0,0,1-.64-.24,1.47,1.47,0,0,1-.48-.48,1.77,1.77,0,0,1-.18-.86,1.45,1.45,0,0,1,.59-1.24,2.69,2.69,0,0,1,1.65-.45h.4l.41,0,.49.06a5.6,5.6,0,0,1,.59.1l0,1.07c-.37-.08-.69-.14-1-.18a5.35,5.35,0,0,0-.74-.06c-.69,0-1,.21-1,.62a.47.47,0,0,0,.3.48,3.85,3.85,0,0,0,.88.22,4.89,4.89,0,0,1,.73.17,1.68,1.68,0,0,1,.58.3,1.37,1.37,0,0,1,.38.48,1.62,1.62,0,0,1,.13.7,1.49,1.49,0,0,1-.6,1.27,2.87,2.87,0,0,1-1.74.45"/><polygon class="cls-1" points="397.82 11.82 403.04 11.82 403.04 12.96 399.26 12.96 399.26 14.98 402.73 14.98 402.73 16.12 399.26 16.12 399.26 18.21 403.13 18.21 403.13 19.35 397.82 19.35 397.82 11.82"/><polygon class="cls-1" points="403.65 19.2 405.62 16.5 403.74 13.95 403.74 13.85 405.24 13.85 406.24 15.28 406.56 15.77 406.63 15.77 406.95 15.28 407.94 13.85 409.44 13.85 409.44 13.95 407.56 16.54 409.53 19.2 409.53 19.35 408.05 19.35 406.96 17.82 406.62 17.27 406.54 17.27 406.21 17.82 405.13 19.35 403.65 19.35 403.65 19.2"/><path class="cls-1" d="M412.62,19.46a1.87,1.87,0,0,1-1.35-.43,1.63,1.63,0,0,1-.45-1.25V15.06h-1V13.85h1.11l.22-1.5,1.1-.14v1.64h1.49v1.21h-1.48v2.4a1,1,0,0,0,.2.7.84.84,0,0,0,.64.21,2.22,2.22,0,0,0,.68-.12v1.07c-.16,0-.34.07-.54.1s-.4,0-.59,0"/><path class="cls-1" d="M417.14,19.44q-2.73,0-2.73-2.79a3,3,0,0,1,.68-2.16,2.63,2.63,0,0,1,2-.73c1.54,0,2.31.82,2.31,2.45,0,.17,0,.31,0,.44a1.51,1.51,0,0,1-.07.37H415.8a2.12,2.12,0,0,0,.13.63.92.92,0,0,0,.27.41,1.09,1.09,0,0,0,.44.23,3.06,3.06,0,0,0,.65.06,8.32,8.32,0,0,0,.94-.06,7.8,7.8,0,0,0,.94-.19l.05,1a5.77,5.77,0,0,1-1,.23,6.53,6.53,0,0,1-1.07.09m-.08-4.67a1.13,1.13,0,0,0-.9.34,1.74,1.74,0,0,0-.36,1.09h2.37a1.89,1.89,0,0,0-.28-1.1,1,1,0,0,0-.83-.33"/><path class="cls-1" d="M420.51,13.85h1.18l.08.8h0a10.55,10.55,0,0,1,.94-.56,3.19,3.19,0,0,1,.9-.33h.44V15h-.5a4.88,4.88,0,0,0-.88.21,4.69,4.69,0,0,0-.78.35v3.81h-1.42Z"/><path class="cls-1" d="M425.59,12.94a.67.67,0,0,1-.79-.78.82.82,0,0,1,.18-.59.8.8,0,0,1,.61-.19.84.84,0,0,1,.62.2.78.78,0,0,1,.19.58.81.81,0,0,1-.18.58.86.86,0,0,1-.63.2m-.7.91h1.41v5.5h-1.41Z"/><path class="cls-1" d="M430.18,19.45a2.77,2.77,0,0,1-2.08-.73,2.88,2.88,0,0,1-.72-2.12,2.9,2.9,0,0,1,.72-2.12,3.33,3.33,0,0,1,4.16,0A2.9,2.9,0,0,1,433,16.6a2.88,2.88,0,0,1-.72,2.12,2.77,2.77,0,0,1-2.08.73m0-1.09a1.25,1.25,0,0,0,1.05-.4,2.24,2.24,0,0,0,.32-1.36,2.19,2.19,0,0,0-.32-1.35,1.58,1.58,0,0,0-2.1,0,2.12,2.12,0,0,0-.33,1.35,2.17,2.17,0,0,0,.33,1.36,1.25,1.25,0,0,0,1.05.4"/><path class="cls-1" d="M434.05,13.85h1.19l.08.8h0a9.18,9.18,0,0,1,.93-.56,3.43,3.43,0,0,1,.9-.33h.45V15h-.5a4.69,4.69,0,0,0-.88.21,4.46,4.46,0,0,0-.79.35v3.81h-1.42Z"/><path class="cls-1" d="M440.73,19.44c-1.82,0-2.74-.93-2.74-2.79a3,3,0,0,1,.69-2.16,2.63,2.63,0,0,1,2-.73c1.54,0,2.31.82,2.31,2.45,0,.17,0,.31,0,.44a2.2,2.2,0,0,1-.07.37h-3.54a2.12,2.12,0,0,0,.13.63.92.92,0,0,0,.27.41,1.09,1.09,0,0,0,.44.23,3,3,0,0,0,.64.06,8.34,8.34,0,0,0,.95-.06,7.25,7.25,0,0,0,.93-.19l.06,1a5.77,5.77,0,0,1-1,.23,6.62,6.62,0,0,1-1.07.09m-.08-4.67a1.16,1.16,0,0,0-.91.34,1.8,1.8,0,0,0-.35,1.09h2.37a1.89,1.89,0,0,0-.28-1.1,1,1,0,0,0-.83-.33"/><path class="cls-1" d="M445.91,19.46a8.49,8.49,0,0,1-1-.06c-.34,0-.72-.1-1.11-.18v-1c.37.08.72.14,1,.19a6.26,6.26,0,0,0,1,.07c.69,0,1-.21,1-.63a.52.52,0,0,0-.26-.49,3,3,0,0,0-.75-.22L445.2,17a2.23,2.23,0,0,1-.64-.24,1.47,1.47,0,0,1-.48-.48,1.77,1.77,0,0,1-.19-.86,1.46,1.46,0,0,1,.6-1.24,2.69,2.69,0,0,1,1.65-.45h.4l.41,0,.49.06a5.6,5.6,0,0,1,.59.1L448,15q-.54-.12-1-.18a5.35,5.35,0,0,0-.74-.06c-.69,0-1,.21-1,.62a.47.47,0,0,0,.3.48,3.85,3.85,0,0,0,.88.22,4.89,4.89,0,0,1,.73.17,1.68,1.68,0,0,1,.58.3,1.37,1.37,0,0,1,.38.48,1.62,1.62,0,0,1,.13.7,1.49,1.49,0,0,1-.6,1.27,2.87,2.87,0,0,1-1.74.45"/><polygon class="cls-1" points="448.89 20.82 449.34 17.88 450.77 17.88 449.96 20.93 448.89 20.82"/><path class="cls-1" d="M277.9,31.51a3.62,3.62,0,0,1-2.74-1,4.13,4.13,0,0,1-.89-2.92,4.18,4.18,0,0,1,.88-2.92,3.43,3.43,0,0,1,2.68-1c.23,0,.49,0,.78,0s.6.07.95.13v1.17l-.51-.07-.41,0-.34,0H278a3.19,3.19,0,0,0-1,.14,1.48,1.48,0,0,0-.7.46,1.94,1.94,0,0,0-.39.83,5.73,5.73,0,0,0-.12,1.26,5.42,5.42,0,0,0,.12,1.24,1.94,1.94,0,0,0,.39.83,1.33,1.33,0,0,0,.67.46,3,3,0,0,0,1,.15l.39,0,.44,0,.44-.06.35-.07v1.17a7.3,7.3,0,0,1-.82.14,6.38,6.38,0,0,1-.84.06"/><path class="cls-1" d="M283.05,31.5a2.8,2.8,0,0,1-2.08-.73,2.88,2.88,0,0,1-.72-2.12,2.88,2.88,0,0,1,.72-2.12,3.33,3.33,0,0,1,4.16,0,2.88,2.88,0,0,1,.72,2.12,2.88,2.88,0,0,1-.72,2.12,2.81,2.81,0,0,1-2.08.73m0-1.09a1.25,1.25,0,0,0,1.05-.4,2.24,2.24,0,0,0,.32-1.36,2.19,2.19,0,0,0-.32-1.35,1.25,1.25,0,0,0-1.05-.4,1.28,1.28,0,0,0-1.06.4,2.19,2.19,0,0,0-.32,1.35A2.24,2.24,0,0,0,282,30a1.28,1.28,0,0,0,1.06.4"/><path class="cls-1" d="M286.92,25.9h1.17l.09.63h.06a7.9,7.9,0,0,1,1.08-.55,2.59,2.59,0,0,1,.92-.18,1.35,1.35,0,0,1,1.35.74h.05a7.1,7.1,0,0,1,1.09-.56,2.63,2.63,0,0,1,.92-.18,1.54,1.54,0,0,1,1.12.39,1.51,1.51,0,0,1,.4,1.13V31.4h-1.41V27.81a1,1,0,0,0-.18-.65A.71.71,0,0,0,293,27a2.13,2.13,0,0,0-.59.11,3.2,3.2,0,0,0-.69.31v4h-1.41V27.81a1,1,0,0,0-.17-.65.72.72,0,0,0-.56-.2,1.87,1.87,0,0,0-.59.12,4.19,4.19,0,0,0-.69.31v4h-1.41Z"/><path class="cls-1" d="M299,31.49c-1.82,0-2.74-.93-2.74-2.79a3,3,0,0,1,.69-2.16,2.63,2.63,0,0,1,2-.73c1.54,0,2.31.82,2.31,2.45,0,.16,0,.31,0,.44s0,.25-.07.37h-3.54a2.12,2.12,0,0,0,.13.63,1,1,0,0,0,.27.41,1.07,1.07,0,0,0,.44.22,2.41,2.41,0,0,0,.64.07,6.65,6.65,0,0,0,.95-.07,6.27,6.27,0,0,0,.94-.18l.05,1a5.77,5.77,0,0,1-1,.23,6.62,6.62,0,0,1-1.07.09m-.08-4.67a1.13,1.13,0,0,0-.9.34,1.74,1.74,0,0,0-.36,1.09H300a2,2,0,0,0-.28-1.1,1,1,0,0,0-.83-.33"/><path class="cls-1" d="M302.33,25.9h1.18l.08.8h0a7.75,7.75,0,0,1,.94-.56,3.19,3.19,0,0,1,.9-.33h.44V27h-.5a4.16,4.16,0,0,0-.88.21,4.81,4.81,0,0,0-.79.35V31.4h-1.41Z"/><path class="cls-1" d="M309,31.49c-1.84,0-2.75-.95-2.75-2.84s.91-2.84,2.75-2.84a7.51,7.51,0,0,1,.8,0,6.54,6.54,0,0,1,.73.12V27.1q-.36-.06-.72-.09a5.38,5.38,0,0,0-.68,0,1.39,1.39,0,0,0-1.12.4,1.91,1.91,0,0,0-.35,1.27,1.94,1.94,0,0,0,.34,1.29,1.36,1.36,0,0,0,1.12.4c.27,0,.52,0,.74,0a5.91,5.91,0,0,0,.67-.09v1.12a5.2,5.2,0,0,1-.71.12c-.27,0-.55,0-.82,0"/><path class="cls-1" d="M312.34,25a.83.83,0,0,1-.61-.19,1.06,1.06,0,0,1,0-1.18.83.83,0,0,1,.61-.19.84.84,0,0,1,.62.19.81.81,0,0,1,.2.59.82.82,0,0,1-.19.58.86.86,0,0,1-.63.2m-.7.91h1.42v5.5h-1.42Z"/><path class="cls-1" d="M316.93,31.5a2.81,2.81,0,0,1-2.08-.73,2.88,2.88,0,0,1-.72-2.12,2.88,2.88,0,0,1,.72-2.12,3.33,3.33,0,0,1,4.16,0,2.88,2.88,0,0,1,.72,2.12,2.88,2.88,0,0,1-.72,2.12,2.8,2.8,0,0,1-2.08.73m0-1.09A1.28,1.28,0,0,0,318,30a2.24,2.24,0,0,0,.32-1.36A2.19,2.19,0,0,0,318,27.3a1.28,1.28,0,0,0-1.06-.4,1.25,1.25,0,0,0-1.05.4,2.19,2.19,0,0,0-.32,1.35,2.24,2.24,0,0,0,.32,1.36,1.25,1.25,0,0,0,1.05.4"/><rect class="cls-1" x="323.17" y="23.87" width="1.44" height="7.53"/><path class="cls-1" d="M326.09,25.9h1.18l.08.63h.06a12,12,0,0,1,1.34-.56,3.5,3.5,0,0,1,1-.17,1.5,1.5,0,0,1,1.11.39,1.47,1.47,0,0,1,.4,1.13V31.4h-1.42V27.8a1,1,0,0,0-.17-.67.68.68,0,0,0-.55-.2,2.57,2.57,0,0,0-.75.13,7,7,0,0,0-.88.33v4h-1.41Z"/><path class="cls-1" d="M334.91,31.51a1.86,1.86,0,0,1-1.34-.43,1.63,1.63,0,0,1-.45-1.25V27.1h-1V25.9h1.12l.22-1.5,1.1-.14V25.9H336v1.2h-1.48v2.4a1.06,1.06,0,0,0,.19.71.88.88,0,0,0,.65.21,2.16,2.16,0,0,0,.67-.12v1.07a5.06,5.06,0,0,1-.53.1c-.2,0-.4,0-.6,0"/><path class="cls-1" d="M339.44,31.49c-1.82,0-2.74-.93-2.74-2.79a3,3,0,0,1,.69-2.16,2.63,2.63,0,0,1,2-.73c1.54,0,2.31.82,2.31,2.45,0,.16,0,.31,0,.44a2.2,2.2,0,0,1-.07.37H338.1a2.12,2.12,0,0,0,.13.63,1,1,0,0,0,.27.41,1,1,0,0,0,.44.22,2.41,2.41,0,0,0,.64.07,6.65,6.65,0,0,0,.95-.07,6.27,6.27,0,0,0,.94-.18l0,1a5.77,5.77,0,0,1-1,.23,6.62,6.62,0,0,1-1.07.09m-.08-4.67a1.16,1.16,0,0,0-.91.34,1.8,1.8,0,0,0-.35,1.09h2.37a1.89,1.89,0,0,0-.28-1.1,1,1,0,0,0-.83-.33"/><path class="cls-1" d="M342.81,25.9H344l.08.8h0a7.75,7.75,0,0,1,.94-.56,3.25,3.25,0,0,1,.89-.33h.45V27h-.5a4.16,4.16,0,0,0-.88.21,4.35,4.35,0,0,0-.78.35V31.4h-1.42Z"/><path class="cls-1" d="M347.19,25.9h1.18l.08.63h.06a11.17,11.17,0,0,1,1.33-.56,3.62,3.62,0,0,1,1-.17,1.53,1.53,0,0,1,1.11.39,1.5,1.5,0,0,1,.39,1.13V31.4H351V27.8a1,1,0,0,0-.17-.67.71.71,0,0,0-.55-.2,2.46,2.46,0,0,0-.75.13,6,6,0,0,0-.88.33v4h-1.41Z"/><path class="cls-1" d="M354.9,31.45a1.6,1.6,0,0,1-1-2.77,2.73,2.73,0,0,1,1.58-.5l1.29-.09v-.18a2.37,2.37,0,0,0-.05-.51.61.61,0,0,0-.19-.32.79.79,0,0,0-.37-.17,3.44,3.44,0,0,0-.62-.05,8.1,8.1,0,0,0-.81,0c-.3,0-.6.08-.9.14l-.09-1a12.28,12.28,0,0,1,2-.2,3,3,0,0,1,1.82.45,1.64,1.64,0,0,1,.58,1.39V31.4H357l-.13-.69h-.08a2.89,2.89,0,0,1-1.87.74m.58-1a1.7,1.7,0,0,0,.64-.13,3,3,0,0,0,.61-.33V28.86l-.86.08a1.81,1.81,0,0,0-.86.24.72.72,0,0,0-.23.59.61.61,0,0,0,.7.68"/><path class="cls-1" d="M361.93,31.49c-1.83,0-2.75-.95-2.75-2.84s.92-2.84,2.75-2.84a7.39,7.39,0,0,1,.8,0,6.74,6.74,0,0,1,.74.12V27.1l-.73-.09a5.27,5.27,0,0,0-.68,0,1.4,1.4,0,0,0-1.12.4,1.91,1.91,0,0,0-.34,1.27,2,2,0,0,0,.33,1.29,1.39,1.39,0,0,0,1.12.4c.28,0,.53,0,.74,0a6.07,6.07,0,0,0,.68-.09v1.12a5.49,5.49,0,0,1-.71.12c-.28,0-.55,0-.83,0"/><path class="cls-1" d="M365.27,25a.8.8,0,0,1-.61-.19,1,1,0,0,1,0-1.18.8.8,0,0,1,.61-.19.85.85,0,0,1,.62.19.81.81,0,0,1,.19.59.78.78,0,0,1-.19.58.82.82,0,0,1-.62.2m-.7.91H366v5.5h-1.41Z"/><path class="cls-1" d="M369.86,31.5a2.8,2.8,0,0,1-2.08-.73,2.88,2.88,0,0,1-.72-2.12,2.88,2.88,0,0,1,.72-2.12,3.33,3.33,0,0,1,4.16,0,2.88,2.88,0,0,1,.72,2.12,2.88,2.88,0,0,1-.72,2.12,2.81,2.81,0,0,1-2.08.73m0-1.09a1.25,1.25,0,0,0,1.05-.4,2.18,2.18,0,0,0,.32-1.36,2.12,2.12,0,0,0-.32-1.35,1.25,1.25,0,0,0-1.05-.4,1.28,1.28,0,0,0-1.06.4,2.19,2.19,0,0,0-.32,1.35A2.24,2.24,0,0,0,368.8,30a1.28,1.28,0,0,0,1.06.4"/><path class="cls-1" d="M373.73,25.9h1.18l.09.63h.06a11.17,11.17,0,0,1,1.33-.56,3.62,3.62,0,0,1,1-.17,1.53,1.53,0,0,1,1.11.39,1.5,1.5,0,0,1,.39,1.13V31.4H377.5V27.8a1,1,0,0,0-.17-.67.71.71,0,0,0-.55-.2,2.46,2.46,0,0,0-.75.13,6,6,0,0,0-.88.33v4h-1.42Z"/><path class="cls-1" d="M381.45,31.45a1.38,1.38,0,0,1-1.55-1.53,1.56,1.56,0,0,1,.5-1.24,2.79,2.79,0,0,1,1.59-.5l1.29-.09v-.18a2.37,2.37,0,0,0,0-.51.69.69,0,0,0-.19-.32.79.79,0,0,0-.38-.17,3.32,3.32,0,0,0-.61-.05,8.1,8.1,0,0,0-.81,0c-.3,0-.6.08-.9.14l-.09-1a12.28,12.28,0,0,1,2-.2,3,3,0,0,1,1.82.45,1.64,1.64,0,0,1,.58,1.39V31.4h-1.16l-.13-.69h-.08a2.89,2.89,0,0,1-1.87.74m.58-1a1.74,1.74,0,0,0,.64-.13,3,3,0,0,0,.61-.33V28.86l-.87.08a1.8,1.8,0,0,0-.85.24.69.69,0,0,0-.24.59.62.62,0,0,0,.71.68"/><rect class="cls-1" x="386.01" y="23.17" width="1.42" height="8.22"/><polygon class="cls-1" points="391.67 33.43 391.66 33.31 392.47 31.33 390.2 26.05 390.2 25.9 391.71 25.9 392.85 28.97 393.14 29.91 393.22 29.91 393.5 28.97 394.69 25.9 396.16 25.9 396.16 26.05 393 33.63 391.67 33.43"/><path class="cls-1" d="M402.32,31.51a3.62,3.62,0,0,1-2.74-1,4.13,4.13,0,0,1-.9-2.92,4.18,4.18,0,0,1,.89-2.92,3.43,3.43,0,0,1,2.68-1c.23,0,.49,0,.78,0s.6.07,1,.13v1.17l-.51-.07-.41,0-.34,0h-.31a3.19,3.19,0,0,0-1,.14,1.48,1.48,0,0,0-.7.46,1.94,1.94,0,0,0-.39.83,5.73,5.73,0,0,0-.12,1.26,5.42,5.42,0,0,0,.12,1.24,2.06,2.06,0,0,0,.38.83,1.4,1.4,0,0,0,.68.46,3,3,0,0,0,1,.15l.39,0,.44,0,.44-.06.35-.07v1.17a7.3,7.3,0,0,1-.82.14,6.38,6.38,0,0,1-.84.06"/><path class="cls-1" d="M406.44,31.5a1.5,1.5,0,0,1-1.13-.4,1.55,1.55,0,0,1-.38-1.12V25.9h1.42v3.64a1.11,1.11,0,0,0,.15.66.68.68,0,0,0,.55.19,2.49,2.49,0,0,0,.81-.15l.85-.34v-4h1.41v5.5h-1.19l-.08-.66h0l-.7.35a4.15,4.15,0,0,1-.56.23,2.35,2.35,0,0,1-.52.14,5.14,5.14,0,0,1-.59,0"/><rect class="cls-1" x="411.49" y="23.17" width="1.41" height="8.22"/><path class="cls-1" d="M416.58,31.51a1.86,1.86,0,0,1-1.34-.43,1.63,1.63,0,0,1-.45-1.25V27.1h-1V25.9h1.11l.22-1.5,1.1-.14V25.9h1.49v1.2H416.2v2.4a1.06,1.06,0,0,0,.19.71.88.88,0,0,0,.65.21,2.16,2.16,0,0,0,.67-.12v1.07a5.06,5.06,0,0,1-.53.1c-.2,0-.4,0-.6,0"/><path class="cls-1" d="M421.15,31.5a2.81,2.81,0,0,1-2.08-.73,2.88,2.88,0,0,1-.71-2.12,2.88,2.88,0,0,1,.71-2.12,3.33,3.33,0,0,1,4.16,0,2.88,2.88,0,0,1,.72,2.12,2.88,2.88,0,0,1-.72,2.12,2.8,2.8,0,0,1-2.08.73m0-1.09a1.28,1.28,0,0,0,1.06-.4,2.24,2.24,0,0,0,.32-1.36,2.19,2.19,0,0,0-.32-1.35,1.28,1.28,0,0,0-1.06-.4,1.25,1.25,0,0,0-1,.4,2.19,2.19,0,0,0-.32,1.35A2.24,2.24,0,0,0,420.1,30a1.25,1.25,0,0,0,1,.4"/><path class="cls-1" d="M281.87,46.15l-.94-2.87a.24.24,0,0,0-.23-.17h-4a.23.23,0,0,0-.22.17l-.94,2.87a.23.23,0,0,1-.23.16h-1.46a.23.23,0,0,1-.22-.31l3.57-10.63a.26.26,0,0,1,.23-.17H280a.25.25,0,0,1,.23.17L283.8,46a.24.24,0,0,1-.23.31h-1.48a.22.22,0,0,1-.22-.16m-4.48-4.64H280a.25.25,0,0,0,.23-.32l-1.32-4a.24.24,0,0,0-.46,0l-1.31,4a.24.24,0,0,0,.23.32"/><path class="cls-1" d="M285.26,38.12h1.17a.25.25,0,0,1,.24.21l.12.86h.11a2.21,2.21,0,0,1,1-.87,2.79,2.79,0,0,1,1.29-.3,3.15,3.15,0,0,1,.44,0,.24.24,0,0,1,.21.24v1.3a.24.24,0,0,1-.26.24l-.5,0a2.93,2.93,0,0,0-1.15.24,2.05,2.05,0,0,0-.84.62.21.21,0,0,0-.05.15v5.25a.24.24,0,0,1-.24.24h-1.49a.24.24,0,0,1-.24-.24V38.36a.24.24,0,0,1,.24-.24"/><path class="cls-1" d="M292.18,49.68a9.11,9.11,0,0,1-1.11-.21.25.25,0,0,1-.18-.24V48.17a.24.24,0,0,1,.3-.23,8.63,8.63,0,0,0,2.19.29,3.7,3.7,0,0,0,1.36-.21,1.47,1.47,0,0,0,.78-.69,2.73,2.73,0,0,0,.25-1.24v-.65h-.1a2.54,2.54,0,0,1-.93.69,3.13,3.13,0,0,1-1.25.25,2.9,2.9,0,0,1-2.73-1.75,5.23,5.23,0,0,1-.43-2.24,4.42,4.42,0,0,1,1.13-3.28A4.59,4.59,0,0,1,294.81,38a10,10,0,0,1,1.52.11,7.93,7.93,0,0,1,1.24.26.24.24,0,0,1,.16.23v7.13a5,5,0,0,1-.46,2.31,2.86,2.86,0,0,1-1.39,1.31,6,6,0,0,1-2.36.41,12.19,12.19,0,0,1-1.34-.08m2.89-5.08a1.83,1.83,0,0,0,.63-.42.23.23,0,0,0,.07-.17V39.84a.24.24,0,0,0-.2-.24,4.88,4.88,0,0,0-.93-.09,2.23,2.23,0,0,0-1.74.65,3,3,0,0,0-.58,2.05,3.12,3.12,0,0,0,.48,2,1.71,1.71,0,0,0,1.4.57,2.35,2.35,0,0,0,.87-.16"/><path class="cls-1" d="M306.09,42.81h-4.56a.23.23,0,0,0-.24.27,2.64,2.64,0,0,0,.28,1,1.48,1.48,0,0,0,.81.68,4.18,4.18,0,0,0,1.46.21,8,8,0,0,0,1.77-.22.24.24,0,0,1,.29.24v1a.24.24,0,0,1-.19.23,9.26,9.26,0,0,1-2.14.25,5.75,5.75,0,0,1-2.4-.44,3,3,0,0,1-1.41-1.38,5.45,5.45,0,0,1-.47-2.43,5.72,5.72,0,0,1,.43-2.32A3.09,3.09,0,0,1,301,38.47a3.79,3.79,0,0,1,2-.47,3,3,0,0,1,2.54,1.07,5,5,0,0,1,.87,3.2v.3a.24.24,0,0,1-.24.24m-4.39-3a2.82,2.82,0,0,0-.43,1.56.24.24,0,0,0,.24.25h2.74a.24.24,0,0,0,.24-.25,2.93,2.93,0,0,0-.41-1.56,1.35,1.35,0,0,0-1.17-.54,1.42,1.42,0,0,0-1.21.54"/><path class="cls-1" d="M308,38.12h1.18a.25.25,0,0,1,.24.2l.1.67h.11a3.1,3.1,0,0,1,1.1-.74,3.56,3.56,0,0,1,1.35-.25,2.68,2.68,0,0,1,2,.74,3.27,3.27,0,0,1,.73,2.36v5a.24.24,0,0,1-.24.24h-1.49a.23.23,0,0,1-.23-.24V41.22a1.62,1.62,0,0,0-.35-1.17,1.38,1.38,0,0,0-1-.35,2.39,2.39,0,0,0-1,.21,1.85,1.85,0,0,0-.75.55.27.27,0,0,0-.05.15v5.46a.24.24,0,0,1-.24.24H308a.24.24,0,0,1-.24-.24V38.36a.24.24,0,0,1,.24-.24"/><path class="cls-1" d="M321.62,45v1.1a.25.25,0,0,1-.19.24,6.38,6.38,0,0,1-1.22.12,2.59,2.59,0,0,1-2.92-2.93v-3.6a.24.24,0,0,0-.24-.24h-.93a.24.24,0,0,1-.24-.24V38.36a.24.24,0,0,1,.24-.24h1a.24.24,0,0,0,.24-.21l.29-2.5a.25.25,0,0,1,.24-.21H319a.24.24,0,0,1,.24.24v2.44a.24.24,0,0,0,.24.24h1.81a.24.24,0,0,1,.24.24v1.09a.24.24,0,0,1-.24.24H319.5a.24.24,0,0,0-.24.24v3.28a2.45,2.45,0,0,0,.15.95,1,1,0,0,0,.47.51,2,2,0,0,0,.84.16,4.11,4.11,0,0,0,.63-.06.23.23,0,0,1,.27.23"/><path class="cls-1" d="M323.06,36.44a1,1,0,0,1-.31-.79,1,1,0,0,1,.31-.79,1.7,1.7,0,0,1,1.87,0,1,1,0,0,1,.31.79,1,1,0,0,1-.31.79,1.7,1.7,0,0,1-1.87,0M323,46.07V38.36a.23.23,0,0,1,.23-.24h1.5a.24.24,0,0,1,.24.24v7.71a.24.24,0,0,1-.24.24h-1.5a.23.23,0,0,1-.23-.24"/><path class="cls-1" d="M326.83,38.12H328a.25.25,0,0,1,.24.2l.1.67h.11a3.19,3.19,0,0,1,1.1-.74,3.56,3.56,0,0,1,1.35-.25,2.68,2.68,0,0,1,2,.74,3.27,3.27,0,0,1,.73,2.36v5a.24.24,0,0,1-.24.24h-1.49a.23.23,0,0,1-.23-.24V41.22a1.62,1.62,0,0,0-.35-1.17,1.37,1.37,0,0,0-1-.35,2.4,2.4,0,0,0-1,.21,1.85,1.85,0,0,0-.75.55.22.22,0,0,0-.06.15v5.46a.23.23,0,0,1-.23.24h-1.49a.24.24,0,0,1-.24-.24V38.36a.24.24,0,0,1,.24-.24"/><path class="cls-1" d="M340.28,38.31a2.14,2.14,0,0,1,1.15,1,4.08,4.08,0,0,1,.38,1.94v4.8a.24.24,0,0,1-.24.24h-1.18a.24.24,0,0,1-.24-.2l-.1-.65h-.11a2.25,2.25,0,0,1-.95.74,3.16,3.16,0,0,1-1.29.25,3.12,3.12,0,0,1-1.38-.28,2.09,2.09,0,0,1-.9-.81,2.32,2.32,0,0,1-.31-1.23,2.13,2.13,0,0,1,.78-1.76,4.51,4.51,0,0,1,2.47-.76l1.53-.14v-.32a2,2,0,0,0-.2-1,1.09,1.09,0,0,0-.62-.51,3.49,3.49,0,0,0-1.14-.15,7.26,7.26,0,0,0-1.09.09,7.45,7.45,0,0,0-.82.17.24.24,0,0,1-.3-.23v-1a.23.23,0,0,1,.17-.23,7.51,7.51,0,0,1,1.07-.21,10,10,0,0,1,1.3-.09,5.46,5.46,0,0,1,2,.31m-1.12,6.58a2,2,0,0,0,.66-.45.22.22,0,0,0,.07-.17V42.89a.24.24,0,0,0-.26-.24l-1.08.1a2,2,0,0,0-1.13.37,1,1,0,0,0-.36.83,1,1,0,0,0,.32.82,1.35,1.35,0,0,0,.93.29,2.3,2.3,0,0,0,.85-.17"/><polygon class="cls-1" points="160.65 18.68 167.6 11.73 192.34 11.73 192.34 36.23 185.27 43.3 185.27 18.68 160.65 18.68"/><polygon class="cls-1" points="185.27 43.3 178.32 50.25 153.58 50.25 153.58 25.75 160.65 18.68 160.65 43.3 185.27 43.3"/><path class="cls-1" d="M174.16,30.4v4.71h-2.24v-1a2.7,2.7,0,0,1-2.51,1.15c-1.93,0-3.08-1.07-3.08-2.5s1-2.46,3.54-2.46h1.9c0-1-.61-1.63-1.9-1.63a4,4,0,0,0-2.38.77l-.85-1.67a6.34,6.34,0,0,1,3.55-1c2.51,0,4,1.17,4,3.66m-2.39,2.1v-.84h-1.64c-1.12,0-1.47.41-1.47,1s.5,1,1.35,1a1.77,1.77,0,0,0,1.76-1.12"/><path class="cls-1" d="M180.73,26.74V29a5,5,0,0,0-.54,0,2,2,0,0,0-2.19,2.3v3.89h-2.39V26.87h2.28V28a3.37,3.37,0,0,1,2.84-1.21"/><path class="cls-1" d="M39.86,24.07l-.73-1.77H35.22l-.73,1.77H32.65l3.63-8.15H38.1l3.64,8.15ZM35.79,21h2.78l-1.39-3.37Z"/><path class="cls-1" d="M45.38,26.45a6.51,6.51,0,0,1-1.73-.22,3.88,3.88,0,0,1-1.31-.61L43,24.4a3.1,3.1,0,0,0,1,.49,4.12,4.12,0,0,0,1.24.2,2,2,0,0,0,1.45-.45,1.79,1.79,0,0,0,.47-1.34v-.42l-.09.11a2.55,2.55,0,0,1-2,.77,3.31,3.31,0,0,1-1.57-.38,2.75,2.75,0,0,1-1.13-1.06,3.16,3.16,0,0,1,0-3.15,2.82,2.82,0,0,1,1.13-1.06,3.31,3.31,0,0,1,1.57-.38,2.48,2.48,0,0,1,2.06.89l.1.13v-.92h1.63v5.23A3.39,3.39,0,0,1,48,25.62,3.73,3.73,0,0,1,45.38,26.45Zm.09-7.32a1.79,1.79,0,0,0-1.25.45,1.64,1.64,0,0,0,0,2.34,1.83,1.83,0,0,0,1.25.44,1.76,1.76,0,0,0,1.23-.44,1.64,1.64,0,0,0,0-2.34A1.73,1.73,0,0,0,45.47,19.13Z"/><path class="cls-1" d="M53.7,24.16a4.15,4.15,0,0,1-1.87-.41,3,3,0,0,1-1.25-1.14A3.12,3.12,0,0,1,50.14,21a3.21,3.21,0,0,1,.43-1.66,3.06,3.06,0,0,1,1.2-1.14,3.43,3.43,0,0,1,1.7-.42,3.51,3.51,0,0,1,1.66.4,2.87,2.87,0,0,1,1.16,1.13A3.39,3.39,0,0,1,56.72,21s0,.17,0,.44H51.86l0,.07a1.55,1.55,0,0,0,.64,1,2.1,2.1,0,0,0,1.23.35,2.5,2.5,0,0,0,.9-.15,2.31,2.31,0,0,0,.69-.44l.91,1A3.29,3.29,0,0,1,53.7,24.16ZM53.48,19a1.68,1.68,0,0,0-1.09.36,1.56,1.56,0,0,0-.53,1v.07H55.1v-.07a1.53,1.53,0,0,0-.54-1A1.58,1.58,0,0,0,53.48,19Z"/><path class="cls-1" d="M62.6,24.07v-3.3a1.75,1.75,0,0,0-.34-1.16,1.27,1.27,0,0,0-1-.39,1.54,1.54,0,0,0-1.15.44A1.83,1.83,0,0,0,59.68,21v3.09H58V17.83H59.6v.83l.09-.11a2.41,2.41,0,0,1,.89-.6,3.2,3.2,0,0,1,1.17-.22,2.58,2.58,0,0,1,1.87.7,2.77,2.77,0,0,1,.71,2.06v3.58Z"/><path class="cls-1" d="M69.08,24.16a3.87,3.87,0,0,1-1.79-.41A3.13,3.13,0,0,1,66,22.61,3.22,3.22,0,0,1,65.6,21,3.17,3.17,0,0,1,66,19.29a3.06,3.06,0,0,1,1.25-1.14,3.75,3.75,0,0,1,1.79-.42,3.44,3.44,0,0,1,1.73.42,2.47,2.47,0,0,1,1,1.12L70.52,20a1.61,1.61,0,0,0-1.45-.86,1.69,1.69,0,0,0-1.23.49A1.83,1.83,0,0,0,67.35,21a1.81,1.81,0,0,0,.49,1.32,1.65,1.65,0,0,0,1.23.49,1.58,1.58,0,0,0,1.45-.85l1.34.73a2.53,2.53,0,0,1-1,1.1A3.44,3.44,0,0,1,69.08,24.16Z"/><path class="cls-1" d="M72.94,24.07V17.83h1.73v6.24Zm.86-7.24a1.08,1.08,0,0,1-.78-.28.94.94,0,0,1,0-1.38,1.08,1.08,0,0,1,.78-.28,1.13,1.13,0,0,1,.79.27.83.83,0,0,1,.3.67.93.93,0,0,1-.3.72A1.09,1.09,0,0,1,73.8,16.83Z"/><path class="cls-1" d="M78.29,24.16A3,3,0,0,1,77,23.92a1.8,1.8,0,0,1-.79-.67,1.74,1.74,0,0,1-.28-1,1.61,1.61,0,0,1,.65-1.35,3.41,3.41,0,0,1,2-.49h1.52v-.06a1.26,1.26,0,0,0-.38-1,1.72,1.72,0,0,0-1.14-.33,3.18,3.18,0,0,0-1,.16,2.73,2.73,0,0,0-.8.4l-.6-1.19a4.27,4.27,0,0,1,1.18-.53,5.68,5.68,0,0,1,1.48-.2,3.29,3.29,0,0,1,2.23.69,2.67,2.67,0,0,1,.77,2.08v3.57H80.28v-.94l-.1.17A2,2,0,0,1,78.29,24.16Zm.55-2.75c-.78,0-1.18.27-1.18.8a.73.73,0,0,0,.3.61,1.32,1.32,0,0,0,.79.21,1.71,1.71,0,0,0,.87-.22,1.29,1.29,0,0,0,.54-.67v-.73Z"/><path class="cls-1" d="M93.08,24.07l-.73-1.77H88.44l-.73,1.77H85.87l3.63-8.15h1.82L95,24.07ZM89,21h2.78L90.4,17.59Z"/><path class="cls-1" d="M95.73,24.07V17.83h1.65v1l.1-.14a2,2,0,0,1,.87-.67,3.26,3.26,0,0,1,1.21-.24v1.59a2.88,2.88,0,0,0-.36,0,1.69,1.69,0,0,0-1.27.46,1.83,1.83,0,0,0-.47,1.37v2.94Z"/><path class="cls-1" d="M103.54,26.45a6.59,6.59,0,0,1-1.74-.22,3.88,3.88,0,0,1-1.31-.61l.68-1.22a3.1,3.1,0,0,0,1,.49,4.12,4.12,0,0,0,1.24.2,2,2,0,0,0,1.45-.45,1.76,1.76,0,0,0,.48-1.34v-.42l-.1.11a2.55,2.55,0,0,1-2,.77,3.31,3.31,0,0,1-1.57-.38,2.88,2.88,0,0,1-1.13-1.06,3,3,0,0,1,1.13-4.21,3.31,3.31,0,0,1,1.57-.38,2.48,2.48,0,0,1,2.06.89l.1.13v-.92h1.64v5.23a3.35,3.35,0,0,1-.9,2.56A3.72,3.72,0,0,1,103.54,26.45Zm.08-7.32a1.75,1.75,0,0,0-1.24.45,1.64,1.64,0,0,0,0,2.34,1.79,1.79,0,0,0,1.24.44,1.76,1.76,0,0,0,1.23-.44,1.64,1.64,0,0,0,0-2.34A1.73,1.73,0,0,0,103.62,19.13Z"/><path class="cls-1" d="M111.86,24.16a4.16,4.16,0,0,1-1.88-.41,3,3,0,0,1-1.25-1.14,3.22,3.22,0,0,1-.44-1.66,3.31,3.31,0,0,1,.43-1.66,3.13,3.13,0,0,1,1.2-1.14,3.46,3.46,0,0,1,1.7-.42,3.51,3.51,0,0,1,1.66.4,2.83,2.83,0,0,1,1.17,1.13,3.39,3.39,0,0,1,.42,1.71s0,.17,0,.44H110v.07a1.59,1.59,0,0,0,.64,1,2.1,2.1,0,0,0,1.23.35,2.21,2.21,0,0,0,1.6-.59l.9,1A3.28,3.28,0,0,1,111.86,24.16ZM111.63,19a1.64,1.64,0,0,0-1.08.36,1.53,1.53,0,0,0-.54,1v.07h3.26v-.07A1.57,1.57,0,0,0,111.63,19Z"/><path class="cls-1" d="M120.75,24.07v-3.3a1.69,1.69,0,0,0-.34-1.16,1.27,1.27,0,0,0-1-.39,1.55,1.55,0,0,0-1.15.44,1.87,1.87,0,0,0-.43,1.32v3.09H116.1V17.83h1.65v.83l.1-.11a2.26,2.26,0,0,1,.89-.6,3.13,3.13,0,0,1,1.17-.22,2.55,2.55,0,0,1,1.86.7,2.77,2.77,0,0,1,.71,2.06v3.58Z"/><path class="cls-1" d="M126.69,24.16A2.45,2.45,0,0,1,125,23.6a2.16,2.16,0,0,1-.6-1.66V19.27h-1V18h1V16.42h1.73V18h1.58v1.3h-1.58v2.65a.88.88,0,0,0,.22.65.81.81,0,0,0,.62.24,1.29,1.29,0,0,0,.72-.2l.45,1.19a1.9,1.9,0,0,1-.61.26A3.12,3.12,0,0,1,126.69,24.16Z"/><path class="cls-1" d="M129.18,24.07V17.83h1.73v6.24Zm.87-7.24a1.09,1.09,0,0,1-.79-.28.94.94,0,0,1,0-1.38,1.09,1.09,0,0,1,.79-.28,1.12,1.12,0,0,1,.78.27.87.87,0,0,1,.31.67.94.94,0,0,1-.31.72A1.08,1.08,0,0,1,130.05,16.83Z"/><path class="cls-1" d="M137.28,24.07v-3.3a1.69,1.69,0,0,0-.35-1.16,1.25,1.25,0,0,0-1-.39,1.54,1.54,0,0,0-1.15.44,1.83,1.83,0,0,0-.43,1.32v3.09h-1.73V17.83h1.64v.83l.1-.11a2.41,2.41,0,0,1,.89-.6,3.16,3.16,0,0,1,1.17-.22,2.58,2.58,0,0,1,1.87.7,2.77,2.77,0,0,1,.71,2.06v3.58Z"/><path class="cls-1" d="M142.58,24.16a2.92,2.92,0,0,1-1.24-.24,1.78,1.78,0,0,1-.8-.67,1.74,1.74,0,0,1-.28-1,1.61,1.61,0,0,1,.65-1.35,3.41,3.41,0,0,1,2-.49h1.52v-.06a1.26,1.26,0,0,0-.38-1,1.7,1.7,0,0,0-1.14-.33,3.18,3.18,0,0,0-1,.16,2.73,2.73,0,0,0-.8.4l-.6-1.19a4.27,4.27,0,0,1,1.18-.53,5.68,5.68,0,0,1,1.48-.2,3.29,3.29,0,0,1,2.23.69,2.67,2.67,0,0,1,.77,2.08v3.57h-1.61v-.94l-.1.17A2,2,0,0,1,142.58,24.16Zm.56-2.75c-.79,0-1.19.27-1.19.8a.73.73,0,0,0,.3.61A1.32,1.32,0,0,0,143,23a1.68,1.68,0,0,0,.87-.22,1.29,1.29,0,0,0,.54-.67v-.73Z"/><path class="cls-1" d="M62.26,35.18a3.16,3.16,0,0,1-1.59-.4,2.81,2.81,0,0,1-1.12-1.12,3.71,3.71,0,0,1,0-3.39,2.83,2.83,0,0,1,1.12-1.13,3.26,3.26,0,0,1,1.59-.39,2.36,2.36,0,0,1,1.86.75l.1.11V26.44H66v8.64H64.3v-.83l-.1.12A2.36,2.36,0,0,1,62.26,35.18Zm.32-5a1.61,1.61,0,0,0-1.21.5,2.07,2.07,0,0,0,0,2.63,1.7,1.7,0,0,0,2.41,0,2.07,2.07,0,0,0,0-2.63A1.61,1.61,0,0,0,62.58,30.15Z"/><path class="cls-1" d="M70.75,35.18a4.16,4.16,0,0,1-1.88-.41,3,3,0,0,1-1.25-1.15A3.17,3.17,0,0,1,67.18,32a3.3,3.3,0,0,1,.43-1.65,3.16,3.16,0,0,1,1.2-1.15,3.56,3.56,0,0,1,1.7-.41,3.4,3.4,0,0,1,1.66.4,2.87,2.87,0,0,1,1.17,1.12A3.42,3.42,0,0,1,73.76,32s0,.17,0,.44H68.91v.07a1.56,1.56,0,0,0,.64,1,2,2,0,0,0,1.23.35,2.5,2.5,0,0,0,.9-.15,2.11,2.11,0,0,0,.7-.44l.9,1A3.28,3.28,0,0,1,70.75,35.18ZM70.52,30a1.66,1.66,0,0,0-1.08.37,1.51,1.51,0,0,0-.54,1v.07h3.26V31.4A1.56,1.56,0,0,0,70.52,30Z"/><rect class="cls-1" x="78.36" y="26.93" width="1.8" height="8.15"/><path class="cls-1" d="M86.64,35.08V31.79a1.72,1.72,0,0,0-.34-1.17,1.27,1.27,0,0,0-1-.39,1.52,1.52,0,0,0-1.15.45A1.87,1.87,0,0,0,83.72,32v3.08H82V28.84h1.65v.84l.1-.11a2.3,2.3,0,0,1,.88-.6,3,3,0,0,1,1.18-.22,2.56,2.56,0,0,1,1.86.69,2.78,2.78,0,0,1,.71,2.06v3.58Z"/><polygon class="cls-1" points="91.63 35.08 89.01 28.84 90.79 28.84 92.58 33.26 94.44 28.84 96.09 28.84 93.45 35.08 91.63 35.08"/><path class="cls-1" d="M99.79,35.18a4.15,4.15,0,0,1-1.87-.41,3,3,0,0,1-1.25-1.15A3.17,3.17,0,0,1,96.23,32a3.2,3.2,0,0,1,.43-1.65,3.09,3.09,0,0,1,1.2-1.15,3.53,3.53,0,0,1,1.7-.41,3.4,3.4,0,0,1,1.66.4,2.91,2.91,0,0,1,1.16,1.12,3.33,3.33,0,0,1,.43,1.72s0,.17,0,.44H98l0,.07a1.52,1.52,0,0,0,.64,1,2,2,0,0,0,1.23.35,2.5,2.5,0,0,0,.9-.15,2,2,0,0,0,.69-.44l.91,1A3.29,3.29,0,0,1,99.79,35.18ZM99.57,30a1.69,1.69,0,0,0-1.09.37,1.54,1.54,0,0,0-.53,1v.07h3.25V31.4a1.59,1.59,0,0,0-.53-1A1.68,1.68,0,0,0,99.57,30Z"/><path class="cls-1" d="M104,35.08V28.84h1.65v1l.1-.14a2,2,0,0,1,.87-.68,3.26,3.26,0,0,1,1.21-.23v1.58h-.36a1.73,1.73,0,0,0-1.27.45,1.86,1.86,0,0,0-.47,1.37v2.94Z"/><path class="cls-1" d="M111.08,35.18a6,6,0,0,1-1.53-.2,4.05,4.05,0,0,1-1.15-.45l.57-1.22a3.53,3.53,0,0,0,1,.41,4.26,4.26,0,0,0,1.2.18c.81,0,1.22-.22,1.22-.64a.47.47,0,0,0-.35-.44,4.56,4.56,0,0,0-1-.2,9.61,9.61,0,0,1-1.28-.27,2,2,0,0,1-.86-.53,1.53,1.53,0,0,1-.35-1.07,1.72,1.72,0,0,1,.33-1,2.15,2.15,0,0,1,1-.7,4.22,4.22,0,0,1,1.55-.26,6,6,0,0,1,1.33.15,4.06,4.06,0,0,1,1,.37l-.57,1.21a3.7,3.7,0,0,0-1.8-.45,2,2,0,0,0-.91.17.54.54,0,0,0-.33.48.46.46,0,0,0,.36.46,5.42,5.42,0,0,0,1,.23,10.78,10.78,0,0,1,1.26.28,1.86,1.86,0,0,1,.84.52,1.5,1.5,0,0,1,.35,1,1.6,1.6,0,0,1-.34,1,2.26,2.26,0,0,1-1,.7A4.7,4.7,0,0,1,111.08,35.18Z"/><path class="cls-1" d="M115.16,35.08V28.84h1.73v6.24Zm.86-7.23a1.13,1.13,0,0,1-.78-.28.89.89,0,0,1-.31-.69.86.86,0,0,1,.31-.69,1.08,1.08,0,0,1,.78-.28,1.13,1.13,0,0,1,.79.27.84.84,0,0,1,.3.66.94.94,0,0,1-.3.72A1.1,1.1,0,0,1,116,27.85Z"/><path class="cls-1" d="M121.57,35.18a3.79,3.79,0,0,1-1.77-.41,3.17,3.17,0,0,1,0-5.61,4,4,0,0,1,3.54,0,3.21,3.21,0,0,1,1.22,1.15,3.33,3.33,0,0,1,0,3.31,3.21,3.21,0,0,1-1.22,1.15A3.79,3.79,0,0,1,121.57,35.18Zm0-5a1.63,1.63,0,0,0-1.21.5,2.07,2.07,0,0,0,0,2.63,1.63,1.63,0,0,0,1.21.5,1.58,1.58,0,0,0,1.2-.5,2.07,2.07,0,0,0,0-2.63A1.58,1.58,0,0,0,121.57,30.15Z"/><path class="cls-1" d="M130.88,35.08V31.79a1.77,1.77,0,0,0-.34-1.17,1.27,1.27,0,0,0-1-.39,1.51,1.51,0,0,0-1.15.45A1.83,1.83,0,0,0,128,32v3.08h-1.73V28.84h1.65v.84l.09-.11a2.41,2.41,0,0,1,.89-.6,3,3,0,0,1,1.17-.22,2.57,2.57,0,0,1,1.87.69,2.78,2.78,0,0,1,.71,2.06v3.58Z"/><path class="cls-1" d="M137.45,35.18a4.16,4.16,0,0,1-1.88-.41,3,3,0,0,1-1.25-1.15,3.17,3.17,0,0,1-.44-1.66,3.2,3.2,0,0,1,.43-1.65,3.09,3.09,0,0,1,1.2-1.15,3.56,3.56,0,0,1,1.7-.41,3.4,3.4,0,0,1,1.66.4A2.93,2.93,0,0,1,140,30.27a3.42,3.42,0,0,1,.42,1.72s0,.17,0,.44h-4.82v.07a1.52,1.52,0,0,0,.64,1,2,2,0,0,0,1.23.35,2.5,2.5,0,0,0,.9-.15,2,2,0,0,0,.69-.44l.91,1A3.28,3.28,0,0,1,137.45,35.18ZM137.22,30a1.64,1.64,0,0,0-1.08.37,1.51,1.51,0,0,0-.54,1v.07h3.26l0-.07a1.59,1.59,0,0,0-.53-1A1.68,1.68,0,0,0,137.22,30Z"/><path class="cls-1" d="M143.77,35.18a6.06,6.06,0,0,1-1.53-.2,4.18,4.18,0,0,1-1.15-.45l.57-1.22a3.73,3.73,0,0,0,1,.41,4.14,4.14,0,0,0,1.19.18c.82,0,1.23-.22,1.23-.64a.47.47,0,0,0-.36-.44,4.43,4.43,0,0,0-1-.2,10.36,10.36,0,0,1-1.28-.27,2,2,0,0,1-.85-.53,1.49,1.49,0,0,1-.36-1.07,1.73,1.73,0,0,1,.34-1,2.12,2.12,0,0,1,1-.7,4.32,4.32,0,0,1,1.56-.26,5.94,5.94,0,0,1,1.32.15,4,4,0,0,1,1.05.37l-.57,1.21a3.73,3.73,0,0,0-1.8-.45,2,2,0,0,0-.92.17.55.55,0,0,0-.32.48.47.47,0,0,0,.35.46,5.62,5.62,0,0,0,1,.23,11,11,0,0,1,1.27.28,1.78,1.78,0,0,1,.83.52,1.45,1.45,0,0,1,.35,1,1.6,1.6,0,0,1-.34,1,2.2,2.2,0,0,1-1,.7A4.7,4.7,0,0,1,143.77,35.18Z"/><path class="cls-1" d="M1.7,48.48a3.15,3.15,0,0,1-1-.15A2.06,2.06,0,0,1,0,48l.62-1.21a1.56,1.56,0,0,0,.45.26,1.65,1.65,0,0,0,.57.11,1,1,0,0,0,.65-.2,1.57,1.57,0,0,0,.44-.62l0-.09L0,39.86H1.82l1.82,4.4,1.83-4.4H7.12L4.28,46.52a3.29,3.29,0,0,1-1.06,1.53A2.61,2.61,0,0,1,1.7,48.48Z"/><path class="cls-1" d="M14.55,46.24a4.71,4.71,0,0,1-2.25-.54,4.1,4.1,0,0,1-1.59-1.5,4.17,4.17,0,0,1,1.59-5.85,4.73,4.73,0,0,1,2.27-.54,4.76,4.76,0,0,1,1.92.37,3.89,3.89,0,0,1,1.4,1l-1.15,1.06a2.68,2.68,0,0,0-2.08-.94,2.82,2.82,0,0,0-1.4.34,2.53,2.53,0,0,0-1,1,3,3,0,0,0,0,2.79,2.53,2.53,0,0,0,1,1,2.82,2.82,0,0,0,1.4.34,2.69,2.69,0,0,0,2.08-.95l1.15,1.06a3.84,3.84,0,0,1-1.41,1A4.78,4.78,0,0,1,14.55,46.24Z"/><path class="cls-1" d="M21.59,46.2a3.74,3.74,0,0,1-1.78-.42,3.05,3.05,0,0,1-1.22-1.14,3.35,3.35,0,0,1,0-3.32,3.05,3.05,0,0,1,1.22-1.14,3.86,3.86,0,0,1,1.78-.41,3.82,3.82,0,0,1,1.77.41,3.09,3.09,0,0,1,1.21,1.14A3.12,3.12,0,0,1,25,43a3.08,3.08,0,0,1-.44,1.66,3,3,0,0,1-1.21,1.14A3.7,3.7,0,0,1,21.59,46.2Zm0-5a1.61,1.61,0,0,0-1.21.49,2.05,2.05,0,0,0,0,2.64,1.61,1.61,0,0,0,1.21.5,1.59,1.59,0,0,0,1.2-.5,2.09,2.09,0,0,0,0-2.64A1.58,1.58,0,0,0,21.59,41.17Z"/><path class="cls-1" d="M34.91,46.1V42.8a1.76,1.76,0,0,0-.33-1.16,1.14,1.14,0,0,0-.93-.39,1.37,1.37,0,0,0-1.07.44A1.87,1.87,0,0,0,32.19,43V46.1H30.46V42.8c0-1-.42-1.55-1.26-1.55a1.38,1.38,0,0,0-1.06.44A1.87,1.87,0,0,0,27.75,43V46.1H26V39.86h1.65v.83l.1-.12a2.17,2.17,0,0,1,.84-.59,2.89,2.89,0,0,1,1.11-.21,2.57,2.57,0,0,1,1.19.26,2.05,2.05,0,0,1,.85.75l0,.07,0-.07a2.67,2.67,0,0,1,1-.75,3.18,3.18,0,0,1,1.28-.26,2.51,2.51,0,0,1,1.85.68,2.81,2.81,0,0,1,.69,2.07V46.1Z"/><path class="cls-1" d="M41.16,46.2a4,4,0,0,1-1.88-.42A3,3,0,0,1,38,44.64,3.17,3.17,0,0,1,37.59,43,3.27,3.27,0,0,1,38,41.33a3.08,3.08,0,0,1,1.2-1.15,3.56,3.56,0,0,1,1.7-.41,3.51,3.51,0,0,1,1.66.39,2.83,2.83,0,0,1,1.17,1.13A3.41,3.41,0,0,1,44.17,43s0,.17,0,.44H39.32v.07a1.59,1.59,0,0,0,.64,1,2.12,2.12,0,0,0,1.23.35,2.5,2.5,0,0,0,.9-.15,2.11,2.11,0,0,0,.7-.44l.9,1A3.25,3.25,0,0,1,41.16,46.2Zm-.23-5.15a1.59,1.59,0,0,0-1.08.37,1.51,1.51,0,0,0-.54,1v.06h3.26v-.06a1.65,1.65,0,0,0-.54-1A1.61,1.61,0,0,0,40.93,41.05Z"/><path class="cls-1" d="M45.1,46.1V39.86h1.64v1l.11-.14a1.94,1.94,0,0,1,.86-.68,3.09,3.09,0,0,1,1.22-.23v1.58l-.36,0a1.77,1.77,0,0,0-1.28.46,1.85,1.85,0,0,0-.46,1.37V46.1Z"/><path class="cls-1" d="M52.68,46.2a3.79,3.79,0,0,1-1.8-.42,3.2,3.2,0,0,1-1.24-4.46,3,3,0,0,1,1.24-1.14,3.91,3.91,0,0,1,1.8-.41,3.53,3.53,0,0,1,1.72.41,2.42,2.42,0,0,1,1.05,1.12L54.12,42a1.61,1.61,0,0,0-1.45-.85,1.67,1.67,0,0,0-1.24.49A1.8,1.8,0,0,0,51,43a1.82,1.82,0,0,0,.48,1.33,1.71,1.71,0,0,0,1.24.49,1.6,1.6,0,0,0,1.45-.86l1.33.73a2.5,2.5,0,0,1-1.05,1.11A3.53,3.53,0,0,1,52.68,46.2Z"/><path class="cls-1" d="M56.23,46.1V39.86H58V46.1Zm.86-7.23a1.15,1.15,0,0,1-.79-.28,1,1,0,0,1,0-1.39,1.27,1.27,0,0,1,1.58,0,.86.86,0,0,1,.3.67,1,1,0,0,1-.3.72A1.11,1.11,0,0,1,57.09,38.87Z"/><path class="cls-1" d="M62.33,46.2a3.7,3.7,0,0,1-1.77-.42,3.05,3.05,0,0,1-1.22-1.14,3.29,3.29,0,0,1,0-3.32,3.05,3.05,0,0,1,1.22-1.14,4,4,0,0,1,3.54,0,3.05,3.05,0,0,1,1.22,1.14A3.22,3.22,0,0,1,65.76,43a3.17,3.17,0,0,1-.44,1.66,3,3,0,0,1-1.22,1.14A3.67,3.67,0,0,1,62.33,46.2Zm0-5a1.62,1.62,0,0,0-1.21.49,2.09,2.09,0,0,0,0,2.64,1.71,1.71,0,0,0,2.42,0,2.09,2.09,0,0,0,0-2.64A1.61,1.61,0,0,0,62.33,41.17Z"/><rect class="cls-1" x="69.8" y="37.95" width="1.8" height="8.15"/><path class="cls-1" d="M77.89,46.1V42.8a1.71,1.71,0,0,0-.35-1.16,1.27,1.27,0,0,0-1-.39,1.54,1.54,0,0,0-1.15.45A1.85,1.85,0,0,0,75,43V46.1H73.23V39.86h1.65v.83l.1-.1a2.36,2.36,0,0,1,.89-.61A3.16,3.16,0,0,1,77,39.77a2.59,2.59,0,0,1,1.87.69,2.77,2.77,0,0,1,.71,2.06V46.1Z"/><path class="cls-1" d="M83.62,46.2a2.4,2.4,0,0,1-1.71-.57,2.16,2.16,0,0,1-.6-1.66V41.31h-1V40h1V38.46H83V40h1.58v1.31H83V44a.92.92,0,0,0,.22.66.85.85,0,0,0,.62.23,1.29,1.29,0,0,0,.72-.2l.46,1.19a1.85,1.85,0,0,1-.62.27A3.61,3.61,0,0,1,83.62,46.2Z"/><path class="cls-1" d="M88.81,46.2a4,4,0,0,1-1.88-.42,3,3,0,0,1-1.25-1.14,3.37,3.37,0,0,1,0-3.31,3,3,0,0,1,1.2-1.15,3.56,3.56,0,0,1,1.7-.41,3.51,3.51,0,0,1,1.66.39,2.89,2.89,0,0,1,1.17,1.13A3.41,3.41,0,0,1,91.82,43s0,.17,0,.44H87v.07a1.55,1.55,0,0,0,.64,1,2.1,2.1,0,0,0,1.23.35,2.5,2.5,0,0,0,.9-.15,2,2,0,0,0,.69-.44l.91,1A3.25,3.25,0,0,1,88.81,46.2Zm-.23-5.15a1.59,1.59,0,0,0-1.08.37,1.51,1.51,0,0,0-.54,1v.06h3.26v-.06a1.65,1.65,0,0,0-.54-1A1.63,1.63,0,0,0,88.58,41.05Z"/><path class="cls-1" d="M92.85,46.1V39.86H94.5v1l.1-.14a1.92,1.92,0,0,1,.87-.68,3.07,3.07,0,0,1,1.21-.23v1.58l-.35,0a1.76,1.76,0,0,0-1.28.46,1.85,1.85,0,0,0-.47,1.37V46.1Z"/><path class="cls-1" d="M102.23,46.1V42.8a1.71,1.71,0,0,0-.34-1.16,1.27,1.27,0,0,0-1-.39,1.52,1.52,0,0,0-1.15.45A1.85,1.85,0,0,0,99.31,43V46.1H97.58V39.86h1.65v.83l.1-.1a2.36,2.36,0,0,1,.89-.61,3.16,3.16,0,0,1,1.17-.21,2.59,2.59,0,0,1,1.87.69,2.76,2.76,0,0,1,.7,2.06V46.1Z"/><path class="cls-1" d="M107.34,46.2a3,3,0,0,1-1.25-.25,1.88,1.88,0,0,1-.8-.66,1.76,1.76,0,0,1-.27-1,1.6,1.6,0,0,1,.65-1.35,3.33,3.33,0,0,1,2-.5h1.52v0a1.25,1.25,0,0,0-.38-1,1.67,1.67,0,0,0-1.14-.34,3.18,3.18,0,0,0-1,.16,2.85,2.85,0,0,0-.8.4l-.61-1.18a3.71,3.71,0,0,1,1.19-.53,5.28,5.28,0,0,1,1.48-.2,3.27,3.27,0,0,1,2.23.69,2.64,2.64,0,0,1,.77,2.07V46.1h-1.61v-.94l-.11.18A2,2,0,0,1,107.34,46.2Zm.55-2.76c-.79,0-1.19.27-1.19.8a.72.72,0,0,0,.3.61,1.36,1.36,0,0,0,.8.22,1.65,1.65,0,0,0,.86-.23,1.26,1.26,0,0,0,.55-.67v-.73Z"/><path class="cls-1" d="M115.49,46.2a3.82,3.82,0,0,1-1.8-.42,3.14,3.14,0,0,1,0-5.6,3.94,3.94,0,0,1,1.8-.41,3.54,3.54,0,0,1,1.73.41,2.4,2.4,0,0,1,1,1.12l-1.33.72a1.61,1.61,0,0,0-1.45-.85,1.65,1.65,0,0,0-1.23.49,1.81,1.81,0,0,0-.49,1.32,1.83,1.83,0,0,0,.49,1.33,1.69,1.69,0,0,0,1.23.49,1.59,1.59,0,0,0,1.45-.86l1.33.73a2.48,2.48,0,0,1-1,1.11A3.54,3.54,0,0,1,115.49,46.2Z"/><path class="cls-1" d="M119.15,46.1V39.86h1.73V46.1Zm.86-7.23a1.13,1.13,0,0,1-.78-.28.93.93,0,0,1-.31-.7.89.89,0,0,1,.31-.69,1.26,1.26,0,0,1,1.57,0,.86.86,0,0,1,.3.67,1,1,0,0,1-.3.72A1.1,1.1,0,0,1,120,38.87Z"/><path class="cls-1" d="M125.36,46.2a3.67,3.67,0,0,1-1.77-.42,3.08,3.08,0,0,1-1.23-1.14,3.35,3.35,0,0,1,0-3.32,3.08,3.08,0,0,1,1.23-1.14,4,4,0,0,1,3.54,0,3.24,3.24,0,0,1,1.22,4.46,3.11,3.11,0,0,1-1.22,1.14A3.67,3.67,0,0,1,125.36,46.2Zm0-5a1.61,1.61,0,0,0-1.21.49,2.09,2.09,0,0,0,0,2.64,1.61,1.61,0,0,0,1.21.5,1.58,1.58,0,0,0,1.2-.5,2.09,2.09,0,0,0,0-2.64A1.57,1.57,0,0,0,125.36,41.17Z"/><path class="cls-1" d="M134.47,46.1V42.8a1.71,1.71,0,0,0-.35-1.16,1.25,1.25,0,0,0-1-.39,1.51,1.51,0,0,0-1.15.45,1.81,1.81,0,0,0-.43,1.32V46.1h-1.73V39.86h1.65v.83l.09-.1a2.44,2.44,0,0,1,.89-.61,3.16,3.16,0,0,1,1.17-.21,2.57,2.57,0,0,1,1.87.69,2.77,2.77,0,0,1,.71,2.06V46.1Z"/><path class="cls-1" d="M139.57,46.2a2.91,2.91,0,0,1-1.24-.25,1.82,1.82,0,0,1-.8-.66,1.77,1.77,0,0,1-.28-1A1.6,1.6,0,0,1,137.9,43a3.35,3.35,0,0,1,2-.5h1.51v0a1.25,1.25,0,0,0-.38-1,1.64,1.64,0,0,0-1.13-.34,3.2,3.2,0,0,0-1,.16,3,3,0,0,0-.8.4l-.6-1.18a3.75,3.75,0,0,1,1.18-.53,5.28,5.28,0,0,1,1.48-.2,3.24,3.24,0,0,1,2.23.69,2.64,2.64,0,0,1,.77,2.07V46.1h-1.61v-.94l-.1.18A2,2,0,0,1,139.57,46.2Zm.56-2.76c-.79,0-1.19.27-1.19.8a.72.72,0,0,0,.3.61,1.32,1.32,0,0,0,.79.22,1.69,1.69,0,0,0,.87-.23,1.29,1.29,0,0,0,.54-.67v-.73Z"/><rect class="cls-1" x="144.64" y="37.45" width="1.73" height="8.65"/></g></g></svg>