<svg xmlns="http://www.w3.org/2000/svg" viewBox="0 0 266.07 178.4"><defs><style>.cls-1{fill:#221e20;}</style></defs><g id="Capa_2" data-name="Capa 2"><g id="Capa_1-2" data-name="Capa 1"><path class="cls-1" d="M128,29l.41.66a35.25,35.25,0,0,0,6,6.34c.48.43.94.84,1.38,1.25l-.08.33L135.27,39l-.37,1.49-.3,1.49-.37,1.5-.3,1.56-.3,1.49-.3,1.57-.3,1.49L132.81,51l-.22,1.49L132.36,54l-.22,1.49L131.91,57l-.14,1.42-.23,1.34-.15,1.41-.15,1.27-.14,1.34L131,65l-.23,2.31-.15,2.09-.15,1.86-.07,1.49.67.08.08-1.57.14-1.78.23-2.09.22-2.31.08-1.19.14-1.35.15-1.26.23-1.42.15-1.34.15-1.42.22-1.49.22-1.41.23-1.49.22-1.49.3-1.49.22-1.57.3-1.49.3-1.49.37-1.57.3-1.49.37-1.49.37-1.41.37-1.46h2.27a31.4,31.4,0,0,0,8.51-.74c.39-.09.73-.2,1.06-.31a11.67,11.67,0,0,1,1.32-.36c.36-.07.51-.13.49-.27s0-.26-3.14-.19h-.8a10.4,10.4,0,0,0-3.84.45l-.71.26a8.61,8.61,0,0,1-3,.78h0l-2,.14.32-1.21.22-.67.23-.67,0-.12,2,0a27.06,27.06,0,0,0,6.92-.58c.37-.1.67-.19,1-.29s.68-.22,1-.3.44-.1.42-.24,0-.22-2.57-.15h-.81a7.71,7.71,0,0,0-3.06.38l-.77.26a7.73,7.73,0,0,1-2.39.63h0l-1.72.07.08-.32.22-.67.22-.67,0-.06,1.17-.12a20.17,20.17,0,0,0,5.21-.92,11.06,11.06,0,0,1,1.41-.52c.14-.05.32-.12.29-.26s-.12-.19-1.78,0l-.35,0a7.81,7.81,0,0,0-2.65.53l-.52.25a6,6,0,0,1-1.67.63h0l-1,.11.12-.36.22-.67.28-.56.05,0A13.11,13.11,0,0,0,142,29.35l.37-.3a3,3,0,0,1,.37-.3c.1-.07.23-.17.17-.28s-.18-.1-1,.24l-.3.13h0a4.83,4.83,0,0,0-1.52.84c-.1.07-.22.17-.36.29a4.78,4.78,0,0,1-.88.66h0l.05,0c1.11-1,1.29-2.88,1.44-4.36v-.17l0-.1c.07-.27.12-.45,0-.52s-.24.06-.37.22a4,4,0,0,1-.35.37,3.58,3.58,0,0,0-.63.76,7.2,7.2,0,0,0-.61,2.6,6.44,6.44,0,0,1-.26,1.41l-.26-.57,0,0a3.63,3.63,0,0,1-.29-1.16c0-.14,0-.26-.06-.35a4.33,4.33,0,0,0-.6-1.68,1,1,0,0,1-.09-.2c-.49-1.08-.54-1.1-.66-1.06s-.09.18-.06.31c.07.29.14.59.22,1a16.12,16.12,0,0,0,1.34,3.33l.22.46-.2.51-.29.67-.05.14-.45-.52h0a6.55,6.55,0,0,1-.81-1.45c-.13-.29-.26-.57-.36-.74a6.2,6.2,0,0,0-1.59-2.2l-.3-.34c-1.15-1.34-1.17-1.32-1.29-1.24s0,.22.07.38a8,8,0,0,1,.41.76c.1.21.2.42.32.65a22.38,22.38,0,0,0,3.6,4.66l.31.33-.09.25-.22.67-.23.67,0,.11-.84-.79h0A10.19,10.19,0,0,1,134,30.46a9.91,9.91,0,0,0-2.56-2.7c-2-2.06-2.22-1.93-2.27-1.89s0,.25.16.47.23.38.34.57c.23.37.47.77.78,1.22a30.51,30.51,0,0,0,5.1,5.33c.37.32.7.63,1,.94l-.1.31-.15.67-.22.74-.22.82-1-1h0a14.2,14.2,0,0,1-2-3l-.29-.5a10.28,10.28,0,0,0-3-3.3c-.92-.93-2.51-2.45-2.74-2.27s0,.24.18.56A14.33,14.33,0,0,1,128,29Z"/><path class="cls-1" d="M124.47,60.74c1.24,5.95,2.53,12.09,3.92,17.88a.11.11,0,0,0,.11.09h0a.11.11,0,0,0,.08-.14c-1.36-6.23-2.3-13.3-3.29-20.79-3-22.84-6.48-48.72-23.67-57.77a.12.12,0,0,0-.15,0,.12.12,0,0,0,0,.15C114.47,13,119.56,37.26,124.47,60.74Z"/><path class="cls-1" d="M127.5,96.37a.11.11,0,0,0,.06.15h0a.11.11,0,0,0,.1-.08c2.09-5.17,4.11-10.68,6.07-16,7.78-21.15,15.82-43,30.56-53.62a.13.13,0,0,0,0-.15.14.14,0,0,0-.15-.06c-18.69,6.92-25.23,30.4-31,51.12C131.36,84.46,129.59,90.81,127.5,96.37Z"/><path class="cls-1" d="M6.41,117.28l7.08-.15v19.46c0,4.39,0,8.12-.22,10.13-.15,1.42-.45,2.46-1.42,2.61a9.19,9.19,0,0,1-1.71.22c-.53,0-.75.15-.75.38s.37.44,1,.44c1.86,0,4.92-.15,6-.15,1.34,0,4.32.15,7.45.15.53,0,.9-.15.9-.44s-.22-.38-.75-.38-1.71-.15-2.38-.22c-1.42-.15-1.72-1.19-1.86-2.53-.23-2.09-.23-5.82-.23-10.21V117.13l6,.08c4.25.15,5.52,1.49,5.59,2.68l.08.52c.07.75.15,1,.52,1s.37-.3.45-.74c0-1.27.15-4.55.15-5.52,0-.74-.08-1-.38-1s-.59.15-1.34.3a26.57,26.57,0,0,1-3.28.22H8.42c-1.56,0-3.43-.15-4.77-.22a17.25,17.25,0,0,1-2.08-.6c-.23,0-.38.3-.53.89a47.52,47.52,0,0,0-1,5.44c0,.53.15.82.45.82s.44-.22.52-.59a5.31,5.31,0,0,1,.82-1.64C2.53,117.58,3.65,117.36,6.41,117.28Z"/><path class="cls-1" d="M29.51,149.55c-.29,0-.44.15-.44.38s.22.44.74.44c2.24,0,4.47-.15,4.85-.15,1.34,0,3.27.15,4.69.15.45,0,.67-.07.67-.44s-.07-.38-.59-.38h-.68c-1.26,0-1.64-.44-1.64-1.19a7,7,0,0,1,.6-2.46L40,140.46c.07-.22.15-.22.37-.22h9.84c.22,0,.37,0,.45.22l3.27,8.2a.68.68,0,0,1-.44.89c-.38,0-.52.15-.52.38s.52.29,1.26.37c3.5.07,6.56.07,8,.07s1.79-.07,1.79-.44-.15-.38-.6-.38a14,14,0,0,1-1.56-.15c-.75-.14-1.94-.67-3.5-4.32-2.69-6.18-9.69-22.73-10.66-25-.45-.89-.67-1.26-1.27-1.26s-.74.44-1.27,1.64L34.28,145.9c-.89,2.09-1.56,3.28-3.5,3.58C30.41,149.48,30,149.55,29.51,149.55ZM41.07,137.7l4-10.21c.07-.15.07-.37.22-.37s.15.22.23.37l4,10.21c0,.15,0,.3-.23.3h-8C41.07,138,41,137.85,41.07,137.7Z"/><path class="cls-1" d="M109,149.93c0-.23-.3-.38-.67-.38a9.67,9.67,0,0,1-2.39-.37c-1.26-.45-1.64-1.49-2-4l-3.8-25c-.15-.9-.67-1.27-1-1.27s-.74.3-1.12,1L86.83,142.7,75.57,120.19c-.59-1.12-.82-1.27-1.27-1.27s-.74.37-.82,1l-4.09,26.38c-.23,1.34-.6,3-1.79,3.05a4.4,4.4,0,0,1-1.27.15c-.37,0-.67.15-.67.38s.37.44.82.44c1.27,0,3.28-.15,4.1-.15s2.68.15,4.4.15c.67,0,1-.07,1-.44s-.3-.38-.67-.38a7.73,7.73,0,0,1-1.49-.22c-.75-.15-1.27-.45-1.27-1.19a14.73,14.73,0,0,1,.15-1.87l2-15.8h.15c1.34,2.76,3.8,7.9,4.17,8.65.45,1.12,3.81,7.3,4.77,9.17.68,1.26,1.12,2.08,1.64,2.08s.75-.44,1.72-2.31L96.14,130h.15l2.39,17.52c.07,1.19,0,1.64-.23,1.71s-.45.22-.45.45.23.45,1.2.45c1.71.14,7.6.29,8.64.29C108.51,150.37,109,150.22,109,149.93Z"/><path class="cls-1" d="M144.14,149.93c0-.23-.23-.38-.6-.38a13.82,13.82,0,0,1-1.56-.15c-.75-.14-1.94-.67-3.58-4.32-2.61-6.18-9.61-22.73-10.58-25-.45-.89-.67-1.26-1.27-1.26-.45,0-.75.44-1.27,1.64L114.4,145.9c-.89,2.09-1.56,3.28-3.5,3.58-.37,0-.82.07-1.27.07-.3,0-.45.15-.45.38s.23.44.75.44c2.24,0,4.47-.15,4.84-.15,1.34,0,3.28.15,4.7.15.45,0,.67-.07.67-.44s-.07-.38-.6-.38h-.67c-1.26,0-1.64-.44-1.64-1.19a7,7,0,0,1,.6-2.46l2.24-5.44c.07-.22.14-.22.37-.22h9.84c.22,0,.37,0,.44.22l3.21,8.2a.61.61,0,0,1-.38.89c-.37,0-.52.15-.52.38s.52.29,1.27.37c3.5.07,6.56.07,8,.07S144.14,150.3,144.14,149.93ZM129.38,138h-8c-.15,0-.22-.15-.15-.3l4-10.21c.07-.15.07-.37.22-.37s.15.22.22.37l3.95,10.21C129.6,137.85,129.6,138,129.38,138Z"/><path class="cls-1" d="M159,131.89l-1.71-1c-3.73-2.09-4.4-3.5-4.4-5.29,0-2.76,2.68-4.32,5.74-4.32a5.56,5.56,0,0,1,4.62,1.86,4.73,4.73,0,0,1,1.12,2.68c0,.45.15.67.45.67s.52-.37.52-1.26c0-3.21.07-4.33.07-4.85,0-.3-.15-.44-.52-.52a24.56,24.56,0,0,0-6-.67c-5.81,0-10.58,3.2-10.58,8.12,0,3.58,1.64,6.34,6.55,9.17L157.4,138c3.73,2.16,4.18,3.95,4.18,5.67,0,2.83-2.24,5.14-5.82,5.14-2.6,0-5.81-1-6.7-3.95a8.55,8.55,0,0,1-.38-2.16c0-.23,0-.67-.44-.67s-.52.44-.52,1.11-.23,3.13-.23,5.37c0,.89.15,1,.82,1.34a17.55,17.55,0,0,0,6.78,1c2.24,0,5-.22,7-1.63,3.05-2.17,4.17-4.55,4.17-7.61C166.27,138,164.56,135,159,131.89Z"/><path class="cls-1" d="M201.23,150c.74-.3.89-.45,1.11-1.19a32.79,32.79,0,0,0,.9-5.37c0-.3-.23-.74-.45-.74-.37,0-.45.22-.52.82a6.83,6.83,0,0,1-1.49,2.75c-1.64,1.87-3.65,2.09-7.38,2.09-5.59,0-13-4.55-13-14.16,0-3.95.74-7.82,3.87-10.51,1.87-1.64,4.25-2.23,7.9-2.23,3.8,0,6.64,1,8.05,2.31a6.1,6.1,0,0,1,1.64,3.8c0,.52.08.82.45.82s.52-.38.52-1c.08-.82.08-3.06.15-4.4s.22-1.86.22-2.23-.15-.38-.67-.45c-1.19-.15-2.61-.45-4.17-.67a42.6,42.6,0,0,0-6-.45c-6.26,0-10.28,1.64-13.26,4.32a15.54,15.54,0,0,0,.29,23c3.81,3.2,8.65,4.39,14.39,4.39C196.38,150.89,199.59,150.67,201.23,150Z"/><path class="cls-1" d="M205.85,150.37c2.16,0,4.39-.15,4.84-.15,1.34,0,3.28.15,4.7.15.37,0,.67-.07.67-.44s-.15-.38-.67-.38h-.6c-1.27,0-1.64-.44-1.64-1.19a7,7,0,0,1,.6-2.46l2.23-5.44c.08-.22.15-.22.38-.22h9.83c.23,0,.38,0,.45.22l3.21,8.2a.61.61,0,0,1-.38.89c-.44,0-.52.15-.52.38s.52.29,1.27.37c3.5.07,6.56.07,8.05.07s1.79-.07,1.79-.44-.23-.38-.6-.38a12.63,12.63,0,0,1-1.57-.15c-.74-.14-1.93-.67-3.57-4.32-2.61-6.18-9.62-22.73-10.66-25-.37-.89-.6-1.26-1.19-1.26s-.75.44-1.27,1.64l-11,25.41c-.82,2.09-1.56,3.28-3.42,3.58-.38,0-.9.07-1.27.07s-.45.15-.45.38S205.33,150.37,205.85,150.37ZM217.1,137.7l4-10.21c0-.15.07-.37.22-.37s.15.22.22.37l4,10.21c0,.15,0,.3-.22.3h-8.05C217.1,138,217,137.85,217.1,137.7Z"/><path class="cls-1" d="M243.71,120.64a3.85,3.85,0,0,1,1.41.15c1.34.37,1.72.82,1.79,2.16s.08,2.46.08,8.57v7.15a84.46,84.46,0,0,1-.23,8.57c-.15,1.2-.37,1.94-1.19,2.16a7.21,7.21,0,0,1-1.49.15c-.52,0-.67.23-.67.38s.3.44.82.44c.82,0,1.86,0,2.91-.07s1.86-.08,2.38-.08c1.71,0,3.43.08,5.52.15s4.54.08,7.52.08c2.24,0,2.39-.15,2.69-1a36.08,36.08,0,0,0,.59-4.69c0-.45-.07-.9-.37-.9s-.45.23-.45.6a5.27,5.27,0,0,1-1,2.46c-1,1.12-2.68,1.12-4.92,1.12-3.2,0-4.84-.23-5.59-.82-.89-.75-.89-3.36-.89-8.5v-7.15c0-6.11,0-7.31.07-8.57.15-1.42.45-2,1.57-2.16a6.34,6.34,0,0,1,1.64-.15c.52,0,.74-.15.74-.45s-.22-.37-.89-.37c-1.57,0-5,.07-6,.07s-3.8-.07-5.74-.07c-.6,0-.89.07-.89.37S243.26,120.64,243.71,120.64Z"/><path class="cls-1" d="M170.52,166.92l-4.32,11.33h1.56l1.2-3.43h4.77l1.34,3.43h1.71l-4.62-11.33Zm-1.12,6.71,1.27-3.36c.22-.74.45-1.41.6-2.16.22.6.44,1.42.82,2.31l1.19,3.21Z"/><polygon class="cls-1" points="138.18 173.03 144.44 173.03 144.44 171.69 138.18 171.69 138.18 168.26 144.81 168.26 144.81 166.92 136.69 166.92 136.69 178.25 145.11 178.25 145.11 176.91 138.18 176.91 138.18 173.03"/><path class="cls-1" d="M128.41,167.89a4.09,4.09,0,0,0-1.64-.82,13.41,13.41,0,0,0-2.08-.15h-3.88v11.33h4.1a6.48,6.48,0,0,0,1.79-.23,3.58,3.58,0,0,0,1.34-.52,3.33,3.33,0,0,0,1-1,4.67,4.67,0,0,0,.82-1.64,10.21,10.21,0,0,0,.3-2.31,7.73,7.73,0,0,0-.45-2.68A4.43,4.43,0,0,0,128.41,167.89Zm-.07,6.78a3.33,3.33,0,0,1-.82,1.42,2.51,2.51,0,0,1-1,.59,4.9,4.9,0,0,1-1.71.23H122.3v-8.65h2.39a5.87,5.87,0,0,1,1.93.22,2.9,2.9,0,0,1,1.42,1.27,5.65,5.65,0,0,1,.6,2.76A6.41,6.41,0,0,1,128.34,174.67Z"/><path class="cls-1" d="M156.88,173.78h3.36v2.16a8.79,8.79,0,0,1-1.42.82,6.06,6.06,0,0,1-1.94.37,5,5,0,0,1-2.08-.52,2.91,2.91,0,0,1-1.5-1.49,5.58,5.58,0,0,1-.52-2.54,7.31,7.31,0,0,1,.38-2.31,4.19,4.19,0,0,1,.74-1.12,2.94,2.94,0,0,1,1.19-.82,4.58,4.58,0,0,1,1.79-.29,3.53,3.53,0,0,1,1.57.29,2.23,2.23,0,0,1,1,.75,3.75,3.75,0,0,1,.67,1.34l1.34-.3a3.9,3.9,0,0,0-.89-1.86,2.89,2.89,0,0,0-1.49-1.12,5.43,5.43,0,0,0-2.24-.44,6.26,6.26,0,0,0-3,.74,4.26,4.26,0,0,0-2,2.09,7.33,7.33,0,0,0-.67,3.13,6.47,6.47,0,0,0,.67,3,4.67,4.67,0,0,0,2.09,2.08,6.44,6.44,0,0,0,3,.68,9.13,9.13,0,0,0,2.46-.38,8.8,8.8,0,0,0,2.23-1.34v-4.25h-4.77Z"/><path class="cls-1" d="M111.94,167.44a6.11,6.11,0,0,0-2.83-.74,5.33,5.33,0,0,0-4,1.63,6.86,6.86,0,0,0-.82,7.23,4.54,4.54,0,0,0,1.86,2.09,5.3,5.3,0,0,0,2.91.75,6,6,0,0,0,2.76-.68,4.31,4.31,0,0,0,1.93-2.08,6.57,6.57,0,0,0,.68-3.06,6.74,6.74,0,0,0-.68-3.05A5,5,0,0,0,111.94,167.44Zm-.07,8.5a3.56,3.56,0,0,1-2.83,1.19,3.6,3.6,0,0,1-2.76-1.19,4.62,4.62,0,0,1-1-3.21,5,5,0,0,1,1.12-3.65,4.11,4.11,0,0,1,2.76-1,3.68,3.68,0,0,1,2,.52,3.56,3.56,0,0,1,1.34,1.64,5.88,5.88,0,0,1,.45,2.38A4.58,4.58,0,0,1,111.87,175.94Z"/><path class="cls-1" d="M95.55,172.21a2.74,2.74,0,0,0,1.19-1,3.11,3.11,0,0,0,.37-1.34,2.69,2.69,0,0,0-.45-1.5,2.32,2.32,0,0,0-1.19-1,4.35,4.35,0,0,0-2.09-.37H89.14v11.33h4.32a6.48,6.48,0,0,0,1.79-.23,3.19,3.19,0,0,0,1.26-.52,2.87,2.87,0,0,0,.82-1,3.26,3.26,0,0,0,.3-1.49,2.65,2.65,0,0,0-.52-1.72A2.89,2.89,0,0,0,95.55,172.21Zm-4.92-4h2.23a4.9,4.9,0,0,1,1.72.15,1.33,1.33,0,0,1,.82.6,2,2,0,0,1,.22,1,1.23,1.23,0,0,1-.3,1,1.18,1.18,0,0,1-.82.6,6,6,0,0,1-1.41.15H90.63Zm5.29,7.68a2.25,2.25,0,0,1-.6.59,1.57,1.57,0,0,1-.89.3,2.89,2.89,0,0,1-1,.08H90.63V173h2.6a7.71,7.71,0,0,1,1.64.15,2,2,0,0,1,.9.67,1.86,1.86,0,0,1,.37,1.12A2.07,2.07,0,0,1,95.92,175.94Z"/><rect class="cls-1" x="2.09" y="172.36" width="75.12" height="1.27"/><rect class="cls-1" x="190.87" y="172.43" width="75.2" height="1.27"/></g></g></svg>