<?xml version="1.0" encoding="utf-8"?>
<!-- Generator: Adobe Illustrator 26.1.0, SVG Export Plug-In . SVG Version: 6.00 Build 0)  -->
<svg version="1.1" id="Capa_1" xmlns="http://www.w3.org/2000/svg" xmlns:xlink="http://www.w3.org/1999/xlink" x="0px" y="0px"
	 viewBox="0 0 433.9 300" style="enable-background:new 0 0 433.9 300;" xml:space="preserve">
<style type="text/css">
	.st0{fill:#8B6F4B;}
	.st1{fill:#746661;}
</style>
<g>
	<g>
		<path class="st0" d="M332.4,140.8c-0.2-0.2-0.3-0.3-0.4-0.5C332.1,140.5,332.3,140.7,332.4,140.8z"/>
		<path class="st0" d="M225.3,65.9v1.3c0.9,0.8,1.4,1.9,1.4,3.2c0,2.4-2,4.4-4.4,4.4c-1.7,0-3.2-1-3.9-2.5h-1.1
			c0.8,2,2.7,3.5,5.1,3.5c3,0,5.4-2.4,5.4-5.4C227.7,68.5,226.8,66.9,225.3,65.9z"/>
		<path class="st0" d="M213,76c-0.3-0.9-0.5-1.9-0.5-2.9c0.1-4.3,3.6-7.8,8-7.7c1.9,0,3.7,0.7,5,1.9l0-1.3c-1.4-1-3.1-1.6-5-1.6
			c-4.9-0.1-9,3.8-9,8.7c0,1,0.1,2,0.4,2.9L213,76z"/>
		
			<ellipse transform="matrix(0.8517 -0.5241 0.5241 0.8517 -5.5941 124.8713)" class="st0" cx="217.8" cy="72.3" rx="0.5" ry="0.7"/>
		<g>
			<path class="st0" d="M339.2,134.5c-0.1-0.1-0.2-0.2-0.3-0.3c0,0,0,0,0,0c-3.6-4-22-23.5-49.1-36.4c-0.1,1.5-0.8,2.8-1.9,3.6
				c-0.5,0.7-1.1,1.4-1.8,2.1c25.5,12.5,41.9,31.7,45.9,36.8c0.2,0.2,0.3,0.4,0.4,0.5c0,0,0,0,0,0c0.2,0.2,0.4,0.4,0.6,0.6
				c1.7,1.2,4.1,1,5.8-0.5C340.7,139.2,340.9,136.3,339.2,134.5z"/>
			<path class="st0" d="M260.4,88.1c-24.6-4.6-45.6,0-59.9,5.5c0,0.1,0,0.1-0.1,0.2c-0.2,0.5-0.5,1-0.9,1.4
				c-0.4,0.4-0.9,0.7-1.4,0.9c-0.3,0.2-0.7,0.3-1,0.3c-0.1,0-0.3,0.1-0.4,0.1c-0.4,0.2-0.7,0.3-1.1,0.5c-0.6,0.3-1.2,0.6-1.8,0.7
				c-0.6,0.2-1.3,0.3-2,0.3c-0.4,0-0.8-0.1-1.2-0.2c-6.8,3.4-10.6,6.2-10.6,6.2l2.5,1.9c0,0,9.5-8.1,29.2-12
				c0.7-1.5,1.9-2.8,3.3-3.6c1.8-0.9,3.8-1.3,5.8-1.3c1.5,0,2.9,0.1,4.4,0.3c1.1,0.1,2.3,0.3,3.4,0.3c1.6-0.1,3,0.9,3.7,2.3
				c6.6-0.1,13.9,0.4,21.8,1.5c2.9,0.4,5.8,1,8.6,1.7c-0.1-2.1,0.4-4.2,1.7-5.8c0-0.1,0.1-0.2,0.2-0.3
				C263.3,88.7,261.9,88.4,260.4,88.1z"/>
			<path class="st0" d="M283.6,43c-11.9,0-21.5,9.6-21.5,21.5S271.7,86,283.6,86c11.9,0,21.5-9.6,21.5-21.5S295.4,43,283.6,43z
				 M285.3,78.6c-8.8,0-15.9-7.1-15.9-15.9c0-8.8,7.1-15.9,15.9-15.9s15.9,7.1,15.9,15.9C301.2,71.5,294.1,78.6,285.3,78.6z"/>
			<path class="st0" d="M258.4,104.5c-11.9,0-21.5,9.6-21.5,21.5s9.6,21.5,21.5,21.5c11.9,0,21.5-9.6,21.5-21.5
				S270.2,104.5,258.4,104.5z M260.1,140.1c-8.8,0-15.9-7.1-15.9-15.9s7.1-15.9,15.9-15.9s15.9,7.1,15.9,15.9
				S268.9,140.1,260.1,140.1z"/>
			<path class="st0" d="M308,70.6c-10.7,0-19.4,8.7-19.4,19.4s8.7,19.4,19.4,19.4c10.7,0,19.4-8.7,19.4-19.4S318.7,70.6,308,70.6z
				 M309.8,102.1c-7.7,0-13.9-6.2-13.9-13.9c0-7.7,6.2-13.9,13.9-13.9c7.7,0,13.9,6.2,13.9,13.9C323.6,95.9,317.4,102.1,309.8,102.1
				z"/>
			<path class="st0" d="M248,50.7c-10.7,0-19.4,8.7-19.4,19.4c0,10.7,8.7,19.4,19.4,19.4c10.7,0,19.4-8.7,19.4-19.4
				C267.4,59.4,258.7,50.7,248,50.7z M249.7,82.2c-7.7,0-13.9-6.2-13.9-13.9s6.2-13.9,13.9-13.9c7.7,0,13.9,6.2,13.9,13.9
				S257.4,82.2,249.7,82.2z"/>
			<path class="st0" d="M170.1,99.4c-10.7,0-19.4,8.7-19.4,19.4s8.7,19.4,19.4,19.4c10.7,0,19.4-8.7,19.4-19.4
				S180.8,99.4,170.1,99.4z M171.9,130.9c-7.7,0-13.9-6.2-13.9-13.9c0-7.7,6.2-13.9,13.9-13.9s13.9,6.2,13.9,13.9
				C185.7,124.7,179.5,130.9,171.9,130.9z"/>
			<path class="st0" d="M276.3,78.9c-9,0-16.2,7.3-16.2,16.2c0,9,7.3,16.2,16.2,16.2c9,0,16.2-7.3,16.2-16.2
				C292.6,86.2,285.3,78.9,276.3,78.9z M278.1,104.6c-6.2,0-11.2-5-11.2-11.2c0-6.2,5-11.2,11.2-11.2c6.2,0,11.2,5,11.2,11.2
				C289.2,99.6,284.2,104.6,278.1,104.6z"/>
			<path class="st0" d="M189.4,71.2c-9,0-16.2,7.3-16.2,16.2s7.3,16.2,16.2,16.2s16.2-7.3,16.2-16.2S198.4,71.2,189.4,71.2z
				 M191.2,96.8c-6.2,0-11.2-5-11.2-11.2c0-6.2,5-11.2,11.2-11.2c6.2,0,11.2,5,11.2,11.2C202.3,91.8,197.3,96.8,191.2,96.8z"/>
			<path class="st0" d="M221.7,86.5c-9,0-16.2,7.3-16.2,16.2c0,9,7.3,16.2,16.2,16.2s16.2-7.3,16.2-16.2
				C238,93.7,230.7,86.5,221.7,86.5z M223.5,112.1c-6.2,0-11.2-5-11.2-11.2c0-6.2,5-11.2,11.2-11.2c6.2,0,11.2,5,11.2,11.2
				C234.6,107.1,229.7,112.1,223.5,112.1z"/>
			<path class="st0" d="M142.5,83.7c-9,0-16.2,7.3-16.2,16.2c0,9,7.3,16.2,16.2,16.2s16.2-7.3,16.2-16.2
				C158.7,91,151.5,83.7,142.5,83.7z M144.3,109.4c-6.2,0-11.2-5-11.2-11.2c0-6.2,5-11.2,11.2-11.2s11.2,5,11.2,11.2
				C155.4,104.4,150.4,109.4,144.3,109.4z"/>
			<path class="st0" d="M108.2,115.5c-9,0-16.2,7.3-16.2,16.2s7.3,16.2,16.2,16.2c9,0,16.2-7.3,16.2-16.2S117.2,115.5,108.2,115.5z
				 M109.9,141.2c-6.2,0-11.2-5-11.2-11.2c0-6.2,5-11.2,11.2-11.2s11.2,5,11.2,11.2C121.1,136.2,116.1,141.2,109.9,141.2z"/>
			<path class="st0" d="M211.6,75.2c0,0,2,10.8,13.1,12.7h7.7c0,0-16.5-1.5-19.6-12.2L211.6,75.2z"/>
			<path class="st0" d="M229.7,144.6c0,0,10.8-2,12.7-13.1v-7.7c0,0-1.5,16.5-12.2,19.6L229.7,144.6z"/>
			<path class="st0" d="M220.3,130.9h1.3c0.8-0.9,1.9-1.4,3.2-1.4c2.4,0,4.4,2,4.4,4.4c0,1.7-1,3.2-2.5,3.9v1.1
				c2-0.8,3.5-2.7,3.5-5.1c0-3-2.4-5.4-5.4-5.4C223,128.5,221.3,129.5,220.3,130.9z"/>
			<path class="st0" d="M230.5,143.3c-0.9,0.3-1.9,0.5-2.9,0.5c-4.3-0.1-7.8-3.6-7.7-8c0-1.9,0.7-3.7,1.9-5l-1.3,0
				c-1,1.4-1.6,3.1-1.6,5c-0.1,4.9,3.8,9,8.7,9c1,0,2-0.1,2.9-0.4L230.5,143.3z"/>
			
				<ellipse transform="matrix(0.8517 -0.5241 0.5241 0.8517 -38.9066 139.3582)" class="st0" cx="226.7" cy="138.4" rx="0.7" ry="0.5"/>
			<path class="st0" d="M119.6,76.5c0,0-3.7,10.7,8.3,21.6l3.6-0.3c0,0-13.7-9.3-11.1-20.2L119.6,76.5z"/>
			<path class="st0" d="M136.1,75l-0.6,1.1c0.4,1.1,0.3,2.4-0.3,3.5c-1.2,2.1-3.9,2.9-6,1.7c-1.5-0.8-2.3-2.5-2.2-4.1l-1-0.5
				c-0.3,2.2,0.7,4.4,2.7,5.5c2.6,1.5,5.9,0.5,7.4-2.1C136.9,78.5,136.9,76.6,136.1,75z"/>
			<path class="st0" d="M120.4,77.8c0.1-0.9,0.5-1.9,1-2.8c2.2-3.7,7-5,10.7-2.8c1.7,1,2.8,2.4,3.4,4.1l0.7-1.1
				c-0.7-1.6-1.9-2.9-3.6-3.9c-4.2-2.5-9.7-1-12.2,3.2c-0.5,0.9-0.8,1.8-1,2.7L120.4,77.8z"/>
			
				<ellipse transform="matrix(0.9992 -4.033645e-02 4.033645e-02 0.9992 -3.0001 5.1611)" class="st0" cx="126.4" cy="76.9" rx="0.5" ry="0.7"/>
			<path class="st0" d="M179.2,103.9v1.2c-0.2,0-0.4,0-0.6,0c-2.5,0-4.5,2-4.5,4.5c0,0.6,0.1,1.1,0.3,1.6h-1.2
				c-0.2-0.5-0.2-1-0.2-1.6c0-3.1,2.5-5.7,5.7-5.7C178.8,103.9,179,103.9,179.2,103.9z"/>
			<circle class="st0" cx="173.9" cy="112.8" r="2.8"/>
			<path class="st0" d="M231.4,90.8V92c-0.2,0-0.4,0-0.6,0c-2.5,0-4.5,2-4.5,4.5c0,0.6,0.1,1.1,0.3,1.6h-1.2c-0.2-0.5-0.2-1-0.2-1.6
				c0-3.1,2.5-5.7,5.7-5.7C231,90.8,231.2,90.8,231.4,90.8z"/>
			<circle class="st0" cx="226.1" cy="99.7" r="2.8"/>
			<path class="st0" d="M264.2,107.6v1.2c-0.2,0-0.4,0-0.6,0c-2.5,0-4.5,2-4.5,4.5c0,0.6,0.1,1.1,0.3,1.6h-1.2
				c-0.2-0.5-0.2-1-0.2-1.6c0-3.1,2.5-5.7,5.7-5.7C263.8,107.6,264,107.6,264.2,107.6z"/>
			<circle class="st0" cx="258.9" cy="116.5" r="2.8"/>
			<path class="st0" d="M197.1,74.6v1.2c-0.2,0-0.4,0-0.6,0c-2.5,0-4.5,2-4.5,4.5c0,0.6,0.1,1.1,0.3,1.6H191c-0.2-0.5-0.2-1-0.2-1.6
				c0-3.1,2.5-5.7,5.7-5.7C196.7,74.5,196.9,74.6,197.1,74.6z"/>
			<circle class="st0" cx="191.8" cy="83.5" r="2.8"/>
			<path class="st0" d="M144.2,85.6v1.2c-0.2,0-0.4,0-0.6,0c-2.5,0-4.5,2-4.5,4.5c0,0.6,0.1,1.1,0.3,1.6h-1.2
				c-0.2-0.5-0.2-1-0.2-1.6c0-3.1,2.5-5.7,5.7-5.7C143.8,85.6,144,85.6,144.2,85.6z"/>
			<circle class="st0" cx="138.9" cy="94.5" r="2.8"/>
			<circle class="st0" cx="106" cy="121.6" r="2.8"/>
			<path class="st0" d="M237.2,76.9l0.8-0.8c0.1,0.2,0.3,0.3,0.4,0.5c1.8,1.8,4.6,1.8,6.4,0c0.4-0.4,0.7-0.9,0.9-1.3l0.9,0.9
				c-0.3,0.5-0.6,0.9-1,1.3c-2.2,2.2-5.8,2.2-8.1,0C237.4,77.2,237.3,77.1,237.2,76.9z"/>
			<circle class="st0" cx="247.2" cy="74.4" r="2.8"/>
			<circle class="st0" cx="286.5" cy="90.1" r="2.8"/>
			<path class="st0" d="M297.8,98.3l0.8-0.8c0.1,0.2,0.3,0.3,0.4,0.5c1.8,1.8,4.6,1.8,6.4,0c0.4-0.4,0.7-0.9,0.9-1.3l0.9,0.9
				c-0.3,0.5-0.6,0.9-1,1.3c-2.2,2.2-5.8,2.2-8.1,0C298.1,98.6,297.9,98.5,297.8,98.3z"/>
			<circle class="st0" cx="307.8" cy="95.8" r="2.8"/>
			<path class="st0" d="M115.3,119.6c5.2-11.3,17.9-9.4,17.9-9.4l-1.9-1.6c0,0-12.8-1.9-17.9,9.4"/>
		</g>
	</g>
	<g>
		<path class="st1" d="M61.7,165.1h3l20.6,48.8h-3.7l-6.8-16.1H51.6l-6.8,16.1H41L61.7,165.1z M73.9,194.9l-10.6-25.6l-10.9,25.6
			H73.9z"/>
		<path class="st1" d="M108.7,181.3c-3.2,0.1-6,1-8.4,2.9c-2.4,1.8-4.1,4.3-5,7.5v22.3h-3.4v-35.7h3.3v8.8c1.2-2.5,2.9-4.6,4.9-6.1
			c2-1.6,4.2-2.5,6.6-2.7c0.5,0,0.9-0.1,1.2-0.1c0.4,0,0.7,0,0.9,0V181.3z"/>
		<path class="st1" d="M129.6,214.4c-2.5,0-4.7-0.5-6.8-1.5c-2.1-1-3.8-2.4-5.3-4.1c-1.5-1.7-2.7-3.7-3.5-5.9
			c-0.8-2.2-1.3-4.5-1.3-6.8c0-2.4,0.4-4.8,1.2-7c0.8-2.2,1.9-4.2,3.4-5.9c1.5-1.7,3.2-3.1,5.3-4.1c2-1,4.3-1.5,6.8-1.5
			c3.1,0,5.8,0.8,8.1,2.4c2.3,1.6,4.3,3.6,5.9,5.9v-7.8h3.2v36.4c0,2.4-0.5,4.6-1.4,6.4c-0.9,1.8-2.1,3.4-3.7,4.6
			c-1.5,1.2-3.3,2.1-5.4,2.7c-2,0.6-4.2,0.9-6.4,0.9c-2.1,0-3.9-0.2-5.6-0.6c-1.6-0.4-3.1-0.9-4.4-1.6c-1.3-0.7-2.4-1.6-3.4-2.6
			c-1-1-1.8-2.2-2.6-3.4l2.3-1.6c1.4,2.4,3.3,4.2,5.8,5.3c2.4,1.1,5,1.7,7.8,1.7c1.8,0,3.6-0.3,5.2-0.8c1.6-0.5,3-1.2,4.3-2.2
			c1.2-1,2.2-2.2,2.9-3.7c0.7-1.5,1.1-3.2,1.1-5.2v-7.8c-1.5,2.3-3.4,4.2-5.8,5.6C134.8,213.7,132.3,214.4,129.6,214.4z
			 M130.4,211.5c1.5,0,3-0.3,4.4-0.9c1.4-0.6,2.7-1.3,3.9-2.2c1.2-0.9,2.1-1.9,2.9-3.1c0.8-1.1,1.2-2.3,1.4-3.4v-11.7
			c-0.5-1.4-1.3-2.6-2.2-3.8c-0.9-1.2-2-2.2-3.1-3c-1.2-0.8-2.4-1.5-3.8-2c-1.4-0.5-2.7-0.7-4.1-0.7c-2.2,0-4.1,0.5-5.8,1.4
			c-1.7,0.9-3.1,2.1-4.3,3.6c-1.2,1.5-2.1,3.1-2.7,5c-0.6,1.9-0.9,3.7-0.9,5.6c0,2.1,0.4,4,1.1,5.8c0.7,1.8,1.7,3.5,3,4.9
			c1.3,1.4,2.8,2.5,4.5,3.4C126.6,211.1,128.5,211.5,130.4,211.5z"/>
		<path class="st1" d="M172.4,214.6c-2.5,0-4.9-0.5-7-1.5c-2.2-1-4-2.3-5.6-4.1c-1.6-1.7-2.8-3.7-3.7-5.9c-0.9-2.2-1.3-4.6-1.3-7.2
			c0-2.5,0.4-4.9,1.3-7.1c0.9-2.2,2.1-4.2,3.7-5.8c1.6-1.7,3.4-3,5.5-4c2.1-1,4.4-1.4,6.9-1.4c2.5,0,4.9,0.5,7,1.5
			c2.2,1,4,2.3,5.6,4c1.6,1.7,2.8,3.6,3.6,5.8c0.9,2.2,1.3,4.6,1.3,7c0,0.2,0,0.5,0,0.9c0,0.3,0,0.6-0.1,0.7h-31.3
			c0.1,2.1,0.6,4,1.4,5.7c0.8,1.8,1.9,3.3,3.1,4.6c1.3,1.3,2.7,2.3,4.4,3c1.6,0.7,3.4,1.1,5.3,1.1c1.2,0,2.4-0.2,3.6-0.5
			c1.2-0.3,2.3-0.8,3.3-1.4c1-0.6,1.9-1.3,2.7-2.2c0.8-0.8,1.4-1.8,1.9-2.8l3,0.8c-0.5,1.3-1.2,2.5-2.2,3.5c-1,1.1-2.1,2-3.4,2.8
			c-1.3,0.8-2.7,1.4-4.3,1.8C175.7,214.4,174.1,214.6,172.4,214.6z M186.4,194.7c-0.1-2.1-0.6-4-1.4-5.8c-0.8-1.7-1.8-3.2-3.1-4.5
			c-1.3-1.3-2.7-2.2-4.4-3c-1.6-0.7-3.4-1.1-5.3-1.1c-1.9,0-3.6,0.4-5.3,1.1c-1.6,0.7-3.1,1.7-4.4,3c-1.3,1.3-2.3,2.8-3,4.5
			c-0.8,1.8-1.2,3.7-1.3,5.7H186.4z"/>
		<path class="st1" d="M226.5,213.9H223V194c0-4.6-0.7-8-2-10.1c-1.3-2.1-3.4-3.2-6.2-3.2c-1.5,0-3,0.3-4.5,0.8
			c-1.5,0.5-2.9,1.3-4.2,2.3c-1.3,1-2.4,2.2-3.4,3.5c-1,1.4-1.7,2.8-2.1,4.4v22.1h-3.4v-35.7h3.2v8.5c0.7-1.4,1.6-2.6,2.7-3.7
			c1.1-1.1,2.3-2.1,3.6-2.9c1.4-0.8,2.8-1.4,4.3-1.9c1.5-0.4,3.1-0.7,4.7-0.7c3.9,0,6.6,1.4,8.2,4.1c1.6,2.7,2.4,6.6,2.4,11.7V213.9
			z"/>
		<path class="st1" d="M252.8,212.2c-0.2,0.1-0.5,0.3-0.9,0.5c-0.4,0.3-1,0.5-1.6,0.7c-0.7,0.2-1.4,0.4-2.2,0.6
			c-0.8,0.2-1.7,0.3-2.7,0.3s-1.9-0.1-2.7-0.4c-0.8-0.3-1.6-0.7-2.2-1.2c-0.6-0.5-1.1-1.2-1.5-2c-0.4-0.8-0.5-1.7-0.5-2.7V181h-5
			v-2.8h5v-13.1h3.4v13.1h8.3v2.8h-8.3v26.1c0,1.3,0.5,2.3,1.4,3c0.9,0.7,1.9,1,3.1,1c1.4,0,2.6-0.2,3.7-0.7s1.7-0.8,1.9-0.9
			L252.8,212.2z"/>
		<path class="st1" d="M258.8,170.1v-4.9h3.4v4.9H258.8z M258.8,213.9v-35.7h3.4v35.7H258.8z"/>
		<path class="st1" d="M302.2,213.9h-3.4V194c0-4.6-0.7-8-2-10.1c-1.3-2.1-3.4-3.2-6.2-3.2c-1.5,0-3,0.3-4.5,0.8
			c-1.5,0.5-2.9,1.3-4.2,2.3c-1.3,1-2.4,2.2-3.4,3.5c-1,1.4-1.7,2.8-2.1,4.4v22.1H273v-35.7h3.2v8.5c0.7-1.4,1.6-2.6,2.7-3.7
			c1.1-1.1,2.3-2.1,3.6-2.9c1.4-0.8,2.8-1.4,4.3-1.9c1.5-0.4,3.1-0.7,4.7-0.7c3.9,0,6.6,1.4,8.2,4.1c1.6,2.7,2.4,6.6,2.4,11.7V213.9
			z"/>
		<path class="st1" d="M312.6,170.1v-4.9h3.4v4.9H312.6z M312.6,213.9v-35.7h3.4v35.7H312.6z"/>
		<path class="st1" d="M335.6,214.6c-1.6,0-3.2-0.3-4.6-0.9c-1.4-0.6-2.7-1.4-3.7-2.3c-1.1-1-1.9-2.2-2.5-3.5
			c-0.6-1.4-0.9-2.8-0.9-4.4c0-1.6,0.4-3,1.1-4.3c0.7-1.3,1.8-2.4,3.1-3.3c1.3-0.9,2.9-1.7,4.7-2.2c1.8-0.5,3.8-0.8,6-0.8
			c1.9,0,3.9,0.2,5.8,0.5c1.9,0.3,3.7,0.8,5.3,1.4v-3.5c0-3.4-1-6.1-2.9-8.1c-1.9-2-4.5-3-7.8-3c-1.7,0-3.6,0.4-5.5,1.1
			c-1.9,0.7-3.9,1.8-5.9,3.2l-1.3-2.3c4.6-3.1,8.9-4.7,13.1-4.7c4.3,0,7.7,1.2,10.2,3.7c2.5,2.5,3.7,5.9,3.7,10.3v17.4
			c0,1.1,0.5,1.7,1.5,1.7v3.1c-0.2,0-0.5,0.1-0.7,0.1c-0.3,0-0.5,0-0.7,0c-0.9,0-1.6-0.3-2.2-0.9c-0.5-0.6-0.9-1.4-1-2.2v-3
			c-1.6,2.2-3.8,3.8-6.3,4.9C341.4,214,338.6,214.6,335.6,214.6z M336.3,211.8c2.7,0,5.1-0.5,7.3-1.5c2.2-1,3.9-2.3,5.1-4
			c0.7-1,1.1-1.9,1.1-2.7v-6.3c-1.6-0.6-3.4-1.1-5.2-1.4c-1.8-0.3-3.6-0.5-5.6-0.5c-1.8,0-3.4,0.2-4.9,0.6c-1.5,0.4-2.7,0.9-3.8,1.6
			c-1.1,0.7-1.9,1.5-2.4,2.5c-0.6,1-0.9,2.1-0.9,3.3c0,1.2,0.2,2.3,0.7,3.4c0.5,1.1,1.1,2,1.9,2.7c0.8,0.8,1.8,1.4,2.9,1.8
			C333.8,211.6,335,211.8,336.3,211.8z"/>
		<path class="st1" d="M392.9,213.9h-3.4V194c0-4.6-0.7-8-2-10.1c-1.3-2.1-3.4-3.2-6.2-3.2c-1.5,0-3,0.3-4.5,0.8
			c-1.5,0.5-2.9,1.3-4.2,2.3c-1.3,1-2.4,2.2-3.4,3.5c-1,1.4-1.7,2.8-2.1,4.4v22.1h-3.4v-35.7h3.2v8.5c0.7-1.4,1.6-2.6,2.7-3.7
			c1.1-1.1,2.3-2.1,3.6-2.9c1.4-0.8,2.8-1.4,4.3-1.9c1.5-0.4,3.1-0.7,4.7-0.7c3.9,0,6.6,1.4,8.2,4.1c1.6,2.7,2.4,6.6,2.4,11.7V213.9
			z"/>
	</g>
	<rect x="41" y="245.6" class="st0" width="49.9" height="1.4"/>
	<rect x="343" y="245.6" class="st0" width="49.9" height="1.4"/>
	<g>
		<g>
			<path class="st1" d="M98.8,254.4v-16.2h10.5v1.1H100v6.4h8v1h-8v7.7H98.8z"/>
			<path class="st1" d="M120.2,238.2h1l6.9,16.2h-1.2l-2.2-5.3h-7.8l-2.2,5.3h-1.3L120.2,238.2z M124.2,248.1l-3.5-8.5l-3.5,8.5
				H124.2z"/>
			<path class="st1" d="M149.5,254.4v-14l-6.4,10.9h-0.8l-6.4-10.9v14h-1.2v-16.2h1.2l6.8,11.6l6.8-11.6h1.2v16.2H149.5z"/>
			<path class="st1" d="M159.1,254.4v-16.2h1.2v16.2H159.1z"/>
			<path class="st1" d="M168.8,254.4v-16.2h1.2v15.2h9.7v1.1H168.8z"/>
			<path class="st1" d="M183.3,238.2l5.7,9l5.7-9h1.3l-6.4,10.1v6.1h-1.2v-6.2l-6.4-10H183.3z"/>
			<path class="st1" d="M211,246.1c0-1,0.2-1.9,0.5-2.9c0.3-1,0.8-1.8,1.5-2.6c0.7-0.8,1.5-1.4,2.4-1.9c1-0.5,2-0.7,3.3-0.7
				c1.4,0,2.7,0.3,3.7,1c1,0.7,1.8,1.5,2.3,2.5l-1,0.5c-0.4-0.7-0.8-1.3-1.4-1.8c-0.6-0.4-1.2-0.8-1.8-0.9c-0.6-0.2-1.3-0.3-1.9-0.3
				c-1,0-1.9,0.2-2.7,0.6c-0.8,0.4-1.5,1-2,1.6c-0.5,0.7-1,1.4-1.2,2.3c-0.3,0.8-0.4,1.7-0.4,2.5c0,1,0.2,1.9,0.5,2.7
				c0.3,0.9,0.8,1.6,1.4,2.3c0.6,0.7,1.3,1.2,2.1,1.6c0.8,0.4,1.6,0.6,2.5,0.6c0.7,0,1.3-0.1,2-0.3c0.7-0.2,1.3-0.6,1.9-1
				c0.6-0.5,1.1-1.1,1.4-1.8l1,0.5c-0.3,0.8-0.9,1.5-1.6,2.1c-0.7,0.6-1.5,1-2.3,1.3c-0.9,0.3-1.7,0.4-2.5,0.4c-1.1,0-2.1-0.2-3-0.7
				c-0.9-0.5-1.7-1.1-2.4-1.9c-0.7-0.8-1.2-1.7-1.6-2.7C211.2,248.2,211,247.2,211,246.1z"/>
			<path class="st1" d="M242.9,253.3v1.1h-10.8v-16.2h10.6v1.1h-9.4v6.4h8.2v1h-8.2v6.7H242.9z"/>
			<path class="st1" d="M250.4,254.4v-16.2h1.2v15.2h9.7v1.1H250.4z"/>
			<path class="st1" d="M267.9,254.4v-16.2h1.2v15.2h9.7v1.1H267.9z"/>
			<path class="st1" d="M290.5,238.2h1l6.9,16.2h-1.2l-2.2-5.3h-7.8l-2.2,5.3h-1.3L290.5,238.2z M294.5,248.1l-3.5-8.5l-3.5,8.5
				H294.5z"/>
			<path class="st1" d="M305.1,254.4v-16.2h6.7c0.7,0,1.3,0.1,1.9,0.4c0.6,0.3,1.1,0.7,1.5,1.2c0.4,0.5,0.7,1,1,1.6
				c0.2,0.6,0.4,1.2,0.4,1.8c0,0.8-0.2,1.6-0.5,2.3c-0.3,0.7-0.8,1.3-1.3,1.8c-0.6,0.5-1.2,0.8-2,0.9l4,6.3h-1.3l-3.9-6.1h-5.3v6.1
				H305.1z M306.3,247.2h5.7c0.7,0,1.3-0.2,1.8-0.6c0.5-0.4,0.9-0.9,1.2-1.5c0.3-0.6,0.4-1.3,0.4-1.9c0-0.7-0.2-1.4-0.5-2
				c-0.3-0.6-0.8-1.1-1.3-1.5c-0.5-0.4-1.1-0.6-1.8-0.6h-5.5V247.2z"/>
			<path class="st1" d="M333.6,240.9c-0.3-0.3-0.5-0.5-0.9-0.8c-0.3-0.2-0.7-0.4-1-0.5c-0.4-0.1-0.8-0.3-1.2-0.3
				c-0.4-0.1-0.9-0.1-1.4-0.1c-1.6,0-2.7,0.3-3.5,0.9s-1.1,1.4-1.1,2.4c0,0.7,0.2,1.2,0.5,1.6c0.3,0.4,0.8,0.7,1.5,1
				c0.7,0.2,1.6,0.5,2.7,0.7c1.2,0.2,2.2,0.5,3,0.9c0.9,0.3,1.5,0.8,2,1.3c0.5,0.6,0.7,1.3,0.7,2.3c0,0.7-0.1,1.3-0.4,1.9
				c-0.3,0.5-0.7,1-1.2,1.3c-0.5,0.3-1.1,0.6-1.8,0.8c-0.7,0.2-1.5,0.3-2.4,0.3c-0.8,0-1.6-0.1-2.4-0.3c-0.8-0.2-1.5-0.4-2.1-0.8
				c-0.7-0.4-1.3-0.8-1.9-1.3l0.6-0.9c0.3,0.4,0.7,0.7,1.1,1c0.4,0.3,0.9,0.5,1.4,0.7c0.5,0.2,1,0.4,1.6,0.5
				c0.6,0.1,1.1,0.2,1.8,0.2c1.4,0,2.5-0.3,3.3-0.8c0.8-0.5,1.2-1.3,1.2-2.3c0-0.7-0.2-1.3-0.5-1.7c-0.4-0.4-0.9-0.8-1.7-1.1
				c-0.8-0.3-1.7-0.5-2.9-0.8c-1.1-0.2-2.1-0.5-2.9-0.8c-0.8-0.3-1.4-0.7-1.8-1.2c-0.4-0.5-0.6-1.2-0.6-2.1c0-1,0.2-1.8,0.7-2.5
				c0.5-0.7,1.2-1.2,2-1.5c0.9-0.4,1.9-0.5,3-0.5c0.7,0,1.4,0.1,2,0.2c0.6,0.1,1.2,0.3,1.7,0.6c0.5,0.3,1,0.6,1.4,1.1L333.6,240.9z"
				/>
		</g>
	</g>
</g>
</svg>
