<?xml version="1.0" encoding="utf-8"?>
<!-- Generator: Adobe Illustrator 26.1.0, SVG Export Plug-In . SVG Version: 6.00 Build 0)  -->
<svg version="1.1" id="Capa_1" xmlns="http://www.w3.org/2000/svg" xmlns:xlink="http://www.w3.org/1999/xlink" x="0px" y="0px"
	 viewBox="0 0 433.9 300" style="enable-background:new 0 0 433.9 300;" xml:space="preserve">
<style type="text/css">
	.st0{fill:#FFFFFF;}
</style>
<g>
	<g>
		<path class="st0" d="M347.5,141.9c-0.2-0.2-0.3-0.4-0.5-0.6C347.2,141.5,347.4,141.7,347.5,141.9z"/>
		<path class="st0" d="M226.4,57.1v1.5c1,0.9,1.6,2.2,1.6,3.6c0,2.7-2.2,5-5,5c-2,0-3.7-1.1-4.5-2.8h-1.3c0.9,2.3,3.1,4,5.7,4
			c3.4,0,6.1-2.7,6.1-6.1C229.1,60.1,228,58.2,226.4,57.1z"/>
		<path class="st0" d="M212.4,68.6c-0.4-1-0.6-2.1-0.6-3.3c0.1-4.9,4.1-8.8,9-8.7c2.2,0,4.1,0.8,5.7,2.2l0-1.5
			c-1.6-1.1-3.5-1.8-5.7-1.9c-5.6-0.1-10.1,4.3-10.2,9.9c0,1.1,0.2,2.2,0.5,3.3L212.4,68.6z"/>
		
			<ellipse transform="matrix(0.8517 -0.5241 0.5241 0.8517 -1.4219 123.7263)" class="st0" cx="217.9" cy="64.4" rx="0.6" ry="0.7"/>
		<g>
			<path class="st0" d="M355.2,134.7c-0.1-0.1-0.2-0.2-0.4-0.3c0,0,0,0,0,0c-4.1-4.6-24.8-26.6-55.6-41.1c-0.1,1.7-0.9,3.1-2.1,4.1
				c-0.5,0.8-1.2,1.6-2,2.3c28.9,14.1,47.4,35.9,51.9,41.6c0.2,0.2,0.3,0.4,0.5,0.6c0,0,0,0,0,0c0.2,0.2,0.5,0.4,0.7,0.6
				c1.9,1.4,4.7,1.2,6.6-0.6C356.9,140,357.1,136.8,355.2,134.7z"/>
			<path class="st0" d="M266.1,82.3c-27.9-5.2-51.6,0-67.8,6.2c0,0.1,0,0.2-0.1,0.2c-0.2,0.6-0.5,1.1-1,1.6c-0.4,0.5-1,0.8-1.6,1
				c-0.4,0.2-0.8,0.3-1.2,0.4c-0.2,0-0.3,0.1-0.5,0.1c-0.4,0.2-0.8,0.4-1.2,0.6c-0.7,0.3-1.4,0.6-2.1,0.8c-0.7,0.2-1.5,0.3-2.3,0.4
				c-0.5,0-0.9-0.1-1.3-0.2c-7.7,3.8-12,7-12,7l2.9,2.1c0,0,10.7-9.2,33-13.6c0.8-1.7,2.2-3.2,3.8-4c2.1-1,4.3-1.4,6.6-1.5
				c1.7,0,3.3,0.1,5,0.3c1.3,0.1,2.6,0.4,3.9,0.3c1.9-0.1,3.4,1,4.2,2.6c7.5-0.1,15.7,0.4,24.7,1.8c3.3,0.5,6.6,1.1,9.8,1.9
				c-0.1-2.3,0.5-4.7,1.9-6.6c0-0.1,0.1-0.2,0.2-0.3C269.3,82.9,267.7,82.6,266.1,82.3z"/>
			<path class="st0" d="M292.3,31.2c-13.4,0-24.3,10.9-24.3,24.3s10.9,24.3,24.3,24.3c13.4,0,24.3-10.9,24.3-24.3
				S305.7,31.2,292.3,31.2z M294.3,71.5c-9.9,0-17.9-8-17.9-17.9c0-9.9,8-17.9,17.9-17.9c9.9,0,17.9,8,17.9,17.9
				C312.2,63.4,304.2,71.5,294.3,71.5z"/>
			<path class="st0" d="M263.8,100.8c-13.4,0-24.3,10.9-24.3,24.3c0,13.4,10.9,24.3,24.3,24.3c13.4,0,24.3-10.9,24.3-24.3
				C288.1,111.7,277.2,100.8,263.8,100.8z M265.8,141.1c-9.9,0-17.9-8-17.9-17.9c0-9.9,8-17.9,17.9-17.9c9.9,0,17.9,8,17.9,17.9
				C283.7,133,275.7,141.1,265.8,141.1z"/>
			<path class="st0" d="M319.9,62.5c-12.1,0-21.9,9.8-21.9,21.9s9.8,21.9,21.9,21.9c12.1,0,21.9-9.8,21.9-21.9
				S332.1,62.5,319.9,62.5z M321.9,98.1c-8.7,0-15.7-7-15.7-15.7c0-8.7,7-15.7,15.7-15.7c8.7,0,15.7,7,15.7,15.7
				C337.6,91.1,330.6,98.1,321.9,98.1z"/>
			<path class="st0" d="M252,39.9c-12.1,0-21.9,9.8-21.9,21.9c0,12.1,9.8,21.9,21.9,21.9c12.1,0,21.9-9.8,21.9-21.9
				C274,49.7,264.1,39.9,252,39.9z M254,75.6c-8.7,0-15.7-7-15.7-15.7s7-15.7,15.7-15.7s15.7,7,15.7,15.7S262.7,75.6,254,75.6z"/>
			<path class="st0" d="M163.9,95c-12.1,0-21.9,9.8-21.9,21.9s9.8,21.9,21.9,21.9c12.1,0,21.9-9.8,21.9-21.9S176,95,163.9,95z
				 M165.9,130.7c-8.7,0-15.7-7-15.7-15.7c0-8.7,7-15.7,15.7-15.7c8.7,0,15.7,7,15.7,15.7C181.6,123.6,174.6,130.7,165.9,130.7z"/>
			<path class="st0" d="M284.1,71.8c-10.1,0-18.4,8.2-18.4,18.4c0,10.1,8.2,18.4,18.4,18.4c10.1,0,18.4-8.2,18.4-18.4
				C302.5,80.1,294.2,71.8,284.1,71.8z M286.1,100.9c-7,0-12.6-5.6-12.6-12.6s5.6-12.6,12.6-12.6c7,0,12.6,5.6,12.6,12.6
				S293,100.9,286.1,100.9z"/>
			<path class="st0" d="M185.7,63.1c-10.1,0-18.4,8.2-18.4,18.4s8.2,18.4,18.4,18.4s18.4-8.2,18.4-18.4S195.9,63.1,185.7,63.1z
				 M187.7,92.1c-7,0-12.6-5.6-12.6-12.6s5.6-12.6,12.6-12.6c7,0,12.6,5.6,12.6,12.6S194.7,92.1,187.7,92.1z"/>
			<path class="st0" d="M222.3,80.4c-10.1,0-18.4,8.2-18.4,18.4c0,10.1,8.2,18.4,18.4,18.4c10.1,0,18.4-8.2,18.4-18.4
				C240.7,88.6,232.5,80.4,222.3,80.4z M224.3,109.4c-7,0-12.6-5.6-12.6-12.6s5.6-12.6,12.6-12.6c7,0,12.6,5.6,12.6,12.6
				S231.3,109.4,224.3,109.4z"/>
			<path class="st0" d="M132.7,77.3c-10.1,0-18.4,8.2-18.4,18.4c0,10.1,8.2,18.4,18.4,18.4c10.1,0,18.4-8.2,18.4-18.4
				C151,85.5,142.8,77.3,132.7,77.3z M134.6,106.3c-7,0-12.6-5.6-12.6-12.6s5.6-12.6,12.6-12.6c7,0,12.6,5.6,12.6,12.6
				S141.6,106.3,134.6,106.3z"/>
			<path class="st0" d="M93.8,113.3c-10.1,0-18.4,8.2-18.4,18.4S83.7,150,93.8,150c10.1,0,18.4-8.2,18.4-18.4S104,113.3,93.8,113.3z
				 M95.8,142.3c-7,0-12.6-5.6-12.6-12.6c0-7,5.6-12.6,12.6-12.6s12.6,5.6,12.6,12.6C108.4,136.7,102.8,142.3,95.8,142.3z"/>
			<path class="st0" d="M210.9,67.7c0,0,2.3,12.2,14.8,14.4h8.8c0,0-18.7-1.6-22.2-13.8L210.9,67.7z"/>
			<path class="st0" d="M231.3,146.1c0,0,12.2-2.3,14.4-14.8v-8.8c0,0-1.6,18.7-13.8,22.2L231.3,146.1z"/>
			<path class="st0" d="M220.7,130.7h1.5c0.9-1,2.2-1.6,3.6-1.6c2.7,0,5,2.2,5,5c0,2-1.1,3.7-2.8,4.5v1.3c2.3-0.9,4-3.1,4-5.7
				c0-3.4-2.7-6.1-6.1-6.1C223.7,127.9,221.8,129,220.7,130.7z"/>
			<path class="st0" d="M232.2,144.6c-1,0.4-2.1,0.6-3.3,0.6c-4.9-0.1-8.8-4.1-8.7-9c0-2.2,0.8-4.1,2.2-5.7l-1.5,0
				c-1.1,1.6-1.8,3.5-1.9,5.7c-0.1,5.6,4.3,10.1,9.9,10.2c1.1,0,2.2-0.2,3.3-0.5L232.2,144.6z"/>
			
				<ellipse transform="matrix(0.8517 -0.5241 0.5241 0.8517 -39.1164 140.1189)" class="st0" cx="228" cy="139.2" rx="0.7" ry="0.6"/>
			<path class="st0" d="M106.7,69.1c0,0-4.2,12.1,9.4,24.4l4.1-0.3c0,0-15.5-10.6-12.6-22.9L106.7,69.1z"/>
			<path class="st0" d="M125.4,67.4l-0.7,1.3c0.4,1.3,0.3,2.7-0.4,4c-1.3,2.4-4.4,3.3-6.8,1.9c-1.7-1-2.6-2.8-2.5-4.6l-1.1-0.6
				c-0.4,2.4,0.8,5,3.1,6.2c3,1.7,6.7,0.6,8.4-2.3C126.3,71.4,126.3,69.2,125.4,67.4z"/>
			<path class="st0" d="M107.6,70.6c0.2-1.1,0.5-2.1,1.1-3.1c2.5-4.2,7.9-5.7,12.1-3.2c1.9,1.1,3.2,2.8,3.9,4.7l0.7-1.3
				c-0.8-1.8-2.2-3.3-4-4.4c-4.8-2.8-11-1.2-13.8,3.6c-0.6,1-1,2-1.2,3.1L107.6,70.6z"/>
			
				<ellipse transform="matrix(0.9992 -4.033645e-02 4.033645e-02 0.9992 -2.7139 4.6727)" class="st0" cx="114.4" cy="69.6" rx="0.6" ry="0.7"/>
			<path class="st0" d="M174.1,100.1v1.3c-0.2,0-0.5,0-0.7,0c-2.8,0-5.1,2.3-5.1,5.1c0,0.6,0.1,1.2,0.3,1.8h-1.4
				c-0.2-0.6-0.3-1.2-0.3-1.8c0-3.6,2.9-6.4,6.4-6.4C173.7,100.1,173.9,100.1,174.1,100.1z"/>
			<circle class="st0" cx="168.1" cy="110.2" r="3.1"/>
			<path class="st0" d="M233.3,85.3v1.3c-0.2,0-0.5,0-0.7,0c-2.8,0-5.1,2.3-5.1,5.1c0,0.6,0.1,1.2,0.3,1.8h-1.4
				c-0.2-0.6-0.3-1.2-0.3-1.8c0-3.6,2.9-6.4,6.4-6.4C232.8,85.2,233.1,85.3,233.3,85.3z"/>
			<circle class="st0" cx="227.3" cy="95.3" r="3.1"/>
			<path class="st0" d="M270.3,104.3v1.3c-0.2,0-0.5,0-0.7,0c-2.8,0-5.1,2.3-5.1,5.1c0,0.6,0.1,1.2,0.3,1.8h-1.4
				c-0.2-0.6-0.3-1.2-0.3-1.8c0-3.6,2.9-6.4,6.4-6.4C269.9,104.2,270.1,104.3,270.3,104.3z"/>
			<circle class="st0" cx="264.3" cy="114.3" r="3.1"/>
			<path class="st0" d="M194.4,66.9v1.3c-0.2,0-0.5,0-0.7,0c-2.8,0-5.1,2.3-5.1,5.1c0,0.6,0.1,1.2,0.3,1.8h-1.4
				c-0.2-0.6-0.3-1.2-0.3-1.8c0-3.6,2.9-6.4,6.4-6.4C194,66.9,194.2,66.9,194.4,66.9z"/>
			<circle class="st0" cx="188.5" cy="77" r="3.1"/>
			<path class="st0" d="M134.6,79.4v1.3c-0.2,0-0.5,0-0.7,0c-2.8,0-5.1,2.3-5.1,5.1c0,0.6,0.1,1.2,0.3,1.8h-1.4
				c-0.2-0.6-0.3-1.2-0.3-1.8c0-3.6,2.9-6.4,6.4-6.4C134.1,79.4,134.4,79.4,134.6,79.4z"/>
			<circle class="st0" cx="128.6" cy="89.5" r="3.1"/>
			<circle class="st0" cx="91.3" cy="120.1" r="3.1"/>
			<path class="st0" d="M239.8,69.6l0.9-0.9c0.1,0.2,0.3,0.3,0.5,0.5c2,2,5.3,2,7.3,0c0.5-0.5,0.8-1,1-1.5l1,1
				c-0.3,0.5-0.7,1-1.1,1.5c-2.5,2.5-6.6,2.5-9.1,0C240.1,69.9,239.9,69.8,239.8,69.6z"/>
			<circle class="st0" cx="251.2" cy="66.7" r="3.1"/>
			<circle class="st0" cx="295.6" cy="84.5" r="3.1"/>
			<path class="st0" d="M308.4,93.8l0.9-0.9c0.1,0.2,0.3,0.3,0.5,0.5c2,2,5.3,2,7.3,0c0.5-0.5,0.8-1,1-1.5l1,1
				c-0.3,0.5-0.7,1-1.1,1.5c-2.5,2.5-6.6,2.5-9.1,0C308.7,94.2,308.5,94,308.4,93.8z"/>
			<circle class="st0" cx="319.7" cy="90.9" r="3.1"/>
			<path class="st0" d="M101.9,117.8c5.9-12.8,20.3-10.7,20.3-10.7l-2.1-1.8c0,0-14.4-2.1-20.3,10.7"/>
		</g>
	</g>
	<g>
		<g>
			<path class="st0" d="M41.3,169.4h3.4L68,224.6h-4.2l-7.7-18.2H29.8l-7.7,18.2h-4.3L41.3,169.4z M55,203.1l-12-28.9l-12.3,28.9H55
				z"/>
		</g>
		<g>
			<path class="st0" d="M94.4,187.6c-3.6,0.1-6.8,1.2-9.5,3.2c-2.7,2-4.6,4.9-5.7,8.4v25.3h-3.9v-40.4H79v9.9c1.4-2.8,3.3-5.2,5.6-7
				c2.3-1.8,4.8-2.8,7.4-3.1c0.5-0.1,1-0.1,1.4-0.1c0.4,0,0.8,0,1,0V187.6z"/>
		</g>
		<g>
			<path class="st0" d="M118.1,225.2c-2.8,0-5.4-0.6-7.7-1.7c-2.3-1.2-4.3-2.7-6-4.7c-1.7-1.9-3-4.2-4-6.6c-1-2.5-1.4-5.1-1.4-7.7
				c0-2.7,0.5-5.4,1.4-7.9c0.9-2.5,2.2-4.8,3.8-6.7c1.7-1.9,3.6-3.5,5.9-4.6c2.3-1.1,4.9-1.7,7.7-1.7c3.5,0,6.6,0.9,9.2,2.8
				c2.6,1.8,4.8,4.1,6.6,6.7v-8.8h3.6v41.2c0,2.7-0.5,5.2-1.6,7.2c-1,2.1-2.4,3.8-4.2,5.2c-1.7,1.4-3.8,2.4-6.1,3.1
				c-2.3,0.7-4.7,1-7.3,1c-2.3,0-4.4-0.2-6.3-0.7c-1.9-0.4-3.5-1.1-4.9-1.9c-1.4-0.8-2.7-1.8-3.8-3c-1.1-1.2-2.1-2.4-2.9-3.8
				l2.6-1.8c1.6,2.7,3.8,4.8,6.5,6c2.7,1.3,5.7,1.9,8.8,1.9c2.1,0,4-0.3,5.9-0.9c1.8-0.6,3.4-1.4,4.8-2.5c1.4-1.1,2.5-2.5,3.3-4.2
				c0.8-1.7,1.2-3.6,1.2-5.8v-8.9c-1.7,2.6-3.9,4.8-6.6,6.3C124,224.4,121.1,225.2,118.1,225.2z M119,221.8c1.7,0,3.4-0.3,5-1
				c1.6-0.6,3.1-1.5,4.4-2.5c1.3-1,2.4-2.2,3.3-3.5c0.9-1.3,1.4-2.6,1.6-3.9v-13.3c-0.6-1.6-1.5-3-2.5-4.3c-1-1.3-2.2-2.4-3.5-3.4
				c-1.3-0.9-2.7-1.7-4.3-2.2c-1.5-0.5-3.1-0.8-4.6-0.8c-2.4,0-4.6,0.5-6.5,1.6c-1.9,1-3.5,2.4-4.9,4c-1.3,1.7-2.3,3.5-3,5.6
				c-0.7,2.1-1,4.2-1,6.3c0,2.3,0.4,4.5,1.2,6.6c0.8,2.1,2,3.9,3.4,5.5c1.5,1.6,3.2,2.9,5.1,3.8C114.7,221.4,116.8,221.8,119,221.8z
				"/>
		</g>
		<g>
			<path class="st0" d="M166.5,225.3c-2.9,0-5.5-0.6-7.9-1.7c-2.4-1.1-4.5-2.6-6.3-4.6c-1.8-1.9-3.2-4.2-4.2-6.7
				c-1-2.5-1.5-5.3-1.5-8.2c0-2.8,0.5-5.5,1.5-8c1-2.5,2.4-4.7,4.2-6.6c1.8-1.9,3.8-3.4,6.3-4.5c2.4-1.1,5-1.6,7.8-1.6
				c2.8,0,5.5,0.6,7.9,1.7c2.4,1.1,4.5,2.6,6.3,4.5c1.8,1.9,3.1,4.1,4.1,6.6c1,2.5,1.5,5.2,1.5,8c0,0.3,0,0.6,0,1
				c0,0.4,0,0.6-0.1,0.7h-35.4c0.2,2.3,0.7,4.5,1.6,6.5c0.9,2,2.1,3.7,3.5,5.2c1.4,1.5,3.1,2.6,4.9,3.4c1.9,0.8,3.9,1.2,6,1.2
				c1.4,0,2.8-0.2,4.1-0.6c1.3-0.4,2.6-0.9,3.8-1.6c1.2-0.7,2.2-1.5,3.1-2.4c0.9-1,1.6-2,2.1-3.1l3.4,0.9c-0.6,1.5-1.4,2.8-2.5,4
				c-1.1,1.2-2.4,2.3-3.9,3.1c-1.5,0.9-3.1,1.6-4.9,2.1C170.2,225.1,168.4,225.3,166.5,225.3z M182.4,202.8
				c-0.2-2.4-0.7-4.6-1.6-6.5c-0.9-2-2.1-3.7-3.5-5.1c-1.4-1.4-3.1-2.5-4.9-3.3c-1.9-0.8-3.9-1.2-6-1.2c-2.1,0-4.1,0.4-6,1.2
				c-1.9,0.8-3.5,1.9-4.9,3.3c-1.4,1.4-2.6,3.1-3.4,5.1c-0.9,2-1.4,4.2-1.5,6.5H182.4z"/>
		</g>
		<g>
			<path class="st0" d="M227.7,224.6h-3.9V202c0-5.2-0.7-9-2.2-11.4c-1.5-2.4-3.8-3.6-7-3.6c-1.7,0-3.4,0.3-5.1,0.9
				c-1.7,0.6-3.3,1.5-4.7,2.6c-1.5,1.1-2.7,2.5-3.8,4c-1.1,1.5-1.9,3.2-2.4,4.9v25h-3.9v-40.4h3.7v9.6c0.8-1.6,1.9-3,3.1-4.2
				c1.2-1.3,2.6-2.4,4.1-3.3c1.5-0.9,3.1-1.6,4.9-2.1c1.7-0.5,3.5-0.7,5.3-0.7c4.4,0,7.5,1.5,9.3,4.6c1.8,3.1,2.7,7.5,2.7,13.3
				V224.6z"/>
		</g>
		<g>
			<path class="st0" d="M257.4,222.6c-0.2,0.1-0.6,0.3-1,0.6c-0.5,0.3-1.1,0.6-1.9,0.8c-0.8,0.3-1.6,0.5-2.5,0.7
				c-0.9,0.2-1.9,0.3-3,0.3c-1.1,0-2.1-0.2-3.1-0.5c-1-0.3-1.8-0.8-2.5-1.4c-0.7-0.6-1.3-1.4-1.7-2.3c-0.4-0.9-0.6-1.9-0.6-3.1
				v-30.5h-5.7v-3.2h5.7v-14.8h3.9v14.8h9.4v3.2h-9.4v29.5c0,1.5,0.5,2.6,1.6,3.4c1,0.8,2.2,1.1,3.5,1.1c1.6,0,3-0.3,4.2-0.8
				c1.2-0.5,1.9-0.9,2.1-1L257.4,222.6z"/>
		</g>
		<g>
			<path class="st0" d="M264.3,175v-5.6h3.9v5.6H264.3z M264.3,224.6v-40.4h3.9v40.4H264.3z"/>
		</g>
		<g>
			<path class="st0" d="M313.4,224.6h-3.9V202c0-5.2-0.7-9-2.2-11.4c-1.5-2.4-3.8-3.6-7-3.6c-1.7,0-3.4,0.3-5.1,0.9
				c-1.7,0.6-3.3,1.5-4.7,2.6c-1.5,1.1-2.7,2.5-3.8,4c-1.1,1.5-1.9,3.2-2.4,4.9v25h-3.9v-40.4h3.7v9.6c0.8-1.6,1.9-3,3.1-4.2
				c1.2-1.3,2.6-2.4,4.1-3.3c1.5-0.9,3.1-1.6,4.9-2.1c1.7-0.5,3.5-0.7,5.3-0.7c4.4,0,7.5,1.5,9.3,4.6c1.8,3.1,2.7,7.5,2.7,13.3
				V224.6z"/>
		</g>
		<g>
			<path class="st0" d="M325.1,175v-5.6h3.9v5.6H325.1z M325.1,224.6v-40.4h3.9v40.4H325.1z"/>
		</g>
		<g>
			<path class="st0" d="M351.2,225.3c-1.9,0-3.6-0.3-5.2-1c-1.6-0.6-3-1.5-4.2-2.6c-1.2-1.1-2.2-2.4-2.8-4c-0.7-1.5-1-3.2-1-4.9
				c0-1.8,0.4-3.4,1.2-4.8c0.8-1.5,2-2.7,3.5-3.8c1.5-1.1,3.3-1.9,5.3-2.5c2.1-0.6,4.4-0.9,6.8-0.9c2.2,0,4.4,0.2,6.6,0.6
				c2.2,0.4,4.2,0.9,5.9,1.6v-4c0-3.8-1.1-6.9-3.3-9.1s-5.1-3.4-8.9-3.4c-2,0-4.1,0.4-6.3,1.2c-2.2,0.8-4.4,2-6.7,3.6l-1.5-2.6
				c5.2-3.5,10.1-5.3,14.8-5.3c4.9,0,8.7,1.4,11.5,4.2c2.8,2.8,4.2,6.7,4.2,11.7v19.7c0,1.3,0.6,1.9,1.7,1.9v3.5
				c-0.3,0.1-0.5,0.1-0.8,0.1c-0.3,0-0.5,0-0.7,0c-1,0-1.9-0.3-2.5-1c-0.6-0.7-1-1.5-1.1-2.5v-3.3c-1.9,2.4-4.2,4.3-7.2,5.6
				C357.7,224.7,354.5,225.3,351.2,225.3z M352,222.2c3,0,5.8-0.6,8.3-1.7c2.5-1.1,4.4-2.6,5.8-4.5c0.8-1.1,1.2-2.1,1.2-3.1v-7.2
				c-1.9-0.7-3.8-1.3-5.8-1.6c-2-0.4-4.1-0.5-6.3-0.5c-2,0-3.9,0.2-5.5,0.7c-1.7,0.4-3.1,1-4.3,1.8c-1.2,0.8-2.1,1.7-2.8,2.8
				c-0.6,1.1-1,2.3-1,3.7c0,1.3,0.3,2.6,0.8,3.8c0.5,1.2,1.2,2.2,2.2,3.1c0.9,0.9,2,1.5,3.3,2C349.1,222,350.5,222.2,352,222.2z"/>
		</g>
		<g>
			<path class="st0" d="M416,224.6h-3.9V202c0-5.2-0.7-9-2.2-11.4c-1.5-2.4-3.8-3.6-7-3.6c-1.7,0-3.4,0.3-5.1,0.9
				c-1.7,0.6-3.3,1.5-4.7,2.6c-1.5,1.1-2.7,2.5-3.8,4c-1.1,1.5-1.9,3.2-2.4,4.9v25H383v-40.4h3.7v9.6c0.8-1.6,1.9-3,3.1-4.2
				c1.2-1.3,2.6-2.4,4.1-3.3c1.5-0.9,3.1-1.6,4.9-2.1c1.7-0.5,3.5-0.7,5.3-0.7c4.4,0,7.5,1.5,9.3,4.6c1.8,3.1,2.7,7.5,2.7,13.3
				V224.6z"/>
		</g>
	</g>
	<rect x="17.8" y="260.5" class="st0" width="56.5" height="1.5"/>
	<rect x="359.5" y="260.5" class="st0" width="56.5" height="1.5"/>
	<g>
		<path class="st0" d="M83.2,270.4V252h11.9v1.2H84.5v7.3h9v1.1h-9v8.7H83.2z"/>
		<path class="st0" d="M107.4,252h1.1l7.8,18.3h-1.4l-2.5-6h-8.9l-2.5,6h-1.4L107.4,252z M111.9,263.3l-4-9.6l-4,9.6H111.9z"/>
		<path class="st0" d="M140.5,270.4v-15.8l-7.2,12.4h-0.9l-7.2-12.4v15.8h-1.3V252h1.3l7.6,13.1l7.6-13.1h1.3v18.3H140.5z"/>
		<path class="st0" d="M151.5,270.4V252h1.3v18.3H151.5z"/>
		<path class="st0" d="M162.4,270.4V252h1.3v17.2h11v1.2H162.4z"/>
		<path class="st0" d="M178.8,252l6.4,10.2l6.4-10.2h1.5l-7.2,11.4v6.9h-1.3v-7l-7.2-11.4H178.8z"/>
		<path class="st0" d="M210.1,261.1c0-1.1,0.2-2.2,0.6-3.3c0.4-1.1,1-2.1,1.7-2.9c0.7-0.9,1.6-1.6,2.7-2.1c1.1-0.5,2.3-0.8,3.7-0.8
			c1.6,0,3,0.4,4.2,1.1c1.2,0.7,2,1.7,2.6,2.9l-1.1,0.6c-0.4-0.8-1-1.5-1.6-2c-0.6-0.5-1.3-0.9-2-1.1c-0.7-0.2-1.4-0.3-2.2-0.3
			c-1.2,0-2.2,0.2-3.1,0.7c-0.9,0.5-1.7,1.1-2.3,1.9c-0.6,0.8-1.1,1.6-1.4,2.6c-0.3,0.9-0.5,1.9-0.5,2.9c0,1.1,0.2,2.1,0.6,3.1
			c0.4,1,0.9,1.8,1.6,2.6c0.7,0.8,1.4,1.4,2.3,1.8c0.9,0.4,1.8,0.7,2.9,0.7c0.7,0,1.5-0.1,2.3-0.4c0.8-0.2,1.5-0.6,2.2-1.2
			c0.7-0.5,1.2-1.2,1.6-2.1l1.1,0.5c-0.4,0.9-1,1.7-1.8,2.3c-0.8,0.6-1.7,1.1-2.6,1.4c-1,0.3-1.9,0.5-2.9,0.5
			c-1.2,0-2.4-0.3-3.4-0.8c-1.1-0.5-2-1.3-2.7-2.2c-0.8-0.9-1.4-1.9-1.8-3C210.3,263.4,210.1,262.2,210.1,261.1z"/>
		<path class="st0" d="M246.3,269.2v1.2h-12.2V252h12v1.2h-10.7v7.2h9.3v1.1h-9.3v7.6H246.3z"/>
		<path class="st0" d="M254.7,270.4V252h1.3v17.2h11v1.2H254.7z"/>
		<path class="st0" d="M274.5,270.4V252h1.3v17.2h11v1.2H274.5z"/>
		<path class="st0" d="M300.2,252h1.1l7.8,18.3h-1.4l-2.5-6h-8.9l-2.5,6h-1.4L300.2,252z M304.7,263.3l-4-9.6l-4,9.6H304.7z"/>
		<path class="st0" d="M316.7,270.4V252h7.6c0.8,0,1.5,0.2,2.2,0.5c0.6,0.3,1.2,0.8,1.7,1.3c0.5,0.5,0.8,1.2,1.1,1.8
			s0.4,1.4,0.4,2.1c0,0.9-0.2,1.8-0.5,2.6c-0.4,0.8-0.9,1.5-1.5,2c-0.6,0.5-1.4,0.9-2.3,1l4.6,7.1h-1.5l-4.4-6.9H318v6.9H316.7z
			 M318,262.3h6.4c0.8,0,1.5-0.2,2.1-0.6c0.6-0.4,1-1,1.4-1.7c0.3-0.7,0.5-1.4,0.5-2.2c0-0.8-0.2-1.5-0.6-2.2
			c-0.4-0.7-0.9-1.2-1.5-1.7c-0.6-0.4-1.3-0.6-2.1-0.6H318V262.3z"/>
		<path class="st0" d="M348.9,255.1c-0.3-0.3-0.6-0.6-1-0.9s-0.8-0.5-1.2-0.6c-0.4-0.2-0.9-0.3-1.3-0.4c-0.5-0.1-1-0.1-1.6-0.1
			c-1.8,0-3.1,0.3-3.9,1c-0.8,0.7-1.2,1.6-1.2,2.7c0,0.8,0.2,1.4,0.6,1.8c0.4,0.5,1,0.8,1.7,1.1c0.8,0.3,1.8,0.5,3.1,0.8
			c1.3,0.3,2.5,0.6,3.4,1s1.7,0.9,2.2,1.5c0.5,0.6,0.8,1.5,0.8,2.6c0,0.8-0.2,1.5-0.5,2.1c-0.3,0.6-0.8,1.1-1.3,1.5
			c-0.6,0.4-1.3,0.7-2.1,0.9c-0.8,0.2-1.7,0.3-2.7,0.3c-0.9,0-1.9-0.1-2.7-0.3c-0.9-0.2-1.7-0.5-2.4-0.9s-1.5-0.9-2.1-1.5l0.7-1.1
			c0.4,0.4,0.8,0.8,1.3,1.1c0.5,0.3,1,0.6,1.6,0.8s1.2,0.4,1.8,0.5c0.6,0.1,1.3,0.2,2,0.2c1.6,0,2.9-0.3,3.8-0.9
			c0.9-0.6,1.4-1.5,1.4-2.6c0-0.8-0.2-1.5-0.6-2c-0.4-0.5-1.1-0.9-1.9-1.2c-0.9-0.3-1.9-0.6-3.2-0.9c-1.3-0.3-2.4-0.6-3.3-0.9
			c-0.9-0.3-1.6-0.8-2-1.4c-0.5-0.6-0.7-1.4-0.7-2.4c0-1.1,0.3-2,0.8-2.8c0.5-0.8,1.3-1.3,2.3-1.7c1-0.4,2.1-0.6,3.4-0.6
			c0.8,0,1.5,0.1,2.2,0.2c0.7,0.2,1.3,0.4,1.9,0.7c0.6,0.3,1.1,0.7,1.6,1.2L348.9,255.1z"/>
	</g>
</g>
</svg>
