<svg xmlns="http://www.w3.org/2000/svg" viewBox="0 0 175.16 192.61"><defs><style>.cls-1{fill:#221e20;}</style></defs><g id="Capa_2" data-name="Capa 2"><g id="Capa_1-2" data-name="Capa 1"><path class="cls-1" d="M84,135a.47.47,0,0,1-.32.12H83v1H86.5l.14.95v-.95h1.94v-1h-.75a1.33,1.33,0,0,1-.78-.24,1,1,0,0,1-.42-.7l-1.87-13.05h-.83l-5.65,11.28-5.81-11.17,0-.11h-.83l-1.83,13a1,1,0,0,1-.39.7,1.23,1.23,0,0,1-.81.26H67.49a1.33,1.33,0,0,1-.73-.25,1.94,1.94,0,0,1-.67-.87l-5.81-12.85h-.84l0,.19a2.76,2.76,0,0,1-.15.67,7.81,7.81,0,0,1-.29.81c-.12.3-.26.61-.42.94l-4.8,10.24a2.06,2.06,0,0,1-.71.87,1.36,1.36,0,0,1-.74.25h-.59v1h5.21v-1h-.58a.45.45,0,0,1-.34-.14.47.47,0,0,1-.15-.39,1,1,0,0,1,.08-.37l1.16-2.75h5.31l1.15,2.8a.88.88,0,0,1,.07.32.46.46,0,0,1-.16.39.56.56,0,0,1-.35.14h-.59v1H72.9v-1h-.75a.44.44,0,0,1-.32-.13.38.38,0,0,1-.14-.25l.28-.31h-.26l.88-7.74,5.09,9.8h.8l0-.17a5.31,5.31,0,0,1,.2-.81l.28-.77.25-.59a1.81,1.81,0,0,0,.11-.27l3.75-7.41c.16,1.32.32,2.58.48,3.79.18,1.42.37,2.9.58,4.4v.1A.34.34,0,0,1,84,135Zm-22.25-5.09H57.73L59.79,125Z"/><path class="cls-1" d="M95,122.45h.71v-1h-6v1h.71a1.26,1.26,0,0,1,.81.27.89.89,0,0,1,.36.57v10.89a.9.9,0,0,1-.36.6,1.31,1.31,0,0,1-.81.26h-.71v1h6v-1H95a1.31,1.31,0,0,1-.81-.26.77.77,0,0,1-.34-.58V123.29a.9.9,0,0,1,.36-.57A1.24,1.24,0,0,1,95,122.45Z"/><path class="cls-1" d="M115.68,122.45h.71v-1h-6v1h.71a1.26,1.26,0,0,1,.81.27.85.85,0,0,1,.36.57v10.89a.86.86,0,0,1-.36.6,1.31,1.31,0,0,1-.81.26h-.71v1h6v-1h-.71a1.31,1.31,0,0,1-.81-.26.83.83,0,0,1-.34-.58V123.29a.9.9,0,0,1,.36-.57A1.24,1.24,0,0,1,115.68,122.45Z"/><path class="cls-1" d="M98.1,135.09h-.73v1h10.07l1.54-4-1.1-.15-.06.15a7.8,7.8,0,0,1-.52,1,3.27,3.27,0,0,1-.67.76,3.1,3.1,0,0,1-.91.51,4.23,4.23,0,0,1-1.25.22h-3.2V123.33a.87.87,0,0,1,.3-.6,1,1,0,0,1,.69-.25h.68v-1.06h-5.6v1.06H98a1,1,0,0,1,.68.25.83.83,0,0,1,.3.59v10.89a.91.91,0,0,1-.27.63A.86.86,0,0,1,98.1,135.09Z"/><path class="cls-1" d="M52.63,124.55V121l-.28.11c-.12,0-.29.09-.51.14a6.57,6.57,0,0,1-.72.14l-.79.11a6.4,6.4,0,0,1-.73,0l-3.66-.1H42.38v1h.73a1,1,0,0,1,.67.25.86.86,0,0,1,.29.59v10.94a.87.87,0,0,1-.29.62,1,1,0,0,1-.67.26h-.73v1H48v-1h-.73a1,1,0,0,1-.67-.26.9.9,0,0,1-.29-.61v-4.68H50a.61.61,0,0,1,.4.19.59.59,0,0,1,.13.39v.71h1.06v-4H50.48v.71a.59.59,0,0,1-.14.4.58.58,0,0,1-.41.17h-3.6V123H50.8a.75.75,0,0,1,.75.79v.76Z"/><path class="cls-1" d="M128.44,135h-.58v1h5.54v-1h-.59a1.36,1.36,0,0,1-.73-.25,2.11,2.11,0,0,1-.67-.86l-5.8-12.86h-.85l0,.19a3.21,3.21,0,0,1-.14.67c-.08.27-.18.54-.29.81s-.27.61-.43.94l-4.79,10.24a2.22,2.22,0,0,1-.71.87,1.42,1.42,0,0,1-.75.25H117v1h5.22v-1h-.59a.48.48,0,0,1-.34-.14.47.47,0,0,1-.14-.39.8.8,0,0,1,.08-.37l1.15-2.75h5.31l1.16,2.81a1,1,0,0,1,.06.31.48.48,0,0,1-.15.39A.58.58,0,0,1,128.44,135Zm-1.33-5.16h-4.06l2.06-4.86Z"/><path class="cls-1" d="M174.7,161.23a6.47,6.47,0,0,0-1.82-2.71l-8.07-7.64a4,4,0,0,1-1.24-1.75,5.32,5.32,0,0,1-.31-1.68,4.08,4.08,0,0,1,.32-1.6,4.12,4.12,0,0,1,.94-1.34,4.48,4.48,0,0,1,1.45-.94,4.82,4.82,0,0,1,1.86-.35,4.29,4.29,0,0,1,2.94,1.08,3.79,3.79,0,0,1,1.21,3v.21h1.52v-6.22h-2.16a16.73,16.73,0,0,0-1.84-.33,10.08,10.08,0,0,0-5.23.55,7.5,7.5,0,0,0-2.46,1.74,7.75,7.75,0,0,0-1.51,2.43,7.59,7.59,0,0,0-.52,2.76,8.12,8.12,0,0,0,.56,2.82,7.64,7.64,0,0,0,1.89,2.79l8,7.43a4.32,4.32,0,0,1,1.47,3.43,4.89,4.89,0,0,1-.41,2,5,5,0,0,1-1.09,1.56,4.76,4.76,0,0,1-1.61,1,6.1,6.1,0,0,1-2,.42h-.34a5,5,0,0,1-3.67-1.46,5.4,5.4,0,0,1-1.45-4,3.94,3.94,0,0,1,0-.47c0-.19,0-.42.06-.7l0-.23h-1.4l0,.15a15.5,15.5,0,0,0-.54,2.37,15,15,0,0,0-.2,2.29,9.36,9.36,0,0,0,0,.94,5.36,5.36,0,0,0,.13.86v.05l0,0a5.94,5.94,0,0,0,1.63,1.2,12.81,12.81,0,0,0,4.06,1.21,13.93,13.93,0,0,0,1.84.13,9.31,9.31,0,0,0,3.46-.61A7.4,7.4,0,0,0,172.9,170a7.53,7.53,0,0,0,1.67-2.65,9.53,9.53,0,0,0,.59-3.38A8.83,8.83,0,0,0,174.7,161.23Z"/><path class="cls-1" d="M93.64,169.64a12.22,12.22,0,0,1-2.25-2c-.36-.38-.82-.93-1.36-1.62s-1-1.38-1.56-2.07-1.2-1.66-1.8-2.54c-.29-.37-.61-.76-1-1.18a7.38,7.38,0,0,0-.77-.8,6.26,6.26,0,0,0,2-.85,7.39,7.39,0,0,0,1.91-1.79,8.63,8.63,0,0,0,1.26-2.36,7.89,7.89,0,0,0,.46-2.67,7.48,7.48,0,0,0-2.13-5.65,8.12,8.12,0,0,0-5.85-2.06L71.94,144h-.21v1.43h1a1.72,1.72,0,0,1,1.34.56,2.21,2.21,0,0,1,.61,1.34v21.16a2.16,2.16,0,0,1-.61,1.34,1.74,1.74,0,0,1-1.34.54h-1v1.43h9.4v-1.43h-1a1.76,1.76,0,0,1-1.34-.54,2.15,2.15,0,0,1-.6-1.32v-9.8a4.48,4.48,0,0,1,1.71.2,2.86,2.86,0,0,1,.77.53,5.12,5.12,0,0,1,.68.77c.22.3.63.87,1.23,1.72s1.19,1.66,1.76,2.44l.92,1.31c.3.42.57.82.82,1.19s.46.67.64.92.3.4.36.5c.32.39.68.79,1.09,1.21a8.47,8.47,0,0,0,1.49,1.14,8.79,8.79,0,0,0,2,.86,8.35,8.35,0,0,0,2.5.34h2.63v-1.43h-.21A5.15,5.15,0,0,1,93.64,169.64Zm-15.48-23.4.74,0c.59,0,1.37,0,2.19,0l1.3.05a4,4,0,0,1,3,1.49,6.24,6.24,0,0,1,1.19,3.78v.35a7,7,0,0,1-.19,1.77,5,5,0,0,1-1,1.86,4.71,4.71,0,0,1-1.4,1.07,5.88,5.88,0,0,1-1.57.51,9,9,0,0,1-1.51.13,7.32,7.32,0,0,1-.76,0h-2Z"/><path class="cls-1" d="M122.29,159.68a16,16,0,0,1-1.29,4.9,9.7,9.7,0,0,1-2.31,3.2,8.52,8.52,0,0,1-3.11,1.73,12.37,12.37,0,0,1-3.66.54,10.79,10.79,0,0,1-4.14-1,9.71,9.71,0,0,1-3.24-2.48,11.79,11.79,0,0,1-2.13-3.82,15.35,15.35,0,0,1-.77-5,16.29,16.29,0,0,1,.73-5,11.17,11.17,0,0,1,2.09-3.84,9.28,9.28,0,0,1,3.29-2.45,10.65,10.65,0,0,1,4.35-.86,10,10,0,0,1,5.75,1.68,8.37,8.37,0,0,1,3.28,5l0,.16h1.34l-.87-6.23-.08-.05a18.18,18.18,0,0,0-4.18-2,17,17,0,0,0-5.31-.79,16.43,16.43,0,0,0-5.93,1,12.68,12.68,0,0,0-4.53,2.94,13.42,13.42,0,0,0-2.9,4.56,17.26,17.26,0,0,0,0,11.8,13.52,13.52,0,0,0,2.94,4.56,13,13,0,0,0,4.51,2.94,15.53,15.53,0,0,0,5.7,1,14.29,14.29,0,0,0,3.76-.46,12.65,12.65,0,0,0,3.1-1.25,11.31,11.31,0,0,0,2.47-1.89,12.74,12.74,0,0,0,1.86-2.4l.56-6.76h-1.31Z"/><path class="cls-1" d="M35.9,169.61a2.51,2.51,0,0,1-.91-1.56l-3.21-27.13,0-.18H30.54L19.46,165.19,8.17,140.74H7L3.77,168a2.53,2.53,0,0,1-.91,1.57,2.56,2.56,0,0,1-1.63.58H0v1.52H9.23v-1.48H8a1,1,0,0,1-.75-.34,1.1,1.1,0,0,1-.33-.78V169L8.6,150.68l10,21.51.06.12h1.21l0-.18a9.55,9.55,0,0,1,.31-1.48c.16-.52.32-1,.49-1.48a13.33,13.33,0,0,1,.6-1.47l7.93-17.6L30.86,169v.09a1.12,1.12,0,0,1-.33.78,1,1,0,0,1-.75.34H28.55v1.48H38.76v-1.52H37.53A2.54,2.54,0,0,1,35.9,169.61Z"/><path class="cls-1" d="M68.47,163.73a17.1,17.1,0,0,0,0-11.8,13.49,13.49,0,0,0-2.93-4.56A13.05,13.05,0,0,0,61,144.43a16.73,16.73,0,0,0-11.56,0A13,13,0,0,0,45,147.37,13.34,13.34,0,0,0,42,151.93a17.1,17.1,0,0,0,0,11.8A13.34,13.34,0,0,0,45,168.29a13,13,0,0,0,4.51,2.94,16.73,16.73,0,0,0,11.56,0,13.05,13.05,0,0,0,4.51-2.94A13.49,13.49,0,0,0,68.47,163.73Zm-2.92-5.9a15.86,15.86,0,0,1-.75,5,11.44,11.44,0,0,1-2.09,3.84,9.21,9.21,0,0,1-3.23,2.47,10,10,0,0,1-4.23.88,9.88,9.88,0,0,1-4.19-.88,9.37,9.37,0,0,1-3.25-2.47,11.07,11.07,0,0,1-2.1-3.83,17.76,17.76,0,0,1,0-10.08A11.22,11.22,0,0,1,47.8,149a9.5,9.5,0,0,1,3.26-2.47,9.88,9.88,0,0,1,4.19-.88,10,10,0,0,1,4.23.88A9.21,9.21,0,0,1,62.71,149a11.44,11.44,0,0,1,2.09,3.84A15.86,15.86,0,0,1,65.55,157.83Z"/><path class="cls-1" d="M151.46,147.37a12.92,12.92,0,0,0-4.5-2.94,16.73,16.73,0,0,0-11.56,0,13,13,0,0,0-4.51,2.94,13.52,13.52,0,0,0-2.94,4.56,17.1,17.1,0,0,0,0,11.8,13.52,13.52,0,0,0,2.94,4.56,13,13,0,0,0,4.51,2.94,16.73,16.73,0,0,0,11.56,0,12.92,12.92,0,0,0,4.5-2.94,13.52,13.52,0,0,0,2.94-4.56,17.1,17.1,0,0,0,0-11.8A13.52,13.52,0,0,0,151.46,147.37Zm0,10.46a15.82,15.82,0,0,1-.75,5,11.51,11.51,0,0,1-2.09,3.84,9.3,9.3,0,0,1-3.23,2.47,10.53,10.53,0,0,1-8.43,0,9.46,9.46,0,0,1-3.25-2.47,11,11,0,0,1-2.09-3.83,17.76,17.76,0,0,1,0-10.08,11.14,11.14,0,0,1,2.09-3.83,9.46,9.46,0,0,1,3.25-2.47,10.53,10.53,0,0,1,8.43,0,9.3,9.3,0,0,1,3.23,2.47,11.51,11.51,0,0,1,2.09,3.84A15.82,15.82,0,0,1,151.48,157.83Z"/><path class="cls-1" d="M35.09,51.61c.75.4.82.54.54,1.06-.4.74-.57,1.24.4,1.76,1.41.76,3.66.45,4.44-.6a1.44,1.44,0,0,1,.31-.3,1.22,1.22,0,0,1,0,.35c0,.66.56,1.06,1,1.31a1.8,1.8,0,0,0,.82.16,3,3,0,0,0,2.68-1.51,4.68,4.68,0,0,0,.47-1.44,3,3,0,0,1,.29-1,1.89,1.89,0,0,1,1-1l.15,0a.2.2,0,0,1,0,.08c-.38.71.26,1.86,1.39,2.47a2.27,2.27,0,0,0,3.18-.75c.42-.78.52-1.46.26-1.78a.48.48,0,0,0-.52-.15A.63.63,0,0,1,50.9,50,2.48,2.48,0,0,1,51,47.5c.48-.9,2.47-1.84,3.64-1.2a2.38,2.38,0,0,1,1,1.8c.11.5.21.94.53,1.11.5.27,1-.17,1.58-.69,1.05-.93,2.48-2.21,5-.86a1.76,1.76,0,0,1,1,1.43,3,3,0,0,1-.38,1.71h0a4.63,4.63,0,0,1-.48.64c-.41.46-.87,1-.76,1.6s.51.92,1.3,1.34a2.35,2.35,0,0,0,1.84.16,2.59,2.59,0,0,0,1.5-1.26,4.12,4.12,0,0,0,0-3.79,6.82,6.82,0,0,0-3-3c-3.14-1.69-4.88-.67-5.92-.06-.37.22-.66.38-.83.34a2.78,2.78,0,0,1-1.1-1,1.84,1.84,0,0,0-.46-.51c-2.06-1.81-4.8-1.08-8.39,2.24-.18.15-.36.32-.55.49-2.27,2.06-5.09,4.62-7.89,3.12-1.16-.62-1.58-1.25-1.26-1.85a1.69,1.69,0,0,0-.6-2.5,2.63,2.63,0,0,0-1.81-.24,2.34,2.34,0,0,0-1.56,1.18,2.42,2.42,0,0,0,.1,2.18A4.06,4.06,0,0,0,35.09,51.61Z"/><path class="cls-1" d="M48.93,35.58c2.15-.51,3.59,1.74,4.76,3.54l.28.44c1.85,2.92,3.66,3.95,5.36,3.11a1.33,1.33,0,0,0,.46-.29,1.89,1.89,0,0,1,.9-.46h0c.11,0,.28.18.46.36a3.5,3.5,0,0,0,2.74,1.24,5.61,5.61,0,0,0,1.37-.18,4.89,4.89,0,0,0,2.65-1.55,3,3,0,0,0,.69-2.64A1.87,1.87,0,0,0,67.78,38a1.74,1.74,0,0,0-1.33-.24c-.63.15-1,.38-1.17.71a1.5,1.5,0,0,0,.22,1.29,3.26,3.26,0,0,1,.21.51h0a2,2,0,0,1-.16,1.43,1.2,1.2,0,0,1-.79.54,2.64,2.64,0,0,1-3.17-1.48c-.31-.47-.58-.89-1-.78-.28.06-.43.35-.6.69s-.47.89-1,1a2.25,2.25,0,0,1-2.2-1.45,1.7,1.7,0,0,1,.38-1.65.41.41,0,0,1,.44-.08.41.41,0,0,0,.46,0c.26-.19.32-.7.17-1.33A1.66,1.66,0,0,0,56.14,36c-.87.21-1.53.86-1.46,1.45a1.24,1.24,0,0,1-.49-.83,2.06,2.06,0,0,1,0-.7,3.25,3.25,0,0,0-.06-1.09,2.07,2.07,0,0,0-1-1.32,1.81,1.81,0,0,0-1.22-.29c-.37.09-.88.27-1,.74a1.16,1.16,0,0,1-.06.15L50.77,34a2.81,2.81,0,0,0-3-1.26c-.81.19-.78.62-.64,1.2.08.35.06.41-.52.55a2.88,2.88,0,0,0-1.47.92,1.76,1.76,0,0,0-.48,1.53A1.73,1.73,0,0,0,45.43,38a2,2,0,0,0,1.44.23,1.25,1.25,0,0,0,.91-1.67C47.68,36.11,48.07,35.78,48.93,35.58Z"/><path class="cls-1" d="M54.82,21.13a1.63,1.63,0,0,1,.44,0,1,1,0,0,1-.21.28,1.54,1.54,0,0,0-.21,1.65,3,3,0,0,0,3.43,1.53,5,5,0,0,0,1.35-.69,3,3,0,0,1,.9-.49,1.94,1.94,0,0,1,1.43,0l.13.09s0,0-.07,0a1.33,1.33,0,0,0-.81,1,3.19,3.19,0,0,0,0,1.73A2.28,2.28,0,0,0,64,28c.85-.26,1.4-.67,1.45-1.07a.49.49,0,0,0-.27-.48.63.63,0,0,1-.28-.68,2.51,2.51,0,0,1,1.81-1.71c1-.29,3,.45,3.43,1.73a2.44,2.44,0,0,1-.56,2c-.28.43-.52.81-.41,1.16.16.54.83.58,1.6.63,1.4.08,3.32.19,4.13,2.9a1.8,1.8,0,0,1-.12,1.41,2.76,2.76,0,0,1-1.68,1.24h0a4.24,4.24,0,0,1-.79.1,2.08,2.08,0,0,0-1.67.6,2.17,2.17,0,0,0,0,1.87A2.44,2.44,0,0,0,73,39.41a2.61,2.61,0,0,0,.77-.11,4.12,4.12,0,0,0,2.69-2.67,6.94,6.94,0,0,0,0-4.28c-1-3.41-3-3.92-4.15-4.22-.41-.11-.74-.19-.82-.35a2.78,2.78,0,0,1-.08-1.48,1.63,1.63,0,0,0,0-.68c-.17-2.73-2.63-4.16-7.51-4.35l-.74,0c-3.06-.15-6.87-.34-7.78-3.38-.38-1.26-.24-2,.41-2.19a1.69,1.69,0,0,0,1.34-2.19A2.59,2.59,0,0,0,56.09,12a2.36,2.36,0,0,0-1.94-.27,2.45,2.45,0,0,0-1.47,1.62,4,4,0,0,0-.08,2.4c.24.82.19,1-.37,1.13-.81.25-1.28.47-1,1.53C51.73,20,53.53,21.32,54.82,21.13Z"/><path class="cls-1" d="M70.4,14.61a1.26,1.26,0,0,0,1.83-.53c.23-.38.73-.33,1.49.13,1.87,1.16,1.31,3.77.86,5.87l-.11.52c-.76,3.36-.21,5.38,1.59,6a1.37,1.37,0,0,0,.53.13,1.84,1.84,0,0,1,1,.3,1.19,1.19,0,0,1,.07.58c0,.87,0,2.32,2.16,3.66A5,5,0,0,0,82.4,32l.34,0a2.94,2.94,0,0,0,2.36-1.37,1.86,1.86,0,0,0,.25-1.41,1.72,1.72,0,0,0-.77-1.11,1.63,1.63,0,0,0-1.34-.33c-.44.16-.6.65-.75,1.07a2.81,2.81,0,0,1-.21.51h0a2.11,2.11,0,0,1-.89.82,1.2,1.2,0,0,1-1.17-.1A2.64,2.64,0,0,1,79,26.81c.11-.56.21-1-.16-1.27s-.56-.05-.92.06a1.72,1.72,0,0,1-1.42,0A2.24,2.24,0,0,1,76,23.05a1.76,1.76,0,0,1,1.44-.9.39.39,0,0,1,.36.26.43.43,0,0,0,.33.33c.31.05.72-.26,1.06-.82a1.87,1.87,0,0,0-2.74-2.3,1.26,1.26,0,0,1,.24-.93,2,2,0,0,1,.48-.52,3,3,0,0,0,.73-.81,2.13,2.13,0,0,0-.43-2.7c-.33-.2-.81-.44-1.21-.17l-.15.07.06-.18a2.83,2.83,0,0,0-1.22-3c-.71-.44-1-.11-1.31.39-.19.31-.25.34-.75,0a2.94,2.94,0,0,0-1.69-.39,1.79,1.79,0,0,0-1.43.74,1.69,1.69,0,0,0-.17,1.42A1.89,1.89,0,0,0,70.4,14.61Z"/><path class="cls-1" d="M88.09,13.05a4.68,4.68,0,0,0,1.44.47,3.08,3.08,0,0,1,1,.29,1.91,1.91,0,0,1,1,1c0,.11,0,.18,0,.16l-.07,0c-.72-.38-1.87.27-2.47,1.39a2.27,2.27,0,0,0,.75,3.18c.78.42,1.46.52,1.77.26a.47.47,0,0,0,.15-.52.64.64,0,0,1,.28-.69,2.51,2.51,0,0,1,2.49.08c.91.48,1.84,2.47,1.21,3.64a2.42,2.42,0,0,1-1.81,1c-.5.11-.93.21-1.11.53-.27.5.18,1,.69,1.58.93,1.05,2.21,2.48.87,5a1.78,1.78,0,0,1-1.44,1A3,3,0,0,1,91.13,31h0a4.05,4.05,0,0,1-.63-.48c-.47-.41-1-.88-1.61-.76s-.92.51-1.34,1.3a2.35,2.35,0,0,0-.16,1.84,2.59,2.59,0,0,0,1.26,1.5,3.9,3.9,0,0,0,1.85.46,4.58,4.58,0,0,0,1.94-.45,6.82,6.82,0,0,0,3-3c1.7-3.14.67-4.88.06-5.92-.22-.37-.39-.66-.34-.83a2.73,2.73,0,0,1,1-1.1,1.92,1.92,0,0,0,.5-.46c1.81-2.06,1.08-4.8-2.23-8.39l-.5-.56c-2.06-2.26-4.62-5.09-3.11-7.88C91.48,5.12,92.1,4.69,92.7,5a1.69,1.69,0,0,0,2.5-.6,2.69,2.69,0,0,0,.25-1.81,2.32,2.32,0,0,0-1.19-1.56,2.42,2.42,0,0,0-2.18.1,4,4,0,0,0-1.75,1.64c-.41.75-.55.82-1.06.54-.75-.4-1.24-.57-1.77.4-.76,1.41-.45,3.66.6,4.44a1.35,1.35,0,0,1,.31.31,1.22,1.22,0,0,1-.35,0c-.67-.07-1.07.56-1.32,1a2.54,2.54,0,0,0,0,1.7A2.89,2.89,0,0,0,88.09,13.05Z"/><path class="cls-1" d="M103.89,13.25a1.89,1.89,0,0,0-.16,1.32,1.25,1.25,0,0,0,1.67.91c.43-.1.75.29.95,1.15.51,2.15-1.74,3.59-3.54,4.76l-.44.29c-2.91,1.84-4,3.65-3.1,5.35a1.16,1.16,0,0,0,.28.46,1.89,1.89,0,0,1,.46.9c0,.1-.17.28-.36.46C99,29.46,98,30.47,98.59,33a4.89,4.89,0,0,0,1.55,2.65,3.11,3.11,0,0,0,2,.77,2.82,2.82,0,0,0,.65-.08,1.81,1.81,0,0,0,1.41-2.15c-.15-.63-.38-1-.71-1.17a1.51,1.51,0,0,0-1.29.22,2.91,2.91,0,0,1-.51.21h0a1.92,1.92,0,0,1-1.42-.16,1.17,1.17,0,0,1-.54-.79,2.64,2.64,0,0,1,1.47-3.17c.48-.31.89-.59.79-1s-.36-.43-.7-.6-.89-.47-1-1a2.22,2.22,0,0,1,1.44-2.19,1.74,1.74,0,0,1,1.66.38.41.41,0,0,1,.07.44.39.39,0,0,0,0,.46c.18.26.69.32,1.32.17a1.66,1.66,0,0,0,1.14-2.11c-.2-.86-.86-1.52-1.45-1.45a1.3,1.3,0,0,1,.83-.49,2.12,2.12,0,0,1,.71,0,3.25,3.25,0,0,0,1.09-.06,2.14,2.14,0,0,0,1.6-2.22c-.09-.37-.26-.88-.74-1l-.14-.05.16-.09a2.81,2.81,0,0,0,1.27-3c-.2-.81-.62-.78-1.21-.64-.35.08-.41.06-.55-.52a2.82,2.82,0,0,0-.92-1.47,1.73,1.73,0,0,0-1.52-.48A1.7,1.7,0,0,0,103.89,13.25Z"/><path class="cls-1" d="M140.78,59.78A4.06,4.06,0,0,0,139.14,58c-.75-.4-.82-.54-.54-1.05.4-.75.58-1.24-.4-1.77-1.41-.76-3.65-.45-4.43.6a1.88,1.88,0,0,1-.32.31,2.19,2.19,0,0,1,0-.35c0-.66-.57-1.07-1-1.32a3,3,0,0,0-3.5,1.35,4.38,4.38,0,0,0-.46,1.44,3.09,3.09,0,0,1-.3,1,1.91,1.91,0,0,1-1,1l-.16,0a.11.11,0,0,1,0-.07c.38-.71-.27-1.87-1.39-2.47a2.26,2.26,0,0,0-3.18.75c-.43.78-.53,1.46-.27,1.77a.48.48,0,0,0,.53.15.65.65,0,0,1,.68.28,2.53,2.53,0,0,1-.07,2.49c-.49.9-2.47,1.84-3.65,1.21a2.45,2.45,0,0,1-1-1.81c-.11-.5-.21-.93-.53-1.11-.5-.27-1,.18-1.58.69-1,.93-2.48,2.21-5,.87a1.78,1.78,0,0,1-1-1.44,3,3,0,0,1,.38-1.71h0a3.61,3.61,0,0,1,.49-.63c.4-.47.86-1,.75-1.61s-.51-.92-1.3-1.34a2.33,2.33,0,0,0-1.83-.16,2.56,2.56,0,0,0-1.5,1.26,4.12,4.12,0,0,0,0,3.79,6.84,6.84,0,0,0,3,3c3.14,1.7,4.88.67,5.92.06.36-.22.66-.39.82-.34a2.67,2.67,0,0,1,1.1,1,1.77,1.77,0,0,0,.47.5,3.62,3.62,0,0,0,2.45,1c1.66,0,3.62-1.07,5.93-3.2l.56-.5c2.27-2.06,5.09-4.62,7.89-3.11,1.15.62,1.58,1.24,1.26,1.84a1.7,1.7,0,0,0,.59,2.5,2.7,2.7,0,0,0,1.81.25A2.3,2.3,0,0,0,140.88,62,2.42,2.42,0,0,0,140.78,59.78Z"/><path class="cls-1" d="M125.3,74.05c-2.14.51-3.59-1.74-4.76-3.54l-.28-.44c-1.84-2.91-3.66-3.95-5.36-3.1a1.31,1.31,0,0,0-.46.28,1.9,1.9,0,0,1-.89.46c-.1,0-.28-.17-.47-.36-.6-.62-1.62-1.65-4.11-1.06a4.82,4.82,0,0,0-2.64,1.55,3,3,0,0,0-.7,2.64,1.87,1.87,0,0,0,.85,1.19,1.67,1.67,0,0,0,1.3.22,1.61,1.61,0,0,0,1.18-.71,1.51,1.51,0,0,0-.23-1.29,2.91,2.91,0,0,1-.21-.51h0a2,2,0,0,1,.16-1.42,1.24,1.24,0,0,1,.79-.55,2.65,2.65,0,0,1,3.17,1.48c.32.48.59.89,1,.79s.43-.36.61-.7.46-.89,1-1a2.22,2.22,0,0,1,2.19,1.44,1.7,1.7,0,0,1-.38,1.66.41.41,0,0,1-.44.07.39.39,0,0,0-.46,0c-.26.18-.32.69-.17,1.32a1.67,1.67,0,0,0,2.11,1.14c.87-.2,1.52-.85,1.46-1.45A1.3,1.3,0,0,1,120,73a2.12,2.12,0,0,1,0,.71,3.21,3.21,0,0,0,.05,1.09,2.13,2.13,0,0,0,1,1.32,1.81,1.81,0,0,0,1.21.28c.38-.09.89-.26,1-.74l.05-.14.09.16A2.72,2.72,0,0,0,125.9,77a2.44,2.44,0,0,0,.55-.06c.82-.19.78-.62.64-1.21-.08-.35,0-.41.52-.55a2.82,2.82,0,0,0,1.47-.92,1.75,1.75,0,0,0,.49-1.52,1.72,1.72,0,0,0-.88-1.14,1.9,1.9,0,0,0-1.32-.16,1.25,1.25,0,0,0-.92,1.67C126.55,73.53,126.17,73.85,125.3,74.05Z"/><path class="cls-1" d="M118.38,94A1.69,1.69,0,0,0,117,96.17,2.54,2.54,0,0,0,119.4,98a2.33,2.33,0,0,0,.68-.1,2.43,2.43,0,0,0,1.47-1.62,4,4,0,0,0,.09-2.4c-.25-.81-.2-1,.36-1.13.81-.24,1.28-.47,1-1.53-.47-1.53-2.28-2.9-3.56-2.71a1.29,1.29,0,0,1-.44,0,1.66,1.66,0,0,1,.21-.28,1.53,1.53,0,0,0,.21-1.65,2.53,2.53,0,0,0-1.22-1.26A2.92,2.92,0,0,0,116,85a4.27,4.27,0,0,0-1.34.69,3.05,3.05,0,0,1-.91.48,1.85,1.85,0,0,1-1.43,0c-.09,0-.11-.09-.13-.09l.08,0c.77-.23,1.13-1.5.76-2.73a2.28,2.28,0,0,0-2.78-1.72c-.85.26-1.4.67-1.44,1.08a.47.47,0,0,0,.27.47.64.64,0,0,1,.28.68,2.52,2.52,0,0,1-1.82,1.71c-1,.3-3-.45-3.42-1.72a2.38,2.38,0,0,1,.56-2c.27-.44.51-.81.41-1.16-.17-.55-.83-.59-1.61-.63-1.4-.09-3.31-.2-4.13-2.91a1.8,1.8,0,0,1,.12-1.41,2.82,2.82,0,0,1,1.68-1.24h0a3.58,3.58,0,0,1,.79-.11,2.06,2.06,0,0,0,1.67-.6,2.17,2.17,0,0,0,0-1.87,2.41,2.41,0,0,0-1.18-1.41,2.61,2.61,0,0,0-2-.17A4.16,4.16,0,0,0,97.77,73a6.87,6.87,0,0,0,0,4.28c1,3.42,3,3.92,4.14,4.22.42.11.74.19.82.35a2.68,2.68,0,0,1,.08,1.48,1.82,1.82,0,0,0,0,.68c.17,2.74,2.63,4.16,7.51,4.36l.74,0c3.06.15,6.87.33,7.79,3.37C119.17,93,119,93.78,118.38,94Z"/><path class="cls-1" d="M98,95.14l.14-.07a1.3,1.3,0,0,1-.06.19,2.82,2.82,0,0,0,1.23,3,1.15,1.15,0,0,0,.57.2c.32,0,.52-.26.73-.6s.25-.34.76,0a2.87,2.87,0,0,0,1.69.4,1.78,1.78,0,0,0,1.42-.74,1.72,1.72,0,0,0,.18-1.43,2,2,0,0,0-.82-1,1.24,1.24,0,0,0-1.82.54c-.24.37-.74.33-1.5-.14-1.87-1.16-1.31-3.77-.85-5.87l.11-.51c.76-3.36.2-5.38-1.6-6a1.2,1.2,0,0,0-.52-.13,1.82,1.82,0,0,1-1-.31c-.08-.07-.08-.32-.08-.58a3.75,3.75,0,0,0-2.15-3.66c-2-1.24-4.35-1-5.33.61a1.82,1.82,0,0,0,.53,2.51,1.61,1.61,0,0,0,1.33.33c.44-.16.61-.64.75-1.07a3.15,3.15,0,0,1,.21-.51h0A1.52,1.52,0,0,1,94,79.53a2.65,2.65,0,0,1,1.2,3.29c-.11.56-.21,1,.17,1.27s.55.06.92-.06a1.66,1.66,0,0,1,1.41,0,2.21,2.21,0,0,1,.53,2.57,1.72,1.72,0,0,1-1.44.9.4.4,0,0,1-.36-.26.4.4,0,0,0-.33-.33c-.31-.06-.71.27-1,.82A1.87,1.87,0,0,0,97.8,90a1.31,1.31,0,0,1-.25.94,2.11,2.11,0,0,1-.48.51,3.12,3.12,0,0,0-.73.81,2.14,2.14,0,0,0,.43,2.7C97.1,95.17,97.59,95.41,98,95.14Z"/><path class="cls-1" d="M78,86.06a2,2,0,0,0-.51.46c-1.81,2.06-1.08,4.8,2.23,8.39.17.18.33.37.5.56,2.06,2.27,4.62,5.09,3.12,7.88-.62,1.16-1.25,1.59-1.85,1.26a1.67,1.67,0,0,0-2.49.6,2.59,2.59,0,0,0-.25,1.81A2.31,2.31,0,0,0,80,108.58a1.94,1.94,0,0,0,.91.22,2.94,2.94,0,0,0,1.27-.32,4,4,0,0,0,1.76-1.64c.4-.75.54-.82,1.06-.54.74.4,1.24.58,1.76-.4.76-1.41.45-3.65-.6-4.43a1.65,1.65,0,0,1-.3-.32,1.39,1.39,0,0,1,.35,0c.66,0,1.06-.57,1.31-1a2.5,2.5,0,0,0,.05-1.69,2.9,2.9,0,0,0-1.4-1.81,4.31,4.31,0,0,0-1.44-.46,3,3,0,0,1-1-.3,1.91,1.91,0,0,1-1-1c0-.11,0-.16,0-.16a.18.18,0,0,1,.08,0c.71.38,1.86-.27,2.47-1.39a2.29,2.29,0,0,0-.75-3.19c-.78-.42-1.46-.52-1.78-.26a.46.46,0,0,0-.14.53.66.66,0,0,1-.29.68A2.53,2.53,0,0,1,79.8,91c-.9-.49-1.84-2.47-1.2-3.65a2.41,2.41,0,0,1,1.8-1c.5-.11.94-.21,1.11-.53.27-.5-.17-1-.69-1.58-.93-1-2.21-2.48-.87-5a1.78,1.78,0,0,1,1.44-1,3.11,3.11,0,0,1,1.71.38h0a4.06,4.06,0,0,1,.64.49c.46.4,1,.87,1.6.75s.92-.51,1.34-1.3a2.33,2.33,0,0,0,.16-1.83,2.56,2.56,0,0,0-1.26-1.5,4.12,4.12,0,0,0-3.79,0,6.87,6.87,0,0,0-3,3c-1.69,3.15-.67,4.89,0,5.93.21.36.38.65.33.82A2.65,2.65,0,0,1,78,86.06Z"/><path class="cls-1" d="M74.58,80.78c.62-.61,1.65-1.62,1.07-4.11A4.9,4.9,0,0,0,74.09,74a2.94,2.94,0,0,0-2.64-.7,1.91,1.91,0,0,0-1.17.82A1.75,1.75,0,0,0,70,75.48a1.61,1.61,0,0,0,.71,1.18A1.51,1.51,0,0,0,72,76.43a3.26,3.26,0,0,1,.51-.21,2.13,2.13,0,0,1,1.21,0,1.21,1.21,0,0,1,.76.9A2.64,2.64,0,0,1,73,80.34c-.47.32-.89.59-.78,1s.35.43.69.61a1.65,1.65,0,0,1,1,1,1.77,1.77,0,0,1-.38,1.35,2.05,2.05,0,0,1-1.07.84,1.68,1.68,0,0,1-1.65-.38.41.41,0,0,1-.08-.44.41.41,0,0,0,0-.46c-.19-.26-.7-.32-1.33-.17a1.67,1.67,0,0,0-1.14,2.11c.21.87.85,1.51,1.45,1.46a1.24,1.24,0,0,1-.83.48,2.06,2.06,0,0,1-.7,0,3,3,0,0,0-1.09,0,2.08,2.08,0,0,0-1.32,1A1.83,1.83,0,0,0,65.55,90c.09.37.27.88.74,1l.15,0-.17.09a2.81,2.81,0,0,0-1.26,3c.19.82.62.78,1.2.64.36-.08.41-.05.55.52a2.88,2.88,0,0,0,.92,1.47,1.93,1.93,0,0,0,1.23.52,1.53,1.53,0,0,0,.3,0,1.71,1.71,0,0,0,1.13-.88,2,2,0,0,0,.17-1.33,1.25,1.25,0,0,0-1.67-.91c-.43.11-.76-.28-1-1.15-.51-2.14,1.74-3.59,3.54-4.76l.44-.28c2.92-1.84,4-3.66,3.11-5.36a1.71,1.71,0,0,0-.28-.46,1.83,1.83,0,0,1-.47-.89C74.22,81.14,74.39,81,74.58,80.78Z"/><path class="cls-1" d="M68.93,65.47a6.91,6.91,0,0,0-4.27,0c-3.42,1-3.93,3-4.23,4.15-.11.42-.19.74-.35.82a2.68,2.68,0,0,1-1.48.08,1.82,1.82,0,0,0-.68,0c-2.73.17-4.16,2.63-4.35,7.51,0,.24,0,.49,0,.74-.15,3.06-.34,6.87-3.38,7.78-1.26.39-2,.24-2.19-.41a1.69,1.69,0,0,0-2.19-1.34,2.67,2.67,0,0,0-1.46,1.1,2.32,2.32,0,0,0-.26,1.94,2.41,2.41,0,0,0,1.61,1.47,4,4,0,0,0,2.4.09c.81-.25,1-.2,1.13.36s.37,1.07,1,1.07a2.44,2.44,0,0,0,.57-.1c1.54-.47,2.91-2.27,2.71-3.56a1.66,1.66,0,0,1,0-.44,1.32,1.32,0,0,1,.28.21,1.54,1.54,0,0,0,1.65.21,2.58,2.58,0,0,0,1.27-1.22,2.92,2.92,0,0,0,.26-2.21,5,5,0,0,0-.69-1.35,2.91,2.91,0,0,1-.49-.9,1.94,1.94,0,0,1,0-1.43c.06-.09.11-.12.1-.13a.45.45,0,0,1,0,.08,1.38,1.38,0,0,0,1,.81,3.2,3.2,0,0,0,1.73,0,2.28,2.28,0,0,0,1.72-2.78c-.26-.85-.67-1.4-1.07-1.44a.48.48,0,0,0-.48.27.64.64,0,0,1-.68.28,2.52,2.52,0,0,1-1.71-1.82,3,3,0,0,1,.28-2,2.58,2.58,0,0,1,1.45-1.46,2.4,2.4,0,0,1,2,.56c.43.27.81.51,1.16.41.54-.17.58-.83.63-1.61.08-1.4.19-3.31,2.9-4.13a1.77,1.77,0,0,1,1.71.32,3,3,0,0,1,1,1.48h0a4.35,4.35,0,0,1,.1.79,2.06,2.06,0,0,0,.6,1.67,2.17,2.17,0,0,0,1.87,0,2.36,2.36,0,0,0,1.39-1.15,2.59,2.59,0,0,0,.19-2A4.14,4.14,0,0,0,68.93,65.47Z"/><path class="cls-1" d="M43.67,67c-.44.71-.11,1,.4,1.3.24.15.24.24.24.27a1.26,1.26,0,0,1-.22.49,2.87,2.87,0,0,0-.39,1.69,1.78,1.78,0,0,0,.74,1.42,1.71,1.71,0,0,0,.9.26,1.88,1.88,0,0,0,.52-.08,2,2,0,0,0,1-.82,1.25,1.25,0,0,0-.53-1.82c-.38-.24-.33-.74.13-1.5,1.16-1.87,3.78-1.31,5.88-.85l.51.11c3.36.75,5.38.2,6-1.6a1.36,1.36,0,0,0,.13-.52,1.88,1.88,0,0,1,.3-1,1.19,1.19,0,0,1,.58-.07c.87,0,2.32,0,3.66-2.15a4.9,4.9,0,0,0,.77-3A2.94,2.94,0,0,0,63,56.83a1.9,1.9,0,0,0-1.41-.25,1.73,1.73,0,0,0-1.11.78,1.61,1.61,0,0,0-.33,1.33c.16.44.65.61,1.07.75a2.81,2.81,0,0,1,.51.21h0a2.17,2.17,0,0,1,.82.89,1.2,1.2,0,0,1-.1,1.17,2.64,2.64,0,0,1-3.29,1.2c-.56-.11-1-.21-1.27.17s-.05.55.06.92a1.69,1.69,0,0,1,0,1.41,2.22,2.22,0,0,1-2.58.53,1.74,1.74,0,0,1-.9-1.44.41.41,0,0,1,.26-.36.4.4,0,0,0,.33-.33c.05-.31-.26-.71-.82-1.06a1.87,1.87,0,0,0-2.3,2.75,1.34,1.34,0,0,1-.93-.25,2.15,2.15,0,0,1-.52-.48,3.06,3.06,0,0,0-.8-.73A2.14,2.14,0,0,0,48,63.82a1.84,1.84,0,0,0-1.06.65c-.2.33-.44.82-.17,1.22l.07.14-.18-.06A2.82,2.82,0,0,0,43.67,67Z"/><path class="cls-1" d="M77.57,4a3.52,3.52,0,0,1,.24.9,6,6,0,0,0,.3,1.18,2.28,2.28,0,0,0,.42.67,1.65,1.65,0,0,1,.43,1,4.3,4.3,0,0,1,.08.85c0,.67.18.8,1.06.91l.28,0L78.86,1.74l-.09-.05a1.7,1.7,0,0,1-.31-.18,1,1,0,0,0-.83-.2c-.55.07-1.11.64-1.06,1.08a1.76,1.76,0,0,0,.56,1A2.75,2.75,0,0,1,77.57,4Z"/><path class="cls-1" d="M81.28,3.34a1.4,1.4,0,0,0,.24.57,6.24,6.24,0,0,1,.83,2.74c0,.33.05.67.08,1a16.51,16.51,0,0,0,.42,3,34.69,34.69,0,0,1,1.06,6.38c0,.43.1.88.15,1.34v.1l1,.59.11-.13a.86.86,0,0,0,.1-.64.21.21,0,0,0-.07-.11l-1-9.07-.5-5.87L82.77,0l-.21.08a2.06,2.06,0,0,0-1.38,2.29Z"/><path class="cls-1" d="M96,12.65c0,.41.05.54.21.67s.16.14.28.6l.06.2.19,0c.93-.25,1.1-2.38,1.22-4.92,0-.6,0-1.11.09-1.39l.14-.87a35.23,35.23,0,0,0,.62-5.63v-.1L97.9.49l-.12.08C96.1,1.7,96,7,96,11.9Z"/><path class="cls-1" d="M63.56,12.1a.58.58,0,0,0,.59-.62,2.77,2.77,0,0,0-2-2.47l-.23,0v.23C61.92,10.18,62.65,12.1,63.56,12.1Z"/><path class="cls-1" d="M80.19,14.58l.21,0c.62-.12,1-.32,1.15-.63s0-.92-.3-1.55a7.35,7.35,0,0,1-.6-1.77l0-.21-1.12.2Z"/><path class="cls-1" d="M98.53,16.38h.21c1.39,0,1.83-1.52,2.3-3.11a9.53,9.53,0,0,1,1-2.57l0,0v-.06a19.07,19.07,0,0,1,1-4c.92-2.86,1.48-4.78,1-5.45a.61.61,0,0,0-.52-.26h-.24c-.32,0-1.19,0-2.38,7.72a18.39,18.39,0,0,1-1.27,3.77,12.52,12.52,0,0,0-1.17,3.78Z"/><path class="cls-1" d="M68.64,18.58h.23l0-.23c-.13-1.57-2-3.95-3.31-4.31L65.26,14l0,.29C65.45,16.32,66.69,18.54,68.64,18.58Z"/><path class="cls-1" d="M64.45,19.65l.22,0v-.23c0-1.53-1.45-2.54-2.83-2.87l-.44-.1.34.66C62.27,18.14,63,19.53,64.45,19.65Z"/><path class="cls-1" d="M112.89,21.16l.26-.06c1.24-.29,2.2-1.81,3-3.15a13.68,13.68,0,0,1,1-1.47c.24-.29.59-.64,1-1,1.17-1.16,2.63-2.61,2.66-4.05v-.35l-.31.17c-.55.29-7.64,8.21-7.64,8.93Z"/><path class="cls-1" d="M116.89,10.7l.08-.35-.28,0a2,2,0,0,0-1.89,2.13l0,.24.24,0C116.44,12.61,116.63,11.81,116.89,10.7Z"/><path class="cls-1" d="M134.15,31.2a1.76,1.76,0,0,0,1.42-1.67,1.27,1.27,0,0,0-1.17-1.17h-.49a1.14,1.14,0,0,0-1.18,1.17V30A1.3,1.3,0,0,0,134.15,31.2Z"/><path class="cls-1" d="M53.06,27c.42,0,.69-.36.69-.94s-3.38-2.83-3.42-2.85c-1.32-.92-3.7-2.46-4.8-2.46h-.24l0,.24C45.56,22.78,52,27,53.06,27Z"/><path class="cls-1" d="M126.62,34.11l-.07.26h.27c2,0,4.65-2.45,5.51-3.73l.24-.36-.43,0C130.51,30.44,127,32.7,126.62,34.11Z"/><path class="cls-1" d="M113.46,14.5l.08-.33-.34.09a3.78,3.78,0,0,0-2.33,3.29l-1.19,2.09.47-.13C111.71,19.1,113.05,16.28,113.46,14.5Z"/><path class="cls-1" d="M51,30.76h1.49l-.07-.26c-.45-1.67-7.49-5-9.91-5H42.1l.22.32C44.71,29.37,49.53,30.5,51,30.76Z"/><path class="cls-1" d="M125,31.29l-.07.29.29,0c1.38-.11,5.2-2.59,5.52-3.8l.07-.26h-.27C128.79,27.53,125.43,29.84,125,31.29Z"/><path class="cls-1" d="M133.3,39.8c-1.25.27-2.53.55-3,1.6l-.11-.07c-.31-.19-.34-.25,0-.76a2.85,2.85,0,0,0,.4-1.69,1.78,1.78,0,0,0-.74-1.42,1.83,1.83,0,0,0-2.48.64,1.26,1.26,0,0,0,.54,1.83c.37.23.33.73-.14,1.49-1.16,1.87-3.77,1.31-5.87.86l-.51-.11c-3.41-.77-5.37-.24-6,1.59a1.21,1.21,0,0,0-.13.53,1.85,1.85,0,0,1-.31,1,1.16,1.16,0,0,1-.58.07c-.87,0-2.31,0-3.66,2.16a4.94,4.94,0,0,0-.77,3,3,3,0,0,0,1.38,2.36,1.94,1.94,0,0,0,1,.29,1.87,1.87,0,0,0,.4,0,1.72,1.72,0,0,0,1.1-.77,1.6,1.6,0,0,0,.33-1.34c-.16-.44-.64-.6-1.07-.75a3.15,3.15,0,0,1-.51-.21h0a1.51,1.51,0,0,1-.72-2.06,2.65,2.65,0,0,1,3.29-1.2c.56.11,1,.21,1.27-.17s.06-.55-.06-.91a1.68,1.68,0,0,1,0-1.42,1.75,1.75,0,0,1,1.22-.69,2.06,2.06,0,0,1,1.35.16,1.69,1.69,0,0,1,.9,1.44.4.4,0,0,1-.26.37.4.4,0,0,0-.33.32c0,.31.27.72.82,1.06a1.67,1.67,0,0,0,2.3-.69,1.64,1.64,0,0,0,0-2,1.28,1.28,0,0,1,.94.24,2.11,2.11,0,0,1,.51.48,3.12,3.12,0,0,0,.81.73,2.1,2.1,0,0,0,1.6.24,1.89,1.89,0,0,0,1.1-.67c.2-.33.44-.81.17-1.21l-.07-.15.19.06a2.83,2.83,0,0,0,3-1.22,1.54,1.54,0,0,0,.17-.39h.33a19.81,19.81,0,0,0,6.07-1.49,30.52,30.52,0,0,1,3-.94l.16,0v-.16c0-1.13-.22-2.64-2.15-2.64a1.2,1.2,0,0,0-1.29.84c-.25.52-.6,1.23-2.5,1.75C134,39.65,133.65,39.72,133.3,39.8Z"/><path class="cls-1" d="M36.82,43.58a5,5,0,0,0,3.33.83c.8,0,1.66-.06,2.51-.12s1.54-.1,2.21-.1h.3l-.44-1.11L36.16,41.8V42A2.08,2.08,0,0,0,36.82,43.58Z"/><path class="cls-1" d="M137.14,43.78c-.9,0-1.68-.05-2.51-.11s-1.75-.14-2.83-.14A1.74,1.74,0,0,0,130.38,45a.44.44,0,0,0,.16.34,2.9,2.9,0,0,0,1.75.33,30,30,0,0,0,3.16-.23c.83-.1,1.27-.19,1.61-.26a10.38,10.38,0,0,1,2.75-.21h1.7c.67,0,.94-.26.94-.94v-.93h-.21a9.58,9.58,0,0,0-2.71.38A8.52,8.52,0,0,1,137.14,43.78Z"/><path class="cls-1" d="M122.33,50.51h1.21a3,3,0,0,0,2.6-1.06l.2-.28L119,48.12v.24C119,50.51,121.51,50.51,122.33,50.51Z"/><path class="cls-1" d="M46.32,55.68H45.6a5.19,5.19,0,0,0-1.75.48,6.27,6.27,0,0,1-1.67.49l-.19,0v.88h.21c1.52,0,5.06-.11,5.06-1.18C47.26,56,46.9,55.68,46.32,55.68Z"/><polygon class="cls-1" points="139.6 52.4 140.28 51.5 139.66 50.37 130.46 50.63 129.13 52.19 134.43 52.12 139.6 52.4"/><path class="cls-1" d="M36.66,59.24l-.07.26h.26c2.19,0,3.52-.64,3.85-1.86l.07-.26h-1C38.1,57.38,37,58.06,36.66,59.24Z"/><path class="cls-1" d="M47.49,59.83l.07-.27h-.27c-1.8,0-7.81,1.63-8,3.59l0,.23h.23C41.18,63.39,47.17,61,47.49,59.83Z"/><path class="cls-1" d="M139.7,67.46h1.18v-.21c0-1.4-1.53-1.54-3-1.68-.46,0-.94-.09-1.36-.18-.93-.19-4.7-.53-5.58-.53h-.21v.93a.91.91,0,0,0,.28.68c.62.6,2.14.55,3.37.51h.69a15.55,15.55,0,0,1,2.92.29A9.35,9.35,0,0,0,139.7,67.46Z"/><path class="cls-1" d="M53.57,70.73l0-.24-.24,0c-1.8.15-3.94,1.67-4.31,3.07l-.08.28.3,0C50.64,73.72,53.45,72.24,53.57,70.73Z"/><path class="cls-1" d="M43,77.73h.21a4.25,4.25,0,0,0,3.11-2.34l.11-.4L43,76.38Z"/><path class="cls-1" d="M135.11,73.78V72l-.16,0a7.93,7.93,0,0,1-2.66-1.61c-1.11-.87-2.26-1.77-3.46-1.8h-.21v.21a2,2,0,0,0,1.57,2.06,3.61,3.61,0,0,1,1.24.7c.23.21.45.45.66.68a3.7,3.7,0,0,0,2.81,1.62Z"/><path class="cls-1" d="M44.16,80.27l-.06.26h.26c1.3,0,2.6-1.11,3.75-2.06a13.82,13.82,0,0,1,1.31-1l.77-.47c1.85-1.11,3.52-2.19,3.6-3.19l0-.22h-.23C51.31,73.55,44.61,78.32,44.16,80.27Z"/><path class="cls-1" d="M124.72,82.73V82.5c-.11-1.26-3.08-4.28-4.58-4.32h-.21v.21c0,1.51,3.09,4.34,3.85,4.34Z"/><path class="cls-1" d="M125.19,83.21l-.24,0,0,.24a2.25,2.25,0,0,0,2.37,2.14l.38,0-.27-.51C127,84.22,126.53,83.32,125.19,83.21Z"/><path class="cls-1" d="M65,82H63.05l0,.16c-.25,1.09-1.72,2.84-3.28,4.7-2,2.36-4,4.8-4.06,6.44v.57l9.74-11.51Z"/><path class="cls-1" d="M117.42,79.07l-.23,0v.23a5.69,5.69,0,0,0,1.43,3c.17.22.32.43.46.63a6.83,6.83,0,0,1,.64,1.34c.34.88.66,1.72,1.79,1.81l.18,0,0-.18a1.66,1.66,0,0,1,.15-.46,1,1,0,0,0,.1-.55C122,84,119.34,79.23,117.42,79.07Z"/><path class="cls-1" d="M60.54,93.36a5.5,5.5,0,0,1,.49-1,8.14,8.14,0,0,1,.89-1.11A9.75,9.75,0,0,0,63,89.88a11.87,11.87,0,0,1,1.22-1.44c1.07-1.17,2.28-2.49,2.31-3.91v-.27l-.26.07c-1.05.27-7.58,9.11-7.68,10.38l0,.25.24,0C60,94.84,60.26,94.12,60.54,93.36Z"/><path class="cls-1" d="M104.87,90.46c.06,1.12.38,2.44,1.88,2.56l.22,0v-1c0-.83-1.83-4.23-3.13-4.33l-.34,0,1.23,2.78Z"/><path class="cls-1" d="M76,94H75l0,.23a9.71,9.71,0,0,0,.32,1.39,6.27,6.27,0,0,1,.36,1.92,11.52,11.52,0,0,1-.19,1.23,12,12,0,0,0-.25,2.24v.73c0,.85.43.88,1,.92l.37,0,0-.17c.11-.49,1-6.78-.08-8.2A.76.76,0,0,0,76,94Z"/><path class="cls-1" d="M91.73,98.47l-1-9.8-.07,0c-.12-.1-.21-.2-.3-.29a1.23,1.23,0,0,0-1-.5A.41.41,0,0,0,89,88c-.71.88.29,6.41.31,6.46a35.79,35.79,0,0,1,.78,6.46v.14l1.82.77,0-1.64a1,1,0,0,0-.3-.81l-.15-.17s0-.06.06-.06C91.8,99.08,91.78,99,91.73,98.47Z"/><path class="cls-1" d="M96.9,99.74v-.21A12,12,0,0,0,95.45,95c-.25-.53-.48-1-.66-1.49a11.73,11.73,0,0,1-.45-1.62c-.37-1.58-.78-3.38-2.49-3.52l-.26,0,0,.25a13.24,13.24,0,0,0,1.1,3.56,17.66,17.66,0,0,1,.9,2.48l.07.27c.39,1.55,1.19,4.77,3,4.81Z"/><path class="cls-1" d="M74.75,91.69V90h-.21c-1.92,0-2.15,2.52-2.34,4.52A15.24,15.24,0,0,1,72,96.13c-.13.72-.32,1.43-.52,2.19a18.19,18.19,0,0,0-.8,4.55V103l.09.06a3.08,3.08,0,0,1,.28.22,1,1,0,0,0,.81.3h.24a.86.86,0,0,0,.63-.27c.85-.86.81-3.66.79-5.34v-.43a9,9,0,0,1,.65-3.19A8.15,8.15,0,0,0,74.75,91.69Z"/><path class="cls-1" d="M83.37,57.55a1.59,1.59,0,0,0-.43,1.2c0,.55.28.92.6,1,.16,0,.47,0,.79-.41s.43-.49.6-.49h0c.27,0,.57.5.85,1A3.25,3.25,0,0,0,87,61.15H87A2.66,2.66,0,0,0,88.88,60,5.51,5.51,0,0,1,90,59a.92.92,0,0,1,1.06-.1c.17.07.48.19.6-.11a1.22,1.22,0,0,0-.26-1.07,2.26,2.26,0,0,0-1.78-1,2.4,2.4,0,0,0-1.32.42,2,2,0,0,1-1.11.36,1.74,1.74,0,0,1-.76-.28,2.56,2.56,0,0,0-1.24-.39A2.4,2.4,0,0,0,83.37,57.55Z"/><path class="cls-1" d="M92.31,60.83a5.43,5.43,0,0,0-2.17.59c-.26.11-.52.22-.79.31a5.7,5.7,0,0,1-2.37.21,1.2,1.2,0,0,1-.71-.32c-.55-.4-1.25-.91-3.21-.19a3.7,3.7,0,0,0-2.72,2.67l-.06.23.24,0a5.52,5.52,0,0,1,3.3,1.32,4.88,4.88,0,0,0,3.4,1.23,9.87,9.87,0,0,0,1.35-.1l.18,0V66.6c0-1.52-1.64-2-2.72-2.37l-.37-.11a7.23,7.23,0,0,0,1.8-.23A6.5,6.5,0,0,1,89,63.68h.45a1.49,1.49,0,0,1,1.26.59,1.21,1.21,0,0,0,1,.53h.22a2.27,2.27,0,0,0,1.66-.88,4.54,4.54,0,0,1,1.39-1l.12-.06v-.13C95,62.06,93,60.83,92.31,60.83Z"/><path class="cls-1" d="M73.21,42.1l-.15.39c-.12.35-.12.35-.66.39l-.07,0c-4,1.88-4,9.3-4,11.75l.24,2.28c-.49,1.88-.29,2.33.21,3.15a8.6,8.6,0,0,1,1.17,3.16l0,.13.12,0c.57.15.55.4.49.94a2.36,2.36,0,0,0,1.06,2.49l.06,0h0c.08.06.27.24.47.43A35.2,35.2,0,0,0,79,72.48,18.37,18.37,0,0,0,86,74.61l3.26.06a24,24,0,0,0,6.31-2.17c.74-.33,1.45-.65,2.09-.9,3.2-1.27,5-3.12,6.85-6.83l.29-.6A21.79,21.79,0,0,0,107,57.51c.41-2.18-.23-9.26-3.61-14.6a4.6,4.6,0,0,0,1.87,1.25,6.11,6.11,0,0,0,2.11.35,7.87,7.87,0,0,0,2.17-.32c3.42-1,3.92-3,4.22-4.15.11-.41.2-.74.35-.82a2.68,2.68,0,0,1,1.48-.08,1.87,1.87,0,0,0,.69,0c2.73-.17,4.15-2.63,4.35-7.51,0-.24,0-.49,0-.74.15-3.06.33-6.87,3.37-7.78,1.26-.38,2-.24,2.2.41a1.67,1.67,0,0,0,2.19,1.34,2.47,2.47,0,0,0,1.72-3,2.41,2.41,0,0,0-1.62-1.47,4,4,0,0,0-2.4-.08c-.81.24-1,.19-1.13-.37-.24-.81-.47-1.28-1.53-1-1.53.46-2.9,2.26-2.71,3.55a1.27,1.27,0,0,1,0,.44,1.66,1.66,0,0,1-.28-.21,1.53,1.53,0,0,0-1.65-.21A3,3,0,0,0,117.34,26a4.45,4.45,0,0,0,.69,1.35,3,3,0,0,1,.48.9,1.84,1.84,0,0,1,0,1.43c0,.09-.1.12-.09.13s0,0,0-.07c-.23-.77-1.5-1.13-2.73-.77a2.28,2.28,0,0,0-1.72,2.78c.26.85.67,1.4,1.08,1.45a.5.5,0,0,0,.47-.27.63.63,0,0,1,.68-.28,2.49,2.49,0,0,1,1.71,1.81c.3,1-.45,3-1.72,3.43a2.43,2.43,0,0,1-2-.56c-.44-.28-.81-.52-1.16-.41-.55.16-.59.83-.63,1.6-.08,1.4-.2,3.32-2.91,4.13a1.78,1.78,0,0,1-1.71-.32,3,3,0,0,1-.94-1.48h0a3.5,3.5,0,0,1-.11-.79,2.08,2.08,0,0,0-.6-1.67,2.17,2.17,0,0,0-1.87,0,2.39,2.39,0,0,0-1.41,1.19,2.58,2.58,0,0,0-.17,1.95,3.57,3.57,0,0,0,.23.57,14.19,14.19,0,0,0-3-3.15l-.51-.39a8.83,8.83,0,0,0-5.14-2.28c-2.73-1.36-3.16-1.34-4.72-1-.39.08-.88.18-1.52.28l-1.49.19C81,36.37,75.36,37.07,73.21,42.1Zm31.4,13a9.4,9.4,0,0,1-1.71,6.59,5,5,0,0,0-1.14,2.69,3.52,3.52,0,0,1-1.93,2.94,7.65,7.65,0,0,0-1.75,1.45,9.36,9.36,0,0,1-3.43,2.37l-.57.27A11.56,11.56,0,0,1,87.73,73H86.57c-5.71,0-9.94-3.64-11.49-5.2a48,48,0,0,1-3.52-5,8.64,8.64,0,0,1-1-3.11A6.17,6.17,0,0,0,70,57.81c-.18-.39-.32-.74-.24-.89s.24-.16.39-.19l.17,0v-.17A22,22,0,0,1,71,51c.09-.42.19-.88.29-1.41a12.43,12.43,0,0,1,1.11-2.94,8.62,8.62,0,0,0,1-2.81l.14-.29a2.55,2.55,0,0,1,1-.71l.13-.06a20.46,20.46,0,0,0,3-2,18.18,18.18,0,0,1,2.1-1.48,53.54,53.54,0,0,1,7.58-2.48h.92c.34,0,6.54,1.53,7.21,1.75a18.38,18.38,0,0,1,5.09,3.58l.13.13c1.8,1.81,2.48,2.48,3.08,5.51a7.74,7.74,0,0,0,.44,1.38,6,6,0,0,1,.51,2,6.59,6.59,0,0,1-.07,1.55A7,7,0,0,0,104.61,55.15Z"/><path class="cls-1" d="M99,49.75a10.26,10.26,0,0,0-6.61-1.23c0-.06,0-.12,0-.18.2-.89.45-2,1.24-2h0a17.35,17.35,0,0,1,5.69-.24l.21,0,0-.21a.32.32,0,0,0-.1-.26c-.42-.46-2.58-.78-5.62-.82-1.82-.07-3.69,1.86-4.65,3.7-1.08,2.09-1.15,4.07-.18,5.31l.13.17.16-.15a3,3,0,0,0,.45-.64c.68-1.09,1.42-2.13,2.32-1.82A2.38,2.38,0,0,0,94.78,54a2.13,2.13,0,0,0,1.94-1.43c.28-.51.48-.84.84-.86l.36.29c1.09,1,2.12,1.78,2.69,1.51.22-.1.33-.33.33-.7A4.05,4.05,0,0,0,99,49.75Z"/><path class="cls-1" d="M82.38,51.39c.9-.31,1.64.73,2.31,1.82a3,3,0,0,0,.46.64l.16.15.13-.17c1-1.24.9-3.22-.18-5.31-.94-1.8-2.74-3.71-4.54-3.71H80.6c-5.74.61-5.73.79-5.71,1.07s0,.45,6,.45c.79,0,1,1.11,1.24,2a1.16,1.16,0,0,0,0,.18,10.26,10.26,0,0,0-6.61,1.23,4.05,4.05,0,0,0-2,3,.68.68,0,0,0,.32.68c.58.27,1.61-.56,2.7-1.5l.36-.3c.36,0,.56.35.84.85a2.13,2.13,0,0,0,2,1.44A2.38,2.38,0,0,0,82.38,51.39Z"/><path class="cls-1" d="M103.88,189.43a5.36,5.36,0,0,1-.37.76,2.38,2.38,0,0,1-.47.57,2,2,0,0,1-.64.37,2.67,2.67,0,0,1-.9.13H99.69v-3.83h2.19a.43.43,0,0,1,.28.13.4.4,0,0,1,.11.27v.56h.81v-3h-.81v.54a.38.38,0,0,1-.12.29.46.46,0,0,1-.29.13H99.68v-4h2.68a.61.61,0,0,1,.39.19.52.52,0,0,1,.15.38v.6h.81V180.8l-.3.15a1.51,1.51,0,0,1-.31.11l-.48.1-.54.08-.49,0H96.88v.81h.52a.58.58,0,0,1,.42.16.57.57,0,0,1,.2.37V191a.73.73,0,0,1-.21.46.55.55,0,0,1-.43.18h-.53v.81h6.79l1.13-3.11h-.85Z"/><path class="cls-1" d="M91.65,182.05h.6a.54.54,0,0,1,.42.17.68.68,0,0,1,.19.4v6.59l-7.63-8.14-.06-.06h-.68l.11.84c0,.18,0,.39.05.63s0,.48,0,.73V191a.6.6,0,0,1-.19.43.53.53,0,0,1-.41.17h-.6v.81h3.75v-.81h-.6a.54.54,0,0,1-.4-.16A.68.68,0,0,1,86,191V184.4l7.63,8.14.06.07h.66l0-.24c0-.21-.06-.42-.08-.65s0-.4,0-.64,0-.47,0-.7v-7.75a.59.59,0,0,1,.18-.4.56.56,0,0,1,.39-.17h.61v-.81H91.65Z"/><path class="cls-1" d="M111,187.41l-2.9-2.75a1.33,1.33,0,0,1-.41-.57,1.79,1.79,0,0,1-.1-.56,1.35,1.35,0,0,1,.1-.53,1.27,1.27,0,0,1,.31-.43,1.49,1.49,0,0,1,.48-.32,1.71,1.71,0,0,1,.62-.11,1.42,1.42,0,0,1,1,.35,1.21,1.21,0,0,1,.39,1v.2h.82v-2.49h-.88a6.38,6.38,0,0,0-.68-.12,3.77,3.77,0,0,0-2,.21,2.85,2.85,0,0,0-.92.66,2.69,2.69,0,0,0-.57.91,2.91,2.91,0,0,0-.2,1,3,3,0,0,0,.21,1.06A2.87,2.87,0,0,0,107,186l2.87,2.67a1.42,1.42,0,0,1,.48,1.14,1.65,1.65,0,0,1-.14.68,1.73,1.73,0,0,1-.36.52,1.84,1.84,0,0,1-.54.34,2.1,2.1,0,0,1-.66.14h-.12a1.65,1.65,0,0,1-1.23-.49,1.79,1.79,0,0,1-.48-1.33.92.92,0,0,1,0-.16c0-.07,0-.15,0-.25l0-.23h-.74l0,.15a7.39,7.39,0,0,0-.2.87,5.18,5.18,0,0,0-.07.84c0,.12,0,.24,0,.35a1.63,1.63,0,0,0,0,.33v.05l0,0a2.2,2.2,0,0,0,.62.45,4.2,4.2,0,0,0,.74.29,5.43,5.43,0,0,0,.76.16,5.89,5.89,0,0,0,.68.05,3.53,3.53,0,0,0,1.29-.23,2.71,2.71,0,0,0,1-.65,2.8,2.8,0,0,0,.63-1,3.49,3.49,0,0,0,.22-1.27,3.17,3.17,0,0,0-.17-1A2.47,2.47,0,0,0,111,187.41Z"/><path class="cls-1" d="M78.9,182h.52a.59.59,0,0,1,.44.18.71.71,0,0,1,.2.44v8.29a.67.67,0,0,1-.2.45.57.57,0,0,1-.44.18H78.9v.81h3.95v-.81h-.53a.55.55,0,0,1-.43-.18.73.73,0,0,1-.21-.43v-8.29a.78.78,0,0,1,.21-.46.55.55,0,0,1,.43-.18h.53v-.81H78.9Z"/><path class="cls-1" d="M75,182.05h.46a.26.26,0,0,1,.2.07.24.24,0,0,1,.07.2,1.24,1.24,0,0,1,0,.18l-1.72,6L71.26,181h-.6l-2.54,7.83-2-6.29a.67.67,0,0,1,0-.18c0-.14,0-.2.08-.22a.32.32,0,0,1,.22-.08h.46v-.81h-4v.81h.45a1.15,1.15,0,0,1,.58.17.89.89,0,0,1,.42.52l3.49,9.82h.69v-.19q0-.3.06-.6c0-.21.06-.39.1-.57s.09-.37.14-.53l2-6,2.81,7.87h.69v-.19c0-.19,0-.38.06-.58s.07-.38.11-.54.07-.3.1-.41a1.32,1.32,0,0,0,0-.2l2.49-7.9a.88.88,0,0,1,.42-.53,1.18,1.18,0,0,1,.58-.18h.47v-.81l-3.63,0Z"/></g></g></svg>