<?xml version="1.0" encoding="utf-8"?>
<!-- Generator: Adobe Illustrator 26.1.0, SVG Export Plug-In . SVG Version: 6.00 Build 0)  -->
<svg version="1.1" id="Capa_1" xmlns="http://www.w3.org/2000/svg" xmlns:xlink="http://www.w3.org/1999/xlink" x="0px" y="0px"
	 viewBox="0 0 433.9 300" style="enable-background:new 0 0 433.9 300;" xml:space="preserve">
<style type="text/css">
	.st0{fill:#FFFFFF;}
</style>
<g>
	<g>
		<path class="st0" d="M347.5,141c-0.1-0.1-0.4-0.4-0.5-0.7C347.2,140.6,347.4,140.8,347.5,141z"/>
		<path class="st0" d="M226.4,56.2v1.4c0.9,0.9,1.6,2.2,1.6,3.7c0,2.8-2.2,5-5,5c-2,0-3.7-1.2-4.5-2.8h-1.3c0.9,2.4,3.2,3.9,5.8,3.9
			c3.4,0,6.2-2.8,6.2-6.2C229.1,59.2,228.1,57.3,226.4,56.2z"/>
		<path class="st0" d="M212.4,67.7c-0.4-1.1-0.5-2.1-0.5-3.3c0.1-4.9,4.1-8.8,9.1-8.7c2.1,0,4.1,0.8,5.7,2.1v-1.4
			c-1.6-1.2-3.6-1.8-5.7-1.8c-5.5-0.1-10.1,4.3-10.3,9.9c0,1.2,0.1,2.2,0.5,3.3H212.4z"/>
		<ellipse transform="matrix(0.8517 -0.5241 0.5241 0.8517 -0.9179 123.6475)" class="st0" cx="218" cy="63.4" rx="0.7" ry="0.8"/>
		<g>
			<path class="st0" d="M355.2,133.8c-0.1-0.1-0.3-0.3-0.4-0.4l0,0c-4.1-4.6-24.9-26.6-55.5-41.2c-0.1,1.7-0.9,3.2-2.1,4.1
				c-0.5,0.8-1.2,1.6-2,2.4c28.9,14.2,47.3,35.9,51.9,41.7c0.1,0.3,0.4,0.4,0.5,0.7l0,0c0.3,0.3,0.4,0.4,0.7,0.7
				c2,1.3,4.7,1.2,6.6-0.5C357,139.1,357.2,135.9,355.2,133.8z"/>
			<path class="st0" d="M266.1,81.3c-27.9-5.3-51.6,0-67.9,6.2c0,0.1,0,0.1-0.1,0.3c-0.3,0.7-0.5,1.2-1.1,1.6
				c-0.4,0.5-0.9,0.8-1.6,1.1c-0.4,0.1-0.8,0.3-1.2,0.4c-0.1,0-0.3,0.1-0.4,0.1c-0.4,0.1-0.8,0.4-1.2,0.5c-0.7,0.3-1.3,0.7-2.1,0.8
				c-0.8,0.3-1.6,0.3-2.2,0.4c-0.5,0-0.9-0.1-1.3-0.1c-7.6,3.8-12,7-12,7l2.9,2.1c0,0,10.8-9.2,33-13.5c0.8-1.7,2.1-3.2,3.8-4.1
				c2.1-1.1,4.2-1.4,6.6-1.4c1.7,0,3.3,0.1,5,0.3c1.3,0.1,2.6,0.4,3.9,0.3c1.8-0.1,3.4,1.1,4.2,2.5c7.5-0.1,15.6,0.4,24.7,1.7
				c3.3,0.5,6.6,1.2,9.7,1.8c-0.1-2.4,0.4-4.7,2-6.6c0-0.1,0.1-0.3,0.1-0.3C269.4,82,267.8,81.7,266.1,81.3z"/>
			<path class="st0" d="M292.4,30.3c-13.4,0-24.3,10.9-24.3,24.3S278.8,79,292.4,79s24.3-10.9,24.3-24.3S305.8,30.3,292.4,30.3z
				 M294.4,70.6c-9.9,0-17.9-8-17.9-17.9s8-17.9,17.9-17.9s17.9,8,17.9,17.9S304.2,70.6,294.4,70.6z"/>
			<path class="st0" d="M263.8,99.9c-13.4,0-24.3,10.9-24.3,24.3s10.9,24.3,24.3,24.3c13.4,0,24.3-10.9,24.3-24.3
				S277.3,99.9,263.8,99.9z M265.8,140.1c-9.9,0-17.9-8-17.9-17.9s8-17.9,17.9-17.9s17.9,8,17.9,17.9S275.7,140.1,265.8,140.1z"/>
			<path class="st0" d="M320,61.6c-12.1,0-22,9.9-22,22s9.9,22,22,22c12.1,0,22-9.9,22-22S332.1,61.6,320,61.6z M322,97.3
				c-8.7,0-15.6-7-15.6-15.6S313.3,66,322,66c8.7,0,15.6,7,15.6,15.6C337.6,90.1,330.7,97.3,322,97.3z"/>
			<path class="st0" d="M252,39c-12.1,0-22,9.9-22,22s9.9,22,22,22c12.1,0,22-9.9,22-22C274,48.9,264.2,39,252,39z M254,74.6
				c-8.7,0-15.6-7-15.6-15.6s7-15.6,15.6-15.6c8.7,0,15.6,7,15.6,15.6S262.7,74.6,254,74.6z"/>
			<path class="st0" d="M163.9,94.1c-12.1,0-22,9.9-22,22s9.9,22,22,22s22-9.9,22-22S176,94.1,163.9,94.1z M165.9,129.7
				c-8.7,0-15.6-7-15.6-15.6s7-15.6,15.6-15.6c8.7,0,15.6,7,15.6,15.6C181.7,122.8,174.6,129.7,165.9,129.7z"/>
			<path class="st0" d="M284.1,70.9c-10.1,0-18.4,8.3-18.4,18.4s8.3,18.4,18.4,18.4s18.4-8.3,18.4-18.4
				C302.5,79.1,294.2,70.9,284.1,70.9z M286.1,100c-7,0-12.6-5.7-12.6-12.6s5.7-12.6,12.6-12.6c7,0,12.6,5.7,12.6,12.6
				S293,100,286.1,100z"/>
			<path class="st0" d="M185.7,62.1c-10.1,0-18.4,8.3-18.4,18.4S175.6,99,185.7,99c10.1,0,18.4-8.3,18.4-18.4S196,62.1,185.7,62.1z
				 M187.8,91.2c-7,0-12.6-5.7-12.6-12.6c0-7,5.7-12.6,12.6-12.6s12.6,5.7,12.6,12.6C200.5,85.5,194.8,91.2,187.8,91.2z"/>
			<path class="st0" d="M222.4,79.5c-10.1,0-18.4,8.3-18.4,18.4s8.3,18.4,18.4,18.4c10.1,0,18.4-8.3,18.4-18.4
				C240.7,87.8,232.5,79.5,222.4,79.5z M224.4,108.6c-7,0-12.6-5.7-12.6-12.6s5.7-12.6,12.6-12.6S237,89,237,95.9
				S231.4,108.6,224.4,108.6z"/>
			<path class="st0" d="M132.7,76.3c-10.1,0-18.4,8.3-18.4,18.4s8.3,18.4,18.4,18.4c10.1,0,18.4-8.3,18.4-18.4
				S142.9,76.3,132.7,76.3z M134.7,105.4c-7,0-12.6-5.7-12.6-12.6c0-7,5.7-12.6,12.6-12.6s12.6,5.7,12.6,12.6
				C147.3,99.7,141.7,105.4,134.7,105.4z"/>
			<path class="st0" d="M93.9,112.4c-10.1,0-18.4,8.3-18.4,18.4c0,10.1,8.3,18.4,18.4,18.4s18.4-8.3,18.4-18.4
				S104.1,112.4,93.9,112.4z M95.9,141.4c-7,0-12.6-5.7-12.6-12.6s5.7-12.6,12.6-12.6s12.6,5.7,12.6,12.6S102.9,141.4,95.9,141.4z"
				/>
			<path class="st0" d="M211,66.7c0,0,2.2,12.2,14.9,14.5h8.8c0,0-18.7-1.6-22.2-13.8L211,66.7z"/>
			<path class="st0" d="M231.4,145.3c0,0,12.2-2.2,14.5-14.9v-8.8c0,0-1.6,18.7-13.8,22.2L231.4,145.3z"/>
			<path class="st0" d="M220.7,129.7h1.4c0.9-0.9,2.2-1.6,3.7-1.6c2.8,0,5,2.2,5,5c0,2-1.2,3.7-2.8,4.5v1.3c2.4-0.9,3.9-3.2,3.9-5.8
				c0-3.4-2.8-6.2-6.2-6.2C223.7,127,221.9,128.2,220.7,129.7z"/>
			<path class="st0" d="M232.3,143.7c-1.1,0.4-2.1,0.5-3.3,0.5c-4.9-0.1-8.8-4.1-8.7-9.1c0-2.1,0.8-4.1,2.1-5.7H221
				c-1.2,1.6-1.8,3.6-1.8,5.7c-0.1,5.5,4.3,10.1,9.9,10.3c1.2,0,2.2-0.1,3.3-0.5V143.7z"/>
			
				<ellipse transform="matrix(0.8517 -0.5241 0.5241 0.8517 -38.6356 140.0609)" class="st0" cx="228.1" cy="138.3" rx="0.8" ry="0.7"/>
			<path class="st0" d="M106.8,68.2c0,0-4.2,12.1,9.3,24.3l4.1-0.3c0,0-15.5-10.5-12.6-22.9L106.8,68.2z"/>
			<path class="st0" d="M125.4,66.5l-0.7,1.3c0.4,1.3,0.3,2.8-0.4,3.9c-1.3,2.4-4.3,3.3-6.8,1.8c-1.7-0.9-2.6-2.8-2.5-4.6l-1.1-0.7
				c-0.4,2.5,0.8,5,3,6.3c2.9,1.7,6.7,0.7,8.4-2.4C126.4,70.4,126.3,68.3,125.4,66.5z"/>
			<path class="st0" d="M107.6,69.6c0.1-1.1,0.5-2.1,1.1-3.2c2.5-4.2,7.9-5.7,12.1-3.2c1.8,1.1,3.2,2.8,3.8,4.6l0.8-1.3
				c-0.8-1.8-2.2-3.3-4.1-4.3c-4.9-2.8-10.9-1.2-13.8,3.7c-0.5,1.1-0.9,2-1.2,3.2L107.6,69.6z"/>
			
				<ellipse transform="matrix(0.9992 -4.033533e-02 4.033533e-02 0.9992 -2.6785 4.6727)" class="st0" cx="114.5" cy="68.7" rx="0.7" ry="0.8"/>
			<path class="st0" d="M174.2,99.2v1.3c-0.3,0-0.4,0-0.7,0c-2.9,0-5.1,2.2-5.1,5.1c0,0.7,0.1,1.2,0.4,1.8h-1.3
				c-0.1-0.5-0.3-1.2-0.3-1.8c0-3.6,2.9-6.4,6.4-6.4C173.8,99.2,174,99.2,174.2,99.2z"/>
			<circle class="st0" cx="168.2" cy="109.2" r="3.2"/>
			<path class="st0" d="M233.3,84.4v1.3c-0.3,0-0.4,0-0.7,0c-2.9,0-5.1,2.2-5.1,5.1c0,0.7,0.1,1.2,0.4,1.8h-1.3
				c-0.1-0.5-0.3-1.2-0.3-1.8c0-3.6,2.9-6.4,6.4-6.4C232.8,84.4,233.1,84.4,233.3,84.4z"/>
			<circle class="st0" cx="227.3" cy="94.5" r="3.2"/>
			<path class="st0" d="M270.4,103.4v1.3c-0.3,0-0.4,0-0.7,0c-2.9,0-5.1,2.2-5.1,5.1c0,0.7,0.1,1.2,0.4,1.8h-1.3
				c-0.1-0.5-0.3-1.2-0.3-1.8c0-3.6,2.9-6.4,6.4-6.4C269.9,103.3,270.2,103.3,270.4,103.4z"/>
			<circle class="st0" cx="264.4" cy="113.4" r="3.2"/>
			<path class="st0" d="M194.5,66.1v1.3c-0.3,0-0.4,0-0.7,0c-2.9,0-5.1,2.2-5.1,5.1c0,0.7,0.1,1.2,0.4,1.8h-1.3
				c-0.1-0.5-0.3-1.2-0.3-1.8c0-3.6,2.9-6.4,6.4-6.4C194,66,194.3,66,194.5,66.1z"/>
			<circle class="st0" cx="188.5" cy="76.1" r="3.2"/>
			<path class="st0" d="M134.7,78.4v1.3c-0.3,0-0.4,0-0.7,0c-2.9,0-5.1,2.2-5.1,5.1c0,0.7,0.1,1.2,0.4,1.8H128
				c-0.1-0.5-0.3-1.2-0.3-1.8c0-3.6,2.9-6.4,6.4-6.4C134.2,78.4,134.4,78.4,134.7,78.4z"/>
			<circle class="st0" cx="128.7" cy="88.6" r="3.2"/>
			<circle class="st0" cx="91.3" cy="119.2" r="3.2"/>
			<path class="st0" d="M239.9,68.7l0.9-0.9c0.1,0.1,0.3,0.4,0.4,0.5c2,2,5.3,2,7.2,0c0.4-0.4,0.8-0.9,1.1-1.6l0.9,0.9
				c-0.3,0.5-0.7,1.1-1.1,1.4c-2.5,2.5-6.6,2.5-9.1,0C240.2,69,240,68.8,239.9,68.7z"/>
			<circle class="st0" cx="251.2" cy="65.8" r="3.2"/>
			<circle class="st0" cx="295.7" cy="83.6" r="3.2"/>
			<path class="st0" d="M308.4,92.9l0.9-0.9c0.1,0.1,0.3,0.4,0.4,0.5c2,2,5.3,2,7.2,0c0.4-0.4,0.8-0.9,1.1-1.6l0.9,0.9
				c-0.3,0.5-0.7,1.1-1.1,1.4c-2.5,2.5-6.6,2.5-9.1,0C308.7,93.3,308.6,93,308.4,92.9z"/>
			<circle class="st0" cx="319.7" cy="90" r="3.2"/>
			<path class="st0" d="M102,117c5.9-12.9,20.3-10.7,20.3-10.7l-2.1-1.8c0,0-14.5-2.1-20.3,10.7"/>
		</g>
	</g>
	<g>
		<path class="st0" d="M41.3,168.5h3.4L68,223.8h-4.2l-7.8-18.1H29.8l-7.6,18h-4.3L41.3,168.5z M55,202.2l-12.1-28.9l-12.2,28.9H55z
			"/>
		<path class="st0" d="M94.5,186.7c-3.7,0.1-6.8,1.2-9.5,3.3c-2.8,2.1-4.6,4.9-5.7,8.4v25.2h-3.9v-40.4h3.7v10
			c1.4-2.9,3.3-5.1,5.5-7c2.4-1.8,4.7-2.8,7.4-3c0.5,0,0.9-0.1,1.4-0.1c0.4,0,0.8,0,1.1,0V186.7z"/>
		<path class="st0" d="M118.1,224.3c-2.8,0-5.4-0.5-7.8-1.7c-2.4-1.2-4.3-2.8-6-4.6c-1.7-2-3-4.2-3.9-6.7c-0.9-2.5-1.4-5-1.4-7.8
			c0-2.8,0.4-5.4,1.3-7.9c0.9-2.5,2.2-4.7,3.8-6.7c1.7-2,3.7-3.4,5.9-4.6c2.4-1.2,4.9-1.7,7.6-1.7c3.6,0,6.6,0.9,9.2,2.8
			c2.6,1.8,4.9,4.1,6.7,6.7v-8.8h3.6v41.2c0,2.8-0.5,5.1-1.6,7.2c-1.1,2.1-2.4,3.8-4.2,5.1c-1.7,1.3-3.8,2.4-6,3.2
			c-2.4,0.7-4.7,1.1-7.2,1.1c-2.4,0-4.5-0.3-6.3-0.7c-1.8-0.4-3.6-1.1-5-1.8c-1.4-0.8-2.6-1.8-3.8-2.9c-1.1-1.2-2.1-2.5-2.9-3.8
			l2.6-1.8c1.6,2.8,3.8,4.7,6.6,6s5.7,1.8,8.8,1.8c2.1,0,4.1-0.3,5.9-0.9c1.8-0.5,3.4-1.4,4.9-2.5c1.3-1.1,2.5-2.5,3.3-4.2
			s1.2-3.6,1.2-5.8v-8.8c-1.7,2.6-3.8,4.7-6.6,6.3C124.1,223.5,121.2,224.3,118.1,224.3z M119.1,221c1.7,0,3.4-0.3,5-0.9
			c1.6-0.7,3.2-1.4,4.5-2.5c1.3-1.1,2.4-2.2,3.3-3.6c0.9-1.3,1.4-2.6,1.6-3.9v-13.3c-0.7-1.6-1.4-3-2.5-4.3
			c-1.1-1.3-2.2-2.5-3.6-3.4c-1.3-0.9-2.8-1.7-4.3-2.2c-1.6-0.5-3-0.8-4.6-0.8c-2.5,0-4.6,0.5-6.6,1.6c-2,1.1-3.6,2.4-4.9,4.1
			c-1.3,1.7-2.4,3.6-3,5.7c-0.7,2.1-1.1,4.2-1.1,6.3c0,2.4,0.4,4.5,1.2,6.6c0.8,2.1,2,3.9,3.4,5.5s3.2,2.9,5.1,3.8
			C114.7,220.5,116.8,221,119.1,221z"/>
		<path class="st0" d="M166.5,224.4c-2.9,0-5.5-0.5-7.9-1.7c-2.5-1.1-4.6-2.6-6.3-4.6c-1.8-2-3.2-4.2-4.2-6.7
			c-1.1-2.5-1.6-5.3-1.6-8.2s0.5-5.5,1.6-8c1.1-2.5,2.4-4.7,4.2-6.6c1.7-1.8,3.8-3.4,6.3-4.5c2.4-1.1,5-1.6,7.8-1.6
			c2.9,0,5.5,0.5,7.9,1.7c2.5,1.1,4.5,2.6,6.3,4.5c1.7,1.8,3.2,4.1,4.1,6.6c0.9,2.5,1.4,5.1,1.4,8c0,0.3,0,0.5,0,0.9
			c0,0.4,0,0.7-0.1,0.8h-35.5c0.1,2.4,0.7,4.5,1.6,6.4c0.9,2,2.1,3.7,3.6,5.1c1.4,1.4,3,2.6,5,3.4c1.8,0.8,3.8,1.2,6,1.2
			c1.4,0,2.8-0.1,4.1-0.5c1.3-0.4,2.6-0.9,3.8-1.6c1.2-0.7,2.2-1.4,3.2-2.5c0.9-0.9,1.6-2,2.1-3.2l3.4,0.9c-0.5,1.4-1.4,2.8-2.5,3.9
			c-1.1,1.2-2.4,2.2-3.9,3.2c-1.4,0.9-3.2,1.6-4.9,2.1C170.2,224.2,168.4,224.4,166.5,224.4z M182.4,201.9c-0.1-2.4-0.7-4.6-1.6-6.6
			c-0.9-2-2.1-3.7-3.6-5.1c-1.4-1.4-3-2.5-5-3.3c-1.8-0.8-3.8-1.2-6-1.2c-2.1,0-4.1,0.4-6,1.2c-1.8,0.8-3.6,2-5,3.3
			c-1.4,1.4-2.6,3.2-3.4,5.1c-0.9,2-1.3,4.2-1.6,6.4h32.2L182.4,201.9L182.4,201.9z"/>
		<path class="st0" d="M227.7,223.6h-3.9v-22.5c0-5.3-0.8-9.1-2.2-11.4s-3.8-3.6-7-3.6c-1.7,0-3.4,0.3-5.1,0.9
			c-1.7,0.7-3.3,1.4-4.7,2.6c-1.4,1.2-2.8,2.5-3.8,3.9c-1.1,1.6-1.8,3.2-2.4,5v25h-3.9v-40.4h3.7v9.6c0.8-1.6,1.8-3,3-4.2
			c1.2-1.3,2.6-2.4,4.1-3.3c1.6-0.9,3.2-1.6,4.9-2.1c1.7-0.5,3.4-0.8,5.3-0.8c4.3,0,7.5,1.6,9.3,4.6c1.8,3,2.8,7.5,2.8,13.3
			L227.7,223.6L227.7,223.6z"/>
		<path class="st0" d="M257.5,221.7c-0.3,0.1-0.5,0.3-1.1,0.5c-0.5,0.3-1.1,0.5-1.8,0.8c-0.8,0.3-1.6,0.5-2.5,0.7
			c-0.9,0.3-2,0.3-3,0.3s-2.1-0.1-3-0.5c-0.9-0.3-1.8-0.8-2.5-1.4c-0.8-0.7-1.3-1.3-1.7-2.2c-0.4-0.9-0.7-2-0.7-3.2V186h-5.8v-3.2
			h5.7v-14.7h3.9v14.7h9.5v3.2H245v29.6c0,1.4,0.5,2.6,1.6,3.4c1.1,0.8,2.2,1.2,3.6,1.2c1.6,0,3-0.3,4.2-0.8
			c1.2-0.5,1.8-0.9,2.1-1.1L257.5,221.7z"/>
		<path class="st0" d="M264.4,174v-5.7h3.9v5.7H264.4z M264.4,223.6v-40.4h3.9v40.4H264.4z"/>
		<path class="st0" d="M313.4,223.6h-3.9v-22.5c0-5.3-0.8-9.1-2.2-11.4c-1.4-2.4-3.8-3.6-7-3.6c-1.7,0-3.4,0.3-5.1,0.9
			s-3.3,1.4-4.7,2.6c-1.4,1.2-2.8,2.5-3.8,3.9c-1.1,1.6-1.8,3.2-2.4,5v25h-3.9v-40.4h3.7v9.6c0.8-1.6,1.8-3,3-4.2
			c1.2-1.3,2.6-2.4,4.1-3.3c1.6-0.9,3.2-1.6,4.9-2.1c1.7-0.5,3.4-0.8,5.3-0.8c4.3,0,7.5,1.6,9.3,4.6c1.8,3,2.8,7.5,2.8,13.3
			L313.4,223.6L313.4,223.6z"/>
		<path class="st0" d="M325.1,174v-5.7h3.9v5.7H325.1z M325.1,223.6v-40.4h3.9v40.4H325.1z"/>
		<path class="st0" d="M351.2,224.4c-1.8,0-3.6-0.3-5.3-0.9c-1.6-0.7-3-1.6-4.2-2.6c-1.2-1.1-2.1-2.5-2.9-3.9
			c-0.7-1.6-1.1-3.2-1.1-5c0-1.7,0.4-3.4,1.2-4.9s2-2.8,3.4-3.8c1.4-1.1,3.3-1.8,5.3-2.5c2.1-0.7,4.3-0.9,6.8-0.9
			c2.2,0,4.3,0.1,6.6,0.5c2.2,0.4,4.2,0.9,5.9,1.6V198c0-3.8-1.1-6.8-3.3-9.1s-5.1-3.4-8.8-3.4c-2,0-4.1,0.4-6.3,1.2
			c-2.2,0.8-4.5,2-6.7,3.6l-1.4-2.6c5.1-3.6,10.1-5.3,14.7-5.3c4.9,0,8.7,1.4,11.4,4.2c2.8,2.8,4.2,6.7,4.2,11.7V218
			c0,1.3,0.5,2,1.7,2v3.6c-0.3,0-0.5,0.1-0.8,0.1s-0.5,0-0.8,0c-1.1,0-1.8-0.4-2.5-1.1s-0.9-1.6-1.1-2.5v-3.3
			c-1.8,2.5-4.2,4.3-7.1,5.7C357.7,223.8,354.6,224.4,351.2,224.4z M352,221.4c3,0,5.8-0.5,8.3-1.7c2.5-1.2,4.5-2.6,5.8-4.5
			c0.8-1.1,1.2-2.1,1.2-3.2V205c-1.8-0.8-3.8-1.3-5.8-1.6c-2-0.4-4.1-0.5-6.3-0.5c-2,0-3.8,0.3-5.5,0.7c-1.7,0.4-3,1.1-4.3,1.8
			c-1.2,0.8-2.1,1.7-2.8,2.9c-0.7,1.1-0.9,2.4-0.9,3.7s0.3,2.6,0.8,3.8c0.5,1.2,1.2,2.2,2.2,3c0.9,0.9,2,1.6,3.3,2
			C349.2,221.1,350.5,221.4,352,221.4z"/>
		<path class="st0" d="M416,223.6h-3.9v-22.5c0-5.3-0.8-9.1-2.2-11.4c-1.4-2.4-3.8-3.6-7-3.6c-1.7,0-3.4,0.3-5.1,0.9
			s-3.3,1.4-4.7,2.6c-1.4,1.2-2.8,2.5-3.8,3.9c-1.1,1.6-1.8,3.2-2.4,5v25h-3.9v-40.4h3.7v9.6c0.8-1.6,1.8-3,3-4.2
			c1.2-1.3,2.6-2.4,4.1-3.3c1.6-0.9,3.2-1.6,4.9-2.1c1.7-0.5,3.4-0.8,5.3-0.8c4.3,0,7.5,1.6,9.3,4.6c1.8,3,2.8,7.5,2.8,13.3
			L416,223.6L416,223.6z"/>
	</g>
	<g>
		<path class="st0" d="M97.2,269.5v-18.3h11.8v1.2H98.5v7.2h8.9v1.2h-8.9v8.7H97.2z"/>
		<path class="st0" d="M122.2,251.2h1.2l7.8,18.3h-1.4l-2.5-6h-8.8l-2.5,6h-1.4L122.2,251.2z M126.7,262.4l-3.9-9.6l-4.1,9.6H126.7z
			"/>
		<path class="st0" d="M154.2,269.5v-15.8l-7.2,12.4h-0.8l-7.2-12.4v15.8h-1.3v-18.3h1.3l7.6,13l7.6-13h1.3v18.3H154.2z"/>
		<path class="st0" d="M164.2,269.5v-18.3h1.3v18.3H164.2z"/>
		<path class="st0" d="M174.2,269.5v-18.3h1.3v17.1h10.9v1.2H174.2z"/>
		<path class="st0" d="M192.4,251.2l6.4,10.1l6.4-10.1h1.4l-7.2,11.3v6.8h-1.3v-7l-7.2-11.3h1.4V251.2z"/>
		<path class="st0" d="M222.7,260.3c0-1.1,0.1-2.2,0.5-3.3c0.4-1.1,0.9-2.1,1.7-2.9c0.8-0.9,1.6-1.6,2.8-2.1
			c1.1-0.5,2.2-0.8,3.7-0.8c1.6,0,3,0.4,4.2,1.2s2,1.7,2.6,2.9l-1.1,0.7c-0.3-0.7-0.7-1.2-1.2-1.6c-0.4-0.4-0.9-0.8-1.4-1.1
			c-0.5-0.3-1.1-0.4-1.6-0.5c-0.5-0.1-1.1-0.1-1.6-0.1c-1.2,0-2.2,0.3-3,0.7c-0.9,0.5-1.7,1.1-2.2,1.8c-0.7,0.8-1.1,1.6-1.4,2.5
			c-0.3,0.9-0.5,2-0.5,2.9c0,1.1,0.1,2.1,0.5,3c0.4,0.9,0.9,1.8,1.6,2.6c0.7,0.8,1.4,1.3,2.4,1.8c0.9,0.4,1.8,0.7,2.9,0.7
			c0.5,0,1.1-0.1,1.7-0.3c0.5-0.1,1.2-0.4,1.7-0.7c0.5-0.3,1.1-0.7,1.4-1.2c0.5-0.4,0.8-1.1,1.2-1.6l1.2,0.5
			c-0.3,0.7-0.8,1.3-1.3,1.8c-0.5,0.5-1.2,0.9-1.7,1.3c-0.7,0.4-1.3,0.7-2.1,0.8c-0.8,0.1-1.4,0.3-2.1,0.3c-1.3,0-2.4-0.3-3.4-0.8
			c-1.1-0.5-2-1.3-2.6-2.1c-0.8-0.9-1.3-1.8-1.7-3C222.8,262.6,222.7,261.4,222.7,260.3z"/>
		<path class="st0" d="M257.7,268.3v1.2h-12.2v-18.3h12v1.2h-10.7v7.2h9.3v1.2h-9.3v7.6L257.7,268.3L257.7,268.3z"/>
		<path class="st0" d="M265.2,269.5v-18.3h1.3v17.1h10.9v1.2H265.2z"/>
		<path class="st0" d="M284,269.5v-18.3h1.3v17.1h10.9v1.2H284z"/>
		<path class="st0" d="M308.4,251.2h1.2l7.8,18.3h-1.4l-2.5-6h-8.7l-2.5,6h-1.4L308.4,251.2z M313,262.4l-3.9-9.6l-4.1,9.6H313z"/>
		<path class="st0" d="M323.9,269.5v-18.3h7.6c0.8,0,1.4,0.1,2.1,0.5c0.7,0.3,1.2,0.8,1.7,1.3c0.5,0.5,0.8,1.2,1.1,1.8
			c0.3,0.7,0.4,1.3,0.4,2.1c0,0.7-0.1,1.3-0.3,2c-0.3,0.7-0.5,1.2-0.9,1.7c-0.4,0.5-0.8,0.9-1.3,1.2c-0.5,0.3-1.1,0.5-1.7,0.7
			l4.6,7.1h-1.6l-4.5-6.8h-5.9v6.8L323.9,269.5L323.9,269.5z M325.3,261.4h6.4c0.5,0,1.1-0.1,1.6-0.4c0.5-0.3,0.9-0.7,1.2-1.1
			c0.4-0.4,0.7-0.9,0.8-1.4c0.1-0.5,0.3-1.1,0.3-1.7c0-0.5-0.1-1.2-0.3-1.7c-0.3-0.5-0.5-1.1-0.9-1.4c-0.4-0.4-0.8-0.8-1.3-1.1
			c-0.5-0.3-1.1-0.4-1.6-0.4h-6.2L325.3,261.4L325.3,261.4z"/>
	</g>
	<rect x="17.8" y="259.7" class="st0" width="70.8" height="1.6"/>
	<rect x="345.2" y="259.7" class="st0" width="70.8" height="1.6"/>
</g>
</svg>
