<?xml version="1.0" encoding="utf-8"?>
<!-- Generator: Adobe Illustrator 26.1.0, SVG Export Plug-In . SVG Version: 6.00 Build 0)  -->
<svg version="1.1" id="Capa_1" xmlns="http://www.w3.org/2000/svg" xmlns:xlink="http://www.w3.org/1999/xlink" x="0px" y="0px"
	 viewBox="0 0 433.9 300" style="enable-background:new 0 0 433.9 300;" xml:space="preserve">
<style type="text/css">
	.st0{fill:#8B6F4B;}
	.st1{fill:#746661;}
</style>
<g>
	<g>
		<path class="st0" d="M333.6,142c-0.1-0.1-0.4-0.4-0.5-0.6C333.4,141.6,333.5,141.8,333.6,142z"/>
		<path class="st0" d="M225.4,66.2v1.3c0.8,0.8,1.4,2,1.4,3.3c0,2.5-2,4.5-4.5,4.5c-1.8,0-3.3-1.1-4-2.5h-1.2
			c0.8,2.1,2.8,3.5,5.2,3.5c3.1,0,5.5-2.5,5.5-5.5C227.8,68.9,226.9,67.1,225.4,66.2z"/>
		<path class="st0" d="M212.9,76.4c-0.4-0.9-0.5-1.9-0.5-2.9c0.1-4.4,3.6-7.9,8.1-7.8c1.9,0,3.6,0.7,5.1,1.9v-1.3
			c-1.4-1.1-3.2-1.6-5.1-1.6c-4.9-0.1-9.1,3.9-9.2,8.8c0,1.1,0.1,2,0.5,2.9H212.9z"/>
		
			<ellipse transform="matrix(0.8517 -0.5241 0.5241 0.8517 -5.7397 124.9337)" class="st0" cx="217.8" cy="72.6" rx="0.6" ry="0.7"/>
		<g>
			<path class="st0" d="M340.6,135.5c-0.1-0.1-0.2-0.2-0.4-0.4l0,0c-3.6-4.1-22.2-23.7-49.6-36.8c-0.1,1.5-0.8,2.8-1.9,3.6
				c-0.5,0.7-1.1,1.4-1.8,2.1c25.9,12.7,42.3,32.1,46.4,37.3c0.1,0.2,0.4,0.4,0.5,0.6l0,0c0.2,0.2,0.4,0.4,0.6,0.6
				c1.8,1.2,4.2,1.1,5.9-0.5C342.1,140.2,342.4,137.4,340.6,135.5z"/>
			<path class="st0" d="M260.9,88.6c-24.9-4.7-46.1,0-60.7,5.5c0,0.1,0,0.1-0.1,0.2c-0.2,0.6-0.5,1.1-0.9,1.4
				c-0.4,0.5-0.8,0.7-1.4,0.9c-0.4,0.1-0.7,0.2-1.1,0.4c-0.1,0-0.2,0.1-0.4,0.1c-0.4,0.1-0.7,0.4-1.1,0.5c-0.6,0.2-1.2,0.6-1.9,0.7
				c-0.7,0.2-1.4,0.2-2,0.4c-0.5,0-0.8-0.1-1.2-0.1c-6.8,3.4-10.7,6.2-10.7,6.2l2.6,1.9c0,0,9.6-8.2,29.5-12.1
				c0.7-1.5,1.9-2.8,3.4-3.6c1.9-0.9,3.8-1.3,5.9-1.3c1.5,0,2.9,0.1,4.5,0.2c1.2,0.1,2.4,0.4,3.5,0.2c1.6-0.1,3.1,0.9,3.8,2.2
				c6.7-0.1,14,0.4,22.1,1.5c2.9,0.5,5.9,1.1,8.7,1.6c-0.1-2.1,0.4-4.2,1.8-5.9c0-0.1,0.1-0.2,0.1-0.2
				C263.8,89.2,262.4,89,260.9,88.6z"/>
			<path class="st0" d="M284.4,43c-12,0-21.8,9.8-21.8,21.8s9.6,21.8,21.8,21.8s21.8-9.8,21.8-21.8S296.4,43,284.4,43z M286.2,79
				c-8.8,0-16-7.2-16-16s7.2-16,16-16c8.8,0,16,7.2,16,16S295,79,286.2,79z"/>
			<path class="st0" d="M258.9,105.2c-12,0-21.8,9.8-21.8,21.8s9.8,21.8,21.8,21.8s21.8-9.8,21.8-21.8S270.9,105.2,258.9,105.2z
				 M260.6,141.2c-8.8,0-16-7.2-16-16s7.2-16,16-16s16,7.2,16,16S269.5,141.2,260.6,141.2z"/>
			<path class="st0" d="M309.1,71c-10.8,0-19.6,8.8-19.6,19.6s8.8,19.6,19.6,19.6s19.6-8.8,19.6-19.6S319.9,71,309.1,71z
				 M310.8,102.8c-7.8,0-14-6.2-14-14s6.2-14,14-14c7.8,0,14,6.2,14,14C324.8,96.5,318.6,102.8,310.8,102.8z"/>
			<path class="st0" d="M248.3,50.8c-10.8,0-19.6,8.8-19.6,19.6S237.5,90,248.3,90c10.8,0,19.6-8.8,19.6-19.6
				C267.9,59.6,259.2,50.8,248.3,50.8z M250.1,82.6c-7.8,0-14-6.2-14-14s6.2-14,14-14c7.8,0,14,6.2,14,14S257.8,82.6,250.1,82.6z"/>
			<path class="st0" d="M169.5,100c-10.8,0-19.6,8.8-19.6,19.6s8.8,19.6,19.6,19.6c10.8,0,19.6-8.8,19.6-19.6S180.3,100,169.5,100z
				 M171.3,131.9c-7.8,0-14-6.2-14-14s6.2-14,14-14c7.8,0,14,6.2,14,14C185.4,125.7,179,131.9,171.3,131.9z"/>
			<path class="st0" d="M277,79.3c-9.1,0-16.5,7.4-16.5,16.5s7.4,16.5,16.5,16.5c9.1,0,16.5-7.4,16.5-16.5
				C293.4,86.6,286,79.3,277,79.3z M278.7,105.3c-6.2,0-11.3-5.1-11.3-11.3c0-6.2,5.1-11.3,11.3-11.3c6.2,0,11.3,5.1,11.3,11.3
				C290,100.3,285,105.3,278.7,105.3z"/>
			<path class="st0" d="M189,71.5c-9.1,0-16.5,7.4-16.5,16.5s7.4,16.5,16.5,16.5s16.5-7.4,16.5-16.5S198.2,71.5,189,71.5z
				 M190.9,97.4c-6.2,0-11.3-5.1-11.3-11.3c0-6.2,5.1-11.3,11.3-11.3c6.2,0,11.3,5.1,11.3,11.3C202.2,92.4,197.1,97.4,190.9,97.4z"
				/>
			<path class="st0" d="M221.8,87c-9.1,0-16.5,7.4-16.5,16.5s7.4,16.5,16.5,16.5s16.5-7.4,16.5-16.5C238.2,94.4,230.9,87,221.8,87z
				 M223.6,113c-6.2,0-11.3-5.1-11.3-11.3c0-6.2,5.1-11.3,11.3-11.3c6.2,0,11.3,5.1,11.3,11.3C234.9,107.9,229.8,113,223.6,113z"/>
			<path class="st0" d="M141.7,84.2c-9.1,0-16.5,7.4-16.5,16.5s7.4,16.5,16.5,16.5s16.5-7.4,16.5-16.5S150.7,84.2,141.7,84.2z
				 M143.4,110.1c-6.2,0-11.3-5.1-11.3-11.3c0-6.2,5.1-11.3,11.3-11.3c6.2,0,11.3,5.1,11.3,11.3
				C154.7,105.1,149.6,110.1,143.4,110.1z"/>
			<path class="st0" d="M107,116.4c-9.1,0-16.5,7.4-16.5,16.5c0,9.1,7.4,16.5,16.5,16.5s16.5-7.4,16.5-16.5S116,116.4,107,116.4z
				 M108.7,142.3c-6.2,0-11.3-5.1-11.3-11.3c0-6.2,5.1-11.3,11.3-11.3c6.2,0,11.3,5.1,11.3,11.3C120,137.3,115,142.3,108.7,142.3z"
				/>
			<path class="st0" d="M211.6,75.6c0,0,2,10.9,13.3,12.9h7.9c0,0-16.7-1.4-19.9-12.3L211.6,75.6z"/>
			<path class="st0" d="M229.8,145.8c0,0,10.9-2,12.9-13.3v-7.9c0,0-1.4,16.7-12.3,19.9L229.8,145.8z"/>
			<path class="st0" d="M220.3,131.9h1.3c0.8-0.8,2-1.4,3.3-1.4c2.5,0,4.5,2,4.5,4.5c0,1.8-1.1,3.3-2.5,4v1.2
				c2.1-0.8,3.5-2.8,3.5-5.2c0-3.1-2.5-5.5-5.5-5.5C223,129.4,221.4,130.5,220.3,131.9z"/>
			<path class="st0" d="M230.7,144.3c-0.9,0.4-1.9,0.5-2.9,0.5c-4.4-0.1-7.9-3.6-7.8-8.1c0-1.9,0.7-3.6,1.9-5.1h-1.3
				c-1.1,1.4-1.6,3.2-1.6,5.1c-0.1,4.9,3.9,9.1,8.8,9.2c1.1,0,2-0.1,2.9-0.5V144.3z"/>
			
				<ellipse transform="matrix(0.8517 -0.5241 0.5241 0.8517 -39.4491 139.6097)" class="st0" cx="226.9" cy="139.5" rx="0.7" ry="0.6"/>
			<path class="st0" d="M118.5,76.9c0,0-3.8,10.8,8.3,21.8l3.6-0.2c0,0-13.9-9.4-11.3-20.5L118.5,76.9z"/>
			<path class="st0" d="M135.1,75.3l-0.6,1.2c0.4,1.2,0.2,2.5-0.4,3.5c-1.2,2.1-3.9,2.9-6.1,1.6c-1.5-0.8-2.4-2.5-2.2-4.1l-0.9-0.6
				c-0.4,2.2,0.7,4.5,2.7,5.6c2.6,1.5,6,0.6,7.5-2.1C136,78.9,135.9,77,135.1,75.3z"/>
			<path class="st0" d="M119.2,78.2c0.1-0.9,0.5-1.9,0.9-2.8c2.2-3.8,7.1-5.1,10.8-2.8c1.6,0.9,2.8,2.5,3.4,4.1l0.7-1.2
				c-0.7-1.6-2-2.9-3.6-3.9c-4.4-2.5-9.8-1.1-12.3,3.3c-0.5,0.9-0.8,1.8-1.1,2.8L119.2,78.2z"/>
			
				<ellipse transform="matrix(0.9992 -4.033589e-02 4.033589e-02 0.9992 -3.0173 5.1176)" class="st0" cx="125.3" cy="77.3" rx="0.6" ry="0.7"/>
			<path class="st0" d="M178.7,104.6v1.2c-0.2,0-0.4,0-0.6,0c-2.6,0-4.6,2-4.6,4.6c0,0.6,0.1,1.1,0.4,1.6h-1.2
				c-0.1-0.5-0.2-1.1-0.2-1.6c0-3.2,2.6-5.8,5.8-5.8C178.3,104.6,178.6,104.6,178.7,104.6z"/>
			<circle class="st0" cx="173.4" cy="113.5" r="2.8"/>
			<path class="st0" d="M231.6,91.3v1.2c-0.2,0-0.4,0-0.6,0c-2.6,0-4.6,2-4.6,4.6c0,0.6,0.1,1.1,0.4,1.6h-1.2
				c-0.1-0.5-0.2-1.1-0.2-1.6c0-3.2,2.6-5.8,5.8-5.8C231.1,91.3,231.4,91.3,231.6,91.3z"/>
			<circle class="st0" cx="226.2" cy="100.4" r="2.8"/>
			<path class="st0" d="M264.8,108.4v1.2c-0.2,0-0.4,0-0.6,0c-2.6,0-4.6,2-4.6,4.6c0,0.6,0.1,1.1,0.4,1.6h-1.2
				c-0.1-0.5-0.2-1.1-0.2-1.6c0-3.2,2.6-5.8,5.8-5.8C264.3,108.3,264.5,108.3,264.8,108.4z"/>
			<circle class="st0" cx="259.3" cy="117.3" r="2.8"/>
			<path class="st0" d="M196.9,75v1.2c-0.2,0-0.4,0-0.6,0c-2.6,0-4.6,2-4.6,4.6c0,0.6,0.1,1.1,0.4,1.6h-1.2
				c-0.1-0.5-0.2-1.1-0.2-1.6c0-3.2,2.6-5.8,5.8-5.8C196.4,74.9,196.7,74.9,196.9,75z"/>
			<circle class="st0" cx="191.5" cy="83.9" r="2.8"/>
			<path class="st0" d="M143.4,86v1.2c-0.2,0-0.4,0-0.6,0c-2.6,0-4.6,2-4.6,4.6c0,0.6,0.1,1.1,0.4,1.6h-1.2
				c-0.1-0.5-0.2-1.1-0.2-1.6c0-3.2,2.6-5.8,5.8-5.8C142.9,86,143.2,86,143.4,86z"/>
			<circle class="st0" cx="138" cy="95.1" r="2.8"/>
			<circle class="st0" cx="104.6" cy="122.5" r="2.8"/>
			<path class="st0" d="M237.5,77.3l0.8-0.8c0.1,0.1,0.2,0.4,0.4,0.5c1.8,1.8,4.7,1.8,6.5,0c0.4-0.4,0.7-0.8,0.9-1.4l0.8,0.8
				c-0.2,0.5-0.6,0.9-0.9,1.3c-2.2,2.2-5.9,2.2-8.1,0C237.7,77.6,237.6,77.4,237.5,77.3z"/>
			<circle class="st0" cx="247.6" cy="74.7" r="2.8"/>
			<circle class="st0" cx="287.3" cy="90.6" r="2.8"/>
			<path class="st0" d="M298.7,99l0.8-0.8c0.1,0.1,0.2,0.4,0.4,0.5c1.8,1.8,4.7,1.8,6.5,0c0.4-0.4,0.7-0.8,0.9-1.4l0.8,0.8
				c-0.2,0.5-0.6,0.9-0.9,1.3c-2.2,2.2-5.9,2.2-8.1,0C299,99.3,298.8,99.1,298.7,99z"/>
			<circle class="st0" cx="308.8" cy="96.4" r="2.8"/>
			<path class="st0" d="M114.1,120.5c5.3-11.5,18.1-9.5,18.1-9.5l-1.9-1.6c0,0-12.9-1.9-18.1,9.5"/>
		</g>
	</g>
	<g>
		<path class="st1" d="M59.9,166.6H63l20.8,49.4H80l-6.9-16.2H49.6l-6.8,16.1h-3.9L59.9,166.6z M72.2,196.7l-10.8-25.9l-10.9,25.9
			H72.2z"/>
		<path class="st1" d="M107.4,182.8c-3.3,0.1-6.1,1.1-8.5,2.9c-2.5,1.9-4.1,4.4-5.1,7.5v22.6h-3.5v-36.1h3.3v8.9
			c1.3-2.6,2.9-4.6,4.9-6.2c2.1-1.6,4.2-2.5,6.6-2.7c0.5,0,0.8-0.1,1.3-0.1c0.4,0,0.7,0,0.9,0V182.8z"/>
		<path class="st1" d="M128.6,216.4c-2.5,0-4.8-0.5-6.9-1.5c-2.1-1.1-3.9-2.5-5.4-4.1c-1.5-1.8-2.7-3.8-3.5-6s-1.3-4.5-1.3-6.9
			s0.4-4.8,1.2-7.1c0.8-2.2,2-4.2,3.4-6c1.5-1.8,3.3-3.1,5.3-4.1c2.1-1.1,4.4-1.5,6.8-1.5c3.2,0,5.9,0.8,8.2,2.5
			c2.4,1.6,4.4,3.6,6,6v-7.9h3.2v36.8c0,2.5-0.5,4.6-1.4,6.5c-0.9,1.9-2.1,3.4-3.8,4.6c-1.5,1.2-3.4,2.1-5.4,2.8
			c-2.1,0.6-4.2,0.9-6.5,0.9c-2.1,0-4-0.2-5.6-0.6c-1.6-0.4-3.2-0.9-4.5-1.6c-1.3-0.7-2.4-1.6-3.4-2.6c-0.9-1.1-1.9-2.2-2.6-3.4
			l2.4-1.6c1.4,2.5,3.4,4.2,5.9,5.4c2.5,1.2,5.1,1.6,7.9,1.6c1.9,0,3.6-0.2,5.3-0.8c1.6-0.5,3.1-1.3,4.4-2.2
			c1.2-0.9,2.2-2.2,2.9-3.8c0.7-1.5,1.1-3.2,1.1-5.2v-7.9c-1.5,2.4-3.4,4.2-5.9,5.6C133.9,215.7,131.3,216.4,128.6,216.4z
			 M129.4,213.5c1.5,0,3.1-0.2,4.5-0.8s2.8-1.3,4-2.2c1.2-0.9,2.1-2,2.9-3.2c0.8-1.2,1.3-2.4,1.4-3.5v-11.9
			c-0.6-1.4-1.3-2.7-2.2-3.9c-0.9-1.2-2-2.2-3.2-3.1c-1.2-0.8-2.5-1.5-3.9-2c-1.4-0.5-2.7-0.7-4.1-0.7c-2.2,0-4.1,0.5-5.9,1.4
			c-1.8,0.9-3.2,2.1-4.4,3.6c-1.2,1.5-2.1,3.2-2.7,5.1c-0.6,1.9-0.9,3.8-0.9,5.6c0,2.1,0.4,4,1.1,5.9c0.7,1.9,1.8,3.5,3.1,4.9
			c1.3,1.4,2.8,2.6,4.6,3.4C125.5,213,127.4,213.5,129.4,213.5z"/>
		<path class="st1" d="M171.9,216.5c-2.6,0-4.9-0.5-7.1-1.5c-2.2-0.9-4.1-2.4-5.6-4.1c-1.6-1.8-2.8-3.8-3.8-6
			c-0.9-2.2-1.4-4.7-1.4-7.3s0.5-4.9,1.4-7.2s2.1-4.2,3.8-5.9c1.5-1.6,3.4-3.1,5.6-4c2.1-0.9,4.5-1.4,6.9-1.4c2.6,0,4.9,0.5,7.1,1.5
			c2.2,0.9,4,2.4,5.6,4c1.5,1.6,2.8,3.6,3.6,5.9s1.3,4.6,1.3,7.2c0,0.2,0,0.5,0,0.8s0,0.6-0.1,0.7h-31.7c0.1,2.1,0.6,4,1.4,5.8
			c0.8,1.8,1.9,3.3,3.2,4.6c1.3,1.3,2.7,2.4,4.5,3.1c1.6,0.7,3.4,1.1,5.4,1.1c1.3,0,2.5-0.1,3.6-0.5c1.2-0.4,2.4-0.8,3.4-1.4
			c1.1-0.6,2-1.3,2.8-2.2c0.8-0.8,1.4-1.8,1.9-2.8l3.1,0.8c-0.5,1.3-1.3,2.5-2.2,3.5c-0.9,1.1-2.1,2-3.5,2.8
			c-1.3,0.8-2.8,1.4-4.4,1.9C175.2,216.3,173.5,216.5,171.9,216.5z M186.1,196.4c-0.1-2.1-0.6-4.1-1.4-5.9c-0.8-1.8-1.9-3.3-3.2-4.6
			c-1.3-1.3-2.7-2.2-4.5-2.9c-1.6-0.7-3.4-1.1-5.4-1.1c-1.9,0-3.6,0.4-5.4,1.1c-1.6,0.7-3.2,1.8-4.5,2.9c-1.3,1.3-2.4,2.8-3.1,4.6
			c-0.8,1.8-1.2,3.8-1.4,5.8h28.8V196.4z"/>
		<path class="st1" d="M226.5,215.8H223v-20.1c0-4.7-0.7-8.1-2-10.2c-1.3-2.1-3.4-3.2-6.2-3.2c-1.5,0-3.1,0.2-4.6,0.8
			c-1.5,0.6-2.9,1.3-4.2,2.4c-1.3,1.1-2.5,2.2-3.4,3.5c-0.9,1.4-1.6,2.8-2.1,4.5v22.3h-3.5v-36.1h3.3v8.6c0.7-1.4,1.6-2.7,2.7-3.8
			c1.1-1.2,2.4-2.1,3.6-2.9c1.4-0.8,2.8-1.4,4.4-1.9c1.5-0.5,3.1-0.7,4.7-0.7c3.9,0,6.7,1.4,8.3,4.1c1.6,2.7,2.5,6.7,2.5,11.9v20.8
			H226.5z"/>
		<path class="st1" d="M253.2,214.1c-0.2,0.1-0.5,0.2-0.9,0.5c-0.5,0.2-0.9,0.5-1.6,0.7c-0.7,0.2-1.4,0.5-2.2,0.6
			c-0.8,0.2-1.8,0.2-2.7,0.2s-1.9-0.1-2.7-0.5c-0.8-0.2-1.6-0.7-2.2-1.3c-0.7-0.6-1.2-1.2-1.5-2c-0.4-0.8-0.6-1.8-0.6-2.8v-27.3
			h-5.2v-2.8h5.1v-13.2h3.5v13.2h8.5v2.8h-8.5v26.5c0,1.3,0.5,2.4,1.4,3.1c0.9,0.7,2,1.1,3.2,1.1c1.4,0,2.7-0.2,3.8-0.7
			s1.6-0.8,1.9-0.9L253.2,214.1z"/>
		<path class="st1" d="M259.3,171.5v-5.1h3.5v5.1H259.3z M259.3,215.8v-36.1h3.5v36.1H259.3z"/>
		<path class="st1" d="M303.2,215.8h-3.5v-20.1c0-4.7-0.7-8.1-2-10.2c-1.3-2.1-3.4-3.2-6.2-3.2c-1.5,0-3.1,0.2-4.6,0.8
			c-1.5,0.6-2.9,1.3-4.2,2.4c-1.3,1.1-2.5,2.2-3.4,3.5c-0.9,1.4-1.6,2.8-2.1,4.5v22.3h-3.5v-36.1h3.3v8.6c0.7-1.4,1.6-2.7,2.7-3.8
			c1.1-1.2,2.4-2.1,3.6-2.9c1.4-0.8,2.8-1.4,4.4-1.9s3.1-0.7,4.7-0.7c3.9,0,6.7,1.4,8.3,4.1c1.6,2.7,2.5,6.7,2.5,11.9v20.8H303.2z"
			/>
		<path class="st1" d="M313.7,171.5v-5.1h3.5v5.1H313.7z M313.7,215.8v-36.1h3.5v36.1H313.7z"/>
		<path class="st1" d="M336.9,216.5c-1.6,0-3.2-0.2-4.7-0.8c-1.4-0.6-2.7-1.4-3.8-2.4c-1.1-0.9-1.9-2.2-2.6-3.5
			c-0.6-1.4-0.9-2.8-0.9-4.5c0-1.5,0.4-3.1,1.1-4.4c0.7-1.3,1.8-2.5,3.1-3.4c1.3-0.9,2.9-1.6,4.7-2.2c1.9-0.6,3.9-0.8,6.1-0.8
			c2,0,3.9,0.1,5.9,0.5c2,0.4,3.8,0.8,5.3,1.4v-3.5c0-3.4-0.9-6.1-2.9-8.1s-4.6-3.1-7.9-3.1c-1.8,0-3.6,0.4-5.6,1.1
			c-2,0.7-4,1.8-6,3.2l-1.3-2.4c4.6-3.2,9.1-4.7,13.2-4.7c4.4,0,7.8,1.3,10.2,3.8c2.5,2.5,3.8,6,3.8,10.5v17.6
			c0,1.2,0.5,1.8,1.5,1.8v3.2c-0.2,0-0.5,0.1-0.7,0.1c-0.2,0-0.5,0-0.7,0c-0.9,0-1.6-0.4-2.2-0.9c-0.6-0.6-0.8-1.4-0.9-2.2v-2.9
			c-1.6,2.2-3.8,3.9-6.3,5.1C342.8,215.9,340,216.5,336.9,216.5z M337.6,213.8c2.7,0,5.2-0.5,7.4-1.5c2.2-1.1,4-2.4,5.2-4
			c0.7-0.9,1.1-1.9,1.1-2.8v-6.3c-1.6-0.7-3.4-1.2-5.2-1.4c-1.8-0.4-3.6-0.5-5.6-0.5c-1.8,0-3.4,0.2-4.9,0.6
			c-1.5,0.4-2.7,0.9-3.9,1.6c-1.1,0.7-1.9,1.5-2.5,2.6c-0.6,0.9-0.8,2.1-0.8,3.3c0,1.2,0.2,2.4,0.7,3.4c0.5,1.1,1.1,2,2,2.7
			c0.8,0.8,1.8,1.4,2.9,1.8C335.2,213.6,336.4,213.8,337.6,213.8z"/>
		<path class="st1" d="M394.9,215.8h-3.5v-20.1c0-4.7-0.7-8.1-2-10.2c-1.3-2.1-3.4-3.2-6.2-3.2c-1.5,0-3.1,0.2-4.6,0.8
			c-1.5,0.6-2.9,1.3-4.2,2.4c-1.3,1.1-2.5,2.2-3.4,3.5c-0.9,1.4-1.6,2.8-2.1,4.5v22.3h-3.5v-36.1h3.3v8.6c0.7-1.4,1.6-2.7,2.7-3.8
			c1.1-1.2,2.4-2.1,3.6-2.9c1.4-0.8,2.8-1.4,4.4-1.9c1.5-0.5,3.1-0.7,4.7-0.7c3.9,0,6.7,1.4,8.3,4.1c1.6,2.7,2.5,6.7,2.5,11.9v20.8
			H394.9z"/>
	</g>
	<g>
		<path class="st1" d="M109.9,256.9v-16.3h10.6v1.1h-9.4v6.5h8v1.1h-8v7.8H109.9z"/>
		<path class="st1" d="M132.2,240.5h1.1l6.9,16.3h-1.3l-2.2-5.4h-7.9l-2.2,5.4h-1.3L132.2,240.5z M136.2,250.5l-3.5-8.6l-3.6,8.6
			H136.2z"/>
		<path class="st1" d="M160.8,256.9v-14.1l-6.5,11.1h-0.7l-6.5-11.1v14.1H146v-16.3h1.2l6.8,11.6l6.8-11.6h1.2v16.3H160.8z"/>
		<path class="st1" d="M169.8,256.9v-16.3h1.2v16.3H169.8z"/>
		<path class="st1" d="M178.7,256.9v-16.3h1.2v15.3h9.8v1.1H178.7z"/>
		<path class="st1" d="M195,240.5l5.8,9.1l5.8-9.1h1.3l-6.5,10.1v6.1h-1.2v-6.2l-6.5-10.1h1.3V240.5z"/>
		<path class="st1" d="M222.1,248.6c0-0.9,0.1-2,0.5-2.9c0.4-0.9,0.8-1.9,1.5-2.6c0.7-0.8,1.4-1.4,2.5-1.9c0.9-0.5,2-0.7,3.3-0.7
			c1.4,0,2.7,0.4,3.8,1.1c1.1,0.7,1.8,1.5,2.4,2.6l-0.9,0.6c-0.2-0.6-0.6-1.1-1.1-1.4c-0.4-0.4-0.8-0.7-1.3-0.9
			c-0.5-0.2-0.9-0.4-1.4-0.5c-0.5-0.1-0.9-0.1-1.4-0.1c-1.1,0-2,0.2-2.7,0.6c-0.8,0.5-1.5,0.9-2,1.6c-0.6,0.7-0.9,1.4-1.3,2.2
			c-0.2,0.8-0.5,1.8-0.5,2.6c0,0.9,0.1,1.9,0.5,2.7c0.4,0.8,0.8,1.6,1.4,2.4c0.6,0.7,1.3,1.2,2.1,1.6c0.8,0.4,1.6,0.6,2.6,0.6
			c0.5,0,0.9-0.1,1.5-0.2c0.5-0.1,1.1-0.4,1.5-0.6c0.5-0.2,0.9-0.6,1.3-1.1c0.5-0.4,0.7-0.9,1.1-1.4l1.1,0.5
			c-0.2,0.6-0.7,1.2-1.2,1.6c-0.5,0.5-1.1,0.8-1.5,1.2c-0.6,0.4-1.2,0.6-1.9,0.7c-0.7,0.1-1.3,0.2-1.9,0.2c-1.2,0-2.1-0.2-3.1-0.7
			c-0.9-0.5-1.8-1.2-2.4-1.9c-0.7-0.8-1.2-1.6-1.5-2.7C222.2,250.6,222.1,249.6,222.1,248.6z"/>
		<path class="st1" d="M253.3,255.8v1.1h-10.9v-16.3h10.7v1.1h-9.5v6.5h8.3v1.1h-8.3v6.8h9.8V255.8z"/>
		<path class="st1" d="M260,256.9v-16.3h1.2v15.3h9.8v1.1H260z"/>
		<path class="st1" d="M276.9,256.9v-16.3h1.2v15.3h9.8v1.1H276.9z"/>
		<path class="st1" d="M298.7,240.5h1.1l6.9,16.3h-1.3l-2.2-5.4h-7.8l-2.2,5.4h-1.3L298.7,240.5z M302.8,250.5l-3.5-8.6l-3.6,8.6
			H302.8z"/>
		<path class="st1" d="M312.6,256.9v-16.3h6.8c0.7,0,1.3,0.1,1.9,0.5c0.6,0.2,1.1,0.7,1.5,1.2c0.5,0.5,0.7,1.1,0.9,1.6
			c0.2,0.6,0.4,1.2,0.4,1.9c0,0.6-0.1,1.2-0.2,1.8c-0.2,0.6-0.5,1.1-0.8,1.5c-0.4,0.5-0.7,0.8-1.2,1.1c-0.5,0.2-0.9,0.5-1.5,0.6
			l4.1,6.3h-1.4l-4-6.1h-5.3v6.1h-1.2V256.9z M313.8,249.6h5.8c0.5,0,0.9-0.1,1.4-0.4c0.5-0.2,0.8-0.6,1.1-0.9
			c0.4-0.4,0.6-0.8,0.7-1.3c0.1-0.5,0.2-0.9,0.2-1.5c0-0.5-0.1-1.1-0.2-1.5c-0.2-0.5-0.5-0.9-0.8-1.3c-0.4-0.4-0.7-0.7-1.2-0.9
			s-0.9-0.4-1.4-0.4h-5.5L313.8,249.6L313.8,249.6z"/>
	</g>
	<rect x="38.9" y="248" class="st0" width="63.3" height="1.4"/>
	<rect x="331.7" y="248" class="st0" width="63.3" height="1.4"/>
</g>
</svg>
