<svg xmlns="http://www.w3.org/2000/svg" viewBox="0 0 622.41 93.78"><defs><style>.cls-1{fill:#fff;}</style></defs><g id="Capa_2" data-name="Capa 2"><g id="Layer_1" data-name="Layer 1"><path class="cls-1" d="M256.34,64.9V57.68h-14.4V36.05h14.4V28.84H240.17V21.63h23.38V43.28H249.17v7.2h14.38v21.6H240.17V64.9Zm-57.71-18a39.63,39.63,0,1,1,39.63,39.64A39.63,39.63,0,0,1,198.63,46.88Zm39.63,46.9a46.89,46.89,0,1,0-46.9-46.9A46.9,46.9,0,0,0,238.26,93.78Zm-1.74-65V21.61H213.13V43.26h14.34v7.22H213.13V72.07h23.39V64.89H220.35V57.66h14.39V36H220.35v-7.2Z"/><path class="cls-1" d="M79.13,50.74v-.12H96.61a10.75,10.75,0,0,1,5.74,1.46A5.57,5.57,0,0,1,104.94,57a5.34,5.34,0,0,1-1.39,4c-1.71,1.72-4.68,1.68-6.83,1.68H79.08v-.1l0-11.84m0-9.37V30.83h16c2.82,0,7.53,0,7.53,5.57A4.35,4.35,0,0,1,100,40.68a11.94,11.94,0,0,1-4.85.81H79.13ZM97.27,72c6.07,0,10.62-1.46,13.58-4.36a13,13,0,0,0,3.69-9.49c0-5.87-2.48-10-7.35-12.12L107,46l.2-.12c2.21-1.14,5.12-3.48,5.12-10.46a13,13,0,0,0-4.1-9.71c-2.9-2.67-7.13-4.08-12.24-4.08l-26.41,0V72Z"/><rect class="cls-1" y="21.58" width="10.05" height="50.43"/><path class="cls-1" d="M18.24,46.36a27.18,27.18,0,0,0,2.52,12.32,21.89,21.89,0,0,0,6.31,7.51c4.5,3.58,10.83,5.4,18.82,5.4H59.65V62.05h-13c-7.22,0-12.48-1.78-15.6-5.32-2.21-2.5-3.34-5.89-3.37-10,0-4.47,1.23-8,3.74-10.57,3.15-3.17,8.27-4.75,15.23-4.75h13V21.92H46.37A43.2,43.2,0,0,0,34.9,23.28a20.6,20.6,0,0,0-8.15,4.18,24,24,0,0,0-8.51,18.9"/><path class="cls-1" d="M120.61,46.36a30.09,30.09,0,0,0,2.52,12.77,22,22,0,0,0,6.32,7.94c4.21,3.37,10.21,4.94,18.82,4.94h14.51V62.5H149c-7.22,0-12.49-1.88-15.6-5.55-2.22-2.6-3.34-6-3.38-10.26,0-4.6,1.28-8.26,3.88-10.88C137.1,32.63,142.16,31,149,31h13.74V21.58h-14a42,42,0,0,0-11.47,1.35,21,21,0,0,0-8.13,4.16,24.72,24.72,0,0,0-8.53,19.27"/><path class="cls-1" d="M314.07,21.75H347v5.62H320.74v16h23.05v5.62H320.74v23h-6.67Z"/><path class="cls-1" d="M381,71.92h-5.62V66.16h-.14c-2.53,4.49-6.6,6.6-11.8,6.6-9.56,0-12.51-5.48-12.51-13.28V35.59h6V60.18c0,4.43,2.81,7.31,7.38,7.31,7.24,0,10.75-4.85,10.75-11.38V35.59h6Z"/><path class="cls-1" d="M388.63,35.59h5.62v5.76h.14c2.53-4.5,6.6-6.6,11.8-6.6,9.56,0,12.51,5.48,12.51,13.28V71.92h-6V47.32c0-4.42-2.81-7.3-7.38-7.3-7.24,0-10.75,4.84-10.75,11.38V71.92h-6Z"/><path class="cls-1" d="M458.75,71.92h-6V67h-.14c-2,4-6.6,5.76-11.59,5.76-11.18,0-16.73-8.85-16.73-19.11s5.48-18.9,16.58-18.9c3.73,0,9.07,1.4,11.74,5.69h.14V21.75h6Zm-16.86-4.43c8,0,11.1-6.89,11.1-13.7C453,46.62,449.76,40,441.54,40s-10.89,6.95-10.89,14C430.65,60.88,434.16,67.49,441.89,67.49Z"/><path class="cls-1" d="M498.74,71.78a8.1,8.1,0,0,1-4.29,1c-3.09,0-5.06-1.69-5.06-5.62a16.13,16.13,0,0,1-12.79,5.62c-6.6,0-12-3-12-10.19,0-8.22,6.11-10,12.3-11.17,6.6-1.27,12.22-.84,12.22-5.34,0-5.2-4.29-6-8.08-6-5.06,0-8.78,1.54-9.06,6.88h-6c.35-9,7.31-12.15,15.39-12.15,6.54,0,13.63,1.47,13.63,10V63.41c0,2.82,0,4.08,1.9,4.08a5.16,5.16,0,0,0,1.83-.35ZM489,53.16c-2.32,1.68-6.81,1.75-10.82,2.45s-7.31,2.11-7.31,6.54c0,3.93,3.38,5.34,7,5.34,7.87,0,11.1-4.92,11.1-8.22Z"/><path class="cls-1" d="M527.55,47.25c-.91-4.56-4.08-7.23-9-7.23-8.65,0-11.32,6.81-11.32,14.19,0,6.67,3,13.28,10.61,13.28,5.76,0,9.21-3.37,10-8.85h6.11c-1.33,8.85-6.88,14.12-16,14.12-11.1,0-17-7.73-17-18.55s5.62-19.46,17.14-19.46c8.22,0,14.83,3.86,15.67,12.5Z"/><path class="cls-1" d="M545.54,29.05h-6v-7.3h6Zm-6,6.54h6V71.92h-6Z"/><path class="cls-1" d="M569.08,34.75c11.52,0,17.64,8.36,17.64,19s-6.12,19-17.64,19-17.64-8.36-17.64-19S557.56,34.75,569.08,34.75Zm0,32.74c6.25,0,11.31-4.92,11.31-13.7S575.33,40,569.08,40s-11.31,4.91-11.31,13.77S562.82,67.49,569.08,67.49Zm1.75-46.94h7.66l-9.2,10.05h-4.5Z"/><path class="cls-1" d="M592.34,35.59H598v5.76h.14c2.53-4.5,6.61-6.6,11.8-6.6,9.56,0,12.51,5.48,12.51,13.28V71.92h-6V47.32c0-4.42-2.81-7.3-7.38-7.3-7.24,0-10.75,4.84-10.75,11.38V71.92h-6Z"/></g></g></svg>