<svg xmlns="http://www.w3.org/2000/svg" viewBox="0 0 215.28 124.36"><defs><style>.cls-1{fill:#221e20;}</style></defs><g id="Capa_2" data-name="Capa 2"><g id="Capa_1-2" data-name="Capa 1"><path class="cls-1" d="M57.1,39.16Q57.19,51,52.64,58.57,48,66.4,37.25,66.51q-11.19-.11-15.63-7.63c-3-4.86-4.51-11.46-4.46-19.82V16.88c-.05-5.22.22-8.67.87-10.38s2.31-2.57,5.09-2.57l2.36-.24a1.58,1.58,0,0,0,.41-1.24c-.06-.62-.27-1-.59-1.12-4.5.21-8.62.31-12.33.31S5.2,1.54.53,1.33C.21,1.45,0,1.83,0,2.45A1.23,1.23,0,0,0,.35,3.69l2.46.24Q7,3.93,7.94,6.5c.61,1.71.89,5.16.84,10.38V41.11Q8.68,59,16.49,65.34a21.61,21.61,0,0,0,4.17,2.55,19,19,0,0,0,4.53,1.76A36.43,36.43,0,0,0,35.09,71q11.86-.1,19-7.52a26.24,26.24,0,0,0,5.64-11.29A66.7,66.7,0,0,0,61.07,39V27.31q0-4.81.21-11.39c.12-1,.22-2.05.29-3.06a19.07,19.07,0,0,1,.19-2.7,10.36,10.36,0,0,1,.39-2.26c.15-.6.27-1.11.34-1.5a3.48,3.48,0,0,1,1.74-1.77,9.88,9.88,0,0,1,3.2-.7l2.38-.24a1.62,1.62,0,0,0,.51-1.24,1.32,1.32,0,0,0-.7-1.12c-3.14.21-6.62.31-10.38.31S51.67,1.54,48,1.33a1,1,0,0,0-.53,1,1.88,1.88,0,0,0,.29,1.35l2.51.24q3.89.31,5,2.16c.87,1.84,1.43,5,1.69,9.33s.2,8.42.2,11.89Z"/><path class="cls-1" d="M101,57a100.72,100.72,0,0,1,4.57,13.68A4.15,4.15,0,0,0,107,71a2.17,2.17,0,0,0,1.11-.31q3.44-10.38,10.35-26.84l5.33-12.66q3.5-7.87,6.26-14C132,13.18,133.58,10,135,7.56A6.21,6.21,0,0,1,140.13,4l3-.24a1.66,1.66,0,0,0,.44-1.23,1.27,1.27,0,0,0-.63-1.18q-4.77.31-9.61.31-5.88,0-10.35-.31a1.16,1.16,0,0,0-.48,1.1,1.55,1.55,0,0,0,.29,1.31l1.8.26a10.81,10.81,0,0,1,3.54.81c.62.32.92.7.92,1.09a12.63,12.63,0,0,1-.92,4q-3.65,9.58-9.22,23-1.71,4.31-4.38,10.79t-5.19,12Q102,38.24,95.17,20.3c-1.52-4-2.67-7.22-3.44-9.73s-1.38-4.11-1.5-4.67c.07-.41.39-.77,1-1.11A12.26,12.26,0,0,1,94.88,4l1.5-.24a1.5,1.5,0,0,0,.5-1.31,1.29,1.29,0,0,0-.68-1.1q-5.88.31-12,.31T73.81,1.33a1.33,1.33,0,0,0-.6,1.18,1.77,1.77,0,0,0,.41,1.23l1.8.26a6.69,6.69,0,0,1,4.84,2.16,18.67,18.67,0,0,1,3.21,6.22Z"/><path class="cls-1" d="M162.19,18.54c.58-1.58,1.13-2.94,1.61-4.11s.65-1.72.77-2h.2a24.5,24.5,0,0,1,1.11,2.72c.4,1.23.77,2.49,1.17,3.79l5.38,16.71c.53,1.3.67,2.17.4,2.6s-1.13.67-2.59.61H158c-1.32,0-2.09-.13-2.28-.41s-.2-1,.19-2.05Zm17.82,41a19.28,19.28,0,0,1,1.25,5.49c0,1-1.22,1.66-3.44,1.87l-2.91.29a1.64,1.64,0,0,0-.39,1.19,1.42,1.42,0,0,0,.58,1.27c2.86-.19,6.67-.29,11.46-.29,4.22,0,8.24.1,12,.29a1.5,1.5,0,0,0,.5-1.27,1.12,1.12,0,0,0-.5-1.19l-2.72-.29a6.71,6.71,0,0,1-4.65-2.36c-1.13-1.44-2.4-4.3-3.78-8.54l-13.6-41.36c-.73-2.24-1.47-4.57-2.17-7-.82-2.24-1.54-4.5-2.19-6.77A1.53,1.53,0,0,0,168,0c-.55.67-1.22,1.38-2,2.15a11.06,11.06,0,0,1-3.2,1.71c.25,1.37-.31,3.8-1.71,7.32L151,38.9q-6.17,16.55-8.78,22.94a7.64,7.64,0,0,1-2.58,3.71,5.58,5.58,0,0,1-3.33,1.37l-3.3.29a1.29,1.29,0,0,0-.31,1.19,1.53,1.53,0,0,0,.5,1.27c2.9-.19,6.08-.29,9.56-.29,4.49.07,7.93.15,10.32.29a1.56,1.56,0,0,0,.79-1.27,1.3,1.3,0,0,0-.6-1.19L150,66.92a3.29,3.29,0,0,1-2.29-.77,1.49,1.49,0,0,1-.58-1.3c0-1.12.73-4,2.18-8.57l3.44-10.83a4.06,4.06,0,0,1,1.32-2.17,6.83,6.83,0,0,1,2.48-.31h15a9.48,9.48,0,0,1,3,.31,4.36,4.36,0,0,1,1.06,2.28Z"/><path class="cls-1" d="M202.24,116.54a13.33,13.33,0,0,1,.85,3.76c0,.71-.83,1.13-2.35,1.27l-2,.2a1.12,1.12,0,0,0-.26.82.93.93,0,0,0,.39.86q2.93-.2,7.83-.2c2.89,0,5.64.07,8.22.2a1,1,0,0,0,.34-.86.75.75,0,0,0-.34-.82l-1.86-.2a4.6,4.6,0,0,1-3.18-1.61,21.33,21.33,0,0,1-2.58-5.84L198,85.85c-.5-1.53-1-3.12-1.49-4.77S195.48,78,195,76.45a1.06,1.06,0,0,0-1-.62,19.23,19.23,0,0,1-1.36,1.47,7.38,7.38,0,0,1-2.18,1.17c.17.94-.21,2.6-1.17,5l-6.9,18.94q-4.2,11.31-6,15.68a5.26,5.26,0,0,1-1.76,2.54,3.86,3.86,0,0,1-2.28.93l-2.26.2a.94.94,0,0,0-.21.82,1,1,0,0,0,.34.86c2-.13,4.16-.2,6.54-.2,3.07,0,5.42.11,7.06.2a1,1,0,0,0,.53-.86.91.91,0,0,0-.4-.82l-2.25-.2a2.2,2.2,0,0,1-1.56-.53,1,1,0,0,1-.4-.88,29.49,29.49,0,0,1,1.49-5.86l2.35-7.4a2.76,2.76,0,0,1,.9-1.48,4.67,4.67,0,0,1,1.7-.21h10.27a6.46,6.46,0,0,1,2,.21,2.94,2.94,0,0,1,.72,1.55Zm-12.18-28c.39-1.07.77-2,1.1-2.8s.44-1.18.52-1.35h.14a16.72,16.72,0,0,1,.76,1.86c.27.84.53,1.71.8,2.6l3.68,11.42c.36.88.46,1.48.27,1.77s-.77.46-1.77.42h-8.35c-.9,0-1.43-.09-1.56-.28s-.14-.68.13-1.4Z"/><path class="cls-1" d="M136.06,112.76c0,3.5-.14,5.82-.54,6.92s-1.65,1.75-3.56,1.89l-1.69.2a1.11,1.11,0,0,0-.2.89.92.92,0,0,0,.34.79c3-.13,5.86-.2,8.54-.2s5.29.07,8.16.2a1.16,1.16,0,0,0,.41-.86,1.08,1.08,0,0,0-.27-.82l-1.42-.2q-2.82-.21-3.45-1.89c-.44-1.1-.63-3.42-.6-6.92v-8.88c0-.75.12-1.22.47-1.41a15.65,15.65,0,0,1,2.71-.14,7.53,7.53,0,0,1,3,.48,5.35,5.35,0,0,1,1.79,1.75c2.37,3.79,4.58,7.32,6.6,10.58,2.4,3.43,4.63,5.76,6.7,7a14.37,14.37,0,0,0,7.3,1.84,8.65,8.65,0,0,0,3-.37c.34-.41.31-.72-.07-1a7.94,7.94,0,0,1-4.67-2q-6.17-5.53-13.64-18.56c-.13-.35-.24-.65-.33-.92a.78.78,0,0,1,0-.78,11.74,11.74,0,0,0,2.84-1.56,10.45,10.45,0,0,0,2.72-2.38,11.4,11.4,0,0,0,2.9-7.87,11.71,11.71,0,0,0-1.56-6.21,10.44,10.44,0,0,0-4.07-3.65,15,15,0,0,0-5.21-1.68,51,51,0,0,0-6.15-.36q-9.74,0-15.15.56a.87.87,0,0,0-.44.79,1.15,1.15,0,0,0,.34.88l2.19.29A2.52,2.52,0,0,1,135.65,81a28.55,28.55,0,0,1,.41,6.59Zm5.72-31.67a2,2,0,0,1,.71-1.9,10.47,10.47,0,0,1,3.68-.36c3.76,0,6.51,1.14,8.22,3.25A12,12,0,0,1,157,89.72a13.42,13.42,0,0,1-1,5.58,8.41,8.41,0,0,1-2.43,3.18,7.79,7.79,0,0,1-3.23,1.49,19.72,19.72,0,0,1-3.72.35c-3.13,0-4.67-.12-4.64-.35a5.93,5.93,0,0,1-.2-2.35Z"/><path class="cls-1" d="M95.3,112.18a13.93,13.93,0,0,0-.41-4.19,2.29,2.29,0,0,0-2.15-1.72l-.95-.13a1.3,1.3,0,0,1-.37-.92.9.9,0,0,1,.42-.76c1.94.13,4,.2,6.37.2q5.66,0,8.58-.2c.2.08.31.32.31.75a1.17,1.17,0,0,1-.31.91l-2.61.36c-1.78.09-2.91.53-3.39,1.31s-.5,2.64-.47,5.52v2.83a21.69,21.69,0,0,0,.12,2.61,3.71,3.71,0,0,0,.46,1.42c.68,1.35,2.87,2.06,6.57,2.1q8.91-.13,13.34-7c3-4.48,4.47-10.19,4.47-17.09a24.63,24.63,0,0,0-4-14.15q-4-6-12.6-6.13A13.23,13.23,0,0,0,100.79,80q-3.15,2.25-4.4,7.9a1.08,1.08,0,0,1-.91.21c-.39,0-.63-.14-.7-.41a81.41,81.41,0,0,0,.87-10.1,4.73,4.73,0,0,0,1.64-.22c.73-.14,1.42-.29,2.07-.46,1.32-.62,3.84-1,7.56-1.08A26.34,26.34,0,0,1,118.21,78a18.56,18.56,0,0,1,4.19,2.6A21.41,21.41,0,0,1,125.84,84a26.83,26.83,0,0,1,5.38,16.65,23.79,23.79,0,0,1-5.5,15.9,20.5,20.5,0,0,1-8.22,5.89,26,26,0,0,1-10,1.91,39.74,39.74,0,0,1-10.69-1.74,13.17,13.17,0,0,0-2.91-.63.59.59,0,0,1-.06-.83c1-.52,1.45-2.21,1.42-5Z"/><path class="cls-1" d="M60,112.74q0,5.36-.61,7c-.51,1.13-1.71,1.74-3.61,1.83l-2.24.2a1,1,0,0,0-.23.89.93.93,0,0,0,.37.79q5.47-.21,9.26-.21H69c6.06,0,12.17.07,18.29.21a34.75,34.75,0,0,0,1.8-4.68c.59-2.06,1-3.75,1.28-5.07a1.23,1.23,0,0,0-.74-.67,1,1,0,0,0-1,.19c-1.86,3.77-3.46,6.06-4.82,6.85a7.72,7.72,0,0,1-2.85.76,40,40,0,0,1-5.83.32,20.69,20.69,0,0,1-6-.58A4.36,4.36,0,0,1,67,119.5c-.91-1.17-1.33-3.61-1.3-7.32v-9.87c0-.89.1-1.45.4-1.69a4.33,4.33,0,0,1,1.86-.23h3.91a23.63,23.63,0,0,1,5.24.37,2.22,2.22,0,0,1,1.5.88,5.56,5.56,0,0,1,.63,1.74l.6,2.73a1.58,1.58,0,0,0,1,.3,1,1,0,0,0,.8-.37q-.19-2.69-.26-6.73c.08-2.85.18-5.22.26-7.09a.91.91,0,0,0-.8-.41,1.43,1.43,0,0,0-1,.34L79.29,95a4.26,4.26,0,0,1-.63,1.75,2.1,2.1,0,0,1-1,.69,22.71,22.71,0,0,1-5.78.45H67.94c-1,0-1.61,0-1.86-.28s-.43-.78-.4-1.71V81.87A5.66,5.66,0,0,1,66,79.4c.22-.24.81-.35,1.77-.35h4.89a37.39,37.39,0,0,1,6.61.42,5.51,5.51,0,0,1,3.59,2.42,16.18,16.18,0,0,1,1.55,4.33,1.13,1.13,0,0,0,.9.2.94.94,0,0,0,.8-.34c-.14-1.68-.3-3.48-.47-5.4A22.06,22.06,0,0,0,85,76.74a21,21,0,0,1-3.22.14q-2.66.08-6,.07H62.91q-3.9,0-8-.21c-.25.1-.37.35-.37.78a1.12,1.12,0,0,0,.21,1l1.08.17c2,.09,3.16.7,3.63,1.82s.57,3.45.54,7Z"/><path class="cls-1" d="M46.32,94.49c0-1.86,0-4.36.14-7.52,0-1.48.13-2.88.27-4.15A9.4,9.4,0,0,1,47.36,80c.31-.62,1.58-1.11,3.8-1.49l1-.16A1,1,0,0,0,52,76.74q-3,.21-7,.21-3.61,0-8-.21c-.27.08-.41.34-.41.75a1.62,1.62,0,0,0,.27.9l1.17.18a13.13,13.13,0,0,1,3,.55,1.75,1.75,0,0,1,1.24.85,6.78,6.78,0,0,1,.83,2.65,29.38,29.38,0,0,1,.4,4.16c.09,3.18.14,5.77.14,7.73v16.91a2.84,2.84,0,0,1-.27,1.14H43.2Q38.63,107.76,32,99.84L25.37,92.2l-6-7.37c-1.28-1.6-2.43-3.12-3.42-4.56-.48-.71-.9-1.39-1.27-2.06a7.37,7.37,0,0,1-.9-1.47,21.27,21.27,0,0,1-3.12.21c-1.72,0-4.29,0-7.7-.21a.75.75,0,0,0-.4.75,1.47,1.47,0,0,0,.27.9L4,78.57a7.14,7.14,0,0,1,4.22,1.68,4.77,4.77,0,0,1,1.35,2.3,23.61,23.61,0,0,1,.14,2.75v27.88c0,1.47-.14,2.8-.26,4a10,10,0,0,1-.64,3c-.35.8-1.35,1.27-3,1.41l-1.82.2a1,1,0,0,0-.2.82,1.09,1.09,0,0,0,.34.86q3.17-.2,7.05-.2c2.39,0,5.05.07,7.93.2a1.18,1.18,0,0,0,.13-1.68l-2.13-.2c-1.77-.14-2.93-.6-3.46-1.36a10.78,10.78,0,0,1-.63-2.77c-.14-1.27-.24-2.66-.34-4.18-.17-3.23-.26-5.77-.26-7.65V90.35a21.83,21.83,0,0,1,.33-4.6h.13c2.47,2.86,5.1,6,7.92,9.5l15.79,18.52q4.41,5,6.31,7.37c1.24,1.58,2,2.65,2.4,3.22.72,0,1.16-.3,1.3-.78q-.16-1.81-.16-6.11c0-2.81-.08-4.87-.08-6.17Z"/></g></g></svg>