<svg xmlns="http://www.w3.org/2000/svg" viewBox="0 0 281.89 161.82"><defs><style>.cls-1,.cls-2{fill:#221e20;}.cls-1{fill-rule:evenodd;}</style></defs><g id="Capa_2" data-name="Capa 2"><g id="Capa_1-2" data-name="Capa 1"><path class="cls-1" d="M21.82,118.86l-2.71,5.6-.47-.28c0-.12,0-.22,0-.29,0-.39-.32-.81-1-1.27a11.52,11.52,0,0,0-7-2.16,9.8,9.8,0,0,0-3.11.45A3.82,3.82,0,0,0,6,122a2.27,2.27,0,0,0-.6,1.52A1.85,1.85,0,0,0,7,125.3a21.86,21.86,0,0,0,3.43.52l2.62.29a19.33,19.33,0,0,1,3.76.72,8.5,8.5,0,0,1,2.56,1.26,5.87,5.87,0,0,1,1.78,2.25,7.14,7.14,0,0,1-.89,7.44,8.25,8.25,0,0,1-4.34,2.64,17,17,0,0,1-4.71.64,19.33,19.33,0,0,1-8.91-2.27,3.94,3.94,0,0,0-1.11-.45,1.34,1.34,0,0,0-.68.38L0,138.46l2.46-5.84.48.25v.23a1.9,1.9,0,0,0,.72,1.43A8.81,8.81,0,0,0,7,136.28a13.8,13.8,0,0,0,4.29.73,8.44,8.44,0,0,0,3.78-.78,3.71,3.71,0,0,0,1.37-1.16,2.53,2.53,0,0,0,.52-1.51,1.74,1.74,0,0,0-1.21-1.69,15.94,15.94,0,0,0-3.43-.64L9.77,131a31.8,31.8,0,0,1-3.65-.53A9.29,9.29,0,0,1,4,129.61a5.67,5.67,0,0,1-2.38-2.35A6.58,6.58,0,0,1,.83,124a6.76,6.76,0,0,1,2-5c1.73-1.73,4.32-2.59,7.79-2.59a16.74,16.74,0,0,1,4.05.46,30.7,30.7,0,0,1,4.71,1.7,5.21,5.21,0,0,0,1.18.4,1.36,1.36,0,0,0,.81-.4ZM39,135.76H30.38l-1,2.12a3.32,3.32,0,0,0-.35,1.2c0,.57.35.93,1.07,1.07v.49H23.27v-.49a1.74,1.74,0,0,0,.94-.4,4.72,4.72,0,0,0,.72-1.16l6.8-14.44a3.39,3.39,0,0,0,.39-1.43q0-.7-.93-1.11v-.48h7.24v.48a1.25,1.25,0,0,0-.91,1.19,3.11,3.11,0,0,0,.42,1.4l7.05,14a7.67,7.67,0,0,0,.91,1.48,1.91,1.91,0,0,0,1,.47v.49H39.31v-.49c.73-.12,1.08-.48,1.08-1.05a3.09,3.09,0,0,0-.41-1.34ZM37.61,133l-3-6.28L31.65,133ZM54,137.1H64.43a1.16,1.16,0,0,0,.8-.24,1.88,1.88,0,0,0,.45-.89h.45v5.79h-.45a1.84,1.84,0,0,0-.44-.87,1.16,1.16,0,0,0-.81-.25h-16v-.49a1.55,1.55,0,0,0,.82-.45,1.23,1.23,0,0,0,.25-.83v-16a1.23,1.23,0,0,0-.24-.82,1.7,1.7,0,0,0-.83-.47v-.48h6.59v.48a1.69,1.69,0,0,0-.83.46,1.28,1.28,0,0,0-.23.83Zm21.19-2.61-4.47-10.35a4.23,4.23,0,0,1-.42-1.33c0-.57.36-1,1.07-1.2v-.48H63.89v.48a2.34,2.34,0,0,1,1,.54,6.81,6.81,0,0,1,.76,1.37l6.52,14.38a3.31,3.31,0,0,1,.35,1.17c0,.59-.36,1-1.08,1.1v.47h7.31v-.47c-.73-.15-1.11-.51-1.11-1.1A3.17,3.17,0,0,1,78,137.9l6.52-14.38a5.82,5.82,0,0,1,.77-1.35,2.27,2.27,0,0,1,1-.56v-.48H79v.48q1.08.33,1.08,1.2a3.68,3.68,0,0,1-.4,1.33Zm24.24,1.27H90.86l-1,2.12a3.25,3.25,0,0,0-.34,1.2c0,.57.35.93,1.06,1.07v.49H83.75v-.49a1.74,1.74,0,0,0,.94-.4,4.44,4.44,0,0,0,.72-1.16l6.81-14.44a3.39,3.39,0,0,0,.39-1.43q0-.7-.93-1.11v-.48h7.24v.48A1.26,1.26,0,0,0,98,122.8a3.11,3.11,0,0,0,.42,1.4l7,14a7.56,7.56,0,0,0,.92,1.48,1.87,1.87,0,0,0,1,.47v.49H99.8v-.49c.72-.12,1.08-.48,1.08-1.05a3,3,0,0,0-.42-1.34ZM98.09,133l-3-6.28L92.14,133ZM110,138.87v-16a1.29,1.29,0,0,0-.23-.82,1.73,1.73,0,0,0-.84-.47v-.48h10.94a13.31,13.31,0,0,1,5.37.88,7.66,7.66,0,0,1,4,4.15,12.28,12.28,0,0,1,.84,4.72c0,3.34-1,5.86-2.85,7.58a7.77,7.77,0,0,1-3,1.67,15.62,15.62,0,0,1-4.33.51H109v-.49a1.55,1.55,0,0,0,.82-.45A1.23,1.23,0,0,0,110,138.87Zm4.46-1.77h4.76c2.19,0,3.77-.52,4.76-1.56a7.77,7.77,0,0,0,0-9.31,4.71,4.71,0,0,0-1.89-1.2,9.35,9.35,0,0,0-2.87-.37h-4.76Zm29-16.39a11.46,11.46,0,0,1,7.4,2.37,9.63,9.63,0,0,1,3.55,8,9.31,9.31,0,0,1-3.55,7.65,12.64,12.64,0,0,1-14.74,0,9.46,9.46,0,0,1-3.56-7.81,9.35,9.35,0,0,1,3.56-7.8A11.65,11.65,0,0,1,143.43,120.71Zm0,3.69a6.12,6.12,0,0,0-4.69,1.93,6.94,6.94,0,0,0,0,9.08,6.6,6.6,0,0,0,9.39,0,6.23,6.23,0,0,0,1.68-4.44,6.45,6.45,0,0,0-1.68-4.64A6.35,6.35,0,0,0,143.45,124.4Zm19.32,8.23v6.22a1.34,1.34,0,0,0,.23.83,1.73,1.73,0,0,0,.84.47v.49h-6.6v-.49a1.55,1.55,0,0,0,.83-.45,1.28,1.28,0,0,0,.24-.83v-16a1.29,1.29,0,0,0-.23-.82,1.69,1.69,0,0,0-.84-.47v-.48h12.22a19.71,19.71,0,0,1,3.63.24,6.23,6.23,0,0,1,2.23.92,5.07,5.07,0,0,1,2,4.5,5.19,5.19,0,0,1-1.24,3.7,7.36,7.36,0,0,1-4,1.93l3.52,5.15a11.41,11.41,0,0,0,1.55,1.93,2.67,2.67,0,0,0,1.3.65v.49h-7.83v-.49q.87-.24.87-.78a2.43,2.43,0,0,0-.54-1.16l-3.72-5.58Zm0-3.54h6.72a5.54,5.54,0,0,0,2.26-.35,1.85,1.85,0,0,0,1-1.87,1.9,1.9,0,0,0-.73-1.72,4.82,4.82,0,0,0-2.57-.49h-6.72Zm32.84,1.9v7.84a1.15,1.15,0,0,0,.25.8,1.55,1.55,0,0,0,.82.45v.56h-7.1v-.56a1.68,1.68,0,0,0,.84-.45,1.25,1.25,0,0,0,.23-.8V118.69a1.28,1.28,0,0,0-.23-.83,1.76,1.76,0,0,0-.84-.45v-.56h14.19a17.07,17.07,0,0,1,3.94.36,6.66,6.66,0,0,1,2.57,1.19,6,6,0,0,1,1.8,2.34,7.93,7.93,0,0,1,.64,3.18,7.34,7.34,0,0,1-1.23,4.21,5.78,5.78,0,0,1-2.82,2.2,14.41,14.41,0,0,1-4.9.66Zm0-3.93h7.57a7.1,7.1,0,0,0,3.19-.5,2.35,2.35,0,0,0,.93-1,3.57,3.57,0,0,0,.36-1.59,3.51,3.51,0,0,0-.36-1.59,2.43,2.43,0,0,0-.93-1.06,7.19,7.19,0,0,0-3.19-.5h-7.57Zm31.39,8.7,1,2a3,3,0,0,1,.42,1.34c0,.57-.36.93-1.08,1.05v.49H235v-.49a1.87,1.87,0,0,1-1-.47,7.56,7.56,0,0,1-.92-1.48l-7.05-14a3.24,3.24,0,0,1-.42-1.4,1.26,1.26,0,0,1,.92-1.19v-.48h-7.24v.48q.93.4.93,1.11a3.39,3.39,0,0,1-.39,1.43L213,138.59a4.47,4.47,0,0,1-.71,1.16,1.81,1.81,0,0,1-.95.4v.49h6.87v-.49c-.72-.14-1.07-.5-1.07-1.07a3.25,3.25,0,0,1,.34-1.2l1-2.12ZM225.65,133h-6l2.91-6.28Zm21.15-8.37v14.19a1.28,1.28,0,0,0,.24.83,1.7,1.7,0,0,0,.83.47v.49h-6.6v-.49a1.59,1.59,0,0,0,.83-.45,1.28,1.28,0,0,0,.24-.83V124.66h-5.49a1.17,1.17,0,0,0-.81.25,1.76,1.76,0,0,0-.44.89h-.45V120h.45a1.76,1.76,0,0,0,.42.87,1.14,1.14,0,0,0,.81.26h15.46a1.19,1.19,0,0,0,.81-.25,1.89,1.89,0,0,0,.45-.88H254v5.8h-.44a1.84,1.84,0,0,0-.45-.89,1.19,1.19,0,0,0-.81-.25Zm19.39,0v14.19a1.34,1.34,0,0,0,.23.83,1.84,1.84,0,0,0,.84.47v.49h-6.6v-.49a1.55,1.55,0,0,0,.83-.45,1.28,1.28,0,0,0,.24-.83V124.66h-5.49a1.16,1.16,0,0,0-.8.25,1.68,1.68,0,0,0-.45.89h-.45V120H255a1.76,1.76,0,0,0,.42.87,1.16,1.16,0,0,0,.81.26h15.46a1.17,1.17,0,0,0,.81-.25,1.89,1.89,0,0,0,.45-.88h.45v5.8h-.45a1.84,1.84,0,0,0-.45-.89,1.17,1.17,0,0,0-.81-.25Zm14.64-1.76v15.95a1.28,1.28,0,0,0,.23.83,1.7,1.7,0,0,0,.83.47v.49H275.3v-.49a1.59,1.59,0,0,0,.82-.45,1.23,1.23,0,0,0,.24-.83v-16a1.23,1.23,0,0,0-.23-.82,1.7,1.7,0,0,0-.83-.47v-.48h6.59v.48a1.69,1.69,0,0,0-.83.46A1.28,1.28,0,0,0,280.83,122.9Z"/><path class="cls-1" d="M67.11,156.12a2.36,2.36,0,0,1,1.74,2.43,2.63,2.63,0,0,1-.47,1.57,2.48,2.48,0,0,1-1.25.95,7.15,7.15,0,0,1-2.24.28H59v-.24a.7.7,0,0,0,.37-.2.78.78,0,0,0,.09-.44v-8.3a.78.78,0,0,0-.09-.44.7.7,0,0,0-.37-.2v-.23h6a7.3,7.3,0,0,1,1.46.13,3.18,3.18,0,0,1,1,.47,2.41,2.41,0,0,1,1,2.09,2.24,2.24,0,0,1-1.42,2.13m-6.44-.48h3.87a11.42,11.42,0,0,0,1.23-.06,3.14,3.14,0,0,0,.76-.19,1.39,1.39,0,0,0,.65-.54,1.59,1.59,0,0,0,.24-.86,1.56,1.56,0,0,0-.42-1.1,1.75,1.75,0,0,0-.88-.5,7.49,7.49,0,0,0-1.66-.13H60.67Zm0,4.75h4a9.81,9.81,0,0,0,1.29-.06,3,3,0,0,0,.78-.21,1.54,1.54,0,0,0,.69-.62,1.79,1.79,0,0,0,.25-1,1.88,1.88,0,0,0-.43-1.23,1.79,1.79,0,0,0-.93-.57,7.15,7.15,0,0,0-1.72-.15h-4Zm15.87-9.27a6.32,6.32,0,0,1,4.28,1.39,4.78,4.78,0,0,1,1.37,1.89,5.25,5.25,0,0,1,.38,2,4.8,4.8,0,0,1-.82,2.69,5,5,0,0,1-2.49,2,7.61,7.61,0,0,1-2.7.45,6.36,6.36,0,0,1-4.27-1.39,4.93,4.93,0,0,1-1.36-1.89,4.84,4.84,0,0,1-.38-1.92,5,5,0,0,1,3.31-4.74A7.93,7.93,0,0,1,76.54,151.12Zm0,1A5,5,0,0,0,73,153.39a4.18,4.18,0,0,0,0,5.86,5.77,5.77,0,0,0,7.2,0,3.85,3.85,0,0,0,1.2-2.88,3.92,3.92,0,0,0-1.2-3,4.24,4.24,0,0,0-1.54-.94A6.4,6.4,0,0,0,76.54,152.13ZM85,160.58v-8.52a.52.52,0,0,0-.1-.33.8.8,0,0,0-.37-.2v-.23h5.3a6,6,0,0,1,2.76.5,4.09,4.09,0,0,1,1.83,1.93,5.83,5.83,0,0,1,.55,2.59,5.73,5.73,0,0,1-.73,3,4.1,4.1,0,0,1-1.7,1.59,6.65,6.65,0,0,1-2.71.48h-5.3v-.24a.8.8,0,0,0,.37-.19A.57.57,0,0,0,85,160.58Zm1.15-.19h3.63a4.51,4.51,0,0,0,2.38-.5,3.43,3.43,0,0,0,1.33-1.8,5.3,5.3,0,0,0,.28-1.77,4.54,4.54,0,0,0-.89-2.9,2.71,2.71,0,0,0-1.2-.9,5.46,5.46,0,0,0-1.9-.26H86.15Zm12.42-3.74v3.74H105a.71.71,0,0,0,.44-.1.64.64,0,0,0,.2-.37h.23v1.9h-.23a.83.83,0,0,0-.2-.38.84.84,0,0,0-.45-.09H96.93v-.24a.74.74,0,0,0,.39-.2.88.88,0,0,0,.09-.44v-8.3a.77.77,0,0,0-.1-.44.7.7,0,0,0-.38-.2v-.23h8a.68.68,0,0,0,.43-.1.7.7,0,0,0,.2-.38h.23v1.9h-.23a.57.57,0,0,0-.2-.37.76.76,0,0,0-.43-.09H98.57v3.44h4.15a.73.73,0,0,0,.43-.1.52.52,0,0,0,.2-.37h.24v1.9h-.24a.55.55,0,0,0-.2-.38.73.73,0,0,0-.43-.1Zm19.81-4.39-1.12,1.8-.2-.14a.72.72,0,0,0,.13-.32c0-.16-.26-.37-.78-.65a6.44,6.44,0,0,0-3.11-.83,4.77,4.77,0,0,0-3.11,1,3.89,3.89,0,0,0-1.45,3.18,3.81,3.81,0,0,0,1.39,3.1,4.84,4.84,0,0,0,3.25,1.07,5.77,5.77,0,0,0,2-.33,4.42,4.42,0,0,0,1.59-.91v-1.85h-2.38a.76.76,0,0,0-.43.09.68.68,0,0,0-.2.38h-.23V156H114a.64.64,0,0,0,.2.38.68.68,0,0,0,.43.1h4v.23a.83.83,0,0,0-.38.2.78.78,0,0,0-.09.44v1.3a.76.76,0,0,0,.09.43.74.74,0,0,0,.38.2v.21a9.25,9.25,0,0,1-1.57,1.15,7.28,7.28,0,0,1-3.64.9,5.92,5.92,0,0,1-4.07-1.36,5,5,0,0,1-1.22-1.61,5.29,5.29,0,0,1-.51-2.25,5,5,0,0,1,1-3,5.44,5.44,0,0,1,2.48-1.77,6.94,6.94,0,0,1,2.35-.39,7.77,7.77,0,0,1,2.05.26,10.06,10.06,0,0,1,2,.88,1.31,1.31,0,0,0,.39.18c.08,0,.2-.11.36-.31Zm9,6.27H122l-.89,1.9a1.27,1.27,0,0,0-.13.38c0,.15.15.25.44.3v.24H119.2v-.24a.77.77,0,0,0,.46-.22,3,3,0,0,0,.42-.74l3.68-7.94a1.18,1.18,0,0,0,.13-.39c0-.13-.12-.22-.36-.29v-.23H126v.23c-.24.08-.36.18-.36.31a1.61,1.61,0,0,0,.13.37l3.53,7.65a5.1,5.1,0,0,0,.52,1,1,1,0,0,0,.54.26v.24h-2.39v-.24c.29,0,.43-.15.43-.33a1.4,1.4,0,0,0-.16-.45Zm-.43-1-2.26-5-2.26,5Zm12.61-.67v3.57a.71.71,0,0,0,.1.44.7.7,0,0,0,.37.2v.24h-2.1v-.24a.74.74,0,0,0,.38-.2.77.77,0,0,0,.1-.44V156.9l-3.26-4.26a8.36,8.36,0,0,0-.72-.87,1.1,1.1,0,0,0-.51-.24v-.23h2.54v.23c-.23.06-.34.16-.34.29a1.41,1.41,0,0,0,.34.71L139,156l2.55-3.59a1.65,1.65,0,0,0,.32-.62c0-.13-.11-.22-.32-.27v-.23H144v.23a1.21,1.21,0,0,0-.62.33,8.23,8.23,0,0,0-.69.78ZM153.06,160l3.25-7.43a1.94,1.94,0,0,0,.21-.68q0-.28-.42-.39v-.23h2.27v.23a.93.93,0,0,0-.48.27,9.85,9.85,0,0,0-.48,1l-3.24,7.3a1.93,1.93,0,0,0-.18.63c0,.21.14.34.42.4v.24h-2.8v-.24c.28-.06.42-.2.42-.41a1.8,1.8,0,0,0-.19-.62l-3.3-7.52a5.21,5.21,0,0,0-.4-.77,1.08,1.08,0,0,0-.47-.26v-.23h2.4v.23c-.29.07-.43.2-.43.39a1.76,1.76,0,0,0,.19.68Zm6.93.44v-8.3a.69.69,0,0,0-.1-.44.66.66,0,0,0-.37-.2v-.23h2.1v.23a.7.7,0,0,0-.37.2.69.69,0,0,0-.1.44v8.3a.78.78,0,0,0,.09.44.7.7,0,0,0,.38.2v.24h-2.1v-.24a.7.7,0,0,0,.38-.2A.78.78,0,0,0,160,160.47Zm5.37-7.9v7.9a.8.8,0,0,0,.09.44.79.79,0,0,0,.38.2v.24h-2v-.24a.7.7,0,0,0,.38-.2.78.78,0,0,0,.09-.44v-8.3a.78.78,0,0,0-.09-.44.79.79,0,0,0-.38-.2v-.23h2.88v.23c-.23.08-.35.2-.35.34a1.33,1.33,0,0,0,.35.55l6.06,7.08v-7.33a.77.77,0,0,0-.1-.44.74.74,0,0,0-.38-.2v-.23h2v.23a.74.74,0,0,0-.38.2.77.77,0,0,0-.1.44v8.3a.77.77,0,0,0,.1.44.74.74,0,0,0,.38.2v.24H172v-.24c.23-.06.35-.16.35-.3a1.08,1.08,0,0,0-.32-.53Zm5.3-4,1,.62-.1.17a.32.32,0,0,0-.16,0c-.06,0-.12,0-.19.14a1.27,1.27,0,0,1-1,.69,1.71,1.71,0,0,1-.57-.1l-1.06-.39a.72.72,0,0,0-.29-.06.47.47,0,0,0-.29.12.33.33,0,0,0-.13.25.27.27,0,0,0,.09.21l-.11.13-1-.66.09-.13.16,0c.09,0,.17-.06.26-.17a1.27,1.27,0,0,1,1.09-.62,1.46,1.46,0,0,1,.43.08l1.05.41a1.12,1.12,0,0,0,.35.06.4.4,0,0,0,.28-.11.34.34,0,0,0,.13-.25.33.33,0,0,0-.12-.23Zm7.48,8.06v3.74h6.44a.71.71,0,0,0,.44-.1.7.7,0,0,0,.19-.37h.24v1.9h-.24a.74.74,0,0,0-.2-.38.8.8,0,0,0-.44-.09h-8.06v-.24a.7.7,0,0,0,.38-.2.78.78,0,0,0,.09-.44v-8.3a.78.78,0,0,0-.09-.44.79.79,0,0,0-.38-.2v-.23h8a.71.71,0,0,0,.44-.1.7.7,0,0,0,.2-.38h.23v1.9h-.23a.68.68,0,0,0-.2-.37.8.8,0,0,0-.44-.09h-6.34v3.44h4.16a.75.75,0,0,0,.43-.1.56.56,0,0,0,.2-.37h.24v1.9h-.24a.59.59,0,0,0-.2-.38.75.75,0,0,0-.43-.1Zm9.69,3.93v-8.52a.43.43,0,0,0-.11-.33.71.71,0,0,0-.36-.2v-.23h5.3a6,6,0,0,1,2.76.5,4.16,4.16,0,0,1,1.84,1.93,5.83,5.83,0,0,1,.55,2.59,5.73,5.73,0,0,1-.74,3,4.1,4.1,0,0,1-1.7,1.59,6.65,6.65,0,0,1-2.71.48h-5.3v-.24a.71.71,0,0,0,.36-.19A.47.47,0,0,0,187.83,160.58Zm1.16-.19h3.63a4.5,4.5,0,0,0,2.37-.5,3.38,3.38,0,0,0,1.33-1.8,5.3,5.3,0,0,0,.28-1.77,4.59,4.59,0,0,0-.88-2.9,2.77,2.77,0,0,0-1.2-.9,5.54,5.54,0,0,0-1.9-.26H189Zm16.52-9.27a6.35,6.35,0,0,1,4.28,1.39,4.78,4.78,0,0,1,1.37,1.89,5.06,5.06,0,0,1,.38,2,4.88,4.88,0,0,1-.82,2.69,5.09,5.09,0,0,1-2.49,2,7.65,7.65,0,0,1-2.7.45,6.36,6.36,0,0,1-4.27-1.39,4.95,4.95,0,0,1-1.74-3.81,5,5,0,0,1,3.31-4.74A7.93,7.93,0,0,1,205.51,151.12Zm0,1a5,5,0,0,0-3.57,1.26,4.13,4.13,0,0,0,0,5.86,5.76,5.76,0,0,0,7.19,0,3.85,3.85,0,0,0,1.2-2.88,3.92,3.92,0,0,0-1.2-3,4.24,4.24,0,0,0-1.54-.94A6.35,6.35,0,0,0,205.51,152.13Zm17.42-.21-1.06,1.89-.2-.11a2,2,0,0,0,.13-.41c0-.14-.19-.3-.55-.48a7.33,7.33,0,0,0-3.13-.69,5.19,5.19,0,0,0-2.38.51,2.14,2.14,0,0,0-.77.65,1.41,1.41,0,0,0-.28.84,1.25,1.25,0,0,0,.22.7,1.37,1.37,0,0,0,.58.48,3.07,3.07,0,0,0,.94.25,17.23,17.23,0,0,0,1.76.11c1.13,0,1.94.09,2.42.16a3.54,3.54,0,0,1,1.2.37,2.27,2.27,0,0,1,1.25,2.13,2.69,2.69,0,0,1-1.13,2.23,5.53,5.53,0,0,1-3.47,1,8.65,8.65,0,0,1-2.22-.25,12.51,12.51,0,0,1-2.27-1,1.68,1.68,0,0,0-.43-.16c-.07,0-.19.09-.35.26l-.19-.13,1.1-1.84.21.11a1.11,1.11,0,0,0-.14.41c0,.15.31.39.94.72a7.56,7.56,0,0,0,1.63.63,6.55,6.55,0,0,0,1.7.2,4.32,4.32,0,0,0,2.83-.81,1.66,1.66,0,0,0,.64-1.3,1.39,1.39,0,0,0-1.1-1.36,2.65,2.65,0,0,0-.73-.16c-.25,0-1,0-2.15-.1a13.8,13.8,0,0,1-2-.19,4.34,4.34,0,0,1-1.27-.46,2.11,2.11,0,0,1-.83-.82,2.31,2.31,0,0,1-.31-1.16,2.48,2.48,0,0,1,.79-1.83,4.27,4.27,0,0,1,1.63-.88,7.8,7.8,0,0,1,2.28-.32,8.44,8.44,0,0,1,1.87.2,11,11,0,0,1,2,.68,1.06,1.06,0,0,0,.3.1c.09,0,.2-.09.36-.29Z"/><path class="cls-2" d="M170,33.13l-33.11-16.2L103.1,33.13c-3.52,59.18,33.81,69,33.81,69s36.64-9.86,33.11-69M136.88,98s-33.66-8.9-30.49-62.25l30.49-14.6,29.85,14.6C169.91,89.08,136.88,98,136.88,98Z"/><path class="cls-2" d="M136.86,96.19h0c-.08,0-8.12-2.22-15.67-10.6-7-7.72-14.94-22.43-13.38-48.65v-.09l.09,0,29-13.9.07,0,28.42,13.91v.09c1.56,26.22-6.25,40.93-13.08,48.65C144.87,94,137,96.16,136.91,96.18ZM108.07,37c-1.53,26,6.38,40.65,13.3,48.32,7.21,8,14.87,10.32,15.49,10.5.62-.18,8.13-2.5,15.2-10.5,6.77-7.67,14.52-22.28,13-48.32L136.86,23.25Z"/><path class="cls-2" d="M137,61.34H111.17l-.08-.14C111,61,108,55.68,109.4,38.12V38l.14-.07L137,24.3Zm-25.52-.55h25V25.19L109.94,38.32C108.73,54,111.06,59.85,111.5,60.79Z"/><path class="cls-2" d="M136.74,94.66V61.89H137l25,0,0,.33a43.43,43.43,0,0,1-24.9,32.34Zm.56-32.22v31.4A42.93,42.93,0,0,0,161.41,62.4Z"/><path class="cls-2" d="M84.23,44.11s4.21-10.08.06-12.52a5.2,5.2,0,0,1,3.24,1.55s-1.69-2.48-.64-4.59c0,0,9.64,6.14-2.66,15.56"/><path class="cls-2" d="M123.52,100.53s-9.73-4.94-12.48-1a5.18,5.18,0,0,1,1.79-3.11s-2.6,1.51-4.63.3c0,0,6.85-9.16,15.32,3.8"/><path class="cls-2" d="M102.91,71.46s-18.24-7.86-22.76-.37c0,0,.41-4,2.88-5.85,0,0-4.54,3-8.35,1.08,0,0,11.36-17.41,28.23,5.14"/><path class="cls-2" d="M110.14,91S102.84,83.2,99,85.92a5.06,5.06,0,0,1,2.68-2.26s-2.89.51-4.35-1.27c0,0,9.36-6.13,12.81,8.62"/><path class="cls-2" d="M114.24,94.05s-5.33-9.26-1.6-12.14a5.11,5.11,0,0,0-3,1.9s1.33-2.61.06-4.53c0,0-8.6,7.15,4.49,14.77"/><path class="cls-2" d="M103,29.66s7.7-7.41,11.39-4.49a5.08,5.08,0,0,0-2.56-2.4s2.86.66,4.41-1c0,0-9-6.61-13.24,7.93"/><path class="cls-2" d="M92,11.7c-1.32,1.69,0,1.8,0,1.8a4.3,4.3,0,0,1,4.11-1.17c-1.37.39-.13,1.85-.13,1.85,8.38,4,6.61,11.12,6.61,11.12-1.64-5.78-4.9-5.68-4.9-5.68a8.38,8.38,0,0,1-1.49,7.5c-.43-1.53-2.59-.42-2.59-.42,3.39,5-5.89,15.16-5.89,15.16,5.2-2,19.58-8.68,18.29-22.47S93.31,10,92,11.7m9.16,16.46a3.77,3.77,0,0,1-.24.84,4.88,4.88,0,0,1-.44,1.06,9.5,9.5,0,0,1-.67,1.18,12,12,0,0,1-.87,1.23,24.39,24.39,0,0,1-2.17,2.43c-.79.78-1.62,1.51-2.42,2.16s-1.58,1.23-2.27,1.69-1.28.81-1.69,1.07-.66.37-.66.37l2-1.87,2.06-1.89,1.06-1,.4-.56c.33-.48.73-1,1.11-1.63s.78-1.27,1.14-1.94c.17-.34.35-.68.5-1s.32-.67.42-1,.26-.66.33-1,.2-.62.24-.9.11-.54.16-.77,0-.43.07-.6c0-.34.07-.54.07-.54s0,.19.07.54a6.91,6.91,0,0,1,0,1.43,9.12,9.12,0,0,1-.13,1A9.31,9.31,0,0,1,99,29.48a13.67,13.67,0,0,1-.89,2.16c-.27.48-.56,1-.86,1.39.35-.37.7-.72,1-1.09A21.82,21.82,0,0,0,100,29.79a8.75,8.75,0,0,0,.59-.93,3.67,3.67,0,0,0,.39-.76c.17-.44.29-.69.29-.69S101.23,27.67,101.14,28.16Zm3.43-8.67c0,.18.07.36.1.54s0,.35,0,.52a8.79,8.79,0,0,1,0,.89c0,.26-.07.49-.1.68,0,.38-.09.59-.09.59s0-.22,0-.6c0-.18,0-.41,0-.67s-.09-.54-.13-.85a5.82,5.82,0,0,0-.23-1,6.57,6.57,0,0,0-.35-1.06c-.08-.18-.15-.36-.22-.55s-.19-.35-.28-.54a7.55,7.55,0,0,0-.64-1.05,12.3,12.3,0,0,0-.74-1c-.28-.29-.53-.62-.81-.89-.55-.56-1.11-1-1.6-1.45a18.38,18.38,0,0,0-1.72-1.26,9.63,9.63,0,0,1,2,.93,12.47,12.47,0,0,1,1.79,1.33c.31.27.6.58.9.9a12,12,0,0,1,.81,1,8.65,8.65,0,0,1,.66,1.14c.09.2.19.39.28.59s.13.4.2.6A5.59,5.59,0,0,1,104.57,19.49Z"/><path class="cls-2" d="M99.14,41.42A9,9,0,0,1,101.32,39s-4.41-1.63-10.52,2.66c0,0-7.08,6-2.91,14.07S98.73,62.55,98.4,62c0,0-14-5.89-7.73-13,4.23-4.82,8.21.22,8.22.55,0,0,2-1.23.1-4.72,0,0,1.8-1.33,2.71-.44a4.08,4.08,0,0,0-2.56-2.93m-3.68.8a2.4,2.4,0,0,0-.57.05c-.21.07-.45.11-.7.19s-.51.21-.77.36a6.52,6.52,0,0,0-.78.55,6.86,6.86,0,0,0-.76.68,8.91,8.91,0,0,0-.7.8c-.47.55-.86,1.16-1.25,1.72s-.69,1.13-1,1.61c-.55,1-.9,1.62-.9,1.62A12.67,12.67,0,0,1,88.6,48a15.06,15.06,0,0,1,.79-1.75,13.07,13.07,0,0,1,1.24-1.86,7.57,7.57,0,0,1,.77-.83,6.35,6.35,0,0,1,.86-.71,6.52,6.52,0,0,1,.92-.52,9.18,9.18,0,0,1,.9-.28,5.77,5.77,0,0,1,.79-.05,2.1,2.1,0,0,1,.6.07l.5.11Z"/><path class="cls-2" d="M89.1,85.23c-.9-.9.42-2.71.42-2.71,3.51,1.86,4.71-.14,4.71-.14-.32,0-5.39-3.95-.61-8.21,7.09-6.32,13.09,7.62,13.09,7.62.57.32,1.66-6.36-6.4-10.46s-14,3-14,3C82,80.5,83.7,84.9,83.7,84.9a8.91,8.91,0,0,1,2.44-2.2,4.07,4.07,0,0,0,3,2.53m-2.2-5.71s-.05-.18-.12-.5a2,2,0,0,1-.08-.6,5.77,5.77,0,0,1,0-.79,7.49,7.49,0,0,1,.27-.9,5.59,5.59,0,0,1,.51-.92,6.35,6.35,0,0,1,.7-.87,7.66,7.66,0,0,1,.83-.78,13,13,0,0,1,1.84-1.25,16.28,16.28,0,0,1,1.75-.81,11.69,11.69,0,0,1,1.79-.54s-.66.35-1.61.91c-.48.27-1,.61-1.6,1a17.83,17.83,0,0,0-1.72,1.25,7.76,7.76,0,0,0-.79.72,6.86,6.86,0,0,0-.68.76,6.42,6.42,0,0,0-.54.78c-.15.26-.24.53-.35.77s-.12.5-.18.71a1.67,1.67,0,0,0,0,.57C86.91,79.33,86.9,79.52,86.9,79.52Z"/><path class="cls-2" d="M189.91,44.11s-4.22-10.08-.07-12.52a5.19,5.19,0,0,0-3.23,1.55s1.69-2.48.64-4.59c0,0-9.64,6.14,2.66,15.56"/><path class="cls-2" d="M150.61,100.53s9.74-4.94,12.49-1a5.24,5.24,0,0,0-1.79-3.11s2.6,1.51,4.62.3c0,0-6.84-9.16-15.32,3.8"/><path class="cls-2" d="M171.23,71.46s18.23-7.86,22.76-.37c0,0-.41-4-2.88-5.85,0,0,4.54,3,8.35,1.08,0,0-11.36-17.41-28.23,5.14"/><path class="cls-2" d="M164,91s7.29-7.81,11.14-5.09a5.05,5.05,0,0,0-2.69-2.26s2.9.51,4.35-1.27c0,0-9.35-6.13-12.8,8.62"/><path class="cls-2" d="M159.9,94.05s5.33-9.26,1.6-12.14a5.11,5.11,0,0,1,2.95,1.9s-1.34-2.61-.06-4.53c0,0,8.6,7.15-4.49,14.77"/><path class="cls-2" d="M171.18,29.66s-7.7-7.41-11.39-4.49a5.08,5.08,0,0,1,2.56-2.4s-2.86.66-4.42-1c0,0,9-6.61,13.25,7.93"/><path class="cls-2" d="M168.12,19.39c-1.28,13.79,13.1,20.5,18.3,22.47,0,0-9.28-10.2-5.9-15.16,0,0-2.15-1.11-2.58.42a8.35,8.35,0,0,1-1.49-7.5s-3.26-.1-4.9,5.68c0,0-1.78-7.09,6.61-11.12,0,0,1.23-1.46-.14-1.85a4.3,4.3,0,0,1,4.11,1.17s1.35-.11,0-1.8-12.74-6.09-14,7.69m4.76,8s.12.26.29.7a3.67,3.67,0,0,0,.39.76,8.75,8.75,0,0,0,.59.93,20.44,20.44,0,0,0,1.72,2.15c.3.37.66.72,1,1.09-.3-.44-.59-.9-.86-1.39a12.79,12.79,0,0,1-.89-2.16,7.56,7.56,0,0,1-.25-1.05,7.43,7.43,0,0,1-.09-2.4c0-.34.07-.53.07-.53s0,.2.07.54a5.3,5.3,0,0,0,.07.6c.05.23.1.49.15.77s.17.58.24.9.23.63.34,1,.29.66.42,1,.33.68.5,1c.36.67.74,1.33,1.14,1.94s.77,1.15,1.11,1.63c.14.2.27.39.4.56l1.06,1,2,1.89,2,1.87-.67-.37c-.41-.26-1-.6-1.68-1.07s-1.46-1-2.27-1.69-1.63-1.38-2.42-2.16a24.39,24.39,0,0,1-2.17-2.43,10.65,10.65,0,0,1-.87-1.23,8.38,8.38,0,0,1-.67-1.18,4.88,4.88,0,0,1-.44-1.06,3.3,3.3,0,0,1-.24-.84C172.91,27.67,172.88,27.4,172.88,27.4Zm-3-9.07c.07-.2.13-.4.2-.6s.18-.39.28-.59A8.65,8.65,0,0,1,171,16c.24-.38.54-.7.8-1s.59-.63.9-.9a12,12,0,0,1,1.8-1.33,10,10,0,0,1,2-.93,17,17,0,0,0-1.73,1.26,20,20,0,0,0-1.59,1.45c-.29.27-.53.6-.81.89s-.53.64-.74,1a7.66,7.66,0,0,0-.64,1.06l-.28.53-.22.55a7,7,0,0,0-.36,1.06,6.59,6.59,0,0,0-.22,1c0,.31-.11.6-.13.85s0,.49,0,.67c0,.38,0,.59,0,.59s0-.21-.1-.58c0-.19-.05-.42-.09-.68a6.74,6.74,0,0,1,0-.9c0-.16,0-.33,0-.51l.09-.54A5.63,5.63,0,0,1,169.85,18.33Z"/><path class="cls-2" d="M172.44,44.35c.91-.89,2.71.44,2.71.44-1.9,3.49.1,4.72.1,4.72,0-.33,4-5.37,8.21-.55,6.27,7.14-7.72,13-7.72,13-.33.57,6.33,1.72,10.51-6.3s-2.92-14.08-2.92-14.08c-6.1-4.28-10.51-2.65-10.51-2.65A9.16,9.16,0,0,1,175,41.42a4.06,4.06,0,0,0-2.56,2.93m5.73-2.16.5-.11a2.06,2.06,0,0,1,.6-.07,5.77,5.77,0,0,1,.79.05,8.43,8.43,0,0,1,.9.29,6,6,0,0,1,.91.51,5.79,5.79,0,0,1,.86.71,6.79,6.79,0,0,1,.78.83,11.72,11.72,0,0,1,1.23,1.86,15.24,15.24,0,0,1,.8,1.75,11.7,11.7,0,0,1,.52,1.79s-.34-.66-.89-1.62c-.27-.48-.61-1-1-1.61A19,19,0,0,0,183,44.85a6.67,6.67,0,0,0-.71-.79,7,7,0,0,0-.75-.7,7.78,7.78,0,0,0-.78-.54c-.26-.15-.53-.24-.77-.36s-.49-.12-.7-.19a2.44,2.44,0,0,0-.57-.05Z"/><path class="cls-2" d="M188,82.7a8.87,8.87,0,0,1,2.45,2.2s1.67-4.4-2.57-10.54c0,0-6-7.14-14-3s-7,10.78-6.4,10.46c0,0,6-13.94,13.09-7.62,4.78,4.26-.29,8.2-.62,8.21,0,0,1.21,2,4.72.14,0,0,1.32,1.81.42,2.71a4.06,4.06,0,0,0,3-2.53M187.22,79a2.4,2.4,0,0,0-.05-.57c-.06-.21-.1-.45-.18-.71s-.21-.51-.36-.77a6.32,6.32,0,0,0-.53-.78,7,7,0,0,0-.69-.76,7.76,7.76,0,0,0-.79-.72,17.72,17.72,0,0,0-1.71-1.25c-.57-.37-1.12-.71-1.6-1-.95-.56-1.61-.91-1.61-.91a12.07,12.07,0,0,1,1.79.54,15.34,15.34,0,0,1,1.74.81,12.53,12.53,0,0,1,1.85,1.25,8.71,8.71,0,0,1,.83.78,5.61,5.61,0,0,1,.69.87,4.94,4.94,0,0,1,.51.92,6.12,6.12,0,0,1,.28.9c.05.29,0,.56.05.79a2.42,2.42,0,0,1-.08.6c-.07.32-.12.5-.12.5S187.23,79.33,187.22,79Z"/><path class="cls-1" d="M131.16,40l-1.73,3.58-.3-.18c0-.08,0-.13,0-.18,0-.25-.2-.52-.62-.81A7.31,7.31,0,0,0,124.06,41a6.37,6.37,0,0,0-2,.29,2.27,2.27,0,0,0-1,.67,1.45,1.45,0,0,0-.39,1,1.19,1.19,0,0,0,1,1.16,15.25,15.25,0,0,0,2.2.34l1.67.18a12.45,12.45,0,0,1,2.41.46,5.41,5.41,0,0,1,1.63.81,3.66,3.66,0,0,1,1.15,1.44,4.4,4.4,0,0,1,.42,1.9,4.46,4.46,0,0,1-1,2.86,5.31,5.31,0,0,1-2.78,1.69,10.91,10.91,0,0,1-3,.41,12.31,12.31,0,0,1-5.7-1.45,2.54,2.54,0,0,0-.71-.29.91.91,0,0,0-.44.24l-.31-.16,1.58-3.74.31.16v.14a1.21,1.21,0,0,0,.46.92,5.58,5.58,0,0,0,2.14,1.12,8.68,8.68,0,0,0,2.75.47,5.44,5.44,0,0,0,2.42-.5,2.38,2.38,0,0,0,.88-.75,1.59,1.59,0,0,0,.33-1,1.11,1.11,0,0,0-.78-1.08,9.84,9.84,0,0,0-2.19-.42l-1.64-.18a19.67,19.67,0,0,1-2.34-.33,5.84,5.84,0,0,1-1.36-.52,3.55,3.55,0,0,1-1.52-1.5,4.19,4.19,0,0,1-.51-2.08A4.33,4.33,0,0,1,119,40.06a6.77,6.77,0,0,1,5-1.67,10.72,10.72,0,0,1,2.6.3,19.77,19.77,0,0,1,3,1.09,3.08,3.08,0,0,0,.75.25.85.85,0,0,0,.53-.25Z"/><path class="cls-1" d="M155,69.08a3.77,3.77,0,0,0-1.15-1.5,4.3,4.3,0,0,0-1.65-.76,11.07,11.07,0,0,0-2.52-.23h-9.08V67a1.18,1.18,0,0,1,.54.29.86.86,0,0,1,.14.53V80.66a.85.85,0,0,1-.14.52,1.18,1.18,0,0,1-.54.29v.35h4.54v-.35a1,1,0,0,1-.52-.29.74.74,0,0,1-.16-.52v-5h5.22a9.27,9.27,0,0,0,3.14-.42,3.7,3.7,0,0,0,1.81-1.41,4.71,4.71,0,0,0,.79-2.69,5,5,0,0,0-.42-2m-3.06,3.06a1.44,1.44,0,0,1-.59.67,4.51,4.51,0,0,1-2,.32h-4.85v-4h4.85a4.66,4.66,0,0,1,2,.32,1.47,1.47,0,0,1,.59.68,2.19,2.19,0,0,1,.24,1A2.25,2.25,0,0,1,151.89,72.14Z"/><path class="cls-2" d="M144,46.28a3.35,3.35,0,0,0,1.3-.05c.19,0,.48-.35.47-.52a1.16,1.16,0,0,0-.43-.66,1.26,1.26,0,0,0-.59-.2,2.75,2.75,0,0,1-2.41-2.58.68.68,0,0,1,.27-.54,3,3,0,0,1,3.62.64c.46.52.93,1,1.7.65s.62-1,.55-1.62a.64.64,0,0,0,0-.24,1.54,1.54,0,0,1,.52-1.64c.57-.51,1.21-.94,1.82-1.39,1.25,1.47,1.34,2.52.45,3.94a1.22,1.22,0,0,0-.23.49c0,.26,0,.71.07.76a1.09,1.09,0,0,0,.93,0,2.94,2.94,0,0,0,.88-1,2.78,2.78,0,0,1,3.34-1c-.29.46-.56.9-.91,1.48a2.88,2.88,0,0,1,3.16,1.31c-.85,1.12-1.76,2-3.43,1.19.2.5.33.8.46,1.11s.25.6.38.9c-1.34.46-1.79.33-2.58-.63a3.74,3.74,0,0,0-.67-.65c-.47-.32-1-.4-1.29.17s-.12,1,.41,1.23l1.47.77a3.69,3.69,0,0,1,1.9,3l-1.69-.43c.14.44.48,1,.38,1.37a14.48,14.48,0,0,1-1,2.47.47.47,0,0,1-.39.13c-1.27-.41-2.77-.53-3-2.29-.3.51-.6,1-.91,1.54a3.37,3.37,0,0,1-.8-3.58c.16-.53.35-1,.48-1.58a.78.78,0,0,0-.59-1,.76.76,0,0,0-1,.63,3.06,3.06,0,0,0-.07,1.09c.15,1.21-.1,1.68-1.35,2.3l-.39-.93c-.12-.3-.25-.6-.4-1-1,1.47-2,1.85-3.33,1.38a2.91,2.91,0,0,1,1.28-3.08l-1.71-.4A2.85,2.85,0,0,1,144,46.28m7.72,6.22.27-.11-3.3-7.93c2.74.7,5.33.06,8-.17-2.63-.12-5.28.73-8-.15a5.53,5.53,0,0,0,1.54-3.63l-.12.44a7.27,7.27,0,0,1-.25.83c-1.13,2.82-2.4,2.85-5,1.35a5.12,5.12,0,0,1-.64-.53c.56,1,1.27,1.36,4,1.81-1.18,2.19-3.31,3.42-4.92,5.13l.2.2,5.12-5C150.13,47,150.58,49.89,151.7,52.5Z"/><polygon class="cls-2" points="131.84 79.39 129.21 77.97 129.14 80.95 127.7 78.34 126.03 80.81 126.23 77.84 123.49 79.01 125.26 76.61 122.32 76.12 125.11 75.06 122.91 73.05 125.82 73.68 125.05 70.8 127.17 72.89 128.08 70.06 128.73 72.97 131.03 71.07 130 73.87 132.96 73.52 130.58 75.31 133.26 76.62 130.29 76.84 131.84 79.39"/><path class="cls-2" d="M148.93,7.74a3.11,3.11,0,0,0-3.07,1.15,2.38,2.38,0,0,0,2.42,1c-4.61,4.13-9.4-.14-9.4-.14a6,6,0,0,0,5-1c-1.92-3-5.47-1.76-5.47-1.76,1.8-4.09-1.81-7-1.81-7s-3.6,2.92-1.8,7c0,0-3.55-1.22-5.48,1.76a6,6,0,0,0,5,1s-4.8,4.27-9.41.14a2.37,2.37,0,0,0,2.42-1,3.08,3.08,0,0,0-3.06-1.15s-1.08-3.94-4.58-4.33a37.16,37.16,0,0,1,3.47,10.8l.12,0a1.05,1.05,0,0,1,.15,2.09c.1,1,.11,6.33.11,7.35a37.75,37.75,0,0,1,13.09-2.74,38,38,0,0,1,13.12,2.74c0-1,0-6.38.08-7.35a1.05,1.05,0,0,1,.16-2.09l.11,0a37.34,37.34,0,0,1,3.48-10.8c-3.51.39-4.58,4.33-4.58,4.33"/></g></g></svg>