<svg xmlns="http://www.w3.org/2000/svg" viewBox="0 0 58.86 38.69"><defs><style>.cls-1{fill:#6e6864;}.cls-2{fill:none;stroke:#6e6864;stroke-miterlimit:10;stroke-width:1.4px;}</style></defs><g id="Capa_2" data-name="Capa 2"><g id="Capa_1-2" data-name="Capa 1"><path class="cls-1" d="M10.32,23.54V8.63h6.17a3.91,3.91,0,0,1,1.78.4,4.45,4.45,0,0,1,1.39,1.08,5.75,5.75,0,0,1,.93,1.51,4.58,4.58,0,0,1,.33,1.69,5.18,5.18,0,0,1-.53,2.3,4.59,4.59,0,0,1-1.5,1.76,3.89,3.89,0,0,1-2.27.67H11.79v5.5Zm1.47-6.8h4.77a2.48,2.48,0,0,0,1.53-.49,3.23,3.23,0,0,0,1-1.26,4,4,0,0,0,.35-1.68,3.54,3.54,0,0,0-.42-1.7,3.44,3.44,0,0,0-1.1-1.23,2.69,2.69,0,0,0-1.5-.45H11.79Z"/><path class="cls-1" d="M29.39,23.65A6.36,6.36,0,0,1,26.53,23a6.85,6.85,0,0,1-2.21-1.71,8.42,8.42,0,0,1-1.43-2.44,8,8,0,0,1-.5-2.78,7.8,7.8,0,0,1,.53-2.85,7.64,7.64,0,0,1,1.48-2.41,7.05,7.05,0,0,1,2.23-1.68,6.22,6.22,0,0,1,2.78-.62,6.1,6.1,0,0,1,2.85.65,6.79,6.79,0,0,1,2.2,1.74,8.36,8.36,0,0,1,1.41,2.44,7.66,7.66,0,0,1,.51,2.75,8,8,0,0,1-2,5.26A7.14,7.14,0,0,1,32.16,23,6.48,6.48,0,0,1,29.39,23.65Zm-5.53-7.56a6.85,6.85,0,0,0,.4,2.34,6.39,6.39,0,0,0,1.13,2,5.65,5.65,0,0,0,1.76,1.39,4.92,4.92,0,0,0,2.24.51,4.8,4.8,0,0,0,2.29-.53,5.76,5.76,0,0,0,1.75-1.43,6.33,6.33,0,0,0,1.1-2,6.95,6.95,0,0,0,0-4.59,6.41,6.41,0,0,0-1.15-2,5.47,5.47,0,0,0-1.75-1.39,5.17,5.17,0,0,0-4.5,0,5.56,5.56,0,0,0-1.75,1.41,6.91,6.91,0,0,0-1.5,4.28Z"/><path class="cls-1" d="M39.15,23.54V8.63h6.3a3.83,3.83,0,0,1,1.76.4,4.74,4.74,0,0,1,1.4,1.08,5,5,0,0,1,.92,1.51,4.58,4.58,0,0,1,.33,1.69,5.07,5.07,0,0,1-.41,2,4.52,4.52,0,0,1-1.15,1.6,3.88,3.88,0,0,1-1.76.86l3.66,5.75H48.54L45,18H40.62v5.5Zm1.47-6.8h4.87A2.44,2.44,0,0,0,47,16.25,3.11,3.11,0,0,0,48,15a4,4,0,0,0,.36-1.67A3.49,3.49,0,0,0,48,11.65a3.37,3.37,0,0,0-1.09-1.24,2.61,2.61,0,0,0-1.52-.48H40.62Z"/><path class="cls-2" d="M53,31.49H18.76l-8.94,5.9v-5.9H5.91A5.21,5.21,0,0,1,.7,26.28V5.91A5.21,5.21,0,0,1,5.91.7H53a5.21,5.21,0,0,1,5.21,5.21V26.28A5.21,5.21,0,0,1,53,31.49Z"/></g></g></svg>